<svg width="374" height="314" viewBox="0 0 374 314" fill="none" xmlns="http://www.w3.org/2000/svg">
<g id="head-hair">
<g id="Head">
<path id="Vector" d="M127.7 146.55C127.7 143.05 129.3 140.95 132.9 140.55C133.5 140.25 134.2 139.95 134.8 139.65C136.6 139.25 138 138.35 138.8 136.65C140 136.15 141.3 135.75 142.4 135.05C172.5 116.95 203.6 116.45 235.4 129.85C236.7 130.35 238.2 132.35 239.5 129.65C241.3 131.75 242.7 134.45 246 134.75C246.2 135.75 246.6 136.55 247.8 136.65C248.2 137.45 248.9 137.75 249.8 137.65C253.2 143.15 257.7 147.65 262.8 151.45C263.6 152.95 264.5 154.45 265.3 156.05C265.9 158.55 265.7 161.45 267.9 163.35C266.7 165.05 268.1 166.45 268.5 167.95C270.5 174.85 273 181.55 274.6 188.45C283.1 223.95 278.6 259.95 277.9 295.85C277.9 299.15 275.9 300.85 272.8 300.55C265.8 299.95 259.4 301.95 252.9 303.95C249.9 304.95 246.7 305.45 243.8 303.25C247.4 300.15 252.1 300.95 256.3 299.65C259.4 298.75 260.9 297.45 260.4 294.15C261.1 293.15 262.1 292.25 260.9 290.95C262.3 284.85 260.7 278.25 263.6 272.25L265.7 270.15C266.7 269.85 267.3 269.25 267.3 268.15C274.9 256.35 275.5 243.45 273.5 230.15C273.1 227.25 272.8 224.15 270 222.25C269 219.35 268.2 216.15 263.9 217.35C262.1 212.65 262.1 207.65 261.8 202.65C260.6 179.65 248.3 162.95 225.3 156.65C209 152.15 192.4 151.65 175.8 152.65C164.6 153.25 153.5 156.15 143.8 161.55C126.7 170.95 116.5 186.05 113.3 205.45C112.7 209.05 111.3 212.95 113.6 216.55C113.6 216.75 113.6 216.95 113.6 217.15C112.4 218.35 111.6 219.65 111.9 221.45C110.6 221.45 109.9 222.45 109.2 223.35C101.3 234.05 100.8 254.55 108.2 265.45C109.1 266.85 110.1 268.25 112 268.35C112 269.05 112 269.75 111.9 270.45C111.1 276.15 111.9 281.85 111.6 287.55C111.5 289.65 109.6 292.25 111.6 294.45C111.7 294.75 111.8 295.05 111.9 295.35C114.2 300.05 121.1 303.15 125.9 301.65C128.2 302.05 130.6 302.55 132.9 302.95C132.5 305.85 130.3 304.65 128.6 304.75C119.7 305.35 111.3 301.85 102.6 300.75C95.2 299.85 94 297.65 94.3 290.25C94.9 274.15 95.3 257.95 96.9 241.85C99.9 211.05 106.3 181.25 123.9 154.95C125.2 153.05 127.5 151.35 126.8 148.35C128.3 148.85 128.7 147.65 129.3 146.75C129.3 146.45 129.3 146.05 129.3 145.75L128.6 146.15C128.3 146.15 128.1 146.25 127.8 146.35L127.7 146.55Z" fill="#63655E"/>
<path id="Vector_2" d="M267.8 164.15C265.6 162.15 265.8 159.35 265.2 156.85C267.6 158.25 268.7 160.45 270 162.85C278.9 178.75 280.4 196.35 282.8 213.85C283 214.95 283.3 216.05 283.6 217.15C283.7 227.85 283.8 238.45 283.9 249.15C283.9 250.35 283.9 251.55 283.9 252.75C283.7 264.85 283.7 276.85 283.4 288.95C283.4 292.15 284.6 293.55 287.6 293.75C288.6 295.05 289.9 295.65 291.5 295.55C291.5 296.55 291.5 297.65 291.6 298.65C288.5 298.85 286.6 295.45 283.4 295.65C282.3 297.05 284 299.35 281.8 300.55C281 299.85 281.1 298.85 281 297.85C280.3 292.25 281.6 286.65 281.5 281.05C281.2 260.95 283.1 240.95 281.1 220.85C280.1 211.25 279.8 201.65 277.7 192.25C275.6 182.55 273.3 172.85 267.9 164.25L267.8 164.15Z" fill="#393B36"/>
<path id="Vector_3" d="M82.3 293.85C82.1 293.85 81.9 293.85 81.8 293.65C82.4 293.25 83 292.75 83.6 292.35C84 292.35 84.4 292.15 84.8 292.05C85.2 291.75 85.6 291.55 85.9 291.25C89.3 290.55 89.6 287.85 89.8 285.15C91.1 265.95 91.3 246.65 93.8 227.45C95.6 213.15 96.8 198.65 102.7 185.25C103.9 182.55 102.7 178.65 106.4 177.05C106.7 177.25 107 177.55 107.3 177.75C104.5 186.05 101.3 194.35 99.5 202.95C93.7 231.25 92.9 260.05 92.4 288.85C92.4 290.75 93.4 292.85 91.4 294.45C91.2 294.45 91 294.45 90.7 294.45C87.9 291.75 85.5 294.85 83 295.15L82.2 293.95L82.3 293.85Z" fill="#393B36"/>
<path id="Vector_4" d="M239.4 130.35C238.2 133.05 236.6 131.05 235.3 130.55C203.4 117.25 172.4 117.65 142.3 135.75C141.2 136.45 139.9 136.85 138.7 137.35C140.1 133.95 143.4 132.65 146.2 131.15C174.9 116.05 204.2 115.75 233.9 127.95C235.7 128.75 237.6 129.55 239.4 130.35Z" fill="#393B36"/>
<path id="Vector_5" d="M80.4 293.75C69.9 293.75 59.5 293.85 49 293.95C47.5 293.95 46.1 293.45 45.2 292.05C51.3 290.75 57.4 291.65 63.6 291.45C66.6 291.35 69.5 291.45 72.4 290.45C75.7 289.45 78.5 290.95 80.4 293.85V293.75Z" fill="#52686B"/>
<path id="Vector_6" d="M287.6 293.55C284.6 293.45 283.3 291.95 283.4 288.75C283.7 276.75 283.8 264.65 283.9 252.55C285.5 262.25 284.4 272.05 284.5 281.75C284.5 285.95 284.8 289.95 287.6 293.45V293.55Z" fill="#52686B"/>
<path id="Vector_7" d="M115.5 160.25C117.4 156.45 119.2 152.65 121.3 148.95C122.6 146.55 125.1 147.55 127.2 147.55C127 148.15 126.8 148.65 126.7 149.25C122.1 152.15 120 157.05 116.6 160.95C116.3 160.65 116 160.45 115.7 160.15L115.5 160.25Z" fill="#393B36"/>
<path id="Vector_8" d="M262.6 152.25C257.5 148.35 253 143.95 249.6 138.45C256 141.15 259.2 146.75 262.6 152.25Z" fill="#393B36"/>
<path id="Vector_9" d="M106.5 177.15C108.5 170.95 111.2 165.15 115.6 160.25C115.9 160.55 116.2 160.75 116.5 161.05C113.5 166.65 110.5 172.25 107.4 177.95C107.1 177.75 106.8 177.45 106.5 177.25V177.15Z" fill="#393B36"/>
<path id="Vector_10" d="M283.9 249.05C283.8 238.35 283.7 227.75 283.6 217.05C285.4 227.65 284.9 238.35 283.9 249.05Z" fill="#52686B"/>
<path id="Vector_11" d="M138.7 137.35C137.9 139.05 136.5 139.95 134.7 140.35C135.2 138.15 136.6 137.25 138.7 137.35Z" fill="#393B36"/>
<path id="Vector_12" d="M247.6 137.35C246.5 137.15 246.1 136.35 245.8 135.45C246.7 135.85 247.4 136.35 247.6 137.35Z" fill="#393B36"/>
<path id="Vector_13" d="M126.6 149.25C126.8 148.65 127 148.15 127.1 147.55C127.3 147.55 127.5 147.45 127.6 147.25C127.9 147.25 128.1 147.25 128.4 147.05C128.6 147.25 128.9 147.45 129.1 147.65C128.5 148.55 128.1 149.75 126.6 149.15V149.25Z" fill="#90B67B"/>
<path id="Vector_14" d="M249.6 138.35C248.7 138.35 248.1 138.15 247.6 137.35C248.3 137.65 248.9 138.05 249.6 138.35Z" fill="#393B36"/>
<path id="Vector_15" d="M86 291.35C85.6 291.65 85.2 291.85 84.9 292.15C85.3 291.85 85.7 291.65 86 291.35Z" fill="#52686B"/>
<path id="Vector_16" d="M267.8 164.15C273.2 172.75 275.5 182.45 277.6 192.15C279.7 201.55 280 211.15 281 220.75C283 240.85 281.1 260.85 281.4 280.95C281.4 286.55 280.2 292.15 280.9 297.75C281 298.75 280.9 299.65 281.7 300.45C283.9 299.25 282.2 296.95 283.3 295.55C286.5 295.35 288.4 298.65 291.5 298.55V298.45C291.2 300.15 292.7 300.75 293.6 301.75C294.2 301.85 294.7 301.95 295.3 302.05C295.8 303.35 298 304.65 296.3 305.85C294.7 306.95 292.5 307.95 290.2 307.15C284.7 305.15 279.2 304.75 273.6 307.15C272.7 307.55 271.6 307.85 270.7 307.55C262.3 305.35 254.3 309.75 246.1 309.05C244 308.85 241.8 309.55 240 307.75C239.6 307.35 238.7 307.15 238.2 307.35C230.5 310.05 222.6 308.85 214.8 308.95C206.7 308.95 198 306.25 190.9 312.95C189.6 314.15 188.5 313.55 187.7 312.15C189 309.85 192.3 308.95 192 305.65C193.6 301.75 193.5 297.55 193.8 293.45C194.3 293.45 194.8 293.45 195.4 293.45C195.4 296.15 195.4 298.85 195.4 301.65C194.5 307.35 194.4 307.25 199.5 306.15C201.6 305.75 203.8 305.65 205.9 305.75C217.5 306.15 229 304.05 240.6 304.25H243.7C246.5 306.65 249.7 306.05 252.7 305.05C259.2 302.95 265.7 301.05 272.6 301.65C275.7 301.95 277.6 300.25 277.7 296.95C278.4 261.05 282.9 225.15 274.4 189.55C272.7 182.65 270.3 175.85 268.3 169.05C267.9 167.55 266.4 166.15 267.7 164.45L267.8 164.15Z" fill="#90B67B"/>
<path id="Vector_17" d="M92.6 302.15C92.2 299.65 91.9 297.05 91.5 294.55C93.5 293.05 92.5 290.85 92.5 288.95C93 260.15 93.8 231.45 99.6 203.05C101.4 194.35 104.6 186.15 107.4 177.85C110.4 172.25 113.4 166.65 116.5 160.95C119.9 157.05 122.1 152.15 126.6 149.25C127.4 152.15 125 153.85 123.7 155.85C106.2 182.15 99.8 211.95 96.7 242.75C95.1 258.85 94.7 275.05 94.1 291.15C93.8 298.55 95.1 300.75 102.4 301.65C111.1 302.75 119.4 306.25 128.4 305.65C130.1 305.55 132.2 306.75 132.7 303.85C134.2 304.35 135.7 304.15 137.3 303.85V304.15C139.2 306.75 140.5 304.95 141.8 303.75C143.4 303.55 145.1 303.35 146.7 303.15C146.7 303.75 146.7 304.45 146.7 305.05C140.7 310.25 133.9 309.95 126.8 308.15C126.3 308.05 125.8 307.75 125.4 307.85C118.3 309.35 111.5 306.25 104.4 306.15C100.4 306.15 95.5 306.35 92.6 302.15Z" fill="#90B67B"/>
<path id="Vector_18" d="M175.6 310.25C175.7 309.55 175.8 308.85 175.9 308.25C176.8 307.55 177 306.65 176.7 305.65C176.8 298.15 176.9 290.55 177.1 283.05C177.1 281.35 176.7 279.35 178.7 278.25C178.7 280.35 178.7 282.55 178.7 284.65C178.7 292.05 178 299.55 180.8 306.65C180.6 308.85 182.5 309.75 183.5 311.25C180.8 310.85 177.9 312.25 175.5 310.25H175.6Z" fill="#90B67B"/>
<path id="Vector_19" d="M113.4 216.75C111.1 213.15 112.5 209.25 113.1 205.65C116.3 186.25 126.5 171.25 143.6 161.75C153.4 156.35 164.5 153.45 175.6 152.85C192.2 151.95 208.8 152.35 225.1 156.85C248.1 163.15 260.4 179.85 261.6 202.85C261.9 207.85 261.9 212.85 263.7 217.55C263.9 219.35 264.1 221.15 264.2 222.95C262.4 224.25 262.6 226.15 262.7 227.95C262.9 232.45 263.2 236.85 263.4 241.35C262.1 241.35 260.8 241.35 259.5 241.35C258.7 239.75 257.2 239.55 255.7 239.55C251.5 239.65 247.4 239.85 243.3 239.95C228.2 240.45 213.1 240.95 198 241.45C196.1 241.45 194.1 241.35 194.3 238.65C195.5 225.65 197.9 216.25 213.8 212.25C224.3 209.65 234.7 207.05 245.2 204.35C249.1 203.35 250.2 201.85 249.9 198.65C249.9 198.25 249.8 197.85 249.7 197.45C251 195.05 249.2 194.85 247.6 194.55H247.7C244.4 192.65 240.9 193.55 237.5 194.25C229.9 195.85 222.2 197.45 214.6 199.15C200 202.45 185.6 203.95 170.7 200.15C159.3 197.25 147.6 195.55 136 193.35C133.9 192.95 131.7 192.55 130 194.55C129.5 194.95 128.9 195.25 128.4 195.65C125.4 199.55 126.3 202.95 130.8 204.05C139.8 206.25 149 207.85 157.9 210.45C171.2 214.35 179.7 221.65 180.2 236.05C180.4 240.45 178.8 241.95 174.4 241.85C165.3 241.55 156.1 241.75 147 241.75C135.4 241.25 123.9 240.85 112.3 240.35C112.3 239.05 112.3 237.95 110.9 237.25C110.5 232.25 112.3 227.75 114.1 223.25C115.1 220.65 117.4 218.55 117.2 215.45C114.8 211.95 114.3 215.75 113 216.55L113.4 216.75Z" fill="#4C4F48"/>
<path id="Vector_20" d="M147.4 241.85C156.5 241.85 165.7 241.75 174.8 241.95C179.2 242.05 180.7 240.55 180.6 236.15C180 221.75 171.6 214.45 158.3 210.55C149.4 207.95 140.2 206.35 131.2 204.15C126.7 203.05 125.8 199.65 128.8 195.75C129.2 196.85 130.3 198.05 128.8 199.15C128.8 199.85 129 200.45 129.8 200.65C130.5 201.95 131.8 202.35 133.1 202.65C143.3 205.15 153.4 207.85 163.7 209.55C173.6 211.25 183.3 214.85 193.7 213.45C211 211.15 227.9 207.05 244.6 201.95C246.7 201.35 248.7 200.65 250 198.65C250.3 201.85 249.3 203.35 245.3 204.35C234.8 207.05 224.4 209.65 213.9 212.25C198 216.25 195.7 225.65 194.4 238.65C194.1 241.35 196.1 241.55 198.1 241.45C213.2 240.95 228.3 240.45 243.4 239.95C247.5 239.85 251.7 239.65 255.8 239.55C257.3 239.55 258.8 239.65 259.6 241.35C239.4 242.05 219.1 242.85 198.9 243.35C194.4 243.45 193.9 245.15 194.3 249.15C194.9 254.75 197.8 259.45 199.7 264.55C200.1 265.25 200.4 266.05 200.8 266.75C201.2 266.95 201.5 267.35 201.9 267.75C200.8 272.45 204.5 271.35 206.9 271.75H206.8C207.3 272.05 207.9 272.45 208.4 272.85C209.9 273.55 211.4 274.25 212.8 274.95C224.4 280.45 236.5 281.65 248.9 278.05C263.6 273.55 271.8 262.35 272.8 246.05C273.1 241.85 271.9 240.25 267.8 240.85C267.8 240.45 267.8 240.05 267.8 239.65C272 240.05 273.2 238.45 272.4 234.15C271.7 230.25 269.8 226.65 270 222.65C272.9 224.55 273.1 227.65 273.5 230.55C275.5 243.85 274.9 256.75 267.3 268.55C266.8 269.25 266.2 269.85 265.7 270.55C265 271.25 264.3 271.95 263.6 272.65C262.1 273.05 261 273.95 259.9 275.15C251.4 284.35 240.7 288.45 228.4 288.65C223.6 288.65 218.9 287.65 214.1 287.25C208.4 286.75 206.2 288.65 205.7 294.25C205.2 300.15 202.9 301.15 197.5 297.65C197.5 295.65 197.7 293.65 197.2 291.75C196.2 287.55 197.9 282.85 194.9 279.05C191.5 275.75 191 278.85 190.8 281.15C190.5 286.15 190.7 291.05 190.6 296.05C190.6 298.45 190.2 300.95 187.1 301.05C184.1 301.15 182.5 299.35 182.2 296.55C181.9 292.55 181.9 288.65 181.6 284.65C181.4 282.05 181.8 279.05 178.8 277.55C176.8 278.65 177.2 280.65 177.2 282.35C177 289.85 176.9 297.45 176.8 304.95C176.5 304.95 176.1 304.95 175.8 305.05C175.7 304.95 175.5 304.75 175.4 304.65C175.1 302.05 173.6 300.75 171.1 300.75C167.6 300.75 166.8 298.65 166.6 295.55C166.3 289.05 164.9 287.85 158.5 287.65C151.9 287.45 145.2 288.35 138.7 286.55C135.2 285.55 131 285.25 129.6 280.75C134.4 281.95 139.4 282.65 144.4 282.85C152.8 283.15 161 282.35 167.7 276.45C169.9 275.85 171.2 274.25 171.8 272.05C177.4 265.15 180.1 257.05 180.9 248.25C181.2 244.85 180.2 243.55 176.5 243.65C166.9 243.75 157.3 243.45 147.7 243.25C147.7 242.75 147.7 242.25 147.6 241.75L147.4 241.85Z" fill="#393B36"/>
<path id="Vector_21" d="M129.6 281.45C131 285.95 135.1 286.25 138.7 287.25C145.2 288.95 151.9 288.15 158.5 288.35C165 288.55 166.3 289.75 166.6 296.25C166.7 299.35 167.5 301.45 171.1 301.45C173.6 301.45 175.1 302.75 175.4 305.35C168.5 305.55 162.9 301.55 156.7 299.35C157.2 298.65 158.4 298.35 158.3 296.85C155.9 297.35 153.4 297.85 151 298.35C144.2 298.75 137.6 299.85 130.9 301.15C125.8 301.35 121.7 298.75 117.3 296.65C115.5 295.75 113.7 293.95 111.3 295.45C109.2 293.25 111.1 290.65 111.3 288.55C111.6 282.85 110.8 277.15 111.6 271.45C111.9 271.45 112.1 271.55 112.4 271.65C113.1 272.35 113.8 272.95 114.5 273.65C115.1 274.05 115.8 274.35 116.4 274.75C117.8 277.45 120.5 278.35 123.1 279.25C125.3 280.05 127.4 280.85 129.6 281.65V281.45Z" fill="#4C4F48"/>
<path id="Vector_22" d="M197.5 297.45C202.8 300.95 205.2 299.95 205.7 294.05C206.2 288.45 208.4 286.55 214.1 287.05C218.9 287.45 223.7 288.55 228.4 288.45C240.6 288.25 251.4 284.15 259.9 274.95C260.9 273.85 262.1 272.95 263.6 272.45C260.8 278.35 262.3 284.95 260.9 291.15C260.9 292.25 256.5 292.65 260.4 294.35C260.9 297.55 259.4 298.85 256.3 299.85C252.2 301.15 247.4 300.35 243.8 303.45C242.8 303.45 241.7 303.45 240.7 303.35C240.7 302.55 240.7 301.65 240.6 300.85C245.8 299.35 251.7 300.15 255.9 295.85C256.1 295.35 255.9 295.25 255.5 295.45C254.7 295.55 253.8 295.45 253.1 295.85C240.2 300.65 227.8 299.05 215.7 293.05C215 292.65 214.2 292.25 213.2 293.25C214.9 296.45 217.3 298.45 221.1 298.75C224.1 299.05 227 299.65 229.9 300.05C226 303.35 221.6 300.65 217.4 301.05C210.7 301.75 204 301.85 197.2 302.15C197.3 300.55 197.4 299.05 197.5 297.45Z" fill="#4C4F48"/>
<path id="Vector_23" d="M269.8 223.25C269.6 227.25 271.5 230.85 272.2 234.75C272.9 239.05 271.8 240.65 267.6 240.25C267.3 239.55 266.9 238.95 266.6 238.35C266.6 237.15 266.8 235.85 265.7 234.85C266.3 234.25 266.3 233.55 265.7 232.95C265.7 231.75 265.7 230.55 265.7 229.35C265.8 227.35 265.5 225.55 264.4 223.85C264.2 222.05 264 220.25 263.9 218.45C268.2 217.25 269 220.45 270 223.35L269.8 223.25Z" fill="#90B67B"/>
<path id="Vector_24" d="M111.3 238.05C112.6 238.65 112.8 239.85 112.7 241.15C112.3 241.55 111.9 242.05 111.5 242.45C111.2 242.65 110.9 242.75 110.6 242.95C104.6 242.15 104.4 242.35 104.5 248.35C104.5 256.15 107.3 262.95 111.8 269.15C109.9 269.15 108.9 267.65 108 266.35C100.7 255.45 101.2 234.95 109 224.25C109.7 223.35 110.4 222.35 111.7 222.35C109.4 226.95 106.7 231.35 105.8 236.45C105.5 237.95 103.6 240.15 106.5 240.95C108.8 241.65 110.8 240.95 111.2 238.05H111.3Z" fill="#393B36"/>
<path id="Vector_25" d="M113.4 217.45C114.7 216.65 115.2 212.85 117.6 216.35C116.6 217.25 115.5 218.05 114.5 218.95C114.1 218.65 113.8 218.35 113.4 218.05C113.4 217.85 113.4 217.65 113.4 217.45Z" fill="#393B36"/>
<path id="Vector_26" d="M260.3 295.05C256.4 293.35 260.7 292.95 260.8 291.85C262 293.15 261 294.05 260.3 295.05Z" fill="#393B36"/>
<path id="Vector_27" d="M111.8 222.35C111.4 220.55 112.3 219.25 113.5 218.05C113.9 218.35 114.2 218.65 114.6 218.95C113.7 220.15 112.8 221.25 111.9 222.45L111.8 222.35Z" fill="#393B36"/>
<path id="Vector_28" d="M265.6 271.15C266.1 270.45 266.7 269.85 267.2 269.15C267.2 270.25 266.6 270.85 265.6 271.15Z" fill="#4C4F48"/>
<path id="Vector_29" d="M112.4 271.55C112.1 271.55 111.9 271.45 111.6 271.35C111.6 270.65 111.6 269.95 111.7 269.25C112.2 269.75 112.7 270.25 113.2 270.75C112.9 271.05 112.6 271.35 112.4 271.65V271.55Z" fill="#393B36"/>
<path id="Vector_30" d="M128.4 147.05L129.1 146.65C129.1 146.95 129.1 147.35 129.1 147.65C128.9 147.45 128.6 147.25 128.4 147.05Z" fill="#90B67B"/>
<path id="Vector_31" d="M178.7 278.15C181.8 279.65 181.3 282.65 181.5 285.25C181.8 289.25 181.8 293.15 182.1 297.15C182.3 299.95 184 301.85 187 301.65C190.2 301.55 190.5 299.05 190.5 296.65C190.6 291.65 190.5 286.65 190.7 281.75C190.8 279.45 191.4 276.45 194.8 279.65C194.8 279.85 194.8 280.15 194.6 280.35C192.8 284.55 193.8 288.95 193.8 293.25C193.5 297.35 193.6 301.45 192 305.45C188.4 306.85 184.8 307.95 180.9 306.65C178.1 299.55 178.8 292.05 178.8 284.65C178.8 282.55 178.8 280.35 178.8 278.25L178.7 278.15Z" fill="#4C4F48"/>
<path id="Vector_32" d="M197.1 302.85C194.8 304.45 196.2 301.55 195.3 301.45C195.3 298.75 195.3 296.05 195.3 293.25C195.6 288.85 196 284.55 194.6 280.25C194.7 280.05 194.8 279.85 194.8 279.55C197.9 283.35 196.2 288.05 197.1 292.25C197.5 294.15 197.3 296.15 197.4 298.15C197.3 299.75 197.2 301.25 197.1 302.85Z" fill="#091B08"/>
<path id="Vector_33" d="M194.7 280.25C196.2 284.55 195.7 288.85 195.4 293.25C194.9 293.25 194.4 293.25 193.8 293.25C193.8 288.95 192.8 284.55 194.6 280.35L194.7 280.25Z" fill="#767675"/>
<path id="Vector_34" d="M199.7 265.15C197.8 260.05 194.9 255.35 194.3 249.75C193.8 245.75 194.3 244.15 198.9 243.95C219.1 243.45 239.4 242.65 259.6 241.95C260.9 241.95 262.2 241.95 263.5 241.95C264.3 242.45 264.3 243.15 264.2 244.05C263.3 251.65 262.9 259.25 259.6 266.35C256.8 271.15 251.5 273.65 248.7 278.35C236.3 281.95 224.3 280.75 212.6 275.25C211.1 274.55 209.6 273.85 208.2 273.15C207.7 272.75 207.1 272.45 206.6 272.05H206.7C205.2 270.45 204 268.55 201.7 267.95C201.7 267.15 201.4 266.85 200.6 266.85V266.95C200.9 265.95 200.3 265.35 199.5 264.75L199.7 265.15ZM234.6 250.75C233.5 250.85 232.2 250.75 232.5 252.55C232.8 254.35 233.9 255.05 235.6 255.05C237.2 255.05 237.5 253.85 237.4 252.65C237.4 250.85 236.1 250.55 234.6 250.75Z" fill="#767675"/>
<path id="Vector_35" d="M128.6 199.05C130.1 197.95 129.1 196.85 128.6 195.65C129.1 195.25 129.7 194.95 130.2 194.55C132.8 194.55 135.5 194.25 138.1 194.85C148.5 197.05 159 198.85 169.3 201.25C182.6 204.35 195.7 204.55 209.2 201.75C222 199.15 234.6 195.15 247.8 194.55H247.7C248.1 195.35 248.5 196.25 248.8 197.15C245.4 200.85 240.5 200.85 236.1 201.95C222.6 205.35 209.1 208.95 195.3 210.55C186.5 211.65 178 207.95 169.2 208.55C167.3 209.05 165.4 208.35 163.6 208.05C152.3 205.55 141 203.05 129.8 200.55C129.5 200.05 129.2 199.55 128.8 199.05H128.6Z" fill="#44575C"/>
<path id="Vector_36" d="M195.2 211.35C209.1 209.85 222.6 206.25 236 202.75C240.4 201.65 245.2 201.55 248.7 197.95C249 197.95 249.4 197.95 249.6 198.15C249.6 198.55 249.7 198.95 249.8 199.35C248.5 201.25 246.5 201.95 244.4 202.65C227.7 207.75 210.8 211.85 193.5 214.15C183.2 215.55 173.5 212.05 163.5 210.25C163.5 209.75 163.5 209.25 163.5 208.85C165.4 209.15 167.2 209.85 169.1 209.35C177.7 211.55 186.2 214.65 195.2 211.35Z" fill="#90B67B"/>
<path id="Vector_37" d="M247.7 195.35C234.5 195.95 221.9 199.85 209.1 202.55C195.6 205.35 182.5 205.15 169.2 202.05C158.9 199.65 148.4 197.85 138 195.65C135.3 195.05 132.7 195.35 130.1 195.35C131.8 193.35 133.9 193.75 136.1 194.15C147.7 196.35 159.4 198.15 170.8 200.95C185.6 204.65 200.1 203.15 214.7 199.95C222.3 198.25 229.9 196.55 237.6 195.05C241 194.35 244.4 193.45 247.8 195.35H247.7Z" fill="#091B08"/>
<path id="Vector_38" d="M259.6 266.55C262.9 259.45 263.3 251.75 264.2 244.25C264.3 243.35 264.3 242.65 263.5 242.15C263.3 237.65 263 233.25 262.8 228.75C262.8 226.95 262.5 225.05 264.3 223.75C265.5 225.45 265.8 227.25 265.6 229.25C264.9 230.45 265.1 231.65 265.6 232.85C266.1 233.45 266.2 234.15 265.6 234.75C265.9 235.95 266.2 237.05 266.5 238.25C266.8 238.85 267.2 239.55 267.5 240.15C267.5 240.55 267.5 240.95 267.5 241.35C266.4 243.85 266.8 246.55 266.5 249.15C265.7 255.55 264.6 261.85 259.5 266.55H259.6Z" fill="#63655E"/>
<path id="Vector_39" d="M111.8 222.45C112.7 221.25 113.6 220.15 114.5 218.95C115.5 218.05 116.6 217.25 117.6 216.35C117.8 219.45 115.5 221.55 114.5 224.15C112.7 228.65 110.9 233.15 111.3 238.15C110.9 240.95 108.9 241.65 106.6 241.05C103.7 240.25 105.7 238.05 105.9 236.55C106.8 231.45 109.5 227.05 111.8 222.55V222.45Z" fill="#90B67B"/>
<path id="Vector_40" d="M111.6 242.45C112 242.05 112.4 241.55 112.8 241.15C124.4 241.65 135.9 242.05 147.5 242.55C147.5 243.05 147.5 243.55 147.6 244.05C135.6 244.35 123.7 241.55 111.6 242.45Z" fill="#091B08"/>
<path id="Vector_41" d="M249.7 198.15C249.4 197.95 249.1 197.85 248.8 197.95C248.4 197.05 248 196.15 247.7 195.25C249.3 195.55 251.1 195.75 249.8 198.15H249.7Z" fill="#091B08"/>
<path id="Vector_42" d="M111.6 242.45C123.7 241.55 135.5 244.35 147.6 244.05C157.2 244.25 166.8 244.55 176.4 244.45C180.1 244.45 181.1 245.75 180.8 249.05C180 257.85 177.3 265.85 171.7 272.85C170.4 274.35 168.2 275.05 167.6 277.25C164.5 277.25 162.2 279.55 159.3 280.45C147.1 284.25 135.4 281.75 123.6 278.25C123.6 277.95 123.4 277.75 123.3 277.55C124.1 276.95 123.7 276.15 123.4 275.45C124.5 273.15 122.2 273.95 121.4 273.35C119.8 267.15 117.4 261.35 111.9 257.35C111.1 255.15 110.9 252.75 111.2 250.45C111 248.55 110.8 246.75 110.7 244.85C110.7 244.25 110.5 243.65 110.4 243.05L111.3 242.55L111.6 242.45ZM142.6 256.05C144.4 256.05 144.9 254.95 145 253.55C145.2 251.75 143.7 252.05 142.6 251.95C141 251.85 140.1 252.55 140.3 254.25C140.4 255.65 141.2 256.25 142.6 256.05Z" fill="#767675"/>
<path id="Vector_43" d="M259.6 266.55C264.6 261.85 265.8 255.55 266.6 249.15C266.9 246.55 266.5 243.85 267.6 241.35C271.7 240.75 272.9 242.45 272.6 246.55C271.6 262.85 263.4 274.05 248.7 278.55C251.6 273.85 256.8 271.35 259.6 266.55Z" fill="#90B67B"/>
<path id="Vector_44" d="M123.8 278.25C135.5 281.75 147.3 284.25 159.5 280.45C162.3 279.55 164.6 277.35 167.8 277.25C161.1 283.15 152.9 283.95 144.5 283.65C139.5 283.45 134.6 282.75 129.7 281.55C127.5 280.75 125.4 279.95 123.2 279.15C123.4 278.85 123.6 278.55 123.9 278.25H123.8Z" fill="#091B08"/>
<path id="Vector_45" d="M163.5 208.85C163.5 209.35 163.5 209.85 163.5 210.25C153.2 208.55 143.1 205.85 132.9 203.35C131.6 203.05 130.3 202.65 129.6 201.35C140.9 203.85 152.2 206.35 163.4 208.85H163.5Z" fill="#767675"/>
<path id="Vector_46" d="M201.7 268.25C204 268.85 205.2 270.75 206.7 272.35C204.3 271.95 200.5 273.15 201.7 268.25Z" fill="#091B08"/>
<path id="Vector_47" d="M167.6 277.35C168.1 275.15 170.3 274.45 171.7 272.95C171.1 275.15 169.8 276.65 167.6 277.35Z" fill="#091B08"/>
<path id="Vector_48" d="M199.7 265.15C200.4 265.65 201 266.35 200.8 267.35C200.4 266.65 200.1 265.85 199.7 265.15Z" fill="#091B08"/>
<path id="Vector_49" d="M200.7 267.25C201.5 267.25 201.8 267.55 201.8 268.35C201.4 267.95 201.1 267.65 200.7 267.25Z" fill="#091B08"/>
<path id="Vector_50" d="M128.6 199.85C128.9 200.35 129.2 200.85 129.6 201.35C128.8 201.15 128.7 200.55 128.6 199.85Z" fill="#767675"/>
<path id="Vector_51" d="M123.8 278.25C123.6 278.55 123.4 278.85 123.1 279.15C120.5 278.25 117.8 277.35 116.4 274.65C116.6 274.45 116.8 274.25 117 274.05C119.2 275.25 121.3 276.35 123.5 277.55C123.6 277.75 123.7 278.05 123.8 278.25Z" fill="#393B36"/>
<path id="Vector_52" d="M114.6 273.55C113.9 272.85 113.2 272.25 112.5 271.55C112.8 271.25 113.1 270.95 113.3 270.65C114 271.25 114.7 271.95 115.4 272.55C115.1 272.85 114.9 273.15 114.6 273.45V273.55Z" fill="#393B36"/>
<path id="Vector_53" d="M116.5 274.55C115.9 274.15 115.2 273.85 114.6 273.45C114.9 273.15 115.1 272.85 115.4 272.55C115.9 273.05 116.5 273.45 117 273.95C116.8 274.15 116.6 274.35 116.4 274.55H116.5Z" fill="#393B36"/>
<path id="Vector_54" d="M265.7 232.85C265.2 231.65 264.9 230.45 265.7 229.25C265.7 230.45 265.7 231.65 265.7 232.85Z" fill="#4C4F48"/>
<path id="Vector_55" d="M266.6 238.25C266.3 237.05 266 235.95 265.7 234.75C266.8 235.75 266.6 236.95 266.6 238.25Z" fill="#4C4F48"/>
<path id="Vector_56" d="M117 273.95C116.5 273.45 115.9 273.05 115.4 272.55C114.7 271.95 114 271.25 113.3 270.65C112.8 270.15 112.3 269.65 111.8 269.15C107.4 262.85 104.6 256.05 104.5 248.35C104.5 242.35 104.5 242.15 110.6 242.95C110.7 243.55 110.8 244.15 110.9 244.75C111.1 246.65 111.3 248.45 111.4 250.35C111.2 252.75 111.3 255.05 112.1 257.25C113.7 263.55 116.8 268.95 121.6 273.35C122.3 274.05 122.9 274.75 123.6 275.45C123.9 276.15 124.3 276.85 123.5 277.55C121.3 276.35 119.2 275.25 117 274.05V273.95Z" fill="#90B67B"/>
<path id="Vector_57" d="M234.6 250.75C236.1 250.55 237.3 250.75 237.4 252.65C237.4 253.85 237.1 255.05 235.6 255.05C233.9 255.05 232.8 254.45 232.5 252.55C232.2 250.65 233.5 250.85 234.6 250.75Z" fill="#091B08"/>
<path id="Vector_58" d="M195.2 211.35C186.2 214.65 177.7 211.55 169.1 209.35C177.9 208.75 186.4 212.45 195.2 211.35Z" fill="#4C4F48"/>
<path id="Vector_59" d="M121.7 273.35C116.9 268.95 113.8 263.55 112.2 257.25C117.6 261.25 120.1 267.05 121.7 273.35Z" fill="#63655E"/>
<path id="Vector_60" d="M142.6 256.05C141.2 256.35 140.4 255.65 140.3 254.25C140.1 252.55 141 251.85 142.6 251.95C143.7 251.95 145.2 251.65 145 253.55C144.9 254.95 144.4 256.15 142.6 256.05Z" fill="#091B08"/>
<path id="Vector_61" d="M111.5 250.35C111.3 248.45 111.1 246.65 111 244.75C111.2 246.65 111.4 248.45 111.5 250.35Z" fill="#393B36"/>
<path id="Vector_62" d="M123.6 275.45C122.9 274.75 122.3 274.05 121.6 273.35C122.4 273.95 124.6 273.15 123.6 275.45Z" fill="#63655E"/>
</g>
<g id="hair">
<path id="Vector_63" d="M31.6 98.85C32.2 102.25 34.4 104.75 36.3 107.55C36.7 108.15 37.2 108.75 37.6 109.35C40.1 115.45 44.1 120.75 47.6 126.25C57.3 143.95 59 163.95 64.5 182.85C64.7 183.65 64.9 184.45 65.1 185.25C68.6 196.75 69.7 195.85 57.6 200.05C41.1 205.75 25.2 212.85 10.5 222.45C8.49998 223.75 5.59999 223.75 4.29999 226.25C2.79999 226.25 0.999986 226.85 0.899986 224.35C15.1 214.45 30.2 206.15 46.1 199.35C50.7 197.85 55.2 196.15 59.8 194.95C63.3 194.05 63.8 192.65 62.6 189.35C55.7 170.45 48.8 151.65 41.2 133.05C37.4 123.65 33.2 114.45 29.3 105.05C28.4 102.85 26.7 100.75 28 98.05C28.4 97.15 28 96.85 27.3 96.85C27 96.85 26.4 97.45 26.4 97.75C26.4 98.65 27 98.65 27.7 98.45C29 98.15 30.3 98.15 31.6 98.65V98.85Z" fill="#90B67B"/>
<path id="Vector_64" d="M143.9 49.35C143.1 55.15 142.4 60.95 142.8 66.75C143.8 79.95 140.4 92.55 136.9 104.95C135 111.85 131.4 118.15 124.2 121.35C129.8 105.65 135.7 90.05 136.8 73.15C137.9 66.65 137.8 60.25 136.8 53.75C136.5 36.15 134.8 18.45 140.2 0.850006C142.3 2.05001 141.6 3.35001 141.8 4.35001C142.5 12.75 143.3 21.05 144 29.45C143.6 33.75 143.6 38.05 144 42.25C144 44.55 143.8 46.95 143.8 49.25L143.9 49.35Z" fill="#90B67B"/>
<path id="Vector_65" d="M306.6 209.15C303.9 206.95 306 204.75 306.9 202.95C311.7 192.65 319 183.85 324.9 174.25C335.2 157.35 345.6 140.45 359.9 126.45C360.3 126.05 360.3 125.25 360.4 124.65C364.4 123.45 368.3 122.15 372.3 124.35C373 124.75 373.4 124.95 373.7 124.15C373.8 123.95 373.7 123.45 373.6 123.35C372.9 122.55 372.6 123.35 372.1 123.85C368 128.25 363.9 132.55 359.8 136.95C342.3 155.95 325.1 175.05 311.8 197.35C309.6 201.05 307.9 205.05 306.4 209.15H306.6Z" fill="#90B67B"/>
<path id="Vector_66" d="M144 29.45C143.3 21.05 142.5 12.75 141.8 4.35001C143.6 5.05001 144.5 6.45001 144.8 8.25001C143.2 11.05 143.5 13.95 144.4 16.95C144.9 18.35 145.1 19.85 145.6 21.25C147.9 29.35 146.8 37.35 145.6 45.45C145.4 46.95 145.2 48.45 143.8 49.35C143.8 47.05 144 44.65 144 42.35C145 38.05 145 33.75 144 29.55V29.45Z" fill="#44575C"/>
<path id="Vector_67" d="M136.8 53.65C137.8 60.15 137.9 66.55 136.8 73.05C136.8 66.55 136.8 60.15 136.8 53.65Z" fill="#767675"/>
<path id="Vector_68" d="M241.7 56.35C241.4 56.25 241.1 56.15 240.9 55.85C240.6 55.55 240.9 55.35 241.2 55.55C241.4 55.75 241.5 56.05 241.7 56.35Z" fill="#091B08"/>
<path id="Vector_69" d="M31.6 98.85C41.4 99.45 50.8 102.45 60.3 104.55C80.4 109.05 100.4 113.85 119.8 120.65C121.2 121.15 122.6 121.75 124.1 121.25C131.3 118.05 134.8 111.75 136.8 104.85C140.3 92.35 143.7 79.85 142.7 66.65C142.3 60.85 143 55.05 143.8 49.25C145.2 48.35 145.4 46.85 145.6 45.35C146.7 37.25 147.8 29.25 145.6 21.15C145.2 19.75 144.9 18.25 144.4 16.85C143.4 13.85 143.2 11.05 144.8 8.15001C150 17.05 153.8 27.05 161.2 34.25C178.2 50.95 189.7 71.25 201.3 91.55C202.8 93.65 202.9 96.65 205.6 97.85C205.9 98.15 206.2 98.45 206.6 97.85H206.3C206.3 97.95 206.2 97.75 206.2 97.75C209.4 97.75 211.6 95.45 214 93.85C223.1 87.75 231.6 81.05 239.2 73.25C248 71.95 249.6 63.75 253.6 57.95C255.3 55.95 257 53.85 258.7 51.85C267.7 41.15 278.3 32.05 286.7 20.75C288.7 19.15 288.4 21.15 288.3 21.95C288.1 27.55 287.8 33.05 287.5 38.65C284.8 40.85 285.6 44.15 285.1 47.05C280.9 71.75 275.6 96.25 274.4 121.45C274.4 123.15 273.2 125.15 275.6 126.25C274.9 132.25 275.6 133.15 281.3 133.25C293.6 133.45 305.9 133.85 318.2 132.35C322.5 131.85 326.7 130.75 330.8 129.55C340.5 126.75 350.2 123.95 360.5 124.75C360.3 125.35 360.3 126.15 360 126.55C345.7 140.55 335.3 157.35 325 174.35C319.1 184.05 311.8 192.75 307 203.05C306.2 204.85 304 207.05 306.7 209.25C307.7 212.05 310.3 212.95 312.6 214.25C328.3 222.85 345.2 226.85 363.1 226.85C364.7 226.85 366.4 226.65 368 227.35C365.1 231.35 362.9 236.05 357.8 237.95C356.8 238.85 355.9 239.85 355.7 241.35H355.6C351.6 242.25 347.8 243.35 347.8 248.55C347.1 248.85 346.4 249.15 345.7 249.55C340.9 248.75 339.1 251.95 337.7 255.55C337 256.15 336.3 256.85 335.6 257.55C328.4 263.55 320 267.55 312.1 272.45C303.3 277.75 300.3 277.35 308 289.45C307.5 294.15 303.9 293.45 300.8 293.65C299.7 289.85 298.7 285.95 297.6 282.15C295.7 275.25 297.2 270.45 303.4 266.75C314.2 260.25 323.4 251.95 332.4 243.25C336.3 239.45 336 237.35 330.7 235.65C323.3 233.15 315.8 230.95 308.3 228.65C298.7 225.65 295.3 219.35 297.3 209.35C300.6 192.55 309.6 178.65 318.9 164.75C321.2 161.25 323.8 157.95 326 154.45C328.9 149.75 327.3 146.75 321.8 146.55C316 146.35 310.2 146.45 304.4 147.55C295.7 149.25 286.9 149.95 278.1 149.45C270.4 149.05 267.9 146.55 266.4 139.05C265.2 132.85 265.9 126.75 266.4 120.65C267.4 108.35 268.8 96.15 269.6 83.85C269.9 78.65 268.1 77.65 263.7 80.55C257.2 84.85 251 89.65 244.4 93.85C236.3 99.05 228.2 104.45 219.1 107.65C208.6 111.35 198.5 111.65 189.4 103.15C183.4 97.55 179 91.15 175.4 83.95C171.6 76.35 167.9 68.75 164 61.15C163 59.15 161.6 57.15 159 57.95C156.5 58.65 156.8 60.95 156.7 62.95C156.7 64.95 156.6 66.95 156.7 68.95C157.1 76.75 156 84.25 153.1 91.45C148.2 103.65 142.6 115.45 135.1 126.35C128.9 135.25 118.9 140.25 109.5 137.25C105.2 135.95 101.1 134.05 97 132.25C84.8 126.95 72.6 121.65 60.4 116.25C59.3 115.75 58.1 115.25 57.1 116.25C56 117.15 56.5 118.45 56.8 119.55C57.6 122.55 59.5 124.95 61.3 127.25C66.5 133.85 70.9 140.75 73.1 148.95C74.2 152.95 76.2 156.75 77.3 160.65C80.5 171.85 84 183.05 83.6 194.85C83.4 200.35 81.2 204.45 75.6 206.85C64.1 211.85 51.9 214.65 40.2 218.85C37.4 219.85 32.8 220.25 32.8 223.75C32.8 226.85 37.1 227.85 40 229.05C49.4 232.95 58.8 236.65 67.9 241.25C73.9 244.35 76.5 250.25 73.5 255.75C71.6 259.15 69.4 262.55 66.8 265.65C61.9 271.65 55.8 276.35 51 282.25C47.4 286.65 43.2 287.95 37.9 287.55C35 287.35 34.1 286.05 34.7 283.35C37.6 282.45 40.7 281.85 41.7 278.25C42.7 277.95 43.4 277.25 43.7 276.25C46.6 275.85 47.9 273.75 48.7 271.25C50.5 270.85 51.4 269.65 51.7 267.85C53.7 264.75 56.6 262.15 57.2 258.25C57.6 255.55 57.3 254.95 55 254.15C52.8 253.15 52.6 249.75 49.8 249.35C40 240.75 27.9 236.45 16.3 231.35C12.4 229.65 8.39998 227.95 4.49998 226.35C5.79998 223.85 8.69999 223.85 10.7 222.55C25.4 212.95 41.3 205.85 57.8 200.15C69.9 195.95 68.8 196.85 65.3 185.35C65.1 184.55 64.9 183.75 64.7 182.95C59.2 164.05 57.4 144.05 47.8 126.35C46.1 119.75 44.5 113.15 37.8 109.45C37.4 108.75 36.9 108.15 36.5 107.55C34.6 104.85 32.4 102.25 31.8 98.85H31.6Z" fill="#52686B"/>
<path id="Vector_70" d="M239.2 73.35C231.6 81.15 223.1 87.95 214 93.95C211.6 95.55 209.5 97.85 206.2 97.85C206.4 96.35 207.7 95.65 208.6 94.75C227.1 75.85 245.5 56.95 264.9 38.95C266.7 37.35 269.1 36.15 269.7 33.45C276 30.05 280.3 24.05 286.6 20.75C278.2 31.95 267.6 41.15 258.6 51.85C256.9 53.85 255.2 55.95 253.5 57.95C248.7 63.05 243.9 68.15 239.1 73.25L239.2 73.35Z" fill="#90B67B"/>
<path id="Vector_71" d="M275.5 126.25C273.1 125.15 274.3 123.05 274.3 121.45C275.6 96.35 280.8 71.75 285 47.05C285.5 44.25 284.7 40.95 287.4 38.65C285.5 68.15 282.1 97.45 275.4 126.25H275.5Z" fill="#90B67B"/>
<path id="Vector_72" d="M34.6 283.25C34 285.95 34.9 287.25 37.8 287.45C43.1 287.85 47.3 286.65 50.9 282.15C55.7 276.25 61.8 271.55 66.7 265.55C69.2 262.45 71.4 259.05 73.4 255.65C76.5 250.25 73.8 244.25 67.8 241.15C58.8 236.55 49.3 232.75 39.9 228.95C37 227.75 32.8 226.75 32.7 223.65C32.7 220.15 37.2 219.85 40.1 218.75C51.8 214.45 64 211.75 75.5 206.75C81.1 204.25 83.3 200.25 83.5 194.75C83.9 182.95 80.5 171.75 77.2 160.55C76.1 156.65 74.1 152.85 73 148.85C70.8 140.65 66.4 133.65 61.2 127.15C59.4 124.85 57.5 122.45 56.7 119.45C56.4 118.35 55.9 117.15 57 116.15C58 115.25 59.2 115.75 60.3 116.15C72.5 121.45 84.7 126.85 96.9 132.15C101 133.95 105.1 135.85 109.4 137.15C118.8 140.05 128.9 135.15 135 126.25C142.5 115.35 148.1 103.55 153 91.35C155.9 84.15 157 76.65 156.6 68.85C156.6 66.85 156.6 64.85 156.6 62.85C156.6 60.85 156.5 58.55 158.9 57.85C161.5 57.15 162.9 59.15 163.9 61.05C167.7 68.65 171.5 76.25 175.3 83.85C178.9 91.05 183.4 97.45 189.3 103.05C198.4 111.65 208.4 111.25 219 107.55C228.1 104.35 236.2 98.95 244.3 93.75C250.8 89.45 257 84.65 263.6 80.45C268 77.55 269.8 78.55 269.5 83.75C268.7 96.05 267.3 108.25 266.3 120.55C265.8 126.65 265.1 132.75 266.3 138.95C267.8 146.45 270.3 148.85 278 149.35C286.8 149.85 295.7 149.15 304.3 147.45C310.1 146.35 315.9 146.25 321.7 146.45C327.3 146.65 328.9 149.65 325.9 154.35C323.7 157.85 321.1 161.15 318.8 164.65C309.5 178.45 300.5 192.45 297.2 209.25C295.2 219.15 298.6 225.55 308.2 228.55C315.7 230.85 323.2 233.05 330.6 235.55C335.8 237.35 336.2 239.35 332.3 243.15C323.3 251.85 314.1 260.15 303.3 266.65C297.2 270.25 295.6 275.15 297.5 282.05C298.6 285.85 299.6 289.75 300.7 293.55C299.7 293.55 298.6 293.75 297.6 293.85C295.2 292.35 293.7 293.45 292.6 295.55C292.2 295.55 291.7 295.55 291.3 295.55C289.7 295.55 288.4 295.05 287.4 293.75C284.7 290.25 284.4 286.35 284.3 282.05C284.1 272.35 285.3 262.55 283.7 252.85V249.25C284.7 238.55 285.2 227.95 283.4 217.25C283.1 216.15 282.7 215.05 282.6 213.95C280.2 196.45 278.7 178.85 269.8 162.95C268.5 160.55 267.4 158.35 265 156.95C264.2 155.45 263.3 153.95 262.5 152.35C259.1 146.85 255.9 141.25 249.5 138.55C248.8 138.15 248.2 137.85 247.5 137.55C247.4 136.45 246.6 135.95 245.7 135.65C242.4 135.35 241 132.75 239.2 130.55C237.4 129.75 235.6 128.85 233.7 128.15C204 116.05 174.7 116.35 146 131.35C143.1 132.85 139.8 134.05 138.5 137.55C136.4 137.55 135 138.45 134.5 140.55C133.9 140.85 133.2 141.15 132.6 141.45C129 141.85 127.4 143.95 127.4 147.45C127.3 147.65 127.1 147.65 126.9 147.75C124.8 147.75 122.4 146.75 121 149.15C118.9 152.85 117.1 156.65 115.2 160.45C110.9 165.35 108.2 171.15 106.1 177.35C102.4 178.95 103.6 182.85 102.4 185.55C96.5 198.95 95.3 213.45 93.5 227.75C91 246.85 90.8 266.15 89.5 285.45C89.3 288.15 89.1 290.85 85.6 291.55C85.2 291.85 84.8 292.05 84.5 292.35C84.1 292.35 83.7 292.55 83.3 292.65C82.7 293.05 82 293.55 81.4 293.95C81 293.95 80.5 293.95 80.1 293.95C78.1 291.15 75.4 289.55 72.1 290.55C69.1 291.45 66.2 291.35 63.3 291.55C57.2 291.85 51 290.95 44.9 292.15L43.1 292.35C42.7 289.05 40.8 288.75 38.2 289.85C35.9 289.85 33.6 289.65 31.4 289.65C31.2 288.55 30.5 287.85 29.5 287.55C30.6 285.55 32.3 284.15 34.4 283.45L34.6 283.25Z" fill="#44575C"/>
<path id="Vector_73" d="M239.2 73.35C244 68.25 248.8 63.15 253.6 58.05C249.6 63.85 248 72.05 239.2 73.35Z" fill="#44575C"/>
<path id="Vector_74" d="M47.6 126.35C44.1 120.85 40.2 115.55 37.6 109.45C44.2 113.15 45.9 119.75 47.6 126.35Z" fill="#63655E"/>
<path id="Vector_75" d="M205.6 97.95C205.9 97.95 206.3 97.95 206.6 97.95C206.2 98.45 205.9 98.15 205.6 97.95Z" fill="#90B67B"/>
<path id="Vector_76" d="M144 29.45C145 33.75 145 38.05 144 42.25C143.5 37.95 143.6 33.65 144 29.45Z" fill="#767675"/>
</g>
</g>
</svg>
