<svg width="534" height="118" viewBox="0 0 534 118" fill="none" xmlns="http://www.w3.org/2000/svg">
<g id="Portal">
<path id="Vector" d="M436.4 21.85C430.5 26.65 424.5 31.35 418.6 36.15C418.3 36.55 418 36.85 417.7 37.25C417.1 37.25 416.6 37.45 416.8 38.15C415.1 37.85 414.3 38.65 413.9 40.15C411.8 39.95 410.5 41.45 409.1 42.65C407.7 43.15 406.4 43.95 405.4 45.15C403.5 46.35 400.8 46.55 399.8 49.05C397.1 48.55 395.3 50.65 393.1 51.45C389.8 52.65 390.2 54.45 392.8 56.25C392.8 56.85 393 57.35 393.8 57.25C393.4 58.25 394 58.85 394.9 59.25C394.9 60.65 395.8 61.55 396.9 62.25C397.2 62.55 397.6 62.95 397.9 63.25C397.9 63.85 398.2 64.25 398.9 64.25C398.7 64.35 398.7 64.65 398.9 64.85C399.5 66.45 401.1 67.05 402.4 67.95C402.6 68.75 402.9 69.55 403.1 70.25C402.8 71.25 402.5 72.25 402.2 73.25C398.6 70.45 396.6 66.25 393.5 63.05C385.8 50.95 388.8 51.35 397.6 46.05C405.5 41.25 413.9 37.15 421.1 31.15C422 30.75 423 30.35 423.2 29.15C426.6 28.05 429.3 26.15 431.2 23.15C432.1 23.25 432.8 22.85 433.3 22.15C435.9 19.75 438.5 17.45 441.1 15.05H441.2C441.8 14.65 442.4 14.35 443 13.95C443.3 14.25 443.6 14.45 443.9 14.75C443.6 15.15 443.4 15.65 443.1 16.05C441 17.25 439.3 18.85 437.9 20.85C437.6 21.15 437.2 21.35 436.9 21.65L436.4 21.85Z" fill="#90B67B"/>
<path id="Vector_2" d="M442.7 11.85C447.8 9.94999 450 5.25002 452.9 1.25002C453.8 1.05002 454.7 -0.150007 455.5 0.849993C456.2 1.64999 455.5 2.65 454.8 3.45C451 7.25 447.2 11.15 443.4 14.95C443.1 14.65 442.8 14.45 442.5 14.15C442.5 13.35 442.7 12.65 442.8 11.85H442.7Z" fill="#90B67B"/>
<path id="Vector_3" d="M128.4 66.25C129 66.25 129.6 66.05 130.2 66.05C131.1 67.45 132.5 67.95 134 67.95C144.5 67.95 154.9 67.95 165.4 67.75C165.8 67.75 166.3 67.75 166.7 67.75C166.8 67.95 167 67.95 167.2 67.95C166.8 68.15 166.4 68.35 166 68.55C165.5 68.85 164.6 69.15 165.1 69.85C165.5 70.45 166.2 70.05 166.7 69.55C167.1 69.35 167.5 69.25 167.9 69.05C170.5 68.85 172.8 65.65 175.6 68.35C173.1 68.95 170.5 69.55 169 72.05C169.9 73.45 172 73.35 172.6 75.15C171.1 76.65 168.9 76.65 167.5 76.05C163 73.95 158.5 72.55 153.4 73.85C150.3 74.65 147 71.85 144.6 72.85C137.7 75.65 131.3 72.75 124.7 72.85C123.4 72.85 122.9 71.65 122.4 70.55C121.6 68.95 120.2 68.15 118.7 69.25C114.5 72.45 110.3 69.95 106.5 68.75C102.6 67.45 102.3 64.25 105.4 62.25C111.8 61.05 115.3 55.65 119.9 51.85C121.9 50.35 124 49.05 125.2 46.85C125.4 46.65 125.7 46.35 125.9 46.15C127.9 45.05 129.6 43.75 130.5 41.55H130.6C131.2 41.55 131.5 41.15 131.5 40.55C132.1 40.55 132.4 40.15 132.4 39.55C134.8 37.15 137.3 34.75 139.7 32.25C141 30.95 140.8 29.65 139.7 28.35C142.1 29.15 142.3 29.65 142 32.45C141.4 36.35 138.5 38.95 136.5 42.05C135.2 42.95 133.9 43.85 133.5 45.45C131 46.25 129.3 47.95 128.5 50.45C127.2 50.45 126.4 51.05 126.5 52.45C123.2 52.75 121.4 55.25 119.5 57.55C117.4 58.35 115.7 59.75 114.6 61.65C113.5 63.95 115.1 63.75 116.5 63.75C118.8 63.75 121.1 63.95 123.3 63.95C124.4 65.75 126.1 66.65 128.2 66.45L128.4 66.25Z" fill="#90B67B"/>
<path id="Vector_4" d="M376.5 69.35C376.9 69.35 377.4 69.35 377.8 69.35C379.7 69.35 381.5 69.35 382.8 67.65C383.8 67.65 384.9 67.45 385.9 67.35C389 67.15 392.6 67.85 393.1 63.15C396.2 66.35 398.2 70.65 401.8 73.35V73.75C401.4 74.05 401 74.45 400.6 74.75C399.1 75.95 397.6 76.15 396.2 74.75C395.3 73.85 394.7 73.85 393.8 74.65C391.8 76.35 389.8 76.75 388 74.15C387.5 73.35 386.2 73.05 386 73.75C385 77.05 382 74.45 380.4 75.85C379.8 75.75 379.3 75.65 378.7 75.55C378.6 74.15 378.4 72.65 376.6 72.25V72.35C376.6 71.35 376.6 70.25 376.5 69.25V69.35Z" fill="#767675"/>
<path id="Vector_5" d="M430.7 23.35C428.8 26.45 426.1 28.35 422.7 29.35C424.2 25.75 425.9 22.55 430.7 23.35Z" fill="#44575C"/>
<path id="Vector_6" d="M440.5 15.35C437.9 17.75 435.3 20.05 432.7 22.45C432.7 17.25 436.5 16.15 440.5 15.35Z" fill="#44575C"/>
<path id="Vector_7" d="M119.7 57.25C121.6 55.05 123.3 52.45 126.7 52.15C125.8 55.75 122.6 56.35 119.7 57.25Z" fill="#44575C"/>
<path id="Vector_8" d="M128.6 50.25C129.4 47.75 131.1 46.05 133.6 45.25C132.7 47.75 131.5 49.85 128.6 50.25Z" fill="#44575C"/>
<path id="Vector_9" d="M133.6 45.25C134.1 43.65 135.3 42.65 136.6 41.85C136.3 43.65 135.3 44.85 133.6 45.25Z" fill="#44575C"/>
<path id="Vector_10" d="M442.7 11.85C442.7 12.65 442.5 13.35 442.4 14.15C441.8 14.55 441.2 14.85 440.6 15.25C440.8 13.85 441.7 12.85 442.7 11.85Z" fill="#44575C"/>
<path id="Vector_11" d="M126.6 52.25C126.6 50.85 127.3 50.25 128.6 50.25C128.2 51.25 127.5 51.85 126.6 52.25Z" fill="#44575C"/>
<path id="Vector_12" d="M422.7 29.35C422.6 30.55 421.6 30.95 420.6 31.35C421.3 30.65 422 29.95 422.7 29.35Z" fill="#44575C"/>
<path id="Vector_13" d="M432.7 22.35C432.2 23.05 431.5 23.55 430.6 23.35C431.3 23.05 432 22.65 432.7 22.35Z" fill="#44575C"/>
<path id="Vector_14" d="M481.5 47.25C487.3 50.75 494.2 48.75 500.4 51.15C509.8 54.75 519.2 58.75 528.9 61.55C531.5 62.25 533.3 63.85 529.4 66.05C525.9 68.05 526.9 70.45 529.2 72.95C535.6 79.75 535.7 80.05 527.1 83.75C521.9 85.95 519.9 91.95 514.1 93.45C511.7 94.05 509.5 95.25 506.9 95.25C495.9 95.15 485.1 96.95 474.5 99.55C463.8 102.15 452.7 102.15 442.2 105.35C422.5 111.35 402.4 111.75 382 111.35C364.9 111.05 347.7 111.25 330.6 111.55C326 111.55 321 110.95 317 114.35C315.7 114.85 314.4 114.95 313 114.55C307.3 113.35 301.5 112.75 295.7 113.65C276.4 116.55 257 115.05 237.6 115.25C236.1 115.25 234.3 115.85 232.7 113.95C235.4 113.25 236.8 111.15 238.6 109.45C248.1 109.45 257.6 109.15 267 109.45C271.8 109.55 276.2 109.15 279.6 105.25H283.4C283.8 105.25 284.2 105.25 284.6 105.25C301.2 105.25 317.9 105.35 334.5 105.25C339.3 105.25 344 106.95 348.9 105.85C353.2 104.95 357.5 105.15 361.8 105.85C377 108.15 392.3 107.65 407.6 106.15C408.2 105.95 408.7 105.75 409.3 105.55C409.7 105.55 410.2 105.35 410.6 105.35C413.1 106.15 416.7 106.35 417.1 104.15C417.6 101.35 413.7 102.35 411.8 101.55C411.1 101.25 410.2 101.45 409.4 101.45C408.5 101.45 407.5 101.45 406.6 101.35C406.1 100.75 405.5 100.15 405.7 99.15C409 98.55 412.2 97.95 415.5 97.25C426.4 97.95 437.4 95.85 448.2 99.15C451.5 100.15 455 99.35 458.2 97.35C460.7 95.85 463.8 94.95 466.8 95.65C469 96.25 471 95.75 473.1 95.65C481.9 95.25 490.2 91.95 498.9 91.05C505.4 90.35 511.2 84.25 512.2 77.55C512.7 73.95 510.9 71.85 507.4 71.35C505.1 71.05 502.7 71.45 500.6 70.25C501.7 69.85 503.3 70.65 504 68.95C498.4 66.25 496.4 66.65 493.7 71.15C490.6 71.75 486.9 69.85 484.6 73.35C483.6 73.15 482.5 73.05 481.5 72.85C481.1 72.85 480.7 72.65 480.3 72.55H480.5C479.3 71.15 477.4 71.35 475.8 70.95C476 68.35 478.7 65.85 477.2 63.45C474.4 59.05 470.5 55.55 464.9 55.15C461.9 54.95 459 54.45 456.3 53.15C452 51.05 447.4 51.05 442.7 51.25C439.5 51.45 437.3 52.55 436.8 56.05C432.6 55.65 428.8 53.05 424.5 53.25C423.7 53.05 422.5 52.95 422.3 52.55C421.8 51.35 423 51.45 423.8 51.25C425.5 50.95 427.4 51.55 429.5 50.35C424.8 48.25 420 47.55 415.3 46.35C413.6 45.95 411.5 45.95 411.8 43.25C415.6 42.15 419.6 41.95 423.6 42.15C424.7 42.45 425.8 42.75 426.9 43.05C424.9 46.15 427.4 45.75 429.2 45.95C441.7 48.55 454.5 49.85 466.9 53.05C469.5 53.75 472.6 53.95 474 56.25C478.3 62.85 484.8 63.95 491.7 64.45C493.5 64.55 495.6 65.75 496.8 63.85C498.3 61.55 494.5 61.45 494.5 59.55C498.9 59.35 502 60.25 506.5 63.05C511.2 65.85 515.2 65.55 520 61.65C513 58.55 506 56.35 499.3 53.45C494.9 51.55 489 51.55 483.8 50.75C476.7 49.75 469.5 51.05 462.5 49.25C462.7 48.55 462.8 47.75 463 47.05C467.3 47.95 471.5 47.25 475.7 46.15C477.8 45.45 479.7 46.75 481.7 46.85L481.5 47.25Z" fill="#5BCE1D"/>
<path id="Vector_15" d="M63.9 102.25C61.1 102.65 58.3 102.45 55.7 101.45C52.7 99.05 49.3 97.35 46.7 94.45C43.5 90.75 39.4 88.55 34.6 87.05C29.4 85.45 24 84.65 18.7 83.45C14.8 82.55 10.9 81.75 7.69999 79.25C4.19999 76.55 4.49999 74.85 8.59999 73.25C11.1 72.25 14 70.95 14.3 68.25C14.9 63.95 17.9 62.65 21.1 62.15C29.7 60.65 37.7 57.85 45.7 54.65C47.6 53.85 49.5 53.25 50.9 55.55C52.3 57.95 54.7 57.35 56.8 57.65C56.8 58.55 56.8 59.55 56.8 60.45C47.7 57.55 42.1 62.85 36.7 69.45C41.3 70.05 45.5 70.55 49.7 71.15C48.9 71.15 48.1 71.25 47.3 71.35C45.9 71.55 43.8 71.15 43.8 73.05C43.8 75.25 45.9 75.15 47.5 75.35C49.4 75.65 51.5 75.35 52.8 77.25C51.3 77.25 49.8 77.35 48.3 77.55C45.5 77.85 42.6 78.95 42 81.55C41.4 84.25 44.2 85.65 46.3 87.05C49.3 89.05 53.1 88.85 56.1 90.55C65.9 96.05 77.1 97.75 87.7 98.75C102 100.05 116.4 102.65 130.9 101.35C131.5 101.35 132.1 101.35 132.7 101.45C135.4 104.05 138.1 103.85 140.9 101.65C141.5 101.65 142.1 101.65 142.6 101.65C143.4 102.55 144.4 103.15 145.7 103.15C153.9 103.15 162.1 103.85 170.2 105.25C183.1 107.55 196.3 106.15 209.1 109.25C209.2 110.75 211.7 110.85 211.3 112.95C198.4 114.25 185.9 111.55 173.3 110.25C162.8 109.15 152.4 106.15 141.8 105.65C124.6 104.85 107.4 102.45 90.1 103.15C84.5 103.35 78.9 103.45 73.3 101.75C70.4 100.85 67 100.85 64 102.25H63.9Z" fill="#5BCE1D"/>
<path id="Vector_16" d="M63.9 102.25C66.9 100.85 70.3 100.85 73.2 101.75C78.8 103.45 84.4 103.35 90 103.15C107.3 102.45 124.5 104.85 141.7 105.65C152.2 106.15 162.6 109.25 173.2 110.25C185.8 111.55 198.4 114.25 211.2 112.95C211.6 110.85 209.2 110.75 209 109.25C211.3 107.35 213.5 105.35 216.8 105.15C218.1 105.15 219.5 105.15 220.8 105.15C222.8 105.15 224.7 105.35 226.6 104.45C229.3 104.45 232 104.65 234.7 104.75C235.7 106.65 238.1 107.25 238.8 109.45C237 111.15 235.6 113.15 232.9 113.95C234.4 115.85 236.2 115.25 237.8 115.25C257.2 114.95 276.6 116.45 295.9 113.65C301.6 112.75 307.5 113.45 313.2 114.55C292.1 116.75 271 117.25 249.9 117.25C210.6 117.25 171.9 111.65 133 107.25C113.2 104.95 93.1 105.25 73.1 104.25C70 104.05 66.7 104.55 64 102.35L63.9 102.25ZM213.5 108.15C219.8 111.85 225.5 111.35 231.3 110.35C232.3 110.15 233.4 109.75 233.3 108.55C233.3 107.45 232.2 107.45 231.4 107.25C225.7 106.05 220 105.75 213.4 108.15H213.5Z" fill="#79C33C"/>
<path id="Vector_17" d="M50.9 55.35C49.5 53.05 47.6 53.65 45.7 54.45C37.7 57.65 29.6 60.55 21.1 61.95C17.9 62.45 14.9 63.75 14.3 68.05C13.9 70.85 11.1 72.05 8.59999 73.05C4.59999 74.65 4.29999 76.45 7.69999 79.05C10.9 81.55 14.9 82.35 18.7 83.25C24 84.45 29.4 85.25 34.6 86.85C39.4 88.35 43.5 90.55 46.7 94.25C49.3 97.15 52.7 98.95 55.7 101.25C51.9 102.25 48.3 100.95 46.6 97.95C42.6 90.85 35.9 88.85 28.9 87.25C21.9 85.65 14.7 85.05 8.19999 82.05C7.39999 81.75 6.59999 81.45 5.89999 81.05C3.59999 79.75 0.299986 78.85 0.399986 75.85C0.399986 72.75 3.89999 72.35 6.19999 71.25C9.29999 69.75 13.6 69.65 12.5 64.15C12.2 62.65 14.4 61.55 16.1 61.25C29.3 58.45 41.7 52.75 54.8 50.15C78.9 45.45 103 40.75 127.5 38.75C129.3 38.65 131.2 37.95 132.7 39.45V39.35C132.1 39.35 131.8 39.65 131.8 40.25C131.2 40.25 130.9 40.55 130.9 41.15H130.8C130.2 41.25 129.5 41.35 128.9 41.35C128.2 41.65 127.5 41.95 126.8 42.15H126.9C125.3 43.45 123.4 43.75 121.4 43.95C117.1 44.35 112.9 45.15 109.1 47.45C103.1 46.85 97.1 47.25 91.1 48.25C84.2 46.15 77.2 46.55 70.9 49.75C67.5 51.45 64.5 51.75 61.1 51.25C58.3 51.65 55 50.05 53 53.45C52.4 54.05 51.7 54.65 51.1 55.25L50.9 55.35Z" fill="#79C33C"/>
<path id="Vector_18" d="M475.5 46.45C471.3 47.55 467.2 48.35 462.8 47.35C461.5 47.35 460.2 47.35 458.9 47.25C457 43.85 453.4 43.65 450.3 43.35C441.4 42.45 432.5 39.75 423.4 42.25C419.4 42.05 415.5 42.25 411.6 43.35C412.2 42.35 412.8 41.25 413.5 40.25C415 40.35 416 39.75 416.4 38.35C417 38.35 417.3 38.05 417.3 37.45C417.4 37.65 417.6 37.75 417.9 37.75C437.5 37.75 456.6 40.45 475.2 46.75L475.5 46.45Z" fill="#79C33C"/>
<path id="Vector_19" d="M418.2 37.55C417.9 37.55 417.7 37.55 417.6 37.25C417.9 36.85 418.2 36.55 418.5 36.15C418.5 36.55 418.3 37.05 418.2 37.45V37.55Z" fill="#3CA229"/>
<path id="Vector_20" d="M415.7 114.55L415.4 114.25L415.7 114.15V114.55Z" fill="black"/>
<path id="Vector_21" d="M401.8 73.85V73.45C402.1 72.45 402.4 71.45 402.7 70.45C404.4 71.75 406.2 74.35 407.9 70.45C408.4 69.45 409.1 69.95 409.9 70.05C414.1 70.45 414.1 74.55 415 76.95C415.6 78.55 412 79.15 409.8 79.15C408.4 79.15 406.9 79.45 404.5 79.75C406.4 81.05 408.1 81.85 407.3 83.85C403.9 84.95 400.6 86.15 397 84.65C397.2 82.85 397 81.05 394.6 81.55C386.6 83.05 378.7 84.75 370.8 86.45C367.4 84.15 364.5 85.35 361.9 87.75C360.5 87.75 359.1 87.75 357.8 87.75C356.1 86.35 354.1 86.25 352 86.75C350.8 86.15 349.7 86.05 348.5 86.85C346.9 86.05 345.5 86.35 344.2 87.35C343.7 87.35 343.2 87.35 342.7 87.35C337.9 85.15 333.3 87.35 328.6 88.05C328 88.05 327.3 88.25 326.7 88.25C317.7 86.35 308.7 87.05 299.7 87.75C297.8 87.85 297 89.45 296.3 91.05C295.1 91.05 294 91.05 292.8 91.15C291.6 89.25 289.5 88.65 287.6 88.95C284.3 89.45 281.1 90.35 277.9 91.05C276.4 91.25 274.9 91.35 273.5 91.55C272.4 91.65 271.3 91.85 270.2 91.95C261.5 92.65 253.6 87.75 244.7 87.75C245.1 89.45 246.9 90.35 246.4 92.05C242.6 92.65 238.4 95.15 235.5 90.15C237.5 89.45 239.6 88.75 242.3 87.75C238 86.35 234.5 88.55 231.5 88.05C224.1 86.85 216.9 88.65 209.6 88.05C205 87.65 199.9 85.75 195.2 88.85C194.2 89.45 192.5 88.75 191.8 87.45C191 85.95 189.8 86.75 188.7 86.85C187.8 85.05 186.5 84.35 184.4 84.15C179.5 83.75 174 84.15 169.9 82.15C163.1 78.85 156.2 79.45 149.2 79.05C148 79.05 146.9 79.45 146.8 80.95C142.6 81.65 138.6 83.95 134.1 82.55C134.1 79.65 136.6 79.25 138.6 78.35C133.8 78.85 129.3 77.25 124.7 77.05C120.8 76.85 116.4 77.75 112.6 75.85C108.6 73.35 103.9 72.95 99.7 71.35C91.2 68.25 90.7 66.05 97.3 60.45C97.8 60.05 98.2 59.55 98.7 59.05C99 59.05 99.4 59.05 99.7 59.05C100.8 59.95 101.8 60.05 102.9 59.15C104.1 59.75 105.4 60.25 105.5 61.85C102.5 63.85 102.7 67.05 106.6 68.35C110.4 69.65 114.5 72.05 118.8 68.85C120.3 67.75 121.7 68.55 122.5 70.15C123 71.25 123.6 72.45 124.8 72.45C131.4 72.45 137.9 75.35 144.7 72.45C147.1 71.45 150.4 74.25 153.5 73.45C158.6 72.15 163 73.45 167.6 75.65C169 76.25 171.2 76.25 172.7 74.75C174.4 74.75 175.7 76.25 177.5 75.75C180.4 79.95 185.3 79.65 189.3 79.75C196.4 79.85 203.1 83.05 210.3 81.45C210.7 81.45 211.3 81.55 211.7 81.75C218.8 83.55 225.6 83.85 231.6 78.65C233.4 78.65 234.7 79.45 235.9 80.75C237.5 82.45 239.6 82.65 241.8 82.55C248.1 82.35 254.4 81.75 260.5 83.85C263 85.75 265.9 84.45 268.5 84.85V85.05C268.9 85.25 269.2 85.45 269.5 85.65C270.5 85.65 271.6 85.65 272.6 85.65C273.4 87.05 274.5 87.65 275.8 86.45C282.9 79.85 291.7 82.55 299.7 82.45C307.6 82.45 315.4 83.55 323.1 80.85C323.6 80.65 324.5 80.85 324.9 81.25C326.7 83.05 328.9 82.35 331 82.55C339.3 83.25 347.2 78.85 355.6 81.05C356.5 81.25 357.6 81.05 358.5 80.65C364.1 78.25 369.6 78.65 375.1 80.65C377.4 81.45 379.6 80.45 381.2 79.35C382.9 78.15 380.7 76.85 380.2 75.55C381.8 74.25 384.7 76.75 385.8 73.45C386 72.75 387.3 73.15 387.8 73.85C389.6 76.45 391.6 76.05 393.6 74.35C394.5 73.55 395.1 73.55 396 74.45C397.4 75.85 398.9 75.65 400.4 74.45C401.2 74.75 402.3 75.65 402.9 74.75C403.5 73.85 402.4 73.55 401.6 73.45L401.8 73.85Z" fill="#EBF5A9"/>
<path id="Vector_22" d="M397 84.65C400.6 86.15 403.9 84.95 407.3 83.85C411.2 84.05 415 83.05 418 80.85C420.7 78.85 427.2 78.45 423.4 72.15C424.6 70.25 429.2 71.75 428.2 68.75C427.4 66.35 423.8 67.65 421.4 68.05C421.1 68.05 420.8 68.35 420.5 68.55C414.3 66.95 408.1 66.85 401.9 68.25C400.6 67.35 399.1 66.75 398.4 65.15C398.6 64.95 398.7 64.75 398.4 64.45C398.1 64.15 397.7 63.75 397.4 63.45C397.1 63.05 396.7 62.75 396.4 62.35C396.4 60.85 396 59.75 394.4 59.35C394 58.65 393.7 58.05 393.3 57.35C393 56.95 392.6 56.65 392.3 56.25C392.4 51.75 397.7 52.15 399.3 49.05C400.8 48.45 402.4 47.75 403.9 47.15C406.9 48.35 410 49.55 413 50.75C413.8 52.85 415.6 52.95 417.4 53.15C419.5 54.65 421.8 55.55 424.4 55.65C428.7 56.35 432.6 57.95 436.2 60.25C438 64.85 442 63.45 445.1 62.85C447.8 62.35 446.2 60.85 444.8 60.05C442.9 57.15 439.8 56.45 436.7 56.05C437.1 52.55 439.4 51.45 442.6 51.25C447.3 51.05 451.9 51.05 456.2 53.15C458.9 54.45 461.8 54.95 464.8 55.15C470.4 55.55 474.3 59.05 477.1 63.45C478.6 65.85 475.8 68.35 475.7 70.95C474.3 71.25 472.9 71.55 471.5 71.85C468.6 72.05 465.6 72.25 462.7 72.65C461.3 72.85 458.9 72.65 460.3 75.45C451.8 80.85 442 81.55 432.5 83.05C426.6 83.15 420.7 83.05 415.1 85.15C414.3 85.15 413.4 85.15 412.6 85.15C405.7 86.05 398.8 87.25 392.1 89.25C387.5 89.25 383.1 90.15 378.7 91.35C377.7 90.95 375.9 91.45 375.9 89.95C375.9 88.55 377.6 88.65 378.6 88.45C384.7 87.05 391.1 87.75 396.8 84.65H397ZM420.6 61.55C415.3 59.05 409.8 58.65 404.2 58.85C403.1 58.85 402.3 59.55 402.3 60.75C402.3 61.65 402.9 62.35 403.8 62.55C409.4 63.55 415.1 63.65 420.6 61.55Z" fill="#3CA229"/>
<path id="Vector_23" d="M401.9 68.15C408.1 66.75 414.3 66.85 420.5 68.45C420.5 70.45 422.4 70.85 423.3 72.15C427.1 78.45 420.6 78.85 417.9 80.85C414.9 83.05 411.1 84.05 407.2 83.85C408 81.85 406.3 81.05 404.4 79.75C406.8 79.45 408.2 79.15 409.7 79.15C411.9 79.15 415.5 78.55 414.9 76.95C414 74.55 414 70.55 409.8 70.05C409 70.05 408.2 69.45 407.8 70.45C406 74.35 404.3 71.75 402.6 70.45C402.4 69.65 402.1 68.85 401.9 68.15ZM416.1 72.45C415.9 72.35 415.6 72.15 415.4 72.15C415.4 72.15 415.1 72.35 415.1 72.45C415.2 72.65 415.4 72.85 415.5 73.05C415.7 72.85 415.9 72.65 416 72.55L416.1 72.45Z" fill="#79C33C"/>
<path id="Vector_24" d="M399.5 49.15C397.9 52.25 392.6 51.85 392.5 56.35C389.9 54.55 389.5 52.75 392.8 51.55C395 50.75 396.8 48.65 399.5 49.15Z" fill="#393B36"/>
<path id="Vector_25" d="M404.1 47.25C402.6 47.85 401 48.55 399.5 49.15C400.5 46.55 403.1 46.45 405.1 45.25C405.5 45.45 405.8 45.55 406.2 45.75C405.5 46.25 404.9 46.75 404.2 47.25H404.1Z" fill="#393B36"/>
<path id="Vector_26" d="M413.5 40.25C412.9 41.25 412.3 42.35 411.6 43.35C411 43.45 410.5 43.65 409.9 43.75C409.5 43.35 409.1 43.05 408.7 42.65C410.1 41.45 411.3 39.95 413.5 40.15V40.25Z" fill="#3CA229"/>
<path id="Vector_27" d="M405.1 45.25C406.1 44.05 407.4 43.25 408.8 42.75C409.2 43.15 409.6 43.45 410 43.85C408.7 44.45 407.5 45.15 406.2 45.75C405.8 45.55 405.5 45.45 405.1 45.25Z" fill="#3CA229"/>
<path id="Vector_28" d="M394.5 59.35C396.1 59.75 396.6 60.85 396.5 62.35C395.4 61.65 394.5 60.75 394.5 59.35Z" fill="#393B36"/>
<path id="Vector_29" d="M416.5 38.25C416.1 39.75 415.1 40.35 413.6 40.15C414 38.65 414.8 37.85 416.5 38.25Z" fill="#3CA229"/>
<path id="Vector_30" d="M393.5 57.35C393.9 58.05 394.2 58.65 394.6 59.35C393.8 58.95 393.2 58.45 393.5 57.35Z" fill="#393B36"/>
<path id="Vector_31" d="M417.5 37.35C417.5 37.95 417.2 38.25 416.6 38.25C416.5 37.45 416.9 37.35 417.5 37.35Z" fill="#3CA229"/>
<path id="Vector_32" d="M392.5 56.35C392.8 56.75 393.2 57.05 393.5 57.45C392.7 57.45 392.5 57.05 392.5 56.35Z" fill="#393B36"/>
<path id="Vector_33" d="M397.5 63.35C397.8 63.65 398.2 64.05 398.5 64.35C397.8 64.35 397.5 63.95 397.5 63.35Z" fill="#393B36"/>
<path id="Vector_34" d="M398.5 64.35C398.7 64.65 398.7 64.85 398.5 65.05C398.4 64.75 398.4 64.55 398.5 64.35Z" fill="#393B36"/>
<path id="Vector_35" d="M128.4 66.25C126.3 66.35 124.6 65.55 123.5 63.75C126.1 62.65 128 62.95 128.4 66.25Z" fill="#52686B"/>
<path id="Vector_36" d="M382.8 67.65C381.5 69.45 379.7 69.35 377.8 69.35C378.9 67.25 380.4 66.05 382.8 67.65Z" fill="#52686B"/>
<path id="Vector_37" d="M116.6 63.45C115.2 63.45 113.6 63.65 114.7 61.35C115.8 61.65 116.4 62.35 116.6 63.45Z" fill="#52686B"/>
<path id="Vector_38" d="M168.6 66.35C168 66.75 167.4 67.25 166.8 67.65C167.4 67.25 168.1 66.75 168.7 66.35H168.6Z" fill="#52686B"/>
<path id="Vector_39" d="M105.6 62.15C105.5 60.55 104.2 60.05 103 59.45C103 59.15 103 58.95 102.8 58.75C102.4 56.25 103.9 55.05 105.9 54.45C110.3 53.05 114.7 51.85 119.1 50.55C119.4 50.95 119.8 51.35 120.1 51.65C115.5 55.45 112 60.85 105.6 62.05V62.15Z" fill="#3CA229"/>
<path id="Vector_40" d="M175.8 68.45C176 68.45 176.2 68.45 176.5 68.45C176.9 70.95 177.2 73.55 177.6 76.05C175.8 76.65 174.5 74.95 172.8 75.05C172.2 73.35 170.1 73.45 169.2 71.95C170.8 69.45 173.3 68.85 175.8 68.25V68.45Z" fill="#767675"/>
<path id="Vector_41" d="M125.4 46.75C124.1 48.95 122 50.25 120.1 51.75C119.8 51.35 119.4 50.95 119.1 50.65C119.9 49.75 120.6 48.85 121.4 47.85C122.4 47.25 123.5 46.65 124.5 46.05C124.8 46.25 125.1 46.55 125.5 46.75H125.4Z" fill="#3CA229"/>
<path id="Vector_42" d="M128.7 41.55C129.3 41.55 130 41.55 130.6 41.45C129.7 43.65 128 44.95 126 46.05C125.8 45.75 125.6 45.45 125.4 45.15C125.7 44.15 126.9 43.55 126.7 42.35H126.6C127.5 42.65 128.1 42.15 128.7 41.55Z" fill="#3CA229"/>
<path id="Vector_43" d="M166.9 69.55C166.4 70.05 165.7 70.45 165.3 69.85C164.8 69.15 165.7 68.85 166.2 68.55C166.4 68.85 166.7 69.25 166.9 69.55Z" fill="#393B36"/>
<path id="Vector_44" d="M168.1 69.05C167.7 69.25 167.3 69.35 166.9 69.55C166.7 69.25 166.4 68.85 166.2 68.55C166.6 68.35 167 68.15 167.4 67.95C167.7 68.35 167.9 68.75 168.2 69.15L168.1 69.05Z" fill="#393B36"/>
<path id="Vector_45" d="M130.8 41.35C130.8 40.75 131.1 40.45 131.7 40.45C131.7 41.05 131.4 41.35 130.8 41.35Z" fill="#3CA229"/>
<path id="Vector_46" d="M131.8 40.35C131.8 39.75 132.1 39.45 132.7 39.45C132.7 40.05 132.4 40.35 131.8 40.35Z" fill="#3CA229"/>
<path id="Vector_47" d="M126.1 46.05C125.9 46.25 125.6 46.55 125.4 46.75C125.1 46.55 124.8 46.25 124.4 46.05C124.8 45.75 125.1 45.45 125.5 45.15C125.7 45.45 125.9 45.75 126.1 46.05Z" fill="#3CA229"/>
<path id="Vector_48" d="M378.7 75.55C377.8 74.55 376.3 74.05 376.6 72.25C378.4 72.65 378.6 74.05 378.7 75.55Z" fill="#393B36"/>
<path id="Vector_49" d="M401.8 73.85C402.6 73.95 403.7 74.25 403.1 75.15C402.5 76.05 401.4 75.15 400.6 74.85C401 74.55 401.4 74.15 401.8 73.85Z" fill="#90B67B"/>
<path id="Vector_50" d="M378.8 91.35C383.2 90.15 387.6 89.15 392.2 89.25C394 89.25 395.8 89.35 397.6 89.25C402.9 89.05 408.1 88.15 412.7 85.15C413.5 85.15 414.4 85.15 415.2 85.15C417.1 85.25 419 85.15 420.7 86.25C424.5 90.95 429.3 88.95 433.9 88.25C434.8 87.65 434.9 87.05 433.9 86.35C433.5 86.25 433 86.05 432.6 85.95C432.6 84.95 432.6 84.05 432.5 83.05C442 81.45 451.8 80.85 460.3 75.45C467.5 78.05 475 77.65 482.4 77.25C484.8 77.15 486.3 76.15 484.6 73.45C487 69.95 490.7 71.85 493.7 71.25C496 71.25 498.3 71.25 500.6 70.45C502.8 71.65 505.1 71.25 507.4 71.55C511 72.05 512.8 74.05 512.2 77.75C511.2 84.45 505.4 90.55 498.9 91.25C490.2 92.15 481.9 95.45 473.1 95.85C471 95.85 469 96.35 466.8 95.85C463.8 95.05 460.7 95.95 458.2 97.55C455 99.55 451.4 100.25 448.2 99.35C437.4 96.15 426.4 98.15 415.5 97.45C411.5 94.85 403.2 94.85 398.5 97.65C401 98.25 403.4 98.75 405.7 99.35C405.5 100.25 406.1 100.85 406.6 101.55C404.7 101.55 402.7 101.55 400.8 101.55C400.4 101.55 399.9 101.35 399.5 101.25C398.5 101.05 397.6 100.75 396.6 100.55C392 100.55 387.3 100.55 382.7 100.55C381.3 99.55 379.7 98.75 378.1 98.95C374.2 99.35 372.7 97.25 372.4 93.85C374.6 93.55 377.2 94.15 378.7 91.75L378.8 91.35ZM477.3 92.15C480.6 91.45 484.4 91.95 488.2 88.95C477.7 86.25 468.2 84.65 458.6 88.35C457.6 88.45 456.4 88.65 456.5 89.85C456.5 91.25 457.8 91.85 458.9 91.95C465 92.65 471.2 93.25 477.3 92.05V92.15Z" fill="#7DD220"/>
<path id="Vector_51" d="M372.5 93.55C372.8 97.05 374.3 99.05 378.2 98.65C379.9 98.45 381.4 99.35 382.8 100.25C381.7 101.35 379 101.15 379.4 103.35C379.8 105.75 382.2 105.25 383.9 105.25C387.9 105.45 391.9 105.25 395.9 105.35C398.8 105.35 400.7 104.35 400.9 101.15C402.8 101.15 404.8 101.15 406.7 101.15C407.6 101.15 408.6 101.15 409.5 101.25C409.9 102.55 410.3 103.85 410.7 105.15C410.3 105.15 409.8 105.35 409.4 105.35C408.8 105.55 408.3 105.75 407.7 105.95C392.4 107.45 377.2 107.95 361.9 105.65C357.6 105.05 353.3 104.75 349 105.65C344.1 106.75 339.4 105.05 334.6 105.05C318 105.05 301.3 105.05 284.7 105.05C284.3 105.05 283.9 105.05 283.5 105.05C282.2 105.05 281 105.05 279.7 105.05C272.8 103.65 265.8 103.05 258.8 103.05C256.8 102.75 254.7 102.35 252.7 102.05C250.5 100.85 248 101.15 245.6 101.15C243.8 101.15 241.9 101.35 240.1 100.95C223.9 97.85 207.5 96.85 191.1 96.85C190 96.85 188.9 96.25 187.8 95.95C181.6 94.35 175.4 95.15 169.2 95.15C165.9 95.15 162.9 94.75 161 91.75C165.4 92.35 169.7 92.65 174 91.15C176.3 91.35 178.6 91.65 180.9 91.75C191.8 92.25 202.5 94.55 213.4 93.85C223.8 94.35 234.3 94.95 244.7 95.45C245.6 96.05 246.7 96.25 247.8 96.05C249.1 96.05 250.4 96.05 251.7 96.15C258.5 97.35 265.1 99.65 272.1 98.25C272.9 98.55 273.6 98.95 274.4 99.05C293.7 101.35 313 102.45 332.4 101.65C338.9 101.35 345.8 102.65 352 99.35C352.8 98.05 353.6 96.75 354.5 95.45C359.7 95.45 365 95.95 369.8 93.25C370.6 93.25 371.5 93.45 372.3 93.55H372.5Z" fill="#9CDC3F"/>
<path id="Vector_52" d="M462.4 49.55C469.4 51.35 476.6 50.05 483.7 51.05C488.9 51.75 494.8 51.85 499.2 53.75C505.9 56.65 512.9 58.85 519.9 61.95C515 65.85 511 66.15 506.4 63.35C501.8 60.55 498.7 59.65 494.4 59.85C494.4 61.75 498.2 61.85 496.7 64.15C495.5 65.95 493.4 64.85 491.6 64.75C484.7 64.25 478.1 63.15 473.9 56.55C472.4 54.35 469.3 54.05 466.8 53.35C454.4 50.05 441.6 48.75 429.1 46.25C431.7 44.95 434.3 45.65 436.9 45.95C445.4 47.05 453.8 49.25 462.5 49.65L462.4 49.55Z" fill="#9CDC3F"/>
<path id="Vector_53" d="M258.9 103.15C265.9 103.15 272.9 103.75 279.8 105.15C276.4 108.95 272 109.45 267.2 109.35C257.7 109.15 248.2 109.35 238.8 109.35C238.1 107.25 235.7 106.55 234.7 104.65C241.1 104.75 247.4 104.85 253.8 105.05C255.9 105.05 257.8 105.05 258.9 103.05V103.15Z" fill="#7DD220"/>
<path id="Vector_54" d="M484.6 73.45C486.3 76.15 484.9 77.05 482.4 77.25C474.9 77.65 467.5 78.05 460.3 75.45C459 72.65 461.3 72.85 462.7 72.65C465.6 72.25 468.5 72.15 471.5 71.85C474.4 72.45 477.4 72.95 480.4 72.65L480.2 72.55C480.6 72.55 481 72.75 481.4 72.85C482.4 73.05 483.5 73.15 484.5 73.35L484.6 73.45Z" fill="#EBF5A9"/>
<path id="Vector_55" d="M406.1 45.75C407.4 45.15 408.6 44.45 409.9 43.85C410.5 43.75 411 43.55 411.6 43.45C411.3 46.15 413.4 46.05 415.1 46.55C419.8 47.75 424.6 48.45 429.3 50.55C427.3 51.75 425.4 51.15 423.6 51.45C422.9 51.55 421.7 51.45 422.1 52.75C422.3 53.25 423.5 53.25 424.3 53.45C424.3 54.25 424.3 55.05 424.3 55.85C421.7 55.85 419.4 54.85 417.3 53.35C417 50.45 415 50.65 412.9 50.95C409.9 49.75 406.8 48.55 403.8 47.35C404.5 46.85 405.1 46.35 405.8 45.85L406.1 45.75Z" fill="#79C33C"/>
<path id="Vector_56" d="M462.4 49.55C453.8 49.05 445.4 46.95 436.8 45.85C434.2 45.55 431.5 44.85 429 46.15C427.3 45.95 424.8 46.25 426.7 43.25C437.6 43.25 448.2 46.05 458.9 47.35C460.2 47.35 461.5 47.35 462.8 47.45C462.6 48.15 462.5 48.95 462.3 49.65L462.4 49.55Z" fill="#7DD220"/>
<path id="Vector_57" d="M458.9 47.25C448.1 46.05 437.6 43.25 426.7 43.15C425.6 42.85 424.5 42.55 423.4 42.25C432.5 39.65 441.4 42.45 450.3 43.35C453.4 43.65 457 43.85 458.9 47.25Z" fill="#9CDC3F"/>
<path id="Vector_58" d="M424.6 55.75C424.6 54.95 424.6 54.15 424.6 53.35C429 53.15 432.7 55.85 436.9 56.15C440.1 56.55 443.1 57.25 445 60.15C442.2 61.95 439.3 60.75 436.5 60.35C432.8 58.05 428.9 56.35 424.7 55.75H424.6Z" fill="#7DD220"/>
<path id="Vector_59" d="M405.7 99.05C403.3 98.55 401 97.95 398.5 97.35C403.2 94.55 411.5 94.55 415.5 97.15C412.2 97.75 409 98.35 405.7 99.05Z" fill="#9CDC3F"/>
<path id="Vector_60" d="M500.6 70.35C498.4 71.15 496.1 71.15 493.7 71.15C496.4 66.75 498.3 66.35 504 68.95C503.3 70.65 501.7 69.85 500.6 70.25V70.35Z" fill="#9CDC3F"/>
<path id="Vector_61" d="M410.8 105.35C410.4 104.05 410 102.75 409.6 101.45C410.4 101.45 411.3 101.35 412 101.55C413.9 102.35 417.8 101.35 417.3 104.15C416.9 106.35 413.3 106.15 410.8 105.35Z" fill="#7DD220"/>
<path id="Vector_62" d="M480.5 72.75C477.5 73.05 474.5 72.55 471.6 71.95C473 71.65 474.4 71.35 475.8 71.05C477.5 71.35 479.3 71.25 480.5 72.75Z" fill="#7DD220"/>
<path id="Vector_63" d="M161 91.85C163 94.85 166 95.25 169.2 95.25C175.4 95.25 181.7 94.45 187.8 96.05C182 96.75 175.8 96.05 171 100.35C181 102.25 190.9 103.95 200.9 101.75C204.5 105.25 209.2 105.45 215.6 102.35C216 103.25 216.3 104.25 216.7 105.15C213.5 105.25 211.3 107.35 208.9 109.25C196.1 106.15 182.9 107.55 170 105.25C161.9 103.85 153.7 103.05 145.5 103.15C144.3 103.15 143.3 102.55 142.4 101.65C146.7 101.15 151 100.65 155.1 99.25C156.3 98.85 157.9 98.45 157.7 96.75C157.5 95.35 156 95.35 154.9 95.15C147 93.45 139.1 93.95 131.2 94.95C128.7 95.25 124.3 95.45 124.2 98.25C124.1 101.25 128.6 99.75 130.7 101.25C116.2 102.55 101.8 99.95 87.5 98.65C76.9 97.65 65.7 95.95 55.9 90.45C52.9 88.75 49.1 88.95 46.1 86.95C44 85.55 41.2 84.05 41.8 81.45C42.4 78.85 45.3 77.75 48.1 77.45C49.6 77.25 51.1 77.25 52.6 77.15C53.3 77.15 54 77.15 54.8 77.15C56.6 77.95 58.4 78.25 60.2 77.15C65.2 78.15 70 77.85 74.7 75.75C75.6 75.35 76.7 74.95 76.6 73.75C76.6 72.65 75.5 72.15 74.5 71.85C71.2 70.85 67.8 69.95 64.5 69.05C67.1 62.15 74.3 61.55 79.4 58.05C80.5 60.95 76.9 65.15 82 66.85C84.1 66.85 86.3 67.05 88.4 67.15C91.1 69.45 87.6 71.85 88.4 74.15C84.2 75.25 79.3 74.55 74.9 78.45C91.6 82.25 107.1 86.45 123 88.85C123.3 89.45 123.4 90.35 123.8 90.55C129.1 93.05 134.7 92.65 140.2 91.55C141.6 91.25 142.2 89.95 142.5 88.55C144.8 88.25 146.1 89.75 147.6 91.05C151.3 94.25 153.9 93.65 156.7 89.25C157.4 89.25 158.1 89.25 158.8 89.25C159.2 89.85 159.7 90.45 160.1 91.05C160.4 91.25 160.6 91.45 160.9 91.65L161 91.85ZM90.3 95.25C92.3 95.15 94.3 95.15 96.3 94.85C98.4 94.55 101.2 94.45 101.6 91.95C101.9 89.65 99.1 89.15 97.4 88.35C89.8 85.35 82.1 82.85 74 81.35C66.1 79.95 58.2 78.95 50.2 80.25C48.2 80.55 45.4 80.45 45.2 82.55C45 85.05 48.1 85.25 50 85.85C52.7 86.55 55.6 86.75 58.3 87.45C64.6 89.05 71.4 88.55 77.1 91.95C81.3 94.45 85.6 95.55 90.4 95.15L90.3 95.25Z" fill="#7DD220"/>
<path id="Vector_64" d="M64.6 69.15C67.9 70.05 71.3 71.05 74.6 71.95C75.5 72.25 76.6 72.75 76.7 73.85C76.8 75.05 75.7 75.45 74.8 75.85C70.1 77.95 65.2 78.15 60.3 77.25C60.3 76.85 60.3 76.45 60.3 75.95C61.4 73.55 59.9 72.65 58 72.25C55.3 71.75 52.6 71.35 49.8 70.95C45.6 70.45 41.3 69.85 36.8 69.25C42.2 62.65 47.8 57.45 56.9 60.25C56.7 61.05 56.7 62.05 56.2 62.55C52.2 65.85 54.7 67.05 57.9 67.85C60.1 68.45 62.4 68.75 64.7 69.15H64.6Z" fill="#9CDC3F"/>
<path id="Vector_65" d="M130.8 101.25C128.7 99.75 124.2 101.25 124.3 98.25C124.4 95.45 128.8 95.25 131.3 94.95C139.2 93.95 147.1 93.45 155 95.15C156.1 95.35 157.6 95.35 157.8 96.75C158 98.45 156.4 98.85 155.2 99.25C151.1 100.65 146.8 101.15 142.5 101.65C141.9 101.65 141.3 101.65 140.8 101.65C138.1 101.65 135.3 101.55 132.6 101.45C132 101.45 131.4 101.45 130.8 101.35V101.25Z" fill="#9CDC3F"/>
<path id="Vector_66" d="M60.9 51.35C64.3 51.75 67.3 51.55 70.7 49.85C77 46.65 84 46.25 90.9 48.35C90.6 50.65 96.1 48.35 93.9 52.05L93.8 52.25C84.4 52.85 74.8 51.65 65.7 55.65C67.7 55.95 69.8 56.35 71.8 56.65C66.9 57.95 61.8 57.05 56.8 57.45C54.7 57.15 52.3 57.85 50.9 55.35C51.5 54.75 52.2 54.15 52.8 53.55C55.6 53.05 58.8 54.25 60.9 51.35Z" fill="#7DD220"/>
<path id="Vector_67" d="M56.8 57.45C61.8 57.05 66.8 57.95 71.8 56.65C74.4 56.65 76.9 56.65 79.5 56.65C79.5 57.15 79.6 57.65 79.7 58.15C74.6 61.55 67.4 62.15 64.8 69.05C62.5 68.65 60.2 68.35 58 67.75C54.7 66.95 52.3 65.75 56.3 62.45C56.8 62.05 56.8 60.95 57 60.15C57 59.25 57 58.25 57 57.35L56.8 57.45Z" fill="#3CA229"/>
<path id="Vector_68" d="M49.7 70.95C52.4 71.35 55.2 71.75 57.9 72.25C59.9 72.65 61.4 73.55 60.2 75.95C58.2 75.55 56.3 75.05 54.9 77.15C54.2 77.15 53.5 77.15 52.7 77.15C51.4 75.15 49.3 75.55 47.4 75.25C45.8 75.05 43.6 75.05 43.7 72.95C43.7 71.05 45.9 71.45 47.2 71.25C48 71.15 48.8 71.05 49.6 71.05L49.7 70.95Z" fill="#3CA229"/>
<path id="Vector_69" d="M132.6 101.35C135.3 101.35 138.1 101.45 140.8 101.55C138 103.75 135.3 103.95 132.6 101.35Z" fill="#7DD220"/>
<path id="Vector_70" d="M216.7 105.15C216.3 104.25 216 103.25 215.6 102.35C210.7 100.85 205.8 100.95 200.9 101.75C190.9 103.95 181 102.35 171 100.35C175.8 95.95 182 96.75 187.8 96.05C188.9 96.35 190 96.95 191.1 96.95C207.6 96.95 223.9 97.85 240.1 101.05C241.9 101.35 243.7 101.15 245.6 101.25C247.7 103.95 250.1 103.35 252.7 102.15C254.7 102.45 256.8 102.85 258.8 103.15C257.6 105.15 255.7 105.15 253.7 105.15C247.3 104.95 241 104.85 234.6 104.75C231.9 104.75 229.2 104.55 226.5 104.55C224.5 104.55 222.6 104.45 220.7 105.25C219.4 105.25 218 105.25 216.7 105.25V105.15Z" fill="#5BCE1D"/>
<path id="Vector_71" d="M213.5 108.15C220 105.75 225.7 106.05 231.5 107.25C232.3 107.45 233.4 107.45 233.4 108.55C233.4 109.75 232.3 110.15 231.4 110.35C225.6 111.35 219.9 111.85 213.6 108.15H213.5Z" fill="#EBF5A9"/>
<path id="Vector_72" d="M220.8 105.15C222.7 104.35 224.6 104.35 226.6 104.45C224.8 105.35 222.8 105.25 220.8 105.15Z" fill="#7DD220"/>
<path id="Vector_73" d="M93.9 52.05C96.1 48.25 90.6 50.65 90.9 48.35C96.9 47.45 102.9 47.05 108.9 47.55C108.9 47.95 109 48.35 109.1 48.75C103.9 49.15 99.2 52.25 93.9 52.05Z" fill="#EBF5A9"/>
<path id="Vector_74" d="M109.1 48.75C109.1 48.35 109 47.95 108.9 47.55C112.7 45.25 116.9 44.55 121.2 44.05C123.2 43.85 125.1 43.55 126.7 42.25C126.9 43.45 125.8 44.05 125.4 45.05C125 45.35 124.7 45.65 124.3 45.95C123.3 46.55 122.2 47.15 121.2 47.75C117 46.75 113 47.35 109 48.75H109.1Z" fill="#DAF73A"/>
<path id="Vector_75" d="M60.9 51.35C58.8 54.25 55.5 52.95 52.8 53.55C54.8 50.15 58.1 51.85 60.9 51.35Z" fill="#5BCE1D"/>
<path id="Vector_76" d="M128.7 41.55C128.1 42.15 127.5 42.65 126.6 42.35C127.3 42.05 128 41.75 128.7 41.55Z" fill="#DAF73A"/>
<path id="Vector_77" d="M272.2 98.35C265.2 99.75 258.5 97.45 251.8 96.25C253.6 95.65 255.3 95.05 257.6 94.25C253.6 92.55 250 92.65 246.5 92.15C247 90.45 245.2 89.65 244.8 87.85C253.7 87.85 261.6 92.75 270.3 92.05C271.4 92.35 272.5 92.25 273.6 91.65C275.1 91.45 276.6 91.35 278 91.15C283 92.05 287.9 90.95 292.9 91.15C294.1 91.15 295.2 91.15 296.4 91.05C300.3 89.45 304.4 89.25 308.5 89.25C314.6 89.15 320.7 89.85 326.7 88.35C327.3 88.35 328 88.15 328.6 88.15C328.1 89.25 327.7 90.45 327.2 91.55C321.8 92.85 316.2 92.15 310.8 92.05C301.9 91.85 293.4 96.75 284.2 93.65C281.1 92.55 282.1 95.45 282.6 97.15C279.1 97.15 275.5 96.65 272.1 98.25L272.2 98.35Z" fill="#79C33C"/>
<path id="Vector_78" d="M213.4 93.95C202.5 94.75 191.7 92.35 180.9 91.85C178.6 91.75 176.3 91.45 174 91.25C173.7 90.25 173.5 89.35 173.2 88.35C178.3 86.95 183.6 87.25 188.8 87.05C189.9 87.05 191 86.15 191.9 87.65C192.7 88.95 194.3 89.65 195.3 89.05C200 85.95 205.1 87.95 209.7 88.25C217 88.85 224.2 87.05 231.6 88.25C234.6 88.75 238 86.45 242.4 87.95C239.7 88.95 237.6 89.65 235.6 90.35C228.2 91.55 220.9 92.75 213.5 93.95H213.4Z" fill="#79C33C"/>
<path id="Vector_79" d="M82.1 66.95C77 65.25 80.6 60.95 79.5 58.15C80.9 57.95 81.9 57.25 82.6 56.15C85.2 55.05 87.9 55.35 90.6 55.45C90.3 56.95 89.9 58.55 89.5 60.45C92.8 59.85 95.5 58.65 98.5 59.25C98 59.75 97.6 60.25 97.1 60.65C90.5 66.25 91 68.45 99.5 71.55C103.8 73.15 108.5 73.55 112.4 76.05C105 75.55 97.7 74.95 90.3 74.45C89.6 74.45 89 74.25 88.3 74.25C87.4 71.95 90.9 69.55 88.3 67.25C88.9 65.75 91.8 64.25 88.6 62.65C85.2 60.95 82.1 62.95 81.9 67.05L82.1 66.95Z" fill="#9CDC3F"/>
<path id="Vector_80" d="M90.5 74.55C97.9 75.05 105.2 75.65 112.6 76.15C116.5 78.05 120.8 77.15 124.7 77.35C129.3 77.55 133.8 79.15 138.6 78.65C136.5 79.55 134.1 79.85 134.1 82.85C134 83.05 133.8 83.15 133.7 83.35C128.4 81.65 123.1 82.95 117.8 82.85C109 82.65 101.7 75.45 92.4 76.65C91.9 76.65 91.2 75.25 90.5 74.55Z" fill="#79C33C"/>
<path id="Vector_81" d="M188.7 87.05C183.5 87.15 178.2 86.85 173.1 88.35C169 86.95 164.9 87.15 160.8 88.35C161 84.75 159.1 83.45 155.7 82.95C152.7 82.45 149.2 83.95 146.7 81.25C146.8 79.75 147.9 79.25 149.1 79.35C156.1 79.75 163 79.15 169.8 82.45C174 84.45 179.4 84.05 184.3 84.45C186.4 84.65 187.7 85.35 188.6 87.15L188.7 87.05Z" fill="#9CDC3F"/>
<path id="Vector_82" d="M231.7 79.05C231.7 78.45 231.7 77.75 231.7 77.15C232.1 76.65 232.4 76.25 232.8 75.75C235.9 75.75 238.9 74.65 241.7 73.35C247.9 75.55 253.5 79.45 260.4 79.35C260.4 79.55 260.6 79.65 260.8 79.75C260.8 80.55 260.9 81.45 261 82.25C260.9 82.95 260.8 83.65 260.7 84.25C254.6 82.25 248.3 82.75 242 82.95C239.8 82.95 237.7 82.95 236.1 81.15C234.9 79.85 233.6 79.05 231.8 79.05H231.7Z" fill="#63655E"/>
<path id="Vector_83" d="M98.7 59.35C95.7 58.75 93 59.95 89.7 60.55C90.1 58.65 90.4 57.05 90.8 55.55C92.7 55.25 93.4 53.95 93.8 52.25L93.9 52.05C99.3 52.25 103.9 49.25 109.1 48.75C113.1 47.35 117.2 46.75 121.3 47.75C120.5 48.65 119.8 49.55 119 50.55C114.6 51.85 110.2 53.15 105.8 54.45C103.8 55.05 102.3 56.25 102.7 58.75C101.7 58.95 100.7 59.15 99.7 59.35C99.4 59.35 99 59.35 98.7 59.35Z" fill="#7DD220"/>
<path id="Vector_84" d="M372.5 93.55C371.7 93.55 370.8 93.35 370 93.25C369.8 92.35 369.7 91.35 369.5 90.45L370.8 86.45C378.7 84.85 386.7 83.15 394.6 81.55C397 81.05 397.2 82.85 397 84.65C391.3 87.65 384.8 87.05 378.8 88.45C377.7 88.65 376.1 88.45 376.1 89.95C376.1 91.55 377.9 90.95 378.9 91.35C377.4 93.75 374.8 93.15 372.6 93.45L372.5 93.55Z" fill="#79C33C"/>
<path id="Vector_85" d="M213.4 93.95C220.8 92.75 228.1 91.55 235.5 90.35C238.4 95.35 242.5 92.85 246.4 92.25C249.9 92.65 253.6 92.55 257.5 94.35C255.2 95.15 253.4 95.75 251.7 96.35C250.4 96.35 249.1 96.35 247.8 96.25C246.8 96.05 245.7 95.85 244.7 95.65C234.3 95.15 223.8 94.55 213.4 94.05V93.95Z" fill="#3CA229"/>
<path id="Vector_86" d="M354.6 95.45C353.8 96.75 353 98.05 352.1 99.35C351.5 98.55 351 97.85 350.4 97.05C350.8 92.75 348.6 91.15 344.6 91.35C340.7 91.45 336.8 91.55 332.9 91.55C331.9 88.65 334 88.65 335.8 88.45C338.1 88.25 340.4 88.65 342.6 87.65C343.1 87.65 343.6 87.65 344.1 87.65C345.5 87.65 346.9 87.45 348.3 87.35C349.6 87.35 350.9 87.35 352.1 87.35C353.1 87.95 354.2 88.55 355.2 89.25C355.4 91.35 350.8 93.05 354.5 95.55L354.6 95.45Z" fill="#79C33C"/>
<path id="Vector_87" d="M354.6 95.45C350.9 92.95 355.5 91.35 355.3 89.15C356.4 89.15 357.1 88.65 357.7 87.85C359.1 87.85 360.5 87.85 361.8 87.85C363.9 90.15 366.9 89.75 369.5 90.55C369.7 91.45 369.8 92.45 370 93.35C365.2 96.05 359.9 95.45 354.7 95.55L354.6 95.45Z" fill="#DAF73A"/>
<path id="Vector_88" d="M146.8 81.25C149.4 83.95 152.8 82.45 155.8 82.95C159.1 83.55 161 84.85 160.9 88.35H160.7L158.8 89.35C158.1 89.35 157.4 89.35 156.7 89.35C156.7 88.75 156.7 88.15 156.7 87.45C155.7 85.25 153.7 84.95 151.6 84.95C147.8 84.95 144 84.95 140.1 85.05C137.8 85.05 135.4 85.05 133.6 83.05C133.7 82.85 133.9 82.75 134 82.55C138.5 83.95 142.5 81.65 146.7 80.95L146.8 81.25Z" fill="#79C33C"/>
<path id="Vector_89" d="M326.6 88.55C320.6 90.05 314.5 89.35 308.4 89.45C304.3 89.45 300.2 89.75 296.3 91.25C297 89.65 297.8 88.15 299.7 87.95C308.7 87.25 317.7 86.65 326.7 88.45L326.6 88.55Z" fill="#9CDC3F"/>
<path id="Vector_90" d="M342.6 87.65C340.4 88.65 338.1 88.25 335.8 88.45C333.9 88.65 331.9 88.65 332.9 91.55C331.1 94.75 329.2 95.25 327.2 91.75C327.7 90.65 328.1 89.45 328.6 88.35C333.3 87.55 337.9 85.45 342.7 87.65H342.6Z" fill="#9CDC3F"/>
<path id="Vector_91" d="M268.6 85.15C267.6 83.75 265.7 82.75 265.9 80.55C269.8 81.95 273.4 80.75 277 79.35C277.3 82.65 274 83.55 272.7 85.85C271.7 85.85 270.6 85.85 269.6 85.85C269.3 85.65 269 85.45 268.8 85.25V85.05L268.6 85.15Z" fill="#767675"/>
<path id="Vector_92" d="M369.5 90.45C366.9 89.65 363.9 90.05 361.8 87.75C364.5 85.35 367.3 84.05 370.7 86.45C370.3 87.75 369.8 89.15 369.4 90.45H369.5Z" fill="#9CDC3F"/>
<path id="Vector_93" d="M292.8 91.45C287.8 91.15 282.9 92.25 277.9 91.45C281.1 90.75 284.3 89.75 287.6 89.35C289.5 89.05 291.6 89.65 292.8 91.55V91.45Z" fill="#9CDC3F"/>
<path id="Vector_94" d="M357.7 87.85C357.1 88.75 356.4 89.15 355.3 89.15C354.2 88.55 353.2 87.95 352.2 87.25L352 86.85C354.1 86.25 356 86.45 357.8 87.85H357.7Z" fill="#9CDC3F"/>
<path id="Vector_95" d="M348.3 87.35C346.9 87.35 345.5 87.55 344.1 87.65C345.4 86.65 346.8 86.35 348.4 87.15L348.3 87.45V87.35Z" fill="#9CDC3F"/>
<path id="Vector_96" d="M348.3 87.35L348.4 87.05C349.5 86.25 350.7 86.35 351.9 86.95L352.1 87.35C350.8 87.35 349.5 87.35 348.3 87.35Z" fill="#DAF73A"/>
<path id="Vector_97" d="M273.5 91.85C272.5 92.45 271.4 92.55 270.2 92.25C271.3 92.15 272.4 91.95 273.5 91.85Z" fill="#9CDC3F"/>
<path id="Vector_98" d="M99.7 59.35C100.7 59.15 101.7 58.95 102.7 58.75C102.9 58.95 103 59.15 102.9 59.45C101.8 60.35 100.7 60.25 99.7 59.35Z" fill="#9CDC3F"/>
<path id="Vector_99" d="M268.7 85.35C269 85.55 269.3 85.75 269.5 85.95C269.2 85.75 268.9 85.55 268.7 85.35Z" fill="#90B67B"/>
<path id="Vector_100" d="M420.6 61.55C415.1 63.65 409.5 63.55 403.8 62.55C402.9 62.35 402.3 61.65 402.3 60.75C402.3 59.55 403.1 58.85 404.2 58.85C409.8 58.65 415.3 58.95 420.6 61.55Z" fill="#79C33C"/>
<path id="Vector_101" d="M432.6 83.15C432.6 84.15 432.6 85.05 432.7 86.05C428.7 86.15 424.7 86.25 420.7 86.35C419 85.35 417.1 85.35 415.2 85.25C420.8 83.15 426.7 83.25 432.6 83.15Z" fill="#79C33C"/>
<path id="Vector_102" d="M423.4 72.15C422.5 70.85 420.5 70.45 420.6 68.45C420.9 68.25 421.2 68.05 421.5 67.95C423.9 67.55 427.5 66.25 428.3 68.65C429.3 71.65 424.7 70.15 423.5 72.05L423.4 72.15Z" fill="#EBF5A9"/>
<path id="Vector_103" d="M412.6 85.15C408 88.15 402.8 88.95 397.5 89.25C395.7 89.25 393.9 89.25 392.1 89.25C398.8 87.35 405.7 86.15 412.6 85.15Z" fill="#79C33C"/>
<path id="Vector_104" d="M436.4 60.35C439.2 60.75 442.1 61.85 444.9 60.15C446.3 60.95 447.9 62.45 445.3 62.95C442.2 63.55 438.3 64.95 436.4 60.35Z" fill="#5BCE1D"/>
<path id="Vector_105" d="M413.2 50.85C415.3 50.55 417.3 50.35 417.6 53.25C415.8 53.05 414 52.85 413.2 50.85Z" fill="#5BCE1D"/>
<path id="Vector_106" d="M416.1 72.45C415.9 72.65 415.7 72.85 415.6 72.95C415.4 72.75 415.3 72.55 415.2 72.35C415.2 72.35 415.4 72.05 415.5 72.05C415.7 72.05 416 72.25 416.2 72.35L416.1 72.45Z" fill="#EBF5A9"/>
<path id="Vector_107" d="M196.4 69.45C198.8 67.95 200.5 69.75 202.4 70.65C206.7 72.75 210.9 75.35 216 75.15C218.2 75.25 220.4 75.35 222.7 75.55C222.7 76.35 222.5 77.05 222.4 77.85C220.9 78.15 219.4 78.45 217.8 77.85C215.5 77.45 213.1 76.95 210.8 76.55C206 74.75 201.1 73.05 196.8 70.35C196.8 70.05 196.6 69.75 196.5 69.45H196.4Z" fill="#393B36"/>
<path id="Vector_108" d="M196.7 70.25C201.1 73.05 206 74.65 210.7 76.45C205.9 77.95 199 74.95 196.7 70.25Z" fill="#4C4F48"/>
<path id="Vector_109" d="M282.1 76.85C288.8 76.55 295.6 76.55 302.3 75.75C306.5 75.25 310.9 77.95 314.8 74.75C318.4 75.05 322 75.25 325.5 75.55C325.5 76.35 325.5 77.25 325.6 78.05C314 77.95 302.5 79.95 290.9 79.55C288.8 79.55 286.5 79.55 284.5 79.95C279.5 81.05 279.5 81.15 280.4 75.45C281.3 75.55 279.9 78.45 282.2 76.85H282.1Z" fill="#63655E"/>
<path id="Vector_110" d="M458.6 88.45C468.2 84.75 477.7 86.35 488.2 89.05C484.4 92.05 480.6 91.45 477.3 92.25C474.2 91.95 471.1 91.65 468.1 91.35C464.7 91.05 461.2 91.35 458.6 88.45Z" fill="#DAF73A"/>
<path id="Vector_111" d="M400.9 101.25C400.7 104.45 398.8 105.45 395.9 105.45C391.9 105.45 387.9 105.45 383.9 105.35C382.2 105.35 379.8 105.85 379.4 103.45C379.1 101.35 381.7 101.45 382.8 100.35C387.4 100.35 392.1 100.35 396.7 100.35C397.6 100.95 398.5 101.15 399.6 101.05C400 101.05 400.5 101.25 400.9 101.35V101.25Z" fill="#DAF73A"/>
<path id="Vector_112" d="M458.6 88.45C461.1 91.45 464.7 91.05 468.1 91.35C471.2 91.65 474.3 91.95 477.3 92.25C471.1 93.45 465 92.85 458.9 92.15C457.8 92.05 456.5 91.45 456.5 90.05C456.5 88.75 457.6 88.65 458.6 88.55V88.45Z" fill="#9CDC3F"/>
<path id="Vector_113" d="M420.6 86.25C424.6 86.15 428.6 86.05 432.6 85.95C433 86.05 433.5 86.25 433.9 86.35C433.9 86.95 433.9 87.55 433.9 88.25C429.3 88.95 424.5 90.95 420.7 86.25H420.6Z" fill="#9CDC3F"/>
<path id="Vector_114" d="M433.9 88.25C433.9 87.65 433.9 86.95 433.9 86.35C434.8 87.05 434.7 87.65 433.9 88.25Z" fill="#79C33C"/>
<path id="Vector_115" d="M399.6 100.95C398.5 101.15 397.6 100.95 396.7 100.25C397.7 100.45 398.6 100.75 399.6 100.95Z" fill="#9CDC3F"/>
<path id="Vector_116" d="M350.4 97.05C351 97.85 351.5 98.55 352.1 99.35C345.9 102.65 339 101.45 332.5 101.65C313.1 102.45 293.7 101.45 274.5 99.05C273.7 99.05 272.9 98.55 272.2 98.25C275.6 96.65 279.1 97.25 282.7 97.15C305.3 96.95 327.9 97.75 350.5 96.95L350.4 97.05Z" fill="#5BCE1D"/>
<path id="Vector_117" d="M160.9 88.35C165 87.15 169.1 86.95 173.2 88.35C173.5 89.35 173.7 90.25 174 91.25C169.7 92.85 165.4 92.55 161 91.85C160.7 91.65 160.5 91.45 160.2 91.25C160.4 90.35 160.6 89.35 160.8 88.45H161L160.9 88.35Z" fill="#DAF73A"/>
<path id="Vector_118" d="M252.7 102.15C250.2 103.35 247.7 103.95 245.6 101.25C248 101.25 250.4 100.95 252.7 102.15Z" fill="#7DD220"/>
<path id="Vector_119" d="M244.7 95.55C245.7 95.75 246.8 95.95 247.8 96.15C246.7 96.35 245.7 96.15 244.7 95.55Z" fill="#79C33C"/>
<path id="Vector_120" d="M90.3 95.25C85.5 95.65 81.2 94.65 77 92.05C71.3 88.65 64.5 89.05 58.2 87.55C55.5 86.85 52.6 86.65 49.9 85.95C48 85.45 44.9 85.25 45.1 82.65C45.3 80.55 48.2 80.65 50.1 80.35C58.1 79.05 66 80.05 73.9 81.45C81.9 82.85 89.7 85.35 97.3 88.45C99.1 89.15 101.8 89.75 101.5 92.05C101.2 94.55 98.3 94.55 96.2 94.95C94.2 95.25 92.2 95.25 90.2 95.35L90.3 95.25Z" fill="#DAF73A"/>
<path id="Vector_121" d="M133.7 83.35C135.5 85.25 137.9 85.25 140.2 85.35C141.6 86.95 143.5 87.35 145.5 87.35C149.2 87.35 153 87.55 156.7 87.65C156.7 88.25 156.7 88.85 156.7 89.55C153.9 93.95 151.3 94.55 147.6 91.35C146.1 90.05 144.8 88.55 142.5 88.85C136 87.75 129.5 89.75 123 89.15C107.1 86.75 91.6 82.55 74.9 78.75C79.3 74.95 84.2 75.55 88.4 74.45C89.1 74.45 89.7 74.65 90.4 74.65C91 75.35 91.7 76.85 92.3 76.75C101.6 75.45 108.9 82.75 117.7 82.95C123 83.05 128.3 81.75 133.6 83.45L133.7 83.35Z" fill="#5BCE1D"/>
<path id="Vector_122" d="M123.2 88.95C129.7 89.55 136.2 87.65 142.7 88.65C142.5 90.05 141.8 91.35 140.4 91.65C134.9 92.75 129.3 93.05 124 90.65C123.6 90.45 123.5 89.55 123.2 88.95Z" fill="#9CDC3F"/>
<path id="Vector_123" d="M82.1 66.95C82.3 62.95 85.4 60.85 88.8 62.55C92.1 64.25 89.1 65.65 88.5 67.15C86.4 67.15 84.2 66.95 82.1 66.85V66.95Z" fill="#DAF73A"/>
<path id="Vector_124" d="M201 101.75C205.9 100.95 210.9 100.85 215.7 102.35C209.3 105.45 204.6 105.35 201 101.75Z" fill="#9CDC3F"/>
<path id="Vector_125" d="M54.8 77.15C56.2 75.05 58.2 75.55 60.1 75.95C60.1 76.35 60.1 76.75 60.1 77.25C58.3 78.25 56.5 77.95 54.7 77.25L54.8 77.15Z" fill="#5BCE1D"/>
<path id="Vector_126" d="M160.7 88.45C160.5 89.35 160.3 90.35 160.1 91.25C159.7 90.65 159.2 90.05 158.8 89.45C159.4 89.15 160.1 88.85 160.7 88.45Z" fill="#9CDC3F"/>
<path id="Vector_127" d="M93.8 52.25C93.4 53.95 92.7 55.25 90.8 55.55C88.1 55.35 85.4 55.05 82.8 56.25C81.7 56.45 80.6 56.55 79.5 56.75C76.9 56.75 74.4 56.75 71.8 56.75C69.7 56.45 67.7 56.05 65.7 55.75C74.8 51.75 84.4 53.05 93.8 52.35V52.25Z" fill="#DAF73A"/>
<path id="Vector_128" d="M79.4 56.75C80.5 56.55 81.6 56.45 82.7 56.25C81.9 57.35 80.9 58.05 79.6 58.25C79.6 57.75 79.5 57.25 79.4 56.75Z" fill="#7DD220"/>
<path id="Vector_129" d="M222.3 77.75C222.3 76.95 222.5 76.25 222.6 75.45C225.9 75.05 229.2 74.55 232.5 74.15C232.5 74.65 232.7 75.15 232.8 75.65C232.4 76.15 232.1 76.55 231.7 77.05C230.1 77.25 228.4 77.45 226.8 77.65C225.3 77.35 223.8 77.45 222.4 78.05L222.3 77.75Z" fill="#4C4F48"/>
<path id="Vector_130" d="M222.5 78.15C223.9 77.55 225.4 77.45 226.9 77.75C225.5 78.95 224.3 80.75 222.5 78.15Z" fill="#63655E"/>
<path id="Vector_131" d="M350.4 97.05C327.8 97.95 305.2 97.05 282.6 97.25C282.1 95.55 281.1 92.75 284.2 93.75C293.4 96.85 301.9 92.05 310.8 92.15C316.2 92.15 321.8 93.05 327.2 91.65C329.2 95.15 331.1 94.75 332.9 91.45C336.8 91.45 340.7 91.45 344.6 91.25C348.6 91.05 350.9 92.65 350.4 96.95V97.05Z" fill="#3CA229"/>
<path id="Vector_132" d="M232.8 75.65C232.8 75.15 232.6 74.65 232.5 74.15C233.7 73.55 234.8 72.85 236 72.25C238.4 71.75 240.8 71.25 243.3 70.75C243.4 72.25 242.2 72.55 241.7 73.25C238.9 74.55 236 75.55 232.8 75.65Z" fill="#393B36"/>
<path id="Vector_133" d="M260.7 79.65C261 79.65 261.4 79.55 261.7 79.55C261.9 80.55 261.7 81.55 260.9 82.15C260.9 81.35 260.8 80.45 260.7 79.65Z" fill="#4C4F48"/>
<path id="Vector_134" d="M156.8 87.65C153.1 87.65 149.3 87.45 145.6 87.35C143.6 87.35 141.7 86.95 140.3 85.35C144.1 85.35 147.9 85.25 151.8 85.25C153.9 85.25 155.8 85.55 156.9 87.75L156.8 87.65Z" fill="#3CA229"/>
<path id="Vector_135" d="M236 72.35C234.8 72.95 233.7 73.65 232.5 74.25C229.2 74.65 225.9 75.15 222.6 75.55C220.4 75.45 218.2 75.35 215.9 75.15C222.5 73.85 229.2 72.65 236 72.35Z" fill="#63655E"/>
<path id="Vector_136" d="M325.5 75.55C321.9 75.25 318.3 75.05 314.8 74.75C311.9 74.25 308.9 73.65 306 73.45C302.2 73.05 299.7 71.15 298.1 67.95C299.1 66.95 299.9 67.35 300.6 67.75C312.7 73.75 325.1 75.35 338 70.55C338.8 70.25 339.6 70.35 340.4 70.15C340.5 70.25 340.7 70.45 340.8 70.55C336.6 74.85 330.6 74.05 325.5 75.55Z" fill="#393B36"/>
<path id="Vector_137" d="M340.4 70.05C340.9 69.85 341.1 70.05 340.8 70.45C340.7 70.35 340.5 70.15 340.4 70.05Z" fill="#393B36"/>
</g>
</svg>
