<svg width="15" height="13" viewBox="0 0 15 13" fill="none" xmlns="http://www.w3.org/2000/svg">
<path d="M14.375 8.375V10.25C14.375 10.5938 14.0938 10.875 13.75 10.875H13.125V11.5C13.125 12.1938 12.5688 12.75 11.875 12.75H3.125C2.79348 12.75 2.47554 12.6183 2.24112 12.3839C2.0067 12.1495 1.875 11.8315 1.875 11.5V10.875H1.25C0.90625 10.875 0.625 10.5938 0.625 10.25V8.375C0.625 8.03125 0.90625 7.75 1.25 7.75H1.875C1.875 5.33125 3.83125 3.375 6.25 3.375H6.875V2.58125C6.5 2.36875 6.25 1.9625 6.25 1.5C6.25 0.812502 6.8125 0.250002 7.5 0.250002C8.1875 0.250002 8.75 0.812502 8.75 1.5C8.75 1.9625 8.5 2.36875 8.125 2.58125V3.375H8.75C11.1687 3.375 13.125 5.33125 13.125 7.75H13.75C14.0938 7.75 14.375 8.03125 14.375 8.375ZM13.125 9H11.875V7.75C11.875 6.025 10.475 4.625 8.75 4.625H6.25C4.525 4.625 3.125 6.025 3.125 7.75V9H1.875V9.625H3.125V11.5H11.875V9.625H13.125V9Z" fill="#1E2838"/>
</svg>
