<svg width="534" height="344" viewBox="0 0 534 344" fill="none" xmlns="http://www.w3.org/2000/svg">
    <g id="rick-404">
        <g id="Portal">
            <path id="Vector"
                d="M436.4 247.85C430.5 252.65 424.5 257.35 418.6 262.15C418.3 262.55 418 262.85 417.7 263.25C417.1 263.25 416.6 263.45 416.8 264.15C415.1 263.85 414.3 264.65 413.9 266.15C411.8 265.95 410.5 267.45 409.1 268.65C407.7 269.15 406.4 269.95 405.4 271.15C403.5 272.35 400.8 272.55 399.8 275.05C397.1 274.55 395.3 276.65 393.1 277.45C389.8 278.65 390.2 280.45 392.8 282.25C392.8 282.85 393 283.35 393.8 283.25C393.4 284.25 394 284.85 394.9 285.25C394.9 286.65 395.8 287.55 396.9 288.25C397.2 288.55 397.6 288.95 397.9 289.25C397.9 289.85 398.2 290.25 398.9 290.25C398.7 290.35 398.7 290.65 398.9 290.85C399.5 292.45 401.1 293.05 402.4 293.95C402.6 294.75 402.9 295.55 403.1 296.25C402.8 297.25 402.5 298.25 402.2 299.25C398.6 296.45 396.6 292.25 393.5 289.05C385.8 276.95 388.8 277.35 397.6 272.05C405.5 267.25 413.9 263.15 421.1 257.15C422 256.75 423 256.35 423.2 255.15C426.6 254.05 429.3 252.15 431.2 249.15C432.1 249.25 432.8 248.85 433.3 248.15C435.9 245.75 438.5 243.45 441.1 241.05H441.2C441.8 240.65 442.4 240.35 443 239.95C443.3 240.25 443.6 240.45 443.9 240.75C443.6 241.15 443.4 241.65 443.1 242.05C441 243.25 439.3 244.85 437.9 246.85C437.6 247.15 437.2 247.35 436.9 247.65L436.4 247.85Z"
                fill="#90B67B" />
            <path id="Vector_2"
                d="M442.7 237.85C447.8 235.95 450 231.25 452.9 227.25C453.8 227.05 454.7 225.85 455.5 226.85C456.2 227.65 455.5 228.65 454.8 229.45C451 233.25 447.2 237.15 443.4 240.95C443.1 240.65 442.8 240.45 442.5 240.15C442.5 239.35 442.7 238.65 442.8 237.85H442.7Z"
                fill="#90B67B" />
            <path id="Vector_3"
                d="M128.4 292.25C129 292.25 129.6 292.05 130.2 292.05C131.1 293.45 132.5 293.95 134 293.95C144.5 293.95 154.9 293.95 165.4 293.75C165.8 293.75 166.3 293.75 166.7 293.75C166.8 293.95 167 293.95 167.2 293.95C166.8 294.15 166.4 294.35 166 294.55C165.5 294.85 164.6 295.15 165.1 295.85C165.5 296.45 166.2 296.05 166.7 295.55C167.1 295.35 167.5 295.25 167.9 295.05C170.5 294.85 172.8 291.65 175.6 294.35C173.1 294.95 170.5 295.55 169 298.05C169.9 299.45 172 299.35 172.6 301.15C171.1 302.65 168.9 302.65 167.5 302.05C163 299.95 158.5 298.55 153.4 299.85C150.3 300.65 147 297.85 144.6 298.85C137.7 301.65 131.3 298.75 124.7 298.85C123.4 298.85 122.9 297.65 122.4 296.55C121.6 294.95 120.2 294.15 118.7 295.25C114.5 298.45 110.3 295.95 106.5 294.75C102.6 293.45 102.3 290.25 105.4 288.25C111.8 287.05 115.3 281.65 119.9 277.85C121.9 276.35 124 275.05 125.2 272.85C125.4 272.65 125.7 272.35 125.9 272.15C127.9 271.05 129.6 269.75 130.5 267.55H130.6C131.2 267.55 131.5 267.15 131.5 266.55C132.1 266.55 132.4 266.15 132.4 265.55C134.8 263.15 137.3 260.75 139.7 258.25C141 256.95 140.8 255.65 139.7 254.35C142.1 255.15 142.3 255.65 142 258.45C141.4 262.35 138.5 264.95 136.5 268.05C135.2 268.95 133.9 269.85 133.5 271.45C131 272.25 129.3 273.95 128.5 276.45C127.2 276.45 126.4 277.05 126.5 278.45C123.2 278.75 121.4 281.25 119.5 283.55C117.4 284.35 115.7 285.75 114.6 287.65C113.5 289.95 115.1 289.75 116.5 289.75C118.8 289.75 121.1 289.95 123.3 289.95C124.4 291.75 126.1 292.65 128.2 292.45L128.4 292.25Z"
                fill="#90B67B" />
            <path id="Vector_4"
                d="M376.5 295.35C376.9 295.35 377.4 295.35 377.8 295.35C379.7 295.35 381.5 295.35 382.8 293.65C383.8 293.65 384.9 293.45 385.9 293.35C389 293.15 392.6 293.85 393.1 289.15C396.2 292.35 398.2 296.65 401.8 299.35V299.75C401.4 300.05 401 300.45 400.6 300.75C399.1 301.95 397.6 302.15 396.2 300.75C395.3 299.85 394.7 299.85 393.8 300.65C391.8 302.35 389.8 302.75 388 300.15C387.5 299.35 386.2 299.05 386 299.75C385 303.05 382 300.45 380.4 301.85C379.8 301.75 379.3 301.65 378.7 301.55C378.6 300.15 378.4 298.65 376.6 298.25V298.35C376.6 297.35 376.6 296.25 376.5 295.25V295.35Z"
                fill="#767675" />
            <path id="Vector_5"
                d="M430.7 249.35C428.8 252.45 426.1 254.35 422.7 255.35C424.2 251.75 425.9 248.55 430.7 249.35Z"
                fill="#44575C" />
            <path id="Vector_6"
                d="M440.5 241.35C437.9 243.75 435.3 246.05 432.7 248.45C432.7 243.25 436.5 242.15 440.5 241.35Z"
                fill="#44575C" />
            <path id="Vector_7"
                d="M119.7 283.25C121.6 281.05 123.3 278.45 126.7 278.15C125.8 281.75 122.6 282.35 119.7 283.25Z"
                fill="#44575C" />
            <path id="Vector_8"
                d="M128.6 276.25C129.4 273.75 131.1 272.05 133.6 271.25C132.7 273.75 131.5 275.85 128.6 276.25Z"
                fill="#44575C" />
            <path id="Vector_9"
                d="M133.6 271.25C134.1 269.65 135.3 268.65 136.6 267.85C136.3 269.65 135.3 270.85 133.6 271.25Z"
                fill="#44575C" />
            <path id="Vector_10"
                d="M442.7 237.85C442.7 238.65 442.5 239.35 442.4 240.15C441.8 240.55 441.2 240.85 440.6 241.25C440.8 239.85 441.7 238.85 442.7 237.85Z"
                fill="#44575C" />
            <path id="Vector_11"
                d="M126.6 278.25C126.6 276.85 127.3 276.25 128.6 276.25C128.2 277.25 127.5 277.85 126.6 278.25Z"
                fill="#44575C" />
            <path id="Vector_12"
                d="M422.7 255.35C422.6 256.55 421.6 256.95 420.6 257.35C421.3 256.65 422 255.95 422.7 255.35Z"
                fill="#44575C" />
            <path id="Vector_13"
                d="M432.7 248.35C432.2 249.05 431.5 249.55 430.6 249.35C431.3 249.05 432 248.65 432.7 248.35Z"
                fill="#44575C" />
            <path id="Vector_14"
                d="M481.5 273.25C487.3 276.75 494.2 274.75 500.4 277.15C509.8 280.75 519.2 284.75 528.9 287.55C531.5 288.25 533.3 289.85 529.4 292.05C525.9 294.05 526.9 296.45 529.2 298.95C535.6 305.75 535.7 306.05 527.1 309.75C521.9 311.95 519.9 317.95 514.1 319.45C511.7 320.05 509.5 321.25 506.9 321.25C495.9 321.15 485.1 322.95 474.5 325.55C463.8 328.15 452.7 328.15 442.2 331.35C422.5 337.35 402.4 337.75 382 337.35C364.9 337.05 347.7 337.25 330.6 337.55C326 337.55 321 336.95 317 340.35C315.7 340.85 314.4 340.95 313 340.55C307.3 339.35 301.5 338.75 295.7 339.65C276.4 342.55 257 341.05 237.6 341.25C236.1 341.25 234.3 341.85 232.7 339.95C235.4 339.25 236.8 337.15 238.6 335.45C248.1 335.45 257.6 335.15 267 335.45C271.8 335.55 276.2 335.15 279.6 331.25H283.4C283.8 331.25 284.2 331.25 284.6 331.25C301.2 331.25 317.9 331.35 334.5 331.25C339.3 331.25 344 332.95 348.9 331.85C353.2 330.95 357.5 331.15 361.8 331.85C377 334.15 392.3 333.65 407.6 332.15C408.2 331.95 408.7 331.75 409.3 331.55C409.7 331.55 410.2 331.35 410.6 331.35C413.1 332.15 416.7 332.35 417.1 330.15C417.6 327.35 413.7 328.35 411.8 327.55C411.1 327.25 410.2 327.45 409.4 327.45C408.5 327.45 407.5 327.45 406.6 327.35C406.1 326.75 405.5 326.15 405.7 325.15C409 324.55 412.2 323.95 415.5 323.25C426.4 323.95 437.4 321.85 448.2 325.15C451.5 326.15 455 325.35 458.2 323.35C460.7 321.85 463.8 320.95 466.8 321.65C469 322.25 471 321.75 473.1 321.65C481.9 321.25 490.2 317.95 498.9 317.05C505.4 316.35 511.2 310.25 512.2 303.55C512.7 299.95 510.9 297.85 507.4 297.35C505.1 297.05 502.7 297.45 500.6 296.25C501.7 295.85 503.3 296.65 504 294.95C498.4 292.25 496.4 292.65 493.7 297.15C490.6 297.75 486.9 295.85 484.6 299.35C483.6 299.15 482.5 299.05 481.5 298.85C481.1 298.85 480.7 298.65 480.3 298.55H480.5C479.3 297.15 477.4 297.35 475.8 296.95C476 294.35 478.7 291.85 477.2 289.45C474.4 285.05 470.5 281.55 464.9 281.15C461.9 280.95 459 280.45 456.3 279.15C452 277.05 447.4 277.05 442.7 277.25C439.5 277.45 437.3 278.55 436.8 282.05C432.6 281.65 428.8 279.05 424.5 279.25C423.7 279.05 422.5 278.95 422.3 278.55C421.8 277.35 423 277.45 423.8 277.25C425.5 276.95 427.4 277.55 429.5 276.35C424.8 274.25 420 273.55 415.3 272.35C413.6 271.95 411.5 271.95 411.8 269.25C415.6 268.15 419.6 267.95 423.6 268.15C424.7 268.45 425.8 268.75 426.9 269.05C424.9 272.15 427.4 271.75 429.2 271.95C441.7 274.55 454.5 275.85 466.9 279.05C469.5 279.75 472.6 279.95 474 282.25C478.3 288.85 484.8 289.95 491.7 290.45C493.5 290.55 495.6 291.75 496.8 289.85C498.3 287.55 494.5 287.45 494.5 285.55C498.9 285.35 502 286.25 506.5 289.05C511.2 291.85 515.2 291.55 520 287.65C513 284.55 506 282.35 499.3 279.45C494.9 277.55 489 277.55 483.8 276.75C476.7 275.75 469.5 277.05 462.5 275.25C462.7 274.55 462.8 273.75 463 273.05C467.3 273.95 471.5 273.25 475.7 272.15C477.8 271.45 479.7 272.75 481.7 272.85L481.5 273.25Z"
                fill="#5BCE1D" />
            <path id="Vector_15"
                d="M63.9 328.25C61.1 328.65 58.3 328.45 55.7 327.45C52.7 325.05 49.3 323.35 46.7 320.45C43.5 316.75 39.4 314.55 34.6 313.05C29.4 311.45 24 310.65 18.7 309.45C14.8 308.55 10.9 307.75 7.69999 305.25C4.19999 302.55 4.49999 300.85 8.59999 299.25C11.1 298.25 14 296.95 14.3 294.25C14.9 289.95 17.9 288.65 21.1 288.15C29.7 286.65 37.7 283.85 45.7 280.65C47.6 279.85 49.5 279.25 50.9 281.55C52.3 283.95 54.7 283.35 56.8 283.65C56.8 284.55 56.8 285.55 56.8 286.45C47.7 283.55 42.1 288.85 36.7 295.45C41.3 296.05 45.5 296.55 49.7 297.15C48.9 297.15 48.1 297.25 47.3 297.35C45.9 297.55 43.8 297.15 43.8 299.05C43.8 301.25 45.9 301.15 47.5 301.35C49.4 301.65 51.5 301.35 52.8 303.25C51.3 303.25 49.8 303.35 48.3 303.55C45.5 303.85 42.6 304.95 42 307.55C41.4 310.25 44.2 311.65 46.3 313.05C49.3 315.05 53.1 314.85 56.1 316.55C65.9 322.05 77.1 323.75 87.7 324.75C102 326.05 116.4 328.65 130.9 327.35C131.5 327.35 132.1 327.35 132.7 327.45C135.4 330.05 138.1 329.85 140.9 327.65C141.5 327.65 142.1 327.65 142.6 327.65C143.4 328.55 144.4 329.15 145.7 329.15C153.9 329.15 162.1 329.85 170.2 331.25C183.1 333.55 196.3 332.15 209.1 335.25C209.2 336.75 211.7 336.85 211.3 338.95C198.4 340.25 185.9 337.55 173.3 336.25C162.8 335.15 152.4 332.15 141.8 331.65C124.6 330.85 107.4 328.45 90.1 329.15C84.5 329.35 78.9 329.45 73.3 327.75C70.4 326.85 67 326.85 64 328.25H63.9Z"
                fill="#5BCE1D" />
            <path id="Vector_16"
                d="M63.9 328.25C66.9 326.85 70.3 326.85 73.2 327.75C78.8 329.45 84.4 329.35 90 329.15C107.3 328.45 124.5 330.85 141.7 331.65C152.2 332.15 162.6 335.25 173.2 336.25C185.8 337.55 198.4 340.25 211.2 338.95C211.6 336.85 209.2 336.75 209 335.25C211.3 333.35 213.5 331.35 216.8 331.15C218.1 331.15 219.5 331.15 220.8 331.15C222.8 331.15 224.7 331.35 226.6 330.45C229.3 330.45 232 330.65 234.7 330.75C235.7 332.65 238.1 333.25 238.8 335.45C237 337.15 235.6 339.15 232.9 339.95C234.4 341.85 236.2 341.25 237.8 341.25C257.2 340.95 276.6 342.45 295.9 339.65C301.6 338.75 307.5 339.45 313.2 340.55C292.1 342.75 271 343.25 249.9 343.25C210.6 343.25 171.9 337.65 133 333.25C113.2 330.95 93.1 331.25 73.1 330.25C70 330.05 66.7 330.55 64 328.35L63.9 328.25ZM213.5 334.15C219.8 337.85 225.5 337.35 231.3 336.35C232.3 336.15 233.4 335.75 233.3 334.55C233.3 333.45 232.2 333.45 231.4 333.25C225.7 332.05 220 331.75 213.4 334.15H213.5Z"
                fill="#79C33C" />
            <path id="Vector_17"
                d="M50.9 281.35C49.5 279.05 47.6 279.65 45.7 280.45C37.7 283.65 29.6 286.55 21.1 287.95C17.9 288.45 14.9 289.75 14.3 294.05C13.9 296.85 11.1 298.05 8.59999 299.05C4.59999 300.65 4.29999 302.45 7.69999 305.05C10.9 307.55 14.9 308.35 18.7 309.25C24 310.45 29.4 311.25 34.6 312.85C39.4 314.35 43.5 316.55 46.7 320.25C49.3 323.15 52.7 324.95 55.7 327.25C51.9 328.25 48.3 326.95 46.6 323.95C42.6 316.85 35.9 314.85 28.9 313.25C21.9 311.65 14.7 311.05 8.19999 308.05C7.39999 307.75 6.59999 307.45 5.89999 307.05C3.59999 305.75 0.299986 304.85 0.399986 301.85C0.399986 298.75 3.89999 298.35 6.19999 297.25C9.29999 295.75 13.6 295.65 12.5 290.15C12.2 288.65 14.4 287.55 16.1 287.25C29.3 284.45 41.7 278.75 54.8 276.15C78.9 271.45 103 266.75 127.5 264.75C129.3 264.65 131.2 263.95 132.7 265.45V265.35C132.1 265.35 131.8 265.65 131.8 266.25C131.2 266.25 130.9 266.55 130.9 267.15H130.8C130.2 267.25 129.5 267.35 128.9 267.35C128.2 267.65 127.5 267.95 126.8 268.15H126.9C125.3 269.45 123.4 269.75 121.4 269.95C117.1 270.35 112.9 271.15 109.1 273.45C103.1 272.85 97.1 273.25 91.1 274.25C84.2 272.15 77.2 272.55 70.9 275.75C67.5 277.45 64.5 277.75 61.1 277.25C58.3 277.65 55 276.05 53 279.45C52.4 280.05 51.7 280.65 51.1 281.25L50.9 281.35Z"
                fill="#79C33C" />
            <path id="Vector_18"
                d="M475.5 272.45C471.3 273.55 467.2 274.35 462.8 273.35C461.5 273.35 460.2 273.35 458.9 273.25C457 269.85 453.4 269.65 450.3 269.35C441.4 268.45 432.5 265.75 423.4 268.25C419.4 268.05 415.5 268.25 411.6 269.35C412.2 268.35 412.8 267.25 413.5 266.25C415 266.35 416 265.75 416.4 264.35C417 264.35 417.3 264.05 417.3 263.45C417.4 263.65 417.6 263.75 417.9 263.75C437.5 263.75 456.6 266.45 475.2 272.75L475.5 272.45Z"
                fill="#79C33C" />
            <path id="Vector_19"
                d="M418.2 263.55C417.9 263.55 417.7 263.55 417.6 263.25C417.9 262.85 418.2 262.55 418.5 262.15C418.5 262.55 418.3 263.05 418.2 263.45V263.55Z"
                fill="#3CA229" />
            <path id="Vector_20" d="M415.7 340.55L415.4 340.25L415.7 340.15V340.55Z" fill="black" />
            <path id="Vector_21"
                d="M401.8 299.85V299.45C402.1 298.45 402.4 297.45 402.7 296.45C404.4 297.75 406.2 300.35 407.9 296.45C408.4 295.45 409.1 295.95 409.9 296.05C414.1 296.45 414.1 300.55 415 302.95C415.6 304.55 412 305.15 409.8 305.15C408.4 305.15 406.9 305.45 404.5 305.75C406.4 307.05 408.1 307.85 407.3 309.85C403.9 310.95 400.6 312.15 397 310.65C397.2 308.85 397 307.05 394.6 307.55C386.6 309.05 378.7 310.75 370.8 312.45C367.4 310.15 364.5 311.35 361.9 313.75C360.5 313.75 359.1 313.75 357.8 313.75C356.1 312.35 354.1 312.25 352 312.75C350.8 312.15 349.7 312.05 348.5 312.85C346.9 312.05 345.5 312.35 344.2 313.35C343.7 313.35 343.2 313.35 342.7 313.35C337.9 311.15 333.3 313.35 328.6 314.05C328 314.05 327.3 314.25 326.7 314.25C317.7 312.35 308.7 313.05 299.7 313.75C297.8 313.85 297 315.45 296.3 317.05C295.1 317.05 294 317.05 292.8 317.15C291.6 315.25 289.5 314.65 287.6 314.95C284.3 315.45 281.1 316.35 277.9 317.05C276.4 317.25 274.9 317.35 273.5 317.55C272.4 317.65 271.3 317.85 270.2 317.95C261.5 318.65 253.6 313.75 244.7 313.75C245.1 315.45 246.9 316.35 246.4 318.05C242.6 318.65 238.4 321.15 235.5 316.15C237.5 315.45 239.6 314.75 242.3 313.75C238 312.35 234.5 314.55 231.5 314.05C224.1 312.85 216.9 314.65 209.6 314.05C205 313.65 199.9 311.75 195.2 314.85C194.2 315.45 192.5 314.75 191.8 313.45C191 311.95 189.8 312.75 188.7 312.85C187.8 311.05 186.5 310.35 184.4 310.15C179.5 309.75 174 310.15 169.9 308.15C163.1 304.85 156.2 305.45 149.2 305.05C148 305.05 146.9 305.45 146.8 306.95C142.6 307.65 138.6 309.95 134.1 308.55C134.1 305.65 136.6 305.25 138.6 304.35C133.8 304.85 129.3 303.25 124.7 303.05C120.8 302.85 116.4 303.75 112.6 301.85C108.6 299.35 103.9 298.95 99.7 297.35C91.2 294.25 90.7 292.05 97.3 286.45C97.8 286.05 98.2 285.55 98.7 285.05C99 285.05 99.4 285.05 99.7 285.05C100.8 285.95 101.8 286.05 102.9 285.15C104.1 285.75 105.4 286.25 105.5 287.85C102.5 289.85 102.7 293.05 106.6 294.35C110.4 295.65 114.5 298.05 118.8 294.85C120.3 293.75 121.7 294.55 122.5 296.15C123 297.25 123.6 298.45 124.8 298.45C131.4 298.45 137.9 301.35 144.7 298.45C147.1 297.45 150.4 300.25 153.5 299.45C158.6 298.15 163 299.45 167.6 301.65C169 302.25 171.2 302.25 172.7 300.75C174.4 300.75 175.7 302.25 177.5 301.75C180.4 305.95 185.3 305.65 189.3 305.75C196.4 305.85 203.1 309.05 210.3 307.45C210.7 307.45 211.3 307.55 211.7 307.75C218.8 309.55 225.6 309.85 231.6 304.65C233.4 304.65 234.7 305.45 235.9 306.75C237.5 308.45 239.6 308.65 241.8 308.55C248.1 308.35 254.4 307.75 260.5 309.85C263 311.75 265.9 310.45 268.5 310.85V311.05C268.9 311.25 269.2 311.45 269.5 311.65C270.5 311.65 271.6 311.65 272.6 311.65C273.4 313.05 274.5 313.65 275.8 312.45C282.9 305.85 291.7 308.55 299.7 308.45C307.6 308.45 315.4 309.55 323.1 306.85C323.6 306.65 324.5 306.85 324.9 307.25C326.7 309.05 328.9 308.35 331 308.55C339.3 309.25 347.2 304.85 355.6 307.05C356.5 307.25 357.6 307.05 358.5 306.65C364.1 304.25 369.6 304.65 375.1 306.65C377.4 307.45 379.6 306.45 381.2 305.35C382.9 304.15 380.7 302.85 380.2 301.55C381.8 300.25 384.7 302.75 385.8 299.45C386 298.75 387.3 299.15 387.8 299.85C389.6 302.45 391.6 302.05 393.6 300.35C394.5 299.55 395.1 299.55 396 300.45C397.4 301.85 398.9 301.65 400.4 300.45C401.2 300.75 402.3 301.65 402.9 300.75C403.5 299.85 402.4 299.55 401.6 299.45L401.8 299.85Z"
                fill="#EBF5A9" />
            <path id="Vector_22"
                d="M397 310.65C400.6 312.15 403.9 310.95 407.3 309.85C411.2 310.05 415 309.05 418 306.85C420.7 304.85 427.2 304.45 423.4 298.15C424.6 296.25 429.2 297.75 428.2 294.75C427.4 292.35 423.8 293.65 421.4 294.05C421.1 294.05 420.8 294.35 420.5 294.55C414.3 292.95 408.1 292.85 401.9 294.25C400.6 293.35 399.1 292.75 398.4 291.15C398.6 290.95 398.7 290.75 398.4 290.45C398.1 290.15 397.7 289.75 397.4 289.45C397.1 289.05 396.7 288.75 396.4 288.35C396.4 286.85 396 285.75 394.4 285.35C394 284.65 393.7 284.05 393.3 283.35C393 282.95 392.6 282.65 392.3 282.25C392.4 277.75 397.7 278.15 399.3 275.05C400.8 274.45 402.4 273.75 403.9 273.15C406.9 274.35 410 275.55 413 276.75C413.8 278.85 415.6 278.95 417.4 279.15C419.5 280.65 421.8 281.55 424.4 281.65C428.7 282.35 432.6 283.95 436.2 286.25C438 290.85 442 289.45 445.1 288.85C447.8 288.35 446.2 286.85 444.8 286.05C442.9 283.15 439.8 282.45 436.7 282.05C437.1 278.55 439.4 277.45 442.6 277.25C447.3 277.05 451.9 277.05 456.2 279.15C458.9 280.45 461.8 280.95 464.8 281.15C470.4 281.55 474.3 285.05 477.1 289.45C478.6 291.85 475.8 294.35 475.7 296.95C474.3 297.25 472.9 297.55 471.5 297.85C468.6 298.05 465.6 298.25 462.7 298.65C461.3 298.85 458.9 298.65 460.3 301.45C451.8 306.85 442 307.55 432.5 309.05C426.6 309.15 420.7 309.05 415.1 311.15C414.3 311.15 413.4 311.15 412.6 311.15C405.7 312.05 398.8 313.25 392.1 315.25C387.5 315.25 383.1 316.15 378.7 317.35C377.7 316.95 375.9 317.45 375.9 315.95C375.9 314.55 377.6 314.65 378.6 314.45C384.7 313.05 391.1 313.75 396.8 310.65H397ZM420.6 287.55C415.3 285.05 409.8 284.65 404.2 284.85C403.1 284.85 402.3 285.55 402.3 286.75C402.3 287.65 402.9 288.35 403.8 288.55C409.4 289.55 415.1 289.65 420.6 287.55Z"
                fill="#3CA229" />
            <path id="Vector_23"
                d="M401.9 294.15C408.1 292.75 414.3 292.85 420.5 294.45C420.5 296.45 422.4 296.85 423.3 298.15C427.1 304.45 420.6 304.85 417.9 306.85C414.9 309.05 411.1 310.05 407.2 309.85C408 307.85 406.3 307.05 404.4 305.75C406.8 305.45 408.2 305.15 409.7 305.15C411.9 305.15 415.5 304.55 414.9 302.95C414 300.55 414 296.55 409.8 296.05C409 296.05 408.2 295.45 407.8 296.45C406 300.35 404.3 297.75 402.6 296.45C402.4 295.65 402.1 294.85 401.9 294.15ZM416.1 298.45C415.9 298.35 415.6 298.15 415.4 298.15C415.4 298.15 415.1 298.35 415.1 298.45C415.2 298.65 415.4 298.85 415.5 299.05C415.7 298.85 415.9 298.65 416 298.55L416.1 298.45Z"
                fill="#79C33C" />
            <path id="Vector_24"
                d="M399.5 275.15C397.9 278.25 392.6 277.85 392.5 282.35C389.9 280.55 389.5 278.75 392.8 277.55C395 276.75 396.8 274.65 399.5 275.15Z"
                fill="#393B36" />
            <path id="Vector_25"
                d="M404.1 273.25C402.6 273.85 401 274.55 399.5 275.15C400.5 272.55 403.1 272.45 405.1 271.25C405.5 271.45 405.8 271.55 406.2 271.75C405.5 272.25 404.9 272.75 404.2 273.25H404.1Z"
                fill="#393B36" />
            <path id="Vector_26"
                d="M413.5 266.25C412.9 267.25 412.3 268.35 411.6 269.35C411 269.45 410.5 269.65 409.9 269.75C409.5 269.35 409.1 269.05 408.7 268.65C410.1 267.45 411.3 265.95 413.5 266.15V266.25Z"
                fill="#3CA229" />
            <path id="Vector_27"
                d="M405.1 271.25C406.1 270.05 407.4 269.25 408.8 268.75C409.2 269.15 409.6 269.45 410 269.85C408.7 270.45 407.5 271.15 406.2 271.75C405.8 271.55 405.5 271.45 405.1 271.25Z"
                fill="#3CA229" />
            <path id="Vector_28"
                d="M394.5 285.35C396.1 285.75 396.6 286.85 396.5 288.35C395.4 287.65 394.5 286.75 394.5 285.35Z"
                fill="#393B36" />
            <path id="Vector_29"
                d="M416.5 264.25C416.1 265.75 415.1 266.35 413.6 266.15C414 264.65 414.8 263.85 416.5 264.25Z"
                fill="#3CA229" />
            <path id="Vector_30"
                d="M393.5 283.35C393.9 284.05 394.2 284.65 394.6 285.35C393.8 284.95 393.2 284.45 393.5 283.35Z"
                fill="#393B36" />
            <path id="Vector_31"
                d="M417.5 263.35C417.5 263.95 417.2 264.25 416.6 264.25C416.5 263.45 416.9 263.35 417.5 263.35Z"
                fill="#3CA229" />
            <path id="Vector_32"
                d="M392.5 282.35C392.8 282.75 393.2 283.05 393.5 283.45C392.7 283.45 392.5 283.05 392.5 282.35Z"
                fill="#393B36" />
            <path id="Vector_33"
                d="M397.5 289.35C397.8 289.65 398.2 290.05 398.5 290.35C397.8 290.35 397.5 289.95 397.5 289.35Z"
                fill="#393B36" />
            <path id="Vector_34"
                d="M398.5 290.35C398.7 290.65 398.7 290.85 398.5 291.05C398.4 290.75 398.4 290.55 398.5 290.35Z"
                fill="#393B36" />
            <path id="Vector_35"
                d="M128.4 292.25C126.3 292.35 124.6 291.55 123.5 289.75C126.1 288.65 128 288.95 128.4 292.25Z"
                fill="#52686B" />
            <path id="Vector_36"
                d="M382.8 293.65C381.5 295.45 379.7 295.35 377.8 295.35C378.9 293.25 380.4 292.05 382.8 293.65Z"
                fill="#52686B" />
            <path id="Vector_37"
                d="M116.6 289.45C115.2 289.45 113.6 289.65 114.7 287.35C115.8 287.65 116.4 288.35 116.6 289.45Z"
                fill="#52686B" />
            <path id="Vector_38"
                d="M168.6 292.35C168 292.75 167.4 293.25 166.8 293.65C167.4 293.25 168.1 292.75 168.7 292.35H168.6Z"
                fill="#52686B" />
            <path id="Vector_39"
                d="M105.6 288.15C105.5 286.55 104.2 286.05 103 285.45C103 285.15 103 284.95 102.8 284.75C102.4 282.25 103.9 281.05 105.9 280.45C110.3 279.05 114.7 277.85 119.1 276.55C119.4 276.95 119.8 277.35 120.1 277.65C115.5 281.45 112 286.85 105.6 288.05V288.15Z"
                fill="#3CA229" />
            <path id="Vector_40"
                d="M175.8 294.45C176 294.45 176.2 294.45 176.5 294.45C176.9 296.95 177.2 299.55 177.6 302.05C175.8 302.65 174.5 300.95 172.8 301.05C172.2 299.35 170.1 299.45 169.2 297.95C170.8 295.45 173.3 294.85 175.8 294.25V294.45Z"
                fill="#767675" />
            <path id="Vector_41"
                d="M125.4 272.75C124.1 274.95 122 276.25 120.1 277.75C119.8 277.35 119.4 276.95 119.1 276.65C119.9 275.75 120.6 274.85 121.4 273.85C122.4 273.25 123.5 272.65 124.5 272.05C124.8 272.25 125.1 272.55 125.5 272.75H125.4Z"
                fill="#3CA229" />
            <path id="Vector_42"
                d="M128.7 267.55C129.3 267.55 130 267.55 130.6 267.45C129.7 269.65 128 270.95 126 272.05C125.8 271.75 125.6 271.45 125.4 271.15C125.7 270.15 126.9 269.55 126.7 268.35H126.6C127.5 268.65 128.1 268.15 128.7 267.55Z"
                fill="#3CA229" />
            <path id="Vector_43"
                d="M166.9 295.55C166.4 296.05 165.7 296.45 165.3 295.85C164.8 295.15 165.7 294.85 166.2 294.55C166.4 294.85 166.7 295.25 166.9 295.55Z"
                fill="#393B36" />
            <path id="Vector_44"
                d="M168.1 295.05C167.7 295.25 167.3 295.35 166.9 295.55C166.7 295.25 166.4 294.85 166.2 294.55C166.6 294.35 167 294.15 167.4 293.95C167.7 294.35 167.9 294.75 168.2 295.15L168.1 295.05Z"
                fill="#393B36" />
            <path id="Vector_45"
                d="M130.8 267.35C130.8 266.75 131.1 266.45 131.7 266.45C131.7 267.05 131.4 267.35 130.8 267.35Z"
                fill="#3CA229" />
            <path id="Vector_46"
                d="M131.8 266.35C131.8 265.75 132.1 265.45 132.7 265.45C132.7 266.05 132.4 266.35 131.8 266.35Z"
                fill="#3CA229" />
            <path id="Vector_47"
                d="M126.1 272.05C125.9 272.25 125.6 272.55 125.4 272.75C125.1 272.55 124.8 272.25 124.4 272.05C124.8 271.75 125.1 271.45 125.5 271.15C125.7 271.45 125.9 271.75 126.1 272.05Z"
                fill="#3CA229" />
            <path id="Vector_48"
                d="M378.7 301.55C377.8 300.55 376.3 300.05 376.6 298.25C378.4 298.65 378.6 300.05 378.7 301.55Z"
                fill="#393B36" />
            <path id="Vector_49"
                d="M401.8 299.85C402.6 299.95 403.7 300.25 403.1 301.15C402.5 302.05 401.4 301.15 400.6 300.85C401 300.55 401.4 300.15 401.8 299.85Z"
                fill="#90B67B" />
            <path id="Vector_50"
                d="M378.8 317.35C383.2 316.15 387.6 315.15 392.2 315.25C394 315.25 395.8 315.35 397.6 315.25C402.9 315.05 408.1 314.15 412.7 311.15C413.5 311.15 414.4 311.15 415.2 311.15C417.1 311.25 419 311.15 420.7 312.25C424.5 316.95 429.3 314.95 433.9 314.25C434.8 313.65 434.9 313.05 433.9 312.35C433.5 312.25 433 312.05 432.6 311.95C432.6 310.95 432.6 310.05 432.5 309.05C442 307.45 451.8 306.85 460.3 301.45C467.5 304.05 475 303.65 482.4 303.25C484.8 303.15 486.3 302.15 484.6 299.45C487 295.95 490.7 297.85 493.7 297.25C496 297.25 498.3 297.25 500.6 296.45C502.8 297.65 505.1 297.25 507.4 297.55C511 298.05 512.8 300.05 512.2 303.75C511.2 310.45 505.4 316.55 498.9 317.25C490.2 318.15 481.9 321.45 473.1 321.85C471 321.85 469 322.35 466.8 321.85C463.8 321.05 460.7 321.95 458.2 323.55C455 325.55 451.4 326.25 448.2 325.35C437.4 322.15 426.4 324.15 415.5 323.45C411.5 320.85 403.2 320.85 398.5 323.65C401 324.25 403.4 324.75 405.7 325.35C405.5 326.25 406.1 326.85 406.6 327.55C404.7 327.55 402.7 327.55 400.8 327.55C400.4 327.55 399.9 327.35 399.5 327.25C398.5 327.05 397.6 326.75 396.6 326.55C392 326.55 387.3 326.55 382.7 326.55C381.3 325.55 379.7 324.75 378.1 324.95C374.2 325.35 372.7 323.25 372.4 319.85C374.6 319.55 377.2 320.15 378.7 317.75L378.8 317.35ZM477.3 318.15C480.6 317.45 484.4 317.95 488.2 314.95C477.7 312.25 468.2 310.65 458.6 314.35C457.6 314.45 456.4 314.65 456.5 315.85C456.5 317.25 457.8 317.85 458.9 317.95C465 318.65 471.2 319.25 477.3 318.05V318.15Z"
                fill="#7DD220" />
            <path id="Vector_51"
                d="M372.5 319.55C372.8 323.05 374.3 325.05 378.2 324.65C379.9 324.45 381.4 325.35 382.8 326.25C381.7 327.35 379 327.15 379.4 329.35C379.8 331.75 382.2 331.25 383.9 331.25C387.9 331.45 391.9 331.25 395.9 331.35C398.8 331.35 400.7 330.35 400.9 327.15C402.8 327.15 404.8 327.15 406.7 327.15C407.6 327.15 408.6 327.15 409.5 327.25C409.9 328.55 410.3 329.85 410.7 331.15C410.3 331.15 409.8 331.35 409.4 331.35C408.8 331.55 408.3 331.75 407.7 331.95C392.4 333.45 377.2 333.95 361.9 331.65C357.6 331.05 353.3 330.75 349 331.65C344.1 332.75 339.4 331.05 334.6 331.05C318 331.05 301.3 331.05 284.7 331.05C284.3 331.05 283.9 331.05 283.5 331.05C282.2 331.05 281 331.05 279.7 331.05C272.8 329.65 265.8 329.05 258.8 329.05C256.8 328.75 254.7 328.35 252.7 328.05C250.5 326.85 248 327.15 245.6 327.15C243.8 327.15 241.9 327.35 240.1 326.95C223.9 323.85 207.5 322.85 191.1 322.85C190 322.85 188.9 322.25 187.8 321.95C181.6 320.35 175.4 321.15 169.2 321.15C165.9 321.15 162.9 320.75 161 317.75C165.4 318.35 169.7 318.65 174 317.15C176.3 317.35 178.6 317.65 180.9 317.75C191.8 318.25 202.5 320.55 213.4 319.85C223.8 320.35 234.3 320.95 244.7 321.45C245.6 322.05 246.7 322.25 247.8 322.05C249.1 322.05 250.4 322.05 251.7 322.15C258.5 323.35 265.1 325.65 272.1 324.25C272.9 324.55 273.6 324.95 274.4 325.05C293.7 327.35 313 328.45 332.4 327.65C338.9 327.35 345.8 328.65 352 325.35C352.8 324.05 353.6 322.75 354.5 321.45C359.7 321.45 365 321.95 369.8 319.25C370.6 319.25 371.5 319.45 372.3 319.55H372.5Z"
                fill="#9CDC3F" />
            <path id="Vector_52"
                d="M462.4 275.55C469.4 277.35 476.6 276.05 483.7 277.05C488.9 277.75 494.8 277.85 499.2 279.75C505.9 282.65 512.9 284.85 519.9 287.95C515 291.85 511 292.15 506.4 289.35C501.8 286.55 498.7 285.65 494.4 285.85C494.4 287.75 498.2 287.85 496.7 290.15C495.5 291.95 493.4 290.85 491.6 290.75C484.7 290.25 478.1 289.15 473.9 282.55C472.4 280.35 469.3 280.05 466.8 279.35C454.4 276.05 441.6 274.75 429.1 272.25C431.7 270.95 434.3 271.65 436.9 271.95C445.4 273.05 453.8 275.25 462.5 275.65L462.4 275.55Z"
                fill="#9CDC3F" />
            <path id="Vector_53"
                d="M258.9 329.15C265.9 329.15 272.9 329.75 279.8 331.15C276.4 334.95 272 335.45 267.2 335.35C257.7 335.15 248.2 335.35 238.8 335.35C238.1 333.25 235.7 332.55 234.7 330.65C241.1 330.75 247.4 330.85 253.8 331.05C255.9 331.05 257.8 331.05 258.9 329.05V329.15Z"
                fill="#7DD220" />
            <path id="Vector_54"
                d="M484.6 299.45C486.3 302.15 484.9 303.05 482.4 303.25C474.9 303.65 467.5 304.05 460.3 301.45C459 298.65 461.3 298.85 462.7 298.65C465.6 298.25 468.5 298.15 471.5 297.85C474.4 298.45 477.4 298.95 480.4 298.65L480.2 298.55C480.6 298.55 481 298.75 481.4 298.85C482.4 299.05 483.5 299.15 484.5 299.35L484.6 299.45Z"
                fill="#EBF5A9" />
            <path id="Vector_55"
                d="M406.1 271.75C407.4 271.15 408.6 270.45 409.9 269.85C410.5 269.75 411 269.55 411.6 269.45C411.3 272.15 413.4 272.05 415.1 272.55C419.8 273.75 424.6 274.45 429.3 276.55C427.3 277.75 425.4 277.15 423.6 277.45C422.9 277.55 421.7 277.45 422.1 278.75C422.3 279.25 423.5 279.25 424.3 279.45C424.3 280.25 424.3 281.05 424.3 281.85C421.7 281.85 419.4 280.85 417.3 279.35C417 276.45 415 276.65 412.9 276.95C409.9 275.75 406.8 274.55 403.8 273.35C404.5 272.85 405.1 272.35 405.8 271.85L406.1 271.75Z"
                fill="#79C33C" />
            <path id="Vector_56"
                d="M462.4 275.55C453.8 275.05 445.4 272.95 436.8 271.85C434.2 271.55 431.5 270.85 429 272.15C427.3 271.95 424.8 272.25 426.7 269.25C437.6 269.25 448.2 272.05 458.9 273.35C460.2 273.35 461.5 273.35 462.8 273.45C462.6 274.15 462.5 274.95 462.3 275.65L462.4 275.55Z"
                fill="#7DD220" />
            <path id="Vector_57"
                d="M458.9 273.25C448.1 272.05 437.6 269.25 426.7 269.15C425.6 268.85 424.5 268.55 423.4 268.25C432.5 265.65 441.4 268.45 450.3 269.35C453.4 269.65 457 269.85 458.9 273.25Z"
                fill="#9CDC3F" />
            <path id="Vector_58"
                d="M424.6 281.75C424.6 280.95 424.6 280.15 424.6 279.35C429 279.15 432.7 281.85 436.9 282.15C440.1 282.55 443.1 283.25 445 286.15C442.2 287.95 439.3 286.75 436.5 286.35C432.8 284.05 428.9 282.35 424.7 281.75H424.6Z"
                fill="#7DD220" />
            <path id="Vector_59"
                d="M405.7 325.05C403.3 324.55 401 323.95 398.5 323.35C403.2 320.55 411.5 320.55 415.5 323.15C412.2 323.75 409 324.35 405.7 325.05Z"
                fill="#9CDC3F" />
            <path id="Vector_60"
                d="M500.6 296.35C498.4 297.15 496.1 297.15 493.7 297.15C496.4 292.75 498.3 292.35 504 294.95C503.3 296.65 501.7 295.85 500.6 296.25V296.35Z"
                fill="#9CDC3F" />
            <path id="Vector_61"
                d="M410.8 331.35C410.4 330.05 410 328.75 409.6 327.45C410.4 327.45 411.3 327.35 412 327.55C413.9 328.35 417.8 327.35 417.3 330.15C416.9 332.35 413.3 332.15 410.8 331.35Z"
                fill="#7DD220" />
            <path id="Vector_62"
                d="M480.5 298.75C477.5 299.05 474.5 298.55 471.6 297.95C473 297.65 474.4 297.35 475.8 297.05C477.5 297.35 479.3 297.25 480.5 298.75Z"
                fill="#7DD220" />
            <path id="Vector_63"
                d="M161 317.85C163 320.85 166 321.25 169.2 321.25C175.4 321.25 181.7 320.45 187.8 322.05C182 322.75 175.8 322.05 171 326.35C181 328.25 190.9 329.95 200.9 327.75C204.5 331.25 209.2 331.45 215.6 328.35C216 329.25 216.3 330.25 216.7 331.15C213.5 331.25 211.3 333.35 208.9 335.25C196.1 332.15 182.9 333.55 170 331.25C161.9 329.85 153.7 329.05 145.5 329.15C144.3 329.15 143.3 328.55 142.4 327.65C146.7 327.15 151 326.65 155.1 325.25C156.3 324.85 157.9 324.45 157.7 322.75C157.5 321.35 156 321.35 154.9 321.15C147 319.45 139.1 319.95 131.2 320.95C128.7 321.25 124.3 321.45 124.2 324.25C124.1 327.25 128.6 325.75 130.7 327.25C116.2 328.55 101.8 325.95 87.5 324.65C76.9 323.65 65.7 321.95 55.9 316.45C52.9 314.75 49.1 314.95 46.1 312.95C44 311.55 41.2 310.05 41.8 307.45C42.4 304.85 45.3 303.75 48.1 303.45C49.6 303.25 51.1 303.25 52.6 303.15C53.3 303.15 54 303.15 54.8 303.15C56.6 303.95 58.4 304.25 60.2 303.15C65.2 304.15 70 303.85 74.7 301.75C75.6 301.35 76.7 300.95 76.6 299.75C76.6 298.65 75.5 298.15 74.5 297.85C71.2 296.85 67.8 295.95 64.5 295.05C67.1 288.15 74.3 287.55 79.4 284.05C80.5 286.95 76.9 291.15 82 292.85C84.1 292.85 86.3 293.05 88.4 293.15C91.1 295.45 87.6 297.85 88.4 300.15C84.2 301.25 79.3 300.55 74.9 304.45C91.6 308.25 107.1 312.45 123 314.85C123.3 315.45 123.4 316.35 123.8 316.55C129.1 319.05 134.7 318.65 140.2 317.55C141.6 317.25 142.2 315.95 142.5 314.55C144.8 314.25 146.1 315.75 147.6 317.05C151.3 320.25 153.9 319.65 156.7 315.25C157.4 315.25 158.1 315.25 158.8 315.25C159.2 315.85 159.7 316.45 160.1 317.05C160.4 317.25 160.6 317.45 160.9 317.65L161 317.85ZM90.3 321.25C92.3 321.15 94.3 321.15 96.3 320.85C98.4 320.55 101.2 320.45 101.6 317.95C101.9 315.65 99.1 315.15 97.4 314.35C89.8 311.35 82.1 308.85 74 307.35C66.1 305.95 58.2 304.95 50.2 306.25C48.2 306.55 45.4 306.45 45.2 308.55C45 311.05 48.1 311.25 50 311.85C52.7 312.55 55.6 312.75 58.3 313.45C64.6 315.05 71.4 314.55 77.1 317.95C81.3 320.45 85.6 321.55 90.4 321.15L90.3 321.25Z"
                fill="#7DD220" />
            <path id="Vector_64"
                d="M64.6 295.15C67.9 296.05 71.3 297.05 74.6 297.95C75.5 298.25 76.6 298.75 76.7 299.85C76.8 301.05 75.7 301.45 74.8 301.85C70.1 303.95 65.2 304.15 60.3 303.25C60.3 302.85 60.3 302.45 60.3 301.95C61.4 299.55 59.9 298.65 58 298.25C55.3 297.75 52.6 297.35 49.8 296.95C45.6 296.45 41.3 295.85 36.8 295.25C42.2 288.65 47.8 283.45 56.9 286.25C56.7 287.05 56.7 288.05 56.2 288.55C52.2 291.85 54.7 293.05 57.9 293.85C60.1 294.45 62.4 294.75 64.7 295.15H64.6Z"
                fill="#9CDC3F" />
            <path id="Vector_65"
                d="M130.8 327.25C128.7 325.75 124.2 327.25 124.3 324.25C124.4 321.45 128.8 321.25 131.3 320.95C139.2 319.95 147.1 319.45 155 321.15C156.1 321.35 157.6 321.35 157.8 322.75C158 324.45 156.4 324.85 155.2 325.25C151.1 326.65 146.8 327.15 142.5 327.65C141.9 327.65 141.3 327.65 140.8 327.65C138.1 327.65 135.3 327.55 132.6 327.45C132 327.45 131.4 327.45 130.8 327.35V327.25Z"
                fill="#9CDC3F" />
            <path id="Vector_66"
                d="M60.9 277.35C64.3 277.75 67.3 277.55 70.7 275.85C77 272.65 84 272.25 90.9 274.35C90.6 276.65 96.1 274.35 93.9 278.05L93.8 278.25C84.4 278.85 74.8 277.65 65.7 281.65C67.7 281.95 69.8 282.35 71.8 282.65C66.9 283.95 61.8 283.05 56.8 283.45C54.7 283.15 52.3 283.85 50.9 281.35C51.5 280.75 52.2 280.15 52.8 279.55C55.6 279.05 58.8 280.25 60.9 277.35Z"
                fill="#7DD220" />
            <path id="Vector_67"
                d="M56.8 283.45C61.8 283.05 66.8 283.95 71.8 282.65C74.4 282.65 76.9 282.65 79.5 282.65C79.5 283.15 79.6 283.65 79.7 284.15C74.6 287.55 67.4 288.15 64.8 295.05C62.5 294.65 60.2 294.35 58 293.75C54.7 292.95 52.3 291.75 56.3 288.45C56.8 288.05 56.8 286.95 57 286.15C57 285.25 57 284.25 57 283.35L56.8 283.45Z"
                fill="#3CA229" />
            <path id="Vector_68"
                d="M49.7 296.95C52.4 297.35 55.2 297.75 57.9 298.25C59.9 298.65 61.4 299.55 60.2 301.95C58.2 301.55 56.3 301.05 54.9 303.15C54.2 303.15 53.5 303.15 52.7 303.15C51.4 301.15 49.3 301.55 47.4 301.25C45.8 301.05 43.6 301.05 43.7 298.95C43.7 297.05 45.9 297.45 47.2 297.25C48 297.15 48.8 297.05 49.6 297.05L49.7 296.95Z"
                fill="#3CA229" />
            <path id="Vector_69"
                d="M132.6 327.35C135.3 327.35 138.1 327.45 140.8 327.55C138 329.75 135.3 329.95 132.6 327.35Z"
                fill="#7DD220" />
            <path id="Vector_70"
                d="M216.7 331.15C216.3 330.25 216 329.25 215.6 328.35C210.7 326.85 205.8 326.95 200.9 327.75C190.9 329.95 181 328.35 171 326.35C175.8 321.95 182 322.75 187.8 322.05C188.9 322.35 190 322.95 191.1 322.95C207.6 322.95 223.9 323.85 240.1 327.05C241.9 327.35 243.7 327.15 245.6 327.25C247.7 329.95 250.1 329.35 252.7 328.15C254.7 328.45 256.8 328.85 258.8 329.15C257.6 331.15 255.7 331.15 253.7 331.15C247.3 330.95 241 330.85 234.6 330.75C231.9 330.75 229.2 330.55 226.5 330.55C224.5 330.55 222.6 330.45 220.7 331.25C219.4 331.25 218 331.25 216.7 331.25V331.15Z"
                fill="#5BCE1D" />
            <path id="Vector_71"
                d="M213.5 334.15C220 331.75 225.7 332.05 231.5 333.25C232.3 333.45 233.4 333.45 233.4 334.55C233.4 335.75 232.3 336.15 231.4 336.35C225.6 337.35 219.9 337.85 213.6 334.15H213.5Z"
                fill="#EBF5A9" />
            <path id="Vector_72"
                d="M220.8 331.15C222.7 330.35 224.6 330.35 226.6 330.45C224.8 331.35 222.8 331.25 220.8 331.15Z"
                fill="#7DD220" />
            <path id="Vector_73"
                d="M93.9 278.05C96.1 274.25 90.6 276.65 90.9 274.35C96.9 273.45 102.9 273.05 108.9 273.55C108.9 273.95 109 274.35 109.1 274.75C103.9 275.15 99.2 278.25 93.9 278.05Z"
                fill="#EBF5A9" />
            <path id="Vector_74"
                d="M109.1 274.75C109.1 274.35 109 273.95 108.9 273.55C112.7 271.25 116.9 270.55 121.2 270.05C123.2 269.85 125.1 269.55 126.7 268.25C126.9 269.45 125.8 270.05 125.4 271.05C125 271.35 124.7 271.65 124.3 271.95C123.3 272.55 122.2 273.15 121.2 273.75C117 272.75 113 273.35 109 274.75H109.1Z"
                fill="#DAF73A" />
            <path id="Vector_75"
                d="M60.9 277.35C58.8 280.25 55.5 278.95 52.8 279.55C54.8 276.15 58.1 277.85 60.9 277.35Z"
                fill="#5BCE1D" />
            <path id="Vector_76"
                d="M128.7 267.55C128.1 268.15 127.5 268.65 126.6 268.35C127.3 268.05 128 267.75 128.7 267.55Z"
                fill="#DAF73A" />
            <path id="Vector_77"
                d="M272.2 324.35C265.2 325.75 258.5 323.45 251.8 322.25C253.6 321.65 255.3 321.05 257.6 320.25C253.6 318.55 250 318.65 246.5 318.15C247 316.45 245.2 315.65 244.8 313.85C253.7 313.85 261.6 318.75 270.3 318.05C271.4 318.35 272.5 318.25 273.6 317.65C275.1 317.45 276.6 317.35 278 317.15C283 318.05 287.9 316.95 292.9 317.15C294.1 317.15 295.2 317.15 296.4 317.05C300.3 315.45 304.4 315.25 308.5 315.25C314.6 315.15 320.7 315.85 326.7 314.35C327.3 314.35 328 314.15 328.6 314.15C328.1 315.25 327.7 316.45 327.2 317.55C321.8 318.85 316.2 318.15 310.8 318.05C301.9 317.85 293.4 322.75 284.2 319.65C281.1 318.55 282.1 321.45 282.6 323.15C279.1 323.15 275.5 322.65 272.1 324.25L272.2 324.35Z"
                fill="#79C33C" />
            <path id="Vector_78"
                d="M213.4 319.95C202.5 320.75 191.7 318.35 180.9 317.85C178.6 317.75 176.3 317.45 174 317.25C173.7 316.25 173.5 315.35 173.2 314.35C178.3 312.95 183.6 313.25 188.8 313.05C189.9 313.05 191 312.15 191.9 313.65C192.7 314.95 194.3 315.65 195.3 315.05C200 311.95 205.1 313.95 209.7 314.25C217 314.85 224.2 313.05 231.6 314.25C234.6 314.75 238 312.45 242.4 313.95C239.7 314.95 237.6 315.65 235.6 316.35C228.2 317.55 220.9 318.75 213.5 319.95H213.4Z"
                fill="#79C33C" />
            <path id="Vector_79"
                d="M82.1 292.95C77 291.25 80.6 286.95 79.5 284.15C80.9 283.95 81.9 283.25 82.6 282.15C85.2 281.05 87.9 281.35 90.6 281.45C90.3 282.95 89.9 284.55 89.5 286.45C92.8 285.85 95.5 284.65 98.5 285.25C98 285.75 97.6 286.25 97.1 286.65C90.5 292.25 91 294.45 99.5 297.55C103.8 299.15 108.5 299.55 112.4 302.05C105 301.55 97.7 300.95 90.3 300.45C89.6 300.45 89 300.25 88.3 300.25C87.4 297.95 90.9 295.55 88.3 293.25C88.9 291.75 91.8 290.25 88.6 288.65C85.2 286.95 82.1 288.95 81.9 293.05L82.1 292.95Z"
                fill="#9CDC3F" />
            <path id="Vector_80"
                d="M90.5 300.55C97.9 301.05 105.2 301.65 112.6 302.15C116.5 304.05 120.8 303.15 124.7 303.35C129.3 303.55 133.8 305.15 138.6 304.65C136.5 305.55 134.1 305.85 134.1 308.85C134 309.05 133.8 309.15 133.7 309.35C128.4 307.65 123.1 308.95 117.8 308.85C109 308.65 101.7 301.45 92.4 302.65C91.9 302.65 91.2 301.25 90.5 300.55Z"
                fill="#79C33C" />
            <path id="Vector_81"
                d="M188.7 313.05C183.5 313.15 178.2 312.85 173.1 314.35C169 312.95 164.9 313.15 160.8 314.35C161 310.75 159.1 309.45 155.7 308.95C152.7 308.45 149.2 309.95 146.7 307.25C146.8 305.75 147.9 305.25 149.1 305.35C156.1 305.75 163 305.15 169.8 308.45C174 310.45 179.4 310.05 184.3 310.45C186.4 310.65 187.7 311.35 188.6 313.15L188.7 313.05Z"
                fill="#9CDC3F" />
            <path id="Vector_82"
                d="M231.7 305.05C231.7 304.45 231.7 303.75 231.7 303.15C232.1 302.65 232.4 302.25 232.8 301.75C235.9 301.75 238.9 300.65 241.7 299.35C247.9 301.55 253.5 305.45 260.4 305.35C260.4 305.55 260.6 305.65 260.8 305.75C260.8 306.55 260.9 307.45 261 308.25C260.9 308.95 260.8 309.65 260.7 310.25C254.6 308.25 248.3 308.75 242 308.95C239.8 308.95 237.7 308.95 236.1 307.15C234.9 305.85 233.6 305.05 231.8 305.05H231.7Z"
                fill="#63655E" />
            <path id="Vector_83"
                d="M98.7 285.35C95.7 284.75 93 285.95 89.7 286.55C90.1 284.65 90.4 283.05 90.8 281.55C92.7 281.25 93.4 279.95 93.8 278.25L93.9 278.05C99.3 278.25 103.9 275.25 109.1 274.75C113.1 273.35 117.2 272.75 121.3 273.75C120.5 274.65 119.8 275.55 119 276.55C114.6 277.85 110.2 279.15 105.8 280.45C103.8 281.05 102.3 282.25 102.7 284.75C101.7 284.95 100.7 285.15 99.7 285.35C99.4 285.35 99 285.35 98.7 285.35Z"
                fill="#7DD220" />
            <path id="Vector_84"
                d="M372.5 319.55C371.7 319.55 370.8 319.35 370 319.25C369.8 318.35 369.7 317.35 369.5 316.45L370.8 312.45C378.7 310.85 386.7 309.15 394.6 307.55C397 307.05 397.2 308.85 397 310.65C391.3 313.65 384.8 313.05 378.8 314.45C377.7 314.65 376.1 314.45 376.1 315.95C376.1 317.55 377.9 316.95 378.9 317.35C377.4 319.75 374.8 319.15 372.6 319.45L372.5 319.55Z"
                fill="#79C33C" />
            <path id="Vector_85"
                d="M213.4 319.95C220.8 318.75 228.1 317.55 235.5 316.35C238.4 321.35 242.5 318.85 246.4 318.25C249.9 318.65 253.6 318.55 257.5 320.35C255.2 321.15 253.4 321.75 251.7 322.35C250.4 322.35 249.1 322.35 247.8 322.25C246.8 322.05 245.7 321.85 244.7 321.65C234.3 321.15 223.8 320.55 213.4 320.05V319.95Z"
                fill="#3CA229" />
            <path id="Vector_86"
                d="M354.6 321.45C353.8 322.75 353 324.05 352.1 325.35C351.5 324.55 351 323.85 350.4 323.05C350.8 318.75 348.6 317.15 344.6 317.35C340.7 317.45 336.8 317.55 332.9 317.55C331.9 314.65 334 314.65 335.8 314.45C338.1 314.25 340.4 314.65 342.6 313.65C343.1 313.65 343.6 313.65 344.1 313.65C345.5 313.65 346.9 313.45 348.3 313.35C349.6 313.35 350.9 313.35 352.1 313.35C353.1 313.95 354.2 314.55 355.2 315.25C355.4 317.35 350.8 319.05 354.5 321.55L354.6 321.45Z"
                fill="#79C33C" />
            <path id="Vector_87"
                d="M354.6 321.45C350.9 318.95 355.5 317.35 355.3 315.15C356.4 315.15 357.1 314.65 357.7 313.85C359.1 313.85 360.5 313.85 361.8 313.85C363.9 316.15 366.9 315.75 369.5 316.55C369.7 317.45 369.8 318.45 370 319.35C365.2 322.05 359.9 321.45 354.7 321.55L354.6 321.45Z"
                fill="#DAF73A" />
            <path id="Vector_88"
                d="M146.8 307.25C149.4 309.95 152.8 308.45 155.8 308.95C159.1 309.55 161 310.85 160.9 314.35H160.7L158.8 315.35C158.1 315.35 157.4 315.35 156.7 315.35C156.7 314.75 156.7 314.15 156.7 313.45C155.7 311.25 153.7 310.95 151.6 310.95C147.8 310.95 144 310.95 140.1 311.05C137.8 311.05 135.4 311.05 133.6 309.05C133.7 308.85 133.9 308.75 134 308.55C138.5 309.95 142.5 307.65 146.7 306.95L146.8 307.25Z"
                fill="#79C33C" />
            <path id="Vector_89"
                d="M326.6 314.55C320.6 316.05 314.5 315.35 308.4 315.45C304.3 315.45 300.2 315.75 296.3 317.25C297 315.65 297.8 314.15 299.7 313.95C308.7 313.25 317.7 312.65 326.7 314.45L326.6 314.55Z"
                fill="#9CDC3F" />
            <path id="Vector_90"
                d="M342.6 313.65C340.4 314.65 338.1 314.25 335.8 314.45C333.9 314.65 331.9 314.65 332.9 317.55C331.1 320.75 329.2 321.25 327.2 317.75C327.7 316.65 328.1 315.45 328.6 314.35C333.3 313.55 337.9 311.45 342.7 313.65H342.6Z"
                fill="#9CDC3F" />
            <path id="Vector_91"
                d="M268.6 311.15C267.6 309.75 265.7 308.75 265.9 306.55C269.8 307.95 273.4 306.75 277 305.35C277.3 308.65 274 309.55 272.7 311.85C271.7 311.85 270.6 311.85 269.6 311.85C269.3 311.65 269 311.45 268.8 311.25V311.05L268.6 311.15Z"
                fill="#767675" />
            <path id="Vector_92"
                d="M369.5 316.45C366.9 315.65 363.9 316.05 361.8 313.75C364.5 311.35 367.3 310.05 370.7 312.45C370.3 313.75 369.8 315.15 369.4 316.45H369.5Z"
                fill="#9CDC3F" />
            <path id="Vector_93"
                d="M292.8 317.45C287.8 317.15 282.9 318.25 277.9 317.45C281.1 316.75 284.3 315.75 287.6 315.35C289.5 315.05 291.6 315.65 292.8 317.55V317.45Z"
                fill="#9CDC3F" />
            <path id="Vector_94"
                d="M357.7 313.85C357.1 314.75 356.4 315.15 355.3 315.15C354.2 314.55 353.2 313.95 352.2 313.25L352 312.85C354.1 312.25 356 312.45 357.8 313.85H357.7Z"
                fill="#9CDC3F" />
            <path id="Vector_95"
                d="M348.3 313.35C346.9 313.35 345.5 313.55 344.1 313.65C345.4 312.65 346.8 312.35 348.4 313.15L348.3 313.45V313.35Z"
                fill="#9CDC3F" />
            <path id="Vector_96"
                d="M348.3 313.35L348.4 313.05C349.5 312.25 350.7 312.35 351.9 312.95L352.1 313.35C350.8 313.35 349.5 313.35 348.3 313.35Z"
                fill="#DAF73A" />
            <path id="Vector_97"
                d="M273.5 317.85C272.5 318.45 271.4 318.55 270.2 318.25C271.3 318.15 272.4 317.95 273.5 317.85Z"
                fill="#9CDC3F" />
            <path id="Vector_98"
                d="M99.7 285.35C100.7 285.15 101.7 284.95 102.7 284.75C102.9 284.95 103 285.15 102.9 285.45C101.8 286.35 100.7 286.25 99.7 285.35Z"
                fill="#9CDC3F" />
            <path id="Vector_99"
                d="M268.7 311.35C269 311.55 269.3 311.75 269.5 311.95C269.2 311.75 268.9 311.55 268.7 311.35Z"
                fill="#90B67B" />
            <path id="Vector_100"
                d="M420.6 287.55C415.1 289.65 409.5 289.55 403.8 288.55C402.9 288.35 402.3 287.65 402.3 286.75C402.3 285.55 403.1 284.85 404.2 284.85C409.8 284.65 415.3 284.95 420.6 287.55Z"
                fill="#79C33C" />
            <path id="Vector_101"
                d="M432.6 309.15C432.6 310.15 432.6 311.05 432.7 312.05C428.7 312.15 424.7 312.25 420.7 312.35C419 311.35 417.1 311.35 415.2 311.25C420.8 309.15 426.7 309.25 432.6 309.15Z"
                fill="#79C33C" />
            <path id="Vector_102"
                d="M423.4 298.15C422.5 296.85 420.5 296.45 420.6 294.45C420.9 294.25 421.2 294.05 421.5 293.95C423.9 293.55 427.5 292.25 428.3 294.65C429.3 297.65 424.7 296.15 423.5 298.05L423.4 298.15Z"
                fill="#EBF5A9" />
            <path id="Vector_103"
                d="M412.6 311.15C408 314.15 402.8 314.95 397.5 315.25C395.7 315.25 393.9 315.25 392.1 315.25C398.8 313.35 405.7 312.15 412.6 311.15Z"
                fill="#79C33C" />
            <path id="Vector_104"
                d="M436.4 286.35C439.2 286.75 442.1 287.85 444.9 286.15C446.3 286.95 447.9 288.45 445.3 288.95C442.2 289.55 438.3 290.95 436.4 286.35Z"
                fill="#5BCE1D" />
            <path id="Vector_105"
                d="M413.2 276.85C415.3 276.55 417.3 276.35 417.6 279.25C415.8 279.05 414 278.85 413.2 276.85Z"
                fill="#5BCE1D" />
            <path id="Vector_106"
                d="M416.1 298.45C415.9 298.65 415.7 298.85 415.6 298.95C415.4 298.75 415.3 298.55 415.2 298.35C415.2 298.35 415.4 298.05 415.5 298.05C415.7 298.05 416 298.25 416.2 298.35L416.1 298.45Z"
                fill="#EBF5A9" />
            <path id="Vector_107"
                d="M196.4 295.45C198.8 293.95 200.5 295.75 202.4 296.65C206.7 298.75 210.9 301.35 216 301.15C218.2 301.25 220.4 301.35 222.7 301.55C222.7 302.35 222.5 303.05 222.4 303.85C220.9 304.15 219.4 304.45 217.8 303.85C215.5 303.45 213.1 302.95 210.8 302.55C206 300.75 201.1 299.05 196.8 296.35C196.8 296.05 196.6 295.75 196.5 295.45H196.4Z"
                fill="#393B36" />
            <path id="Vector_108"
                d="M196.7 296.25C201.1 299.05 206 300.65 210.7 302.45C205.9 303.95 199 300.95 196.7 296.25Z"
                fill="#4C4F48" />
            <path id="Vector_109"
                d="M282.1 302.85C288.8 302.55 295.6 302.55 302.3 301.75C306.5 301.25 310.9 303.95 314.8 300.75C318.4 301.05 322 301.25 325.5 301.55C325.5 302.35 325.5 303.25 325.6 304.05C314 303.95 302.5 305.95 290.9 305.55C288.8 305.55 286.5 305.55 284.5 305.95C279.5 307.05 279.5 307.15 280.4 301.45C281.3 301.55 279.9 304.45 282.2 302.85H282.1Z"
                fill="#63655E" />
            <path id="Vector_110"
                d="M458.6 314.45C468.2 310.75 477.7 312.35 488.2 315.05C484.4 318.05 480.6 317.45 477.3 318.25C474.2 317.95 471.1 317.65 468.1 317.35C464.7 317.05 461.2 317.35 458.6 314.45Z"
                fill="#DAF73A" />
            <path id="Vector_111"
                d="M400.9 327.25C400.7 330.45 398.8 331.45 395.9 331.45C391.9 331.45 387.9 331.45 383.9 331.35C382.2 331.35 379.8 331.85 379.4 329.45C379.1 327.35 381.7 327.45 382.8 326.35C387.4 326.35 392.1 326.35 396.7 326.35C397.6 326.95 398.5 327.15 399.6 327.05C400 327.05 400.5 327.25 400.9 327.35V327.25Z"
                fill="#DAF73A" />
            <path id="Vector_112"
                d="M458.6 314.45C461.1 317.45 464.7 317.05 468.1 317.35C471.2 317.65 474.3 317.95 477.3 318.25C471.1 319.45 465 318.85 458.9 318.15C457.8 318.05 456.5 317.45 456.5 316.05C456.5 314.75 457.6 314.65 458.6 314.55V314.45Z"
                fill="#9CDC3F" />
            <path id="Vector_113"
                d="M420.6 312.25C424.6 312.15 428.6 312.05 432.6 311.95C433 312.05 433.5 312.25 433.9 312.35C433.9 312.95 433.9 313.55 433.9 314.25C429.3 314.95 424.5 316.95 420.7 312.25H420.6Z"
                fill="#9CDC3F" />
            <path id="Vector_114"
                d="M433.9 314.25C433.9 313.65 433.9 312.95 433.9 312.35C434.8 313.05 434.7 313.65 433.9 314.25Z"
                fill="#79C33C" />
            <path id="Vector_115"
                d="M399.6 326.95C398.5 327.15 397.6 326.95 396.7 326.25C397.7 326.45 398.6 326.75 399.6 326.95Z"
                fill="#9CDC3F" />
            <path id="Vector_116"
                d="M350.4 323.05C351 323.85 351.5 324.55 352.1 325.35C345.9 328.65 339 327.45 332.5 327.65C313.1 328.45 293.7 327.45 274.5 325.05C273.7 325.05 272.9 324.55 272.2 324.25C275.6 322.65 279.1 323.25 282.7 323.15C305.3 322.95 327.9 323.75 350.5 322.95L350.4 323.05Z"
                fill="#5BCE1D" />
            <path id="Vector_117"
                d="M160.9 314.35C165 313.15 169.1 312.95 173.2 314.35C173.5 315.35 173.7 316.25 174 317.25C169.7 318.85 165.4 318.55 161 317.85C160.7 317.65 160.5 317.45 160.2 317.25C160.4 316.35 160.6 315.35 160.8 314.45H161L160.9 314.35Z"
                fill="#DAF73A" />
            <path id="Vector_118"
                d="M252.7 328.15C250.2 329.35 247.7 329.95 245.6 327.25C248 327.25 250.4 326.95 252.7 328.15Z"
                fill="#7DD220" />
            <path id="Vector_119"
                d="M244.7 321.55C245.7 321.75 246.8 321.95 247.8 322.15C246.7 322.35 245.7 322.15 244.7 321.55Z"
                fill="#79C33C" />
            <path id="Vector_120"
                d="M90.3 321.25C85.5 321.65 81.2 320.65 77 318.05C71.3 314.65 64.5 315.05 58.2 313.55C55.5 312.85 52.6 312.65 49.9 311.95C48 311.45 44.9 311.25 45.1 308.65C45.3 306.55 48.2 306.65 50.1 306.35C58.1 305.05 66 306.05 73.9 307.45C81.9 308.85 89.7 311.35 97.3 314.45C99.1 315.15 101.8 315.75 101.5 318.05C101.2 320.55 98.3 320.55 96.2 320.95C94.2 321.25 92.2 321.25 90.2 321.35L90.3 321.25Z"
                fill="#DAF73A" />
            <path id="Vector_121"
                d="M133.7 309.35C135.5 311.25 137.9 311.25 140.2 311.35C141.6 312.95 143.5 313.35 145.5 313.35C149.2 313.35 153 313.55 156.7 313.65C156.7 314.25 156.7 314.85 156.7 315.55C153.9 319.95 151.3 320.55 147.6 317.35C146.1 316.05 144.8 314.55 142.5 314.85C136 313.75 129.5 315.75 123 315.15C107.1 312.75 91.6 308.55 74.9 304.75C79.3 300.95 84.2 301.55 88.4 300.45C89.1 300.45 89.7 300.65 90.4 300.65C91 301.35 91.7 302.85 92.3 302.75C101.6 301.45 108.9 308.75 117.7 308.95C123 309.05 128.3 307.75 133.6 309.45L133.7 309.35Z"
                fill="#5BCE1D" />
            <path id="Vector_122"
                d="M123.2 314.95C129.7 315.55 136.2 313.65 142.7 314.65C142.5 316.05 141.8 317.35 140.4 317.65C134.9 318.75 129.3 319.05 124 316.65C123.6 316.45 123.5 315.55 123.2 314.95Z"
                fill="#9CDC3F" />
            <path id="Vector_123"
                d="M82.1 292.95C82.3 288.95 85.4 286.85 88.8 288.55C92.1 290.25 89.1 291.65 88.5 293.15C86.4 293.15 84.2 292.95 82.1 292.85V292.95Z"
                fill="#DAF73A" />
            <path id="Vector_124"
                d="M201 327.75C205.9 326.95 210.9 326.85 215.7 328.35C209.3 331.45 204.6 331.35 201 327.75Z"
                fill="#9CDC3F" />
            <path id="Vector_125"
                d="M54.8 303.15C56.2 301.05 58.2 301.55 60.1 301.95C60.1 302.35 60.1 302.75 60.1 303.25C58.3 304.25 56.5 303.95 54.7 303.25L54.8 303.15Z"
                fill="#5BCE1D" />
            <path id="Vector_126"
                d="M160.7 314.45C160.5 315.35 160.3 316.35 160.1 317.25C159.7 316.65 159.2 316.05 158.8 315.45C159.4 315.15 160.1 314.85 160.7 314.45Z"
                fill="#9CDC3F" />
            <path id="Vector_127"
                d="M93.8 278.25C93.4 279.95 92.7 281.25 90.8 281.55C88.1 281.35 85.4 281.05 82.8 282.25C81.7 282.45 80.6 282.55 79.5 282.75C76.9 282.75 74.4 282.75 71.8 282.75C69.7 282.45 67.7 282.05 65.7 281.75C74.8 277.75 84.4 279.05 93.8 278.35V278.25Z"
                fill="#DAF73A" />
            <path id="Vector_128"
                d="M79.4 282.75C80.5 282.55 81.6 282.45 82.7 282.25C81.9 283.35 80.9 284.05 79.6 284.25C79.6 283.75 79.5 283.25 79.4 282.75Z"
                fill="#7DD220" />
            <path id="Vector_129"
                d="M222.3 303.75C222.3 302.95 222.5 302.25 222.6 301.45C225.9 301.05 229.2 300.55 232.5 300.15C232.5 300.65 232.7 301.15 232.8 301.65C232.4 302.15 232.1 302.55 231.7 303.05C230.1 303.25 228.4 303.45 226.8 303.65C225.3 303.35 223.8 303.45 222.4 304.05L222.3 303.75Z"
                fill="#4C4F48" />
            <path id="Vector_130"
                d="M222.5 304.15C223.9 303.55 225.4 303.45 226.9 303.75C225.5 304.95 224.3 306.75 222.5 304.15Z"
                fill="#63655E" />
            <path id="Vector_131"
                d="M350.4 323.05C327.8 323.95 305.2 323.05 282.6 323.25C282.1 321.55 281.1 318.75 284.2 319.75C293.4 322.85 301.9 318.05 310.8 318.15C316.2 318.15 321.8 319.05 327.2 317.65C329.2 321.15 331.1 320.75 332.9 317.45C336.8 317.45 340.7 317.45 344.6 317.25C348.6 317.05 350.9 318.65 350.4 322.95V323.05Z"
                fill="#3CA229" />
            <path id="Vector_132"
                d="M232.8 301.65C232.8 301.15 232.6 300.65 232.5 300.15C233.7 299.55 234.8 298.85 236 298.25C238.4 297.75 240.8 297.25 243.3 296.75C243.4 298.25 242.2 298.55 241.7 299.25C238.9 300.55 236 301.55 232.8 301.65Z"
                fill="#393B36" />
            <path id="Vector_133"
                d="M260.7 305.65C261 305.65 261.4 305.55 261.7 305.55C261.9 306.55 261.7 307.55 260.9 308.15C260.9 307.35 260.8 306.45 260.7 305.65Z"
                fill="#4C4F48" />
            <path id="Vector_134"
                d="M156.8 313.65C153.1 313.65 149.3 313.45 145.6 313.35C143.6 313.35 141.7 312.95 140.3 311.35C144.1 311.35 147.9 311.25 151.8 311.25C153.9 311.25 155.8 311.55 156.9 313.75L156.8 313.65Z"
                fill="#3CA229" />
            <path id="Vector_135"
                d="M236 298.35C234.8 298.95 233.7 299.65 232.5 300.25C229.2 300.65 225.9 301.15 222.6 301.55C220.4 301.45 218.2 301.35 215.9 301.15C222.5 299.85 229.2 298.65 236 298.35Z"
                fill="#63655E" />
            <path id="Vector_136"
                d="M325.5 301.55C321.9 301.25 318.3 301.05 314.8 300.75C311.9 300.25 308.9 299.65 306 299.45C302.2 299.05 299.7 297.15 298.1 293.95C299.1 292.95 299.9 293.35 300.6 293.75C312.7 299.75 325.1 301.35 338 296.55C338.8 296.25 339.6 296.35 340.4 296.15C340.5 296.25 340.7 296.45 340.8 296.55C336.6 300.85 330.6 300.05 325.5 301.55Z"
                fill="#393B36" />
            <path id="Vector_137"
                d="M340.4 296.05C340.9 295.85 341.1 296.05 340.8 296.45C340.7 296.35 340.5 296.15 340.4 296.05Z"
                fill="#393B36" />
        </g>
        <g id="head-hair">
            <g id="Head">
                <path id="Vector_138"
                    d="M212.7 146.55C212.7 143.05 214.3 140.95 217.9 140.55C218.5 140.25 219.2 139.95 219.8 139.65C221.6 139.25 223 138.35 223.8 136.65C225 136.15 226.3 135.75 227.4 135.05C257.5 116.95 288.6 116.45 320.4 129.85C321.7 130.35 323.2 132.35 324.5 129.65C326.3 131.75 327.7 134.45 331 134.75C331.2 135.75 331.6 136.55 332.8 136.65C333.2 137.45 333.9 137.75 334.8 137.65C338.2 143.15 342.7 147.65 347.8 151.45C348.6 152.95 349.5 154.45 350.3 156.05C350.9 158.55 350.7 161.45 352.9 163.35C351.7 165.05 353.1 166.45 353.5 167.95C355.5 174.85 358 181.55 359.6 188.45C368.1 223.95 363.6 259.95 362.9 295.85C362.9 299.15 360.9 300.85 357.8 300.55C350.8 299.95 344.4 301.95 337.9 303.95C334.9 304.95 331.7 305.45 328.8 303.25C332.4 300.15 337.1 300.95 341.3 299.65C344.4 298.75 345.9 297.45 345.4 294.15C346.1 293.15 347.1 292.25 345.9 290.95C347.3 284.85 345.7 278.25 348.6 272.25L350.7 270.15C351.7 269.85 352.3 269.25 352.3 268.15C359.9 256.35 360.5 243.45 358.5 230.15C358.1 227.25 357.8 224.15 355 222.25C354 219.35 353.2 216.15 348.9 217.35C347.1 212.65 347.1 207.65 346.8 202.65C345.6 179.65 333.3 162.95 310.3 156.65C294 152.15 277.4 151.65 260.8 152.65C249.6 153.25 238.5 156.15 228.8 161.55C211.7 170.95 201.5 186.05 198.3 205.45C197.7 209.05 196.3 212.95 198.6 216.55C198.6 216.75 198.6 216.95 198.6 217.15C197.4 218.35 196.6 219.65 196.9 221.45C195.6 221.45 194.9 222.45 194.2 223.35C186.3 234.05 185.8 254.55 193.2 265.45C194.1 266.85 195.1 268.25 197 268.35C197 269.05 197 269.75 196.9 270.45C196.1 276.15 196.9 281.85 196.6 287.55C196.5 289.65 194.6 292.25 196.6 294.45C196.7 294.75 196.8 295.05 196.9 295.35C199.2 300.05 206.1 303.15 210.9 301.65C213.2 302.05 215.6 302.55 217.9 302.95C217.5 305.85 215.3 304.65 213.6 304.75C204.7 305.35 196.3 301.85 187.6 300.75C180.2 299.85 179 297.65 179.3 290.25C179.9 274.15 180.3 257.95 181.9 241.85C184.9 211.05 191.3 181.25 208.9 154.95C210.2 153.05 212.5 151.35 211.8 148.35C213.3 148.85 213.7 147.65 214.3 146.75C214.3 146.45 214.3 146.05 214.3 145.75L213.6 146.15C213.3 146.15 213.1 146.25 212.8 146.35L212.7 146.55Z"
                    fill="#63655E" />
                <path id="Vector_139"
                    d="M352.8 164.15C350.6 162.15 350.8 159.35 350.2 156.85C352.6 158.25 353.7 160.45 355 162.85C363.9 178.75 365.4 196.35 367.8 213.85C368 214.95 368.3 216.05 368.6 217.15C368.7 227.85 368.8 238.45 368.9 249.15C368.9 250.35 368.9 251.55 368.9 252.75C368.7 264.85 368.7 276.85 368.4 288.95C368.4 292.15 369.6 293.55 372.6 293.75C373.6 295.05 374.9 295.65 376.5 295.55C376.5 296.55 376.5 297.65 376.6 298.65C373.5 298.85 371.6 295.45 368.4 295.65C367.3 297.05 369 299.35 366.8 300.55C366 299.85 366.1 298.85 366 297.85C365.3 292.25 366.6 286.65 366.5 281.05C366.2 260.95 368.1 240.95 366.1 220.85C365.1 211.25 364.8 201.65 362.7 192.25C360.6 182.55 358.3 172.85 352.9 164.25L352.8 164.15Z"
                    fill="#393B36" />
                <path id="Vector_140"
                    d="M167.3 293.85C167.1 293.85 166.9 293.85 166.8 293.65C167.4 293.25 168 292.75 168.6 292.35C169 292.35 169.4 292.15 169.8 292.05C170.2 291.75 170.6 291.55 170.9 291.25C174.3 290.55 174.6 287.85 174.8 285.15C176.1 265.95 176.3 246.65 178.8 227.45C180.6 213.15 181.8 198.65 187.7 185.25C188.9 182.55 187.7 178.65 191.4 177.05C191.7 177.25 192 177.55 192.3 177.75C189.5 186.05 186.3 194.35 184.5 202.95C178.7 231.25 177.9 260.05 177.4 288.85C177.4 290.75 178.4 292.85 176.4 294.45C176.2 294.45 176 294.45 175.7 294.45C172.9 291.75 170.5 294.85 168 295.15L167.2 293.95L167.3 293.85Z"
                    fill="#393B36" />
                <path id="Vector_141"
                    d="M324.4 130.35C323.2 133.05 321.6 131.05 320.3 130.55C288.4 117.25 257.4 117.65 227.3 135.75C226.2 136.45 224.9 136.85 223.7 137.35C225.1 133.95 228.4 132.65 231.2 131.15C259.9 116.05 289.2 115.75 318.9 127.95C320.7 128.75 322.6 129.55 324.4 130.35Z"
                    fill="#393B36" />
                <path id="Vector_142"
                    d="M165.4 293.75C154.9 293.75 144.5 293.85 134 293.95C132.5 293.95 131.1 293.45 130.2 292.05C136.3 290.75 142.4 291.65 148.6 291.45C151.6 291.35 154.5 291.45 157.4 290.45C160.7 289.45 163.5 290.95 165.4 293.85V293.75Z"
                    fill="#52686B" />
                <path id="Vector_143"
                    d="M372.6 293.55C369.6 293.45 368.3 291.95 368.4 288.75C368.7 276.75 368.8 264.65 368.9 252.55C370.5 262.25 369.4 272.05 369.5 281.75C369.5 285.95 369.8 289.95 372.6 293.45V293.55Z"
                    fill="#52686B" />
                <path id="Vector_144"
                    d="M200.5 160.25C202.4 156.45 204.2 152.65 206.3 148.95C207.6 146.55 210.1 147.55 212.2 147.55C212 148.15 211.8 148.65 211.7 149.25C207.1 152.15 205 157.05 201.6 160.95C201.3 160.65 201 160.45 200.7 160.15L200.5 160.25Z"
                    fill="#393B36" />
                <path id="Vector_145"
                    d="M347.6 152.25C342.5 148.35 338 143.95 334.6 138.45C341 141.15 344.2 146.75 347.6 152.25Z"
                    fill="#393B36" />
                <path id="Vector_146"
                    d="M191.5 177.15C193.5 170.95 196.2 165.15 200.6 160.25C200.9 160.55 201.2 160.75 201.5 161.05C198.5 166.65 195.5 172.25 192.4 177.95C192.1 177.75 191.8 177.45 191.5 177.25V177.15Z"
                    fill="#393B36" />
                <path id="Vector_147"
                    d="M368.9 249.05C368.8 238.35 368.7 227.75 368.6 217.05C370.4 227.65 369.9 238.35 368.9 249.05Z"
                    fill="#52686B" />
                <path id="Vector_148"
                    d="M223.7 137.35C222.9 139.05 221.5 139.95 219.7 140.35C220.2 138.15 221.6 137.25 223.7 137.35Z"
                    fill="#393B36" />
                <path id="Vector_149"
                    d="M332.6 137.35C331.5 137.15 331.1 136.35 330.8 135.45C331.7 135.85 332.4 136.35 332.6 137.35Z"
                    fill="#393B36" />
                <path id="Vector_150"
                    d="M211.6 149.25C211.8 148.65 212 148.15 212.1 147.55C212.3 147.55 212.5 147.45 212.6 147.25C212.9 147.25 213.1 147.25 213.4 147.05C213.6 147.25 213.9 147.45 214.1 147.65C213.5 148.55 213.1 149.75 211.6 149.15V149.25Z"
                    fill="#90B67B" />
                <path id="Vector_151"
                    d="M334.6 138.35C333.7 138.35 333.1 138.15 332.6 137.35C333.3 137.65 333.9 138.05 334.6 138.35Z"
                    fill="#393B36" />
                <path id="Vector_152"
                    d="M171 291.35C170.6 291.65 170.2 291.85 169.9 292.15C170.3 291.85 170.7 291.65 171 291.35Z"
                    fill="#52686B" />
                <path id="Vector_153"
                    d="M352.8 164.15C358.2 172.75 360.5 182.45 362.6 192.15C364.7 201.55 365 211.15 366 220.75C368 240.85 366.1 260.85 366.4 280.95C366.4 286.55 365.2 292.15 365.9 297.75C366 298.75 365.9 299.65 366.7 300.45C368.9 299.25 367.2 296.95 368.3 295.55C371.5 295.35 373.4 298.65 376.5 298.55V298.45C376.2 300.15 377.7 300.75 378.6 301.75C379.2 301.85 379.7 301.95 380.3 302.05C380.8 303.35 383 304.65 381.3 305.85C379.7 306.95 377.5 307.95 375.2 307.15C369.7 305.15 364.2 304.75 358.6 307.15C357.7 307.55 356.6 307.85 355.7 307.55C347.3 305.35 339.3 309.75 331.1 309.05C329 308.85 326.8 309.55 325 307.75C324.6 307.35 323.7 307.15 323.2 307.35C315.5 310.05 307.6 308.85 299.8 308.95C291.7 308.95 283 306.25 275.9 312.95C274.6 314.15 273.5 313.55 272.7 312.15C274 309.85 277.3 308.95 277 305.65C278.6 301.75 278.5 297.55 278.8 293.45C279.3 293.45 279.8 293.45 280.4 293.45C280.4 296.15 280.4 298.85 280.4 301.65C279.5 307.35 279.4 307.25 284.5 306.15C286.6 305.75 288.8 305.65 290.9 305.75C302.5 306.15 314 304.05 325.6 304.25H328.7C331.5 306.65 334.7 306.05 337.7 305.05C344.2 302.95 350.7 301.05 357.6 301.65C360.7 301.95 362.6 300.25 362.7 296.95C363.4 261.05 367.9 225.15 359.4 189.55C357.7 182.65 355.3 175.85 353.3 169.05C352.9 167.55 351.4 166.15 352.7 164.45L352.8 164.15Z"
                    fill="#90B67B" />
                <path id="Vector_154"
                    d="M177.6 302.15C177.2 299.65 176.9 297.05 176.5 294.55C178.5 293.05 177.5 290.85 177.5 288.95C178 260.15 178.8 231.45 184.6 203.05C186.4 194.35 189.6 186.15 192.4 177.85C195.4 172.25 198.4 166.65 201.5 160.95C204.9 157.05 207.1 152.15 211.6 149.25C212.4 152.15 210 153.85 208.7 155.85C191.2 182.15 184.8 211.95 181.7 242.75C180.1 258.85 179.7 275.05 179.1 291.15C178.8 298.55 180.1 300.75 187.4 301.65C196.1 302.75 204.4 306.25 213.4 305.65C215.1 305.55 217.2 306.75 217.7 303.85C219.2 304.35 220.7 304.15 222.3 303.85V304.15C224.2 306.75 225.5 304.95 226.8 303.75C228.4 303.55 230.1 303.35 231.7 303.15C231.7 303.75 231.7 304.45 231.7 305.05C225.7 310.25 218.9 309.95 211.8 308.15C211.3 308.05 210.8 307.75 210.4 307.85C203.3 309.35 196.5 306.25 189.4 306.15C185.4 306.15 180.5 306.35 177.6 302.15Z"
                    fill="#90B67B" />
                <path id="Vector_155"
                    d="M260.6 310.25C260.7 309.55 260.8 308.85 260.9 308.25C261.8 307.55 262 306.65 261.7 305.65C261.8 298.15 261.9 290.55 262.1 283.05C262.1 281.35 261.7 279.35 263.7 278.25C263.7 280.35 263.7 282.55 263.7 284.65C263.7 292.05 263 299.55 265.8 306.65C265.6 308.85 267.5 309.75 268.5 311.25C265.8 310.85 262.9 312.25 260.5 310.25H260.6Z"
                    fill="#90B67B" />
                <path id="Vector_156"
                    d="M198.4 216.75C196.1 213.15 197.5 209.25 198.1 205.65C201.3 186.25 211.5 171.25 228.6 161.75C238.4 156.35 249.5 153.45 260.6 152.85C277.2 151.95 293.8 152.35 310.1 156.85C333.1 163.15 345.4 179.85 346.6 202.85C346.9 207.85 346.9 212.85 348.7 217.55C348.9 219.35 349.1 221.15 349.2 222.95C347.4 224.25 347.6 226.15 347.7 227.95C347.9 232.45 348.2 236.85 348.4 241.35C347.1 241.35 345.8 241.35 344.5 241.35C343.7 239.75 342.2 239.55 340.7 239.55C336.5 239.65 332.4 239.85 328.3 239.95C313.2 240.45 298.1 240.95 283 241.45C281.1 241.45 279.1 241.35 279.3 238.65C280.5 225.65 282.9 216.25 298.8 212.25C309.3 209.65 319.7 207.05 330.2 204.35C334.1 203.35 335.2 201.85 334.9 198.65C334.9 198.25 334.8 197.85 334.7 197.45C336 195.05 334.2 194.85 332.6 194.55H332.7C329.4 192.65 325.9 193.55 322.5 194.25C314.9 195.85 307.2 197.45 299.6 199.15C285 202.45 270.6 203.95 255.7 200.15C244.3 197.25 232.6 195.55 221 193.35C218.9 192.95 216.7 192.55 215 194.55C214.5 194.95 213.9 195.25 213.4 195.65C210.4 199.55 211.3 202.95 215.8 204.05C224.8 206.25 234 207.85 242.9 210.45C256.2 214.35 264.7 221.65 265.2 236.05C265.4 240.45 263.8 241.95 259.4 241.85C250.3 241.55 241.1 241.75 232 241.75C220.4 241.25 208.9 240.85 197.3 240.35C197.3 239.05 197.3 237.95 195.9 237.25C195.5 232.25 197.3 227.75 199.1 223.25C200.1 220.65 202.4 218.55 202.2 215.45C199.8 211.95 199.3 215.75 198 216.55L198.4 216.75Z"
                    fill="#4C4F48" />
                <path id="Vector_157"
                    d="M232.4 241.85C241.5 241.85 250.7 241.75 259.8 241.95C264.2 242.05 265.7 240.55 265.6 236.15C265 221.75 256.6 214.45 243.3 210.55C234.4 207.95 225.2 206.35 216.2 204.15C211.7 203.05 210.8 199.65 213.8 195.75C214.2 196.85 215.3 198.05 213.8 199.15C213.8 199.85 214 200.45 214.8 200.65C215.5 201.95 216.8 202.35 218.1 202.65C228.3 205.15 238.4 207.85 248.7 209.55C258.6 211.25 268.3 214.85 278.7 213.45C296 211.15 312.9 207.05 329.6 201.95C331.7 201.35 333.7 200.65 335 198.65C335.3 201.85 334.3 203.35 330.3 204.35C319.8 207.05 309.4 209.65 298.9 212.25C283 216.25 280.7 225.65 279.4 238.65C279.1 241.35 281.1 241.55 283.1 241.45C298.2 240.95 313.3 240.45 328.4 239.95C332.5 239.85 336.7 239.65 340.8 239.55C342.3 239.55 343.8 239.65 344.6 241.35C324.4 242.05 304.1 242.85 283.9 243.35C279.4 243.45 278.9 245.15 279.3 249.15C279.9 254.75 282.8 259.45 284.7 264.55C285.1 265.25 285.4 266.05 285.8 266.75C286.2 266.95 286.5 267.35 286.9 267.75C285.8 272.45 289.5 271.35 291.9 271.75H291.8C292.3 272.05 292.9 272.45 293.4 272.85C294.9 273.55 296.4 274.25 297.8 274.95C309.4 280.45 321.5 281.65 333.9 278.05C348.6 273.55 356.8 262.35 357.8 246.05C358.1 241.85 356.9 240.25 352.8 240.85C352.8 240.45 352.8 240.05 352.8 239.65C357 240.05 358.2 238.45 357.4 234.15C356.7 230.25 354.8 226.65 355 222.65C357.9 224.55 358.1 227.65 358.5 230.55C360.5 243.85 359.9 256.75 352.3 268.55C351.8 269.25 351.2 269.85 350.7 270.55C350 271.25 349.3 271.95 348.6 272.65C347.1 273.05 346 273.95 344.9 275.15C336.4 284.35 325.7 288.45 313.4 288.65C308.6 288.65 303.9 287.65 299.1 287.25C293.4 286.75 291.2 288.65 290.7 294.25C290.2 300.15 287.9 301.15 282.5 297.65C282.5 295.65 282.7 293.65 282.2 291.75C281.2 287.55 282.9 282.85 279.9 279.05C276.5 275.75 276 278.85 275.8 281.15C275.5 286.15 275.7 291.05 275.6 296.05C275.6 298.45 275.2 300.95 272.1 301.05C269.1 301.15 267.5 299.35 267.2 296.55C266.9 292.55 266.9 288.65 266.6 284.65C266.4 282.05 266.8 279.05 263.8 277.55C261.8 278.65 262.2 280.65 262.2 282.35C262 289.85 261.9 297.45 261.8 304.95C261.5 304.95 261.1 304.95 260.8 305.05C260.7 304.95 260.5 304.75 260.4 304.65C260.1 302.05 258.6 300.75 256.1 300.75C252.6 300.75 251.8 298.65 251.6 295.55C251.3 289.05 249.9 287.85 243.5 287.65C236.9 287.45 230.2 288.35 223.7 286.55C220.2 285.55 216 285.25 214.6 280.75C219.4 281.95 224.4 282.65 229.4 282.85C237.8 283.15 246 282.35 252.7 276.45C254.9 275.85 256.2 274.25 256.8 272.05C262.4 265.15 265.1 257.05 265.9 248.25C266.2 244.85 265.2 243.55 261.5 243.65C251.9 243.75 242.3 243.45 232.7 243.25C232.7 242.75 232.7 242.25 232.6 241.75L232.4 241.85Z"
                    fill="#393B36" />
                <path id="Vector_158"
                    d="M214.6 281.45C216 285.95 220.1 286.25 223.7 287.25C230.2 288.95 236.9 288.15 243.5 288.35C250 288.55 251.3 289.75 251.6 296.25C251.7 299.35 252.5 301.45 256.1 301.45C258.6 301.45 260.1 302.75 260.4 305.35C253.5 305.55 247.9 301.55 241.7 299.35C242.2 298.65 243.4 298.35 243.3 296.85C240.9 297.35 238.4 297.85 236 298.35C229.2 298.75 222.6 299.85 215.9 301.15C210.8 301.35 206.7 298.75 202.3 296.65C200.5 295.75 198.7 293.95 196.3 295.45C194.2 293.25 196.1 290.65 196.3 288.55C196.6 282.85 195.8 277.15 196.6 271.45C196.9 271.45 197.1 271.55 197.4 271.65C198.1 272.35 198.8 272.95 199.5 273.65C200.1 274.05 200.8 274.35 201.4 274.75C202.8 277.45 205.5 278.35 208.1 279.25C210.3 280.05 212.4 280.85 214.6 281.65V281.45Z"
                    fill="#4C4F48" />
                <path id="Vector_159"
                    d="M282.5 297.45C287.8 300.95 290.2 299.95 290.7 294.05C291.2 288.45 293.4 286.55 299.1 287.05C303.9 287.45 308.7 288.55 313.4 288.45C325.6 288.25 336.4 284.15 344.9 274.95C345.9 273.85 347.1 272.95 348.6 272.45C345.8 278.35 347.3 284.95 345.9 291.15C345.9 292.25 341.5 292.65 345.4 294.35C345.9 297.55 344.4 298.85 341.3 299.85C337.2 301.15 332.4 300.35 328.8 303.45C327.8 303.45 326.7 303.45 325.7 303.35C325.7 302.55 325.7 301.65 325.6 300.85C330.8 299.35 336.7 300.15 340.9 295.85C341.1 295.35 340.9 295.25 340.5 295.45C339.7 295.55 338.8 295.45 338.1 295.85C325.2 300.65 312.8 299.05 300.7 293.05C300 292.65 299.2 292.25 298.2 293.25C299.9 296.45 302.3 298.45 306.1 298.75C309.1 299.05 312 299.65 314.9 300.05C311 303.35 306.6 300.65 302.4 301.05C295.7 301.75 289 301.85 282.2 302.15C282.3 300.55 282.4 299.05 282.5 297.45Z"
                    fill="#4C4F48" />
                <path id="Vector_160"
                    d="M354.8 223.25C354.6 227.25 356.5 230.85 357.2 234.75C357.9 239.05 356.8 240.65 352.6 240.25C352.3 239.55 351.9 238.95 351.6 238.35C351.6 237.15 351.8 235.85 350.7 234.85C351.3 234.25 351.3 233.55 350.7 232.95C350.7 231.75 350.7 230.55 350.7 229.35C350.8 227.35 350.5 225.55 349.4 223.85C349.2 222.05 349 220.25 348.9 218.45C353.2 217.25 354 220.45 355 223.35L354.8 223.25Z"
                    fill="#90B67B" />
                <path id="Vector_161"
                    d="M196.3 238.05C197.6 238.65 197.8 239.85 197.7 241.15C197.3 241.55 196.9 242.05 196.5 242.45C196.2 242.65 195.9 242.75 195.6 242.95C189.6 242.15 189.4 242.35 189.5 248.35C189.5 256.15 192.3 262.95 196.8 269.15C194.9 269.15 193.9 267.65 193 266.35C185.7 255.45 186.2 234.95 194 224.25C194.7 223.35 195.4 222.35 196.7 222.35C194.4 226.95 191.7 231.35 190.8 236.45C190.5 237.95 188.6 240.15 191.5 240.95C193.8 241.65 195.8 240.95 196.2 238.05H196.3Z"
                    fill="#393B36" />
                <path id="Vector_162"
                    d="M198.4 217.45C199.7 216.65 200.2 212.85 202.6 216.35C201.6 217.25 200.5 218.05 199.5 218.95C199.1 218.65 198.8 218.35 198.4 218.05C198.4 217.85 198.4 217.65 198.4 217.45Z"
                    fill="#393B36" />
                <path id="Vector_163"
                    d="M345.3 295.05C341.4 293.35 345.7 292.95 345.8 291.85C347 293.15 346 294.05 345.3 295.05Z"
                    fill="#393B36" />
                <path id="Vector_164"
                    d="M196.8 222.35C196.4 220.55 197.3 219.25 198.5 218.05C198.9 218.35 199.2 218.65 199.6 218.95C198.7 220.15 197.8 221.25 196.9 222.45L196.8 222.35Z"
                    fill="#393B36" />
                <path id="Vector_165"
                    d="M350.6 271.15C351.1 270.45 351.7 269.85 352.2 269.15C352.2 270.25 351.6 270.85 350.6 271.15Z"
                    fill="#4C4F48" />
                <path id="Vector_166"
                    d="M197.4 271.55C197.1 271.55 196.9 271.45 196.6 271.35C196.6 270.65 196.6 269.95 196.7 269.25C197.2 269.75 197.7 270.25 198.2 270.75C197.9 271.05 197.6 271.35 197.4 271.65V271.55Z"
                    fill="#393B36" />
                <path id="Vector_167"
                    d="M213.4 147.05L214.1 146.65C214.1 146.95 214.1 147.35 214.1 147.65C213.9 147.45 213.6 147.25 213.4 147.05Z"
                    fill="#90B67B" />
                <path id="Vector_168"
                    d="M263.7 278.15C266.8 279.65 266.3 282.65 266.5 285.25C266.8 289.25 266.8 293.15 267.1 297.15C267.3 299.95 269 301.85 272 301.65C275.2 301.55 275.5 299.05 275.5 296.65C275.6 291.65 275.5 286.65 275.7 281.75C275.8 279.45 276.4 276.45 279.8 279.65C279.8 279.85 279.8 280.15 279.6 280.35C277.8 284.55 278.8 288.95 278.8 293.25C278.5 297.35 278.6 301.45 277 305.45C273.4 306.85 269.8 307.95 265.9 306.65C263.1 299.55 263.8 292.05 263.8 284.65C263.8 282.55 263.8 280.35 263.8 278.25L263.7 278.15Z"
                    fill="#4C4F48" />
                <path id="Vector_169"
                    d="M282.1 302.85C279.8 304.45 281.2 301.55 280.3 301.45C280.3 298.75 280.3 296.05 280.3 293.25C280.6 288.85 281 284.55 279.6 280.25C279.7 280.05 279.8 279.85 279.8 279.55C282.9 283.35 281.2 288.05 282.1 292.25C282.5 294.15 282.3 296.15 282.4 298.15C282.3 299.75 282.2 301.25 282.1 302.85Z"
                    fill="#091B08" />
                <path id="Vector_170"
                    d="M279.7 280.25C281.2 284.55 280.7 288.85 280.4 293.25C279.9 293.25 279.4 293.25 278.8 293.25C278.8 288.95 277.8 284.55 279.6 280.35L279.7 280.25Z"
                    fill="#767675" />
                <path id="Vector_171"
                    d="M284.7 265.15C282.8 260.05 279.9 255.35 279.3 249.75C278.8 245.75 279.3 244.15 283.9 243.95C304.1 243.45 324.4 242.65 344.6 241.95C345.9 241.95 347.2 241.95 348.5 241.95C349.3 242.45 349.3 243.15 349.2 244.05C348.3 251.65 347.9 259.25 344.6 266.35C341.8 271.15 336.5 273.65 333.7 278.35C321.3 281.95 309.3 280.75 297.6 275.25C296.1 274.55 294.6 273.85 293.2 273.15C292.7 272.75 292.1 272.45 291.6 272.05H291.7C290.2 270.45 289 268.55 286.7 267.95C286.7 267.15 286.4 266.85 285.6 266.85V266.95C285.9 265.95 285.3 265.35 284.5 264.75L284.7 265.15ZM319.6 250.75C318.5 250.85 317.2 250.75 317.5 252.55C317.8 254.35 318.9 255.05 320.6 255.05C322.2 255.05 322.5 253.85 322.4 252.65C322.4 250.85 321.1 250.55 319.6 250.75Z"
                    fill="#767675" />
                <path id="Vector_172"
                    d="M213.6 199.05C215.1 197.95 214.1 196.85 213.6 195.65C214.1 195.25 214.7 194.95 215.2 194.55C217.8 194.55 220.5 194.25 223.1 194.85C233.5 197.05 244 198.85 254.3 201.25C267.6 204.35 280.7 204.55 294.2 201.75C307 199.15 319.6 195.15 332.8 194.55H332.7C333.1 195.35 333.5 196.25 333.8 197.15C330.4 200.85 325.5 200.85 321.1 201.95C307.6 205.35 294.1 208.95 280.3 210.55C271.5 211.65 263 207.95 254.2 208.55C252.3 209.05 250.4 208.35 248.6 208.05C237.3 205.55 226 203.05 214.8 200.55C214.5 200.05 214.2 199.55 213.8 199.05H213.6Z"
                    fill="#44575C" />
                <path id="Vector_173"
                    d="M280.2 211.35C294.1 209.85 307.6 206.25 321 202.75C325.4 201.65 330.2 201.55 333.7 197.95C334 197.95 334.4 197.95 334.6 198.15C334.6 198.55 334.7 198.95 334.8 199.35C333.5 201.25 331.5 201.95 329.4 202.65C312.7 207.75 295.8 211.85 278.5 214.15C268.2 215.55 258.5 212.05 248.5 210.25C248.5 209.75 248.5 209.25 248.5 208.85C250.4 209.15 252.2 209.85 254.1 209.35C262.7 211.55 271.2 214.65 280.2 211.35Z"
                    fill="#90B67B" />
                <path id="Vector_174"
                    d="M332.7 195.35C319.5 195.95 306.9 199.85 294.1 202.55C280.6 205.35 267.5 205.15 254.2 202.05C243.9 199.65 233.4 197.85 223 195.65C220.3 195.05 217.7 195.35 215.1 195.35C216.8 193.35 218.9 193.75 221.1 194.15C232.7 196.35 244.4 198.15 255.8 200.95C270.6 204.65 285.1 203.15 299.7 199.95C307.3 198.25 314.9 196.55 322.6 195.05C326 194.35 329.4 193.45 332.8 195.35H332.7Z"
                    fill="#091B08" />
                <path id="Vector_175"
                    d="M344.6 266.55C347.9 259.45 348.3 251.75 349.2 244.25C349.3 243.35 349.3 242.65 348.5 242.15C348.3 237.65 348 233.25 347.8 228.75C347.8 226.95 347.5 225.05 349.3 223.75C350.5 225.45 350.8 227.25 350.6 229.25C349.9 230.45 350.1 231.65 350.6 232.85C351.1 233.45 351.2 234.15 350.6 234.75C350.9 235.95 351.2 237.05 351.5 238.25C351.8 238.85 352.2 239.55 352.5 240.15C352.5 240.55 352.5 240.95 352.5 241.35C351.4 243.85 351.8 246.55 351.5 249.15C350.7 255.55 349.6 261.85 344.5 266.55H344.6Z"
                    fill="#63655E" />
                <path id="Vector_176"
                    d="M196.8 222.45C197.7 221.25 198.6 220.15 199.5 218.95C200.5 218.05 201.6 217.25 202.6 216.35C202.8 219.45 200.5 221.55 199.5 224.15C197.7 228.65 195.9 233.15 196.3 238.15C195.9 240.95 193.9 241.65 191.6 241.05C188.7 240.25 190.7 238.05 190.9 236.55C191.8 231.45 194.5 227.05 196.8 222.55V222.45Z"
                    fill="#90B67B" />
                <path id="Vector_177"
                    d="M196.6 242.45C197 242.05 197.4 241.55 197.8 241.15C209.4 241.65 220.9 242.05 232.5 242.55C232.5 243.05 232.5 243.55 232.6 244.05C220.6 244.35 208.7 241.55 196.6 242.45Z"
                    fill="#091B08" />
                <path id="Vector_178"
                    d="M334.7 198.15C334.4 197.95 334.1 197.85 333.8 197.95C333.4 197.05 333 196.15 332.7 195.25C334.3 195.55 336.1 195.75 334.8 198.15H334.7Z"
                    fill="#091B08" />
                <path id="Vector_179"
                    d="M196.6 242.45C208.7 241.55 220.5 244.35 232.6 244.05C242.2 244.25 251.8 244.55 261.4 244.45C265.1 244.45 266.1 245.75 265.8 249.05C265 257.85 262.3 265.85 256.7 272.85C255.4 274.35 253.2 275.05 252.6 277.25C249.5 277.25 247.2 279.55 244.3 280.45C232.1 284.25 220.4 281.75 208.6 278.25C208.6 277.95 208.4 277.75 208.3 277.55C209.1 276.95 208.7 276.15 208.4 275.45C209.5 273.15 207.2 273.95 206.4 273.35C204.8 267.15 202.4 261.35 196.9 257.35C196.1 255.15 195.9 252.75 196.2 250.45C196 248.55 195.8 246.75 195.7 244.85C195.7 244.25 195.5 243.65 195.4 243.05L196.3 242.55L196.6 242.45ZM227.6 256.05C229.4 256.05 229.9 254.95 230 253.55C230.2 251.75 228.7 252.05 227.6 251.95C226 251.85 225.1 252.55 225.3 254.25C225.4 255.65 226.2 256.25 227.6 256.05Z"
                    fill="#767675" />
                <path id="Vector_180"
                    d="M344.6 266.55C349.6 261.85 350.8 255.55 351.6 249.15C351.9 246.55 351.5 243.85 352.6 241.35C356.7 240.75 357.9 242.45 357.6 246.55C356.6 262.85 348.4 274.05 333.7 278.55C336.6 273.85 341.8 271.35 344.6 266.55Z"
                    fill="#90B67B" />
                <path id="Vector_181"
                    d="M208.8 278.25C220.5 281.75 232.3 284.25 244.5 280.45C247.3 279.55 249.6 277.35 252.8 277.25C246.1 283.15 237.9 283.95 229.5 283.65C224.5 283.45 219.6 282.75 214.7 281.55C212.5 280.75 210.4 279.95 208.2 279.15C208.4 278.85 208.6 278.55 208.9 278.25H208.8Z"
                    fill="#091B08" />
                <path id="Vector_182"
                    d="M248.5 208.85C248.5 209.35 248.5 209.85 248.5 210.25C238.2 208.55 228.1 205.85 217.9 203.35C216.6 203.05 215.3 202.65 214.6 201.35C225.9 203.85 237.2 206.35 248.4 208.85H248.5Z"
                    fill="#767675" />
                <path id="Vector_183"
                    d="M286.7 268.25C289 268.85 290.2 270.75 291.7 272.35C289.3 271.95 285.5 273.15 286.7 268.25Z"
                    fill="#091B08" />
                <path id="Vector_184"
                    d="M252.6 277.35C253.1 275.15 255.3 274.45 256.7 272.95C256.1 275.15 254.8 276.65 252.6 277.35Z"
                    fill="#091B08" />
                <path id="Vector_185"
                    d="M284.7 265.15C285.4 265.65 286 266.35 285.8 267.35C285.4 266.65 285.1 265.85 284.7 265.15Z"
                    fill="#091B08" />
                <path id="Vector_186"
                    d="M285.7 267.25C286.5 267.25 286.8 267.55 286.8 268.35C286.4 267.95 286.1 267.65 285.7 267.25Z"
                    fill="#091B08" />
                <path id="Vector_187"
                    d="M213.6 199.85C213.9 200.35 214.2 200.85 214.6 201.35C213.8 201.15 213.7 200.55 213.6 199.85Z"
                    fill="#767675" />
                <path id="Vector_188"
                    d="M208.8 278.25C208.6 278.55 208.4 278.85 208.1 279.15C205.5 278.25 202.8 277.35 201.4 274.65C201.6 274.45 201.8 274.25 202 274.05C204.2 275.25 206.3 276.35 208.5 277.55C208.6 277.75 208.7 278.05 208.8 278.25Z"
                    fill="#393B36" />
                <path id="Vector_189"
                    d="M199.6 273.55C198.9 272.85 198.2 272.25 197.5 271.55C197.8 271.25 198.1 270.95 198.3 270.65C199 271.25 199.7 271.95 200.4 272.55C200.1 272.85 199.9 273.15 199.6 273.45V273.55Z"
                    fill="#393B36" />
                <path id="Vector_190"
                    d="M201.5 274.55C200.9 274.15 200.2 273.85 199.6 273.45C199.9 273.15 200.1 272.85 200.4 272.55C200.9 273.05 201.5 273.45 202 273.95C201.8 274.15 201.6 274.35 201.4 274.55H201.5Z"
                    fill="#393B36" />
                <path id="Vector_191"
                    d="M350.7 232.85C350.2 231.65 349.9 230.45 350.7 229.25C350.7 230.45 350.7 231.65 350.7 232.85Z"
                    fill="#4C4F48" />
                <path id="Vector_192"
                    d="M351.6 238.25C351.3 237.05 351 235.95 350.7 234.75C351.8 235.75 351.6 236.95 351.6 238.25Z"
                    fill="#4C4F48" />
                <path id="Vector_193"
                    d="M202 273.95C201.5 273.45 200.9 273.05 200.4 272.55C199.7 271.95 199 271.25 198.3 270.65C197.8 270.15 197.3 269.65 196.8 269.15C192.4 262.85 189.6 256.05 189.5 248.35C189.5 242.35 189.5 242.15 195.6 242.95C195.7 243.55 195.8 244.15 195.9 244.75C196.1 246.65 196.3 248.45 196.4 250.35C196.2 252.75 196.3 255.05 197.1 257.25C198.7 263.55 201.8 268.95 206.6 273.35C207.3 274.05 207.9 274.75 208.6 275.45C208.9 276.15 209.3 276.85 208.5 277.55C206.3 276.35 204.2 275.25 202 274.05V273.95Z"
                    fill="#90B67B" />
                <path id="Vector_194"
                    d="M319.6 250.75C321.1 250.55 322.3 250.75 322.4 252.65C322.4 253.85 322.1 255.05 320.6 255.05C318.9 255.05 317.8 254.45 317.5 252.55C317.2 250.65 318.5 250.85 319.6 250.75Z"
                    fill="#091B08" />
                <path id="Vector_195"
                    d="M280.2 211.35C271.2 214.65 262.7 211.55 254.1 209.35C262.9 208.75 271.4 212.45 280.2 211.35Z"
                    fill="#4C4F48" />
                <path id="Vector_196"
                    d="M206.7 273.35C201.9 268.95 198.8 263.55 197.2 257.25C202.6 261.25 205.1 267.05 206.7 273.35Z"
                    fill="#63655E" />
                <path id="Vector_197"
                    d="M227.6 256.05C226.2 256.35 225.4 255.65 225.3 254.25C225.1 252.55 226 251.85 227.6 251.95C228.7 251.95 230.2 251.65 230 253.55C229.9 254.95 229.4 256.15 227.6 256.05Z"
                    fill="#091B08" />
                <path id="Vector_198"
                    d="M196.5 250.35C196.3 248.45 196.1 246.65 196 244.75C196.2 246.65 196.4 248.45 196.5 250.35Z"
                    fill="#393B36" />
                <path id="Vector_199"
                    d="M208.6 275.45C207.9 274.75 207.3 274.05 206.6 273.35C207.4 273.95 209.6 273.15 208.6 275.45Z"
                    fill="#63655E" />
            </g>
            <g id="hair">
                <path id="Vector_200"
                    d="M116.6 98.85C117.2 102.25 119.4 104.75 121.3 107.55C121.7 108.15 122.2 108.75 122.6 109.35C125.1 115.45 129.1 120.75 132.6 126.25C142.3 143.95 144 163.95 149.5 182.85C149.7 183.65 149.9 184.45 150.1 185.25C153.6 196.75 154.7 195.85 142.6 200.05C126.1 205.75 110.2 212.85 95.5 222.45C93.5 223.75 90.6 223.75 89.3 226.25C87.8 226.25 86 226.85 85.9 224.35C100.1 214.45 115.2 206.15 131.1 199.35C135.7 197.85 140.2 196.15 144.8 194.95C148.3 194.05 148.8 192.65 147.6 189.35C140.7 170.45 133.8 151.65 126.2 133.05C122.4 123.65 118.2 114.45 114.3 105.05C113.4 102.85 111.7 100.75 113 98.05C113.4 97.15 113 96.85 112.3 96.85C112 96.85 111.4 97.45 111.4 97.75C111.4 98.65 112 98.65 112.7 98.45C114 98.15 115.3 98.15 116.6 98.65V98.85Z"
                    fill="#90B67B" />
                <path id="Vector_201"
                    d="M228.9 49.35C228.1 55.15 227.4 60.95 227.8 66.75C228.8 79.95 225.4 92.55 221.9 104.95C220 111.85 216.4 118.15 209.2 121.35C214.8 105.65 220.7 90.05 221.8 73.15C222.9 66.65 222.8 60.25 221.8 53.75C221.5 36.15 219.8 18.45 225.2 0.850006C227.3 2.05001 226.6 3.35001 226.8 4.35001C227.5 12.75 228.3 21.05 229 29.45C228.6 33.75 228.6 38.05 229 42.25C229 44.55 228.8 46.95 228.8 49.25L228.9 49.35Z"
                    fill="#90B67B" />
                <path id="Vector_202"
                    d="M391.6 209.15C388.9 206.95 391 204.75 391.9 202.95C396.7 192.65 404 183.85 409.9 174.25C420.2 157.35 430.6 140.45 444.9 126.45C445.3 126.05 445.3 125.25 445.4 124.65C449.4 123.45 453.3 122.15 457.3 124.35C458 124.75 458.4 124.95 458.7 124.15C458.8 123.95 458.7 123.45 458.6 123.35C457.9 122.55 457.6 123.35 457.1 123.85C453 128.25 448.9 132.55 444.8 136.95C427.3 155.95 410.1 175.05 396.8 197.35C394.6 201.05 392.9 205.05 391.4 209.15H391.6Z"
                    fill="#90B67B" />
                <path id="Vector_203"
                    d="M229 29.45C228.3 21.05 227.5 12.75 226.8 4.35001C228.6 5.05001 229.5 6.45001 229.8 8.25001C228.2 11.05 228.5 13.95 229.4 16.95C229.9 18.35 230.1 19.85 230.6 21.25C232.9 29.35 231.8 37.35 230.6 45.45C230.4 46.95 230.2 48.45 228.8 49.35C228.8 47.05 229 44.65 229 42.35C230 38.05 230 33.75 229 29.55V29.45Z"
                    fill="#44575C" />
                <path id="Vector_204"
                    d="M221.8 53.65C222.8 60.15 222.9 66.55 221.8 73.05C221.8 66.55 221.8 60.15 221.8 53.65Z"
                    fill="#767675" />
                <path id="Vector_205"
                    d="M326.7 56.35C326.4 56.25 326.1 56.15 325.9 55.85C325.6 55.55 325.9 55.35 326.2 55.55C326.4 55.75 326.5 56.05 326.7 56.35Z"
                    fill="#091B08" />
                <path id="Vector_206"
                    d="M116.6 98.85C126.4 99.45 135.8 102.45 145.3 104.55C165.4 109.05 185.4 113.85 204.8 120.65C206.2 121.15 207.6 121.75 209.1 121.25C216.3 118.05 219.8 111.75 221.8 104.85C225.3 92.35 228.7 79.85 227.7 66.65C227.3 60.85 228 55.05 228.8 49.25C230.2 48.35 230.4 46.85 230.6 45.35C231.7 37.25 232.8 29.25 230.6 21.15C230.2 19.75 229.9 18.25 229.4 16.85C228.4 13.85 228.2 11.05 229.8 8.15001C235 17.05 238.8 27.05 246.2 34.25C263.2 50.95 274.7 71.25 286.3 91.55C287.8 93.65 287.9 96.65 290.6 97.85C290.9 98.15 291.2 98.45 291.6 97.85H291.3C291.3 97.95 291.2 97.75 291.2 97.75C294.4 97.75 296.6 95.45 299 93.85C308.1 87.75 316.6 81.05 324.2 73.25C333 71.95 334.6 63.75 338.6 57.95C340.3 55.95 342 53.85 343.7 51.85C352.7 41.15 363.3 32.05 371.7 20.75C373.7 19.15 373.4 21.15 373.3 21.95C373.1 27.55 372.8 33.05 372.5 38.65C369.8 40.85 370.6 44.15 370.1 47.05C365.9 71.75 360.6 96.25 359.4 121.45C359.4 123.15 358.2 125.15 360.6 126.25C359.9 132.25 360.6 133.15 366.3 133.25C378.6 133.45 390.9 133.85 403.2 132.35C407.5 131.85 411.7 130.75 415.8 129.55C425.5 126.75 435.2 123.95 445.5 124.75C445.3 125.35 445.3 126.15 445 126.55C430.7 140.55 420.3 157.35 410 174.35C404.1 184.05 396.8 192.75 392 203.05C391.2 204.85 389 207.05 391.7 209.25C392.7 212.05 395.3 212.95 397.6 214.25C413.3 222.85 430.2 226.85 448.1 226.85C449.7 226.85 451.4 226.65 453 227.35C450.1 231.35 447.9 236.05 442.8 237.95C441.8 238.85 440.9 239.85 440.7 241.35H440.6C436.6 242.25 432.8 243.35 432.8 248.55C432.1 248.85 431.4 249.15 430.7 249.55C425.9 248.75 424.1 251.95 422.7 255.55C422 256.15 421.3 256.85 420.6 257.55C413.4 263.55 405 267.55 397.1 272.45C388.3 277.75 385.3 277.35 393 289.45C392.5 294.15 388.9 293.45 385.8 293.65C384.7 289.85 383.7 285.95 382.6 282.15C380.7 275.25 382.2 270.45 388.4 266.75C399.2 260.25 408.4 251.95 417.4 243.25C421.3 239.45 421 237.35 415.7 235.65C408.3 233.15 400.8 230.95 393.3 228.65C383.7 225.65 380.3 219.35 382.3 209.35C385.6 192.55 394.6 178.65 403.9 164.75C406.2 161.25 408.8 157.95 411 154.45C413.9 149.75 412.3 146.75 406.8 146.55C401 146.35 395.2 146.45 389.4 147.55C380.7 149.25 371.9 149.95 363.1 149.45C355.4 149.05 352.9 146.55 351.4 139.05C350.2 132.85 350.9 126.75 351.4 120.65C352.4 108.35 353.8 96.15 354.6 83.85C354.9 78.65 353.1 77.65 348.7 80.55C342.2 84.85 336 89.65 329.4 93.85C321.3 99.05 313.2 104.45 304.1 107.65C293.6 111.35 283.5 111.65 274.4 103.15C268.4 97.55 264 91.15 260.4 83.95C256.6 76.35 252.9 68.75 249 61.15C248 59.15 246.6 57.15 244 57.95C241.5 58.65 241.8 60.95 241.7 62.95C241.7 64.95 241.6 66.95 241.7 68.95C242.1 76.75 241 84.25 238.1 91.45C233.2 103.65 227.6 115.45 220.1 126.35C213.9 135.25 203.9 140.25 194.5 137.25C190.2 135.95 186.1 134.05 182 132.25C169.8 126.95 157.6 121.65 145.4 116.25C144.3 115.75 143.1 115.25 142.1 116.25C141 117.15 141.5 118.45 141.8 119.55C142.6 122.55 144.5 124.95 146.3 127.25C151.5 133.85 155.9 140.75 158.1 148.95C159.2 152.95 161.2 156.75 162.3 160.65C165.5 171.85 169 183.05 168.6 194.85C168.4 200.35 166.2 204.45 160.6 206.85C149.1 211.85 136.9 214.65 125.2 218.85C122.4 219.85 117.8 220.25 117.8 223.75C117.8 226.85 122.1 227.85 125 229.05C134.4 232.95 143.8 236.65 152.9 241.25C158.9 244.35 161.5 250.25 158.5 255.75C156.6 259.15 154.4 262.55 151.8 265.65C146.9 271.65 140.8 276.35 136 282.25C132.4 286.65 128.2 287.95 122.9 287.55C120 287.35 119.1 286.05 119.7 283.35C122.6 282.45 125.7 281.85 126.7 278.25C127.7 277.95 128.4 277.25 128.7 276.25C131.6 275.85 132.9 273.75 133.7 271.25C135.5 270.85 136.4 269.65 136.7 267.85C138.7 264.75 141.6 262.15 142.2 258.25C142.6 255.55 142.3 254.95 140 254.15C137.8 253.15 137.6 249.75 134.8 249.35C125 240.75 112.9 236.45 101.3 231.35C97.4 229.65 93.4 227.95 89.5 226.35C90.8 223.85 93.7 223.85 95.7 222.55C110.4 212.95 126.3 205.85 142.8 200.15C154.9 195.95 153.8 196.85 150.3 185.35C150.1 184.55 149.9 183.75 149.7 182.95C144.2 164.05 142.4 144.05 132.8 126.35C131.1 119.75 129.5 113.15 122.8 109.45C122.4 108.75 121.9 108.15 121.5 107.55C119.6 104.85 117.4 102.25 116.8 98.85H116.6Z"
                    fill="#52686B" />
                <path id="Vector_207"
                    d="M324.2 73.35C316.6 81.15 308.1 87.95 299 93.95C296.6 95.55 294.5 97.85 291.2 97.85C291.4 96.35 292.7 95.65 293.6 94.75C312.1 75.85 330.5 56.95 349.9 38.95C351.7 37.35 354.1 36.15 354.7 33.45C361 30.05 365.3 24.05 371.6 20.75C363.2 31.95 352.6 41.15 343.6 51.85C341.9 53.85 340.2 55.95 338.5 57.95C333.7 63.05 328.9 68.15 324.1 73.25L324.2 73.35Z"
                    fill="#90B67B" />
                <path id="Vector_208"
                    d="M360.5 126.25C358.1 125.15 359.3 123.05 359.3 121.45C360.6 96.35 365.8 71.75 370 47.05C370.5 44.25 369.7 40.95 372.4 38.65C370.5 68.15 367.1 97.45 360.4 126.25H360.5Z"
                    fill="#90B67B" />
                <path id="Vector_209"
                    d="M119.6 283.25C119 285.95 119.9 287.25 122.8 287.45C128.1 287.85 132.3 286.65 135.9 282.15C140.7 276.25 146.8 271.55 151.7 265.55C154.2 262.45 156.4 259.05 158.4 255.65C161.5 250.25 158.8 244.25 152.8 241.15C143.8 236.55 134.3 232.75 124.9 228.95C122 227.75 117.8 226.75 117.7 223.65C117.7 220.15 122.2 219.85 125.1 218.75C136.8 214.45 149 211.75 160.5 206.75C166.1 204.25 168.3 200.25 168.5 194.75C168.9 182.95 165.5 171.75 162.2 160.55C161.1 156.65 159.1 152.85 158 148.85C155.8 140.65 151.4 133.65 146.2 127.15C144.4 124.85 142.5 122.45 141.7 119.45C141.4 118.35 140.9 117.15 142 116.15C143 115.25 144.2 115.75 145.3 116.15C157.5 121.45 169.7 126.85 181.9 132.15C186 133.95 190.1 135.85 194.4 137.15C203.8 140.05 213.9 135.15 220 126.25C227.5 115.35 233.1 103.55 238 91.35C240.9 84.15 242 76.65 241.6 68.85C241.6 66.85 241.6 64.85 241.6 62.85C241.6 60.85 241.5 58.55 243.9 57.85C246.5 57.15 247.9 59.15 248.9 61.05C252.7 68.65 256.5 76.25 260.3 83.85C263.9 91.05 268.4 97.45 274.3 103.05C283.4 111.65 293.4 111.25 304 107.55C313.1 104.35 321.2 98.95 329.3 93.75C335.8 89.45 342 84.65 348.6 80.45C353 77.55 354.8 78.55 354.5 83.75C353.7 96.05 352.3 108.25 351.3 120.55C350.8 126.65 350.1 132.75 351.3 138.95C352.8 146.45 355.3 148.85 363 149.35C371.8 149.85 380.7 149.15 389.3 147.45C395.1 146.35 400.9 146.25 406.7 146.45C412.3 146.65 413.9 149.65 410.9 154.35C408.7 157.85 406.1 161.15 403.8 164.65C394.5 178.45 385.5 192.45 382.2 209.25C380.2 219.15 383.6 225.55 393.2 228.55C400.7 230.85 408.2 233.05 415.6 235.55C420.8 237.35 421.2 239.35 417.3 243.15C408.3 251.85 399.1 260.15 388.3 266.65C382.2 270.25 380.6 275.15 382.5 282.05C383.6 285.85 384.6 289.75 385.7 293.55C384.7 293.55 383.6 293.75 382.6 293.85C380.2 292.35 378.7 293.45 377.6 295.55C377.2 295.55 376.7 295.55 376.3 295.55C374.7 295.55 373.4 295.05 372.4 293.75C369.7 290.25 369.4 286.35 369.3 282.05C369.1 272.35 370.3 262.55 368.7 252.85V249.25C369.7 238.55 370.2 227.95 368.4 217.25C368.1 216.15 367.7 215.05 367.6 213.95C365.2 196.45 363.7 178.85 354.8 162.95C353.5 160.55 352.4 158.35 350 156.95C349.2 155.45 348.3 153.95 347.5 152.35C344.1 146.85 340.9 141.25 334.5 138.55C333.8 138.15 333.2 137.85 332.5 137.55C332.4 136.45 331.6 135.95 330.7 135.65C327.4 135.35 326 132.75 324.2 130.55C322.4 129.75 320.6 128.85 318.7 128.15C289 116.05 259.7 116.35 231 131.35C228.1 132.85 224.8 134.05 223.5 137.55C221.4 137.55 220 138.45 219.5 140.55C218.9 140.85 218.2 141.15 217.6 141.45C214 141.85 212.4 143.95 212.4 147.45C212.3 147.65 212.1 147.65 211.9 147.75C209.8 147.75 207.4 146.75 206 149.15C203.9 152.85 202.1 156.65 200.2 160.45C195.9 165.35 193.2 171.15 191.1 177.35C187.4 178.95 188.6 182.85 187.4 185.55C181.5 198.95 180.3 213.45 178.5 227.75C176 246.85 175.8 266.15 174.5 285.45C174.3 288.15 174.1 290.85 170.6 291.55C170.2 291.85 169.8 292.05 169.5 292.35C169.1 292.35 168.7 292.55 168.3 292.65C167.7 293.05 167 293.55 166.4 293.95C166 293.95 165.5 293.95 165.1 293.95C163.1 291.15 160.4 289.55 157.1 290.55C154.1 291.45 151.2 291.35 148.3 291.55C142.2 291.85 136 290.95 129.9 292.15L128.1 292.35C127.7 289.05 125.8 288.75 123.2 289.85C120.9 289.85 118.6 289.65 116.4 289.65C116.2 288.55 115.5 287.85 114.5 287.55C115.6 285.55 117.3 284.15 119.4 283.45L119.6 283.25Z"
                    fill="#44575C" />
                <path id="Vector_210"
                    d="M324.2 73.35C329 68.25 333.8 63.15 338.6 58.05C334.6 63.85 333 72.05 324.2 73.35Z"
                    fill="#44575C" />
                <path id="Vector_211"
                    d="M132.6 126.35C129.1 120.85 125.2 115.55 122.6 109.45C129.2 113.15 130.9 119.75 132.6 126.35Z"
                    fill="#63655E" />
                <path id="Vector_212"
                    d="M290.6 97.95C290.9 97.95 291.3 97.95 291.6 97.95C291.2 98.45 290.9 98.15 290.6 97.95Z"
                    fill="#90B67B" />
                <path id="Vector_213"
                    d="M229 29.45C230 33.75 230 38.05 229 42.25C228.5 37.95 228.6 33.65 229 29.45Z"
                    fill="#767675" />
            </g>
        </g>
    </g>
</svg>