<?xml version="1.0" encoding="utf-8"?>
<!-- Generator: Adobe Illustrator 28.5.0, SVG Export Plug-In . SVG Version: 9.03 Build 54727)  -->
<svg version="1.1" id="katman_1" xmlns="http://www.w3.org/2000/svg" xmlns:xlink="http://www.w3.org/1999/xlink" x="0px" y="0px"
	 viewBox="0 0 1024 1024" style="enable-background:new 0 0 1024 1024;" xml:space="preserve">
<style type="text/css">
	.st0{fill:#00B5CD;}
</style>
<path class="st0" d="M203.1,278.1c-7.4,5.2-13.8,12-22.4,15.5l-0.4,0.2c0,1.7-1.1,1.4-2.2,1.3c-8.1,8.1-18.2,13.3-27.7,19.5
	c-7.8,4.9-15.6,9.8-24,15.1c6.4,4.5,13.8,0.5,19.7,3.9c8.1,1.8,16.3,3.1,23.9,6.8c14.2,6.2,27.5,13.5,35.8,27.4
	c8.4,5.5,8.5,6.1,1.2,12.4c-3.9,3.4-8.1,6.5-12.1,9.8c-4.5,7.8-12.1,12.6-17.8,19.2c-4.1,4.7-8,9.6-12.6,13.7
	c-4.6,4.2-5.7,6.8,1.7,8.3c1.4,0.3,2.7,1.5,4,2.2c17.6,1.4,34.4,7,51.4,11.1c2.6,0.6,3.4,2.3,2.6,4.7c-3.1,8.6-4.6,17.8-9.9,25.5
	c0.6,5.7-2.7,10.4-4.2,15.5c-2.7,9.4-3.1,9.3,6.3,9.9c5.9-1.4,11.8-0.2,17.7-0.5c3.1-0.1,6.1,0,8.7-2c0.5-0.2,0.9-0.7,1.4-0.7
	c18.7,0.2,17.4-4.5,18.9,16.8c0.5,6.5,1.1,13.1,1.5,19.6c0.2,3.8,1.7,4.4,5.1,2.9c7.4-3.4,14.9-6.5,22.3-9.9
	c2.9-1.3,5.1-2.1,7.7,0.7c10,10.9,22.9,16.5,37.1,19c5.3,1,7.1,3,5.4,8.1c-0.3,1-0.2,2.1-0.2,3.1c0.7,8.6-2.8,13.5-11.9,13.5
	c-2,1.8-4.4,2.3-7,2.1c-10.1,5.7-21.5,7.6-32.1,12c-8.5,3.5-17.4,6-25.5,10.2c-12.7,6.5-21.9,16.3-27,30.1
	c-3.5,9.5-5.8,19.6-11,28.5c-1.1,10.1-6,18.9-9.5,28.1c-15.6,40.3-27.2,81.7-37.5,123.7c-6.8,27.7-11.1,55.8-15.7,83.8
	c-2.4,14.6-3.7,29.5-5.2,44.3c-0.3,2.6-1.2,5.4,0.8,7.8c-0.2,5.7,0.2,11.6-1.6,17.2c-0.5,17.8-1.1,35.6-1.4,53.4
	c-0.1,4-0.1,7.9-0.1,11.9h447.6c0.2-26.4,3-52.6,10.9-78.4c-0.3,7,0.1,14.2-1.2,21.1c-3.6,19.2-3.3,38.3-1.6,57.3h223
	c-0.4-6.3-0.9-12.6-1.5-19c-1.3-14.6-0.5-29.4-0.6-44.1c-0.1-7.6,0-15.3,0-22.9c0-2.8-0.3-6.7,3.1-7.3c3.8-0.6,5.4,3.1,6.1,6.1
	c2,9.5,4.8,19,5,28.6c0.3,10.9,2.7,21.3,4.4,31.8c1.4,8.9,2.3,17.9,2.9,26.8h34.9c-1.5-30.4-4-60.8-5.7-91.3
	c-0.4-8-0.9-15.7,4.3-23.9c5.1-8.1,2-19.5,0.9-29.4c-2.2-18.8-8.7-36.7-13.2-55c-3.4-13.7-6.8-27.4-11.3-40.9
	c-3.7-11.2-7.2-22.5-14.7-31.9c-1.2-1.5-1.7-3.2-1.5-5.2c-2.8-4.1-5.7-8.3-8.5-12.4c-10.6-11.2-21.1-22.3-36.6-29.4
	c14.1-7.2,25.6-15.7,35.5-26.5c7.3-7.9,13.8-16.3,18.6-25.9c2.2-4.4,4.9-7.1,10.2-6.9c9.3,0.4,14.5-7.4,21.7-11.3l0,0
	c3-8.5,7.9-16.4,6.9-26.1c-0.4-4.5-1.7-8.7-2.2-13.1l-0.1-0.1c-0.9-0.2-1.3-0.8-1.2-1.7c-3-2.5-6-5.1-9-7.6
	c-1.2-6.8,2.4-12.2,5.3-17.7c0.1-0.5,0.2-1.1,0.4-1.7c0.6-17.3,3.8-34.3,3.3-51.7c-1-30.1-6.6-58.6-23.5-84.2
	c-1.2-1.8-2.4-3.5-3.6-5.3c-1.4-0.2-1.7-1.2-1.6-2.4l0-0.1c-7.8-9.2-12.7-20.2-19.3-30.1c-2.1-3.2-4.2-6.5-6.4-9.7
	c-3.7-2.2-8.1-3.5-9.7-8.1c-7.1-2.1-13.5-5.7-19.6-9.9c-10.9-4.7-21.9-9.3-32.8-14c-5.4-1.8-10.8-3.5-16.2-5.3
	c-4.4-0.9-8.8-1.6-12.7-3.8c-17.2-2.8-34.6-3.9-52.1-3.3c-19.2,1.1-37.5,6.2-55.1,13.9c-2.1,0.9-4.4,1.6-6.6,2.3
	c-4.7,2.8-9.4,5.7-14.1,8.4c-30.7,17.8-55.9,41.3-74.2,71.9c-3.1,6.5-6.5,13-9.4,19.6c-4.5,10.2-4.8,20.8-3.2,31.7
	c0.7,4.7-0.4,9.3-2.6,13.7c-3.7,7.7-6.9,15.7-10.3,23.6c-0.8,15.1-1.1,30.2,9.2,42.9c4.3,6,9,11.6,14.4,16.7c2,1.9,3.1,3.3-0.4,5.2
	c-17.7,9.7-18.9,19.1-16.4,33.4c2.5,14.4,11.9,23.6,26.6,26.9c5.2-0.5,10.4,0.5,15.5-1.1c3.6-1.1,5.9,0.5,7.7,3.6
	c3.6,6,7.3,11.9,11,17.8c6.2,8.5,14.6,14.5,22.9,20.7c8.1,5.3,16.1,10.6,24.2,15.8c3.5,2.3,2.1,4-0.3,6
	c-28.2,23.3-45,53.2-51.4,89.2c-0.5,2.8-0.9,5.7-3,8c-2.1,14.6-9.4,27.5-13.1,41.8c-2.9-10.7-5.9-21.3-5.4-32.4
	c-2.7-16-5.3-31.9-8-47.9c-1-5.7-2.3-11.3-3.4-16.9c-2.1-7.1-4.2-14.2-6.4-21.3c-2.9-9.4-5.8-18.7-8.7-28.1
	c-9.2-31.5-18.3-63.1-27.7-94.6c-2.7-9.1-9.5-14.2-18.2-17.2c-20.5-6.9-41.2-12.7-62.5-16.4c-6-1.1-8.9-3.4-8.5-9.6
	c0.2-3.1,0.1-6.3-0.2-9.5c-0.4-4.7,1.5-7.3,6.1-8.4c16.1-3.8,28.4-13.2,37.2-26.9c4.5-7,9.9-9.6,17.7-8.4c6.9-2,13.8-4,20.8-6
	c3-1.3,6-2.7,9.5-4.3c-5.9-7.6-12.8-13.7-16-22.3c-0.2-0.1-0.6-0.2-0.7-0.4c-10.1-21.4-6.5-21.6,12.8-22.2
	c7.1-0.2,14.5,2.2,21.2-1.9c-5.1-13.1-10.1-26.3-15.4-39.3c-1.8-4.5-1.3-6.2,3.9-7.3c8.6-1.8,17-4.6,25.5-7
	c7.2-4.2,14.5-8.4,23.1-13.4c-7.3-2.5-12.9-4.4-18.4-6.3c-12.2-3.4-22.7-10.1-33.1-17c-3.6-2.4-2.8-3.9,0.4-5.9
	c6.3-3.9,13.8-4.4,20.6-6.8c21.1-7,41.6-15.2,58.5-30.3c7.8-6.9,7.6-8.3-2-12.3c-8.4-3.5-16.6-7.3-25-11
	c-8.9-3.8-18.1-6.8-26.5-11.9c-2.7-0.3-2.2-1.8-0.9-3c17.1-15.4,29.9-35,47.1-50.3c3-3.4,6-6.7,9.2-10.3c-5.8-1.9-11.3-1.6-16.6-2.2
	c-18.7-2.3-37.5-4.5-56.2-6.8c-5.3-0.6-5.3-3.8-3.8-7.9c3.5-10.1,9.6-18.7,15.9-27c6.5-8.6,11.7-17.9,17.3-27.1
	c4-9.3,8-18.5,12.8-29.7c-16.5,4.8-29.6,12-43.1,17.9c-11.6,5-23.2,9.6-35.8,11.7c-5.2,0.8-7.4-1.1-7.8-5.9
	c-0.7-8.4-1.4-16.7-2.1-25.1c-0.4-0.7-1.1-1.3-1.1-2c0.3-20.4-2.3-40.6-3.4-60.9c-0.2-3.6-0.1-6.3-4.8-5.2
	c-11.9,6.1-23.6,12.5-34.9,19.7c-11.8,8.2-23.5,16.4-33.4,27c-3.6,3.9-7.1,7.7-10,12.1c-2.4,3.7-4.5,5.4-7.3-0.3
	c-13.2-26.8-35.6-45.9-56.3-66.4c-0.5-0.5-1.4-0.4-2.4-0.7c-1.4,17.9-1,35.8-6,53c-3.3,11.3-7.1,22.4-12.9,32.8
	c-1.6,2.8-3.4,5.1-6.8,3.3c-6.4-3.5-13.6-5.5-19.4-10.1c-0.8-0.6-1.5-1.1-2.3-1.7c-9.3-3.7-18.7-7.3-28-11c-11.9-2.2-24-3.7-36.1-4
	c-1.8,0.7-1.7,2.4-1.9,3.9c7.1,9.4,14.2,18.8,21.2,28.2c1.7,0.5,2.5,1.6,2.2,3.4l0.3,0.4c7.5,9.9,11.7,21,11,33.6
	c-0.2,4.7,3.8,10.3,0.4,13.6c-3.3,3.1-8.9-0.4-13.6-0.4c-10.9,0-21.7-0.6-32.6-1c-13.5,2.2-26.9,5.2-40,9.2
	c-4.1,3.6-10.4-0.1-14.5,4.2c2.5,4.7,8.7,4.6,11.6,8.6c9.3,6.7,17,15,24,24c10,11.2,17.6,24,25.5,36.6
	C205,273.6,205.9,276.2,203.1,278.1z M748.2,495.8c13.3,28,37.7,34.4,64.6,36.2c4.2,0.3,8.4,0.1,12.6,0.1c2.3-0.1,4.6-0.3,6.9-0.4
	c1.1-0.1,2.1-0.3,3.2-0.4c1.5-0.4,3-1,4.5-1.2c12.5-2.2,12.5-2.2,11.1,10.4c-3.8,35.5-41.8,61.7-74.7,51.4
	c-21.3-5.8-38-17.9-44.3-39.5C725.8,531,734.8,512.8,748.2,495.8z M623.9,591.3c-11.6-4.8-21.7-11.8-28.9-22.4
	c-1.9-2.8-2.8-5.2-1.5-8.6c2.7-7.4,2.7-15.1,0.2-22.5c-1.6-5-0.1-5.6,4.5-5.3c19.1,1,37.8-1.2,55.7-8.4c14-5.6,25.5-14.5,34.8-27.7
	c13.5,19,17.9,38.5,11.1,59.9C689.5,588.8,655.5,604.5,623.9,591.3z M384.9,295.5c0.9-6,5-9.7,10.4-11.9c9.2-3.8,18.9-4.3,28.7-2.9
	c15.3,2.2,29.2,8.4,42.7,15.6c9.3,5,12,24.1,5.1,32.3c-2.8,3.4-5.7,1.5-8.5,0.3c-15.3-6.2-31.1-9.3-49.7-9.4
	c-5.8-0.2-13.6,0.8-21.3,2.3c-3,0.6-4.6,0.6-5.6-2.9C384.5,311.2,383.8,303.4,384.9,295.5z M321.4,262.3
	c16.2,0.6,27.9,8.7,35.4,22.6c6.7,12.4,8.8,25.8,5.7,39.7c-1.1,5-2.9,7.4-9.2,4.8c-23.3-9.5-47.3-9.9-70.8-1.1
	c-8.2,3.1-8.8-0.4-9.3-6.2c-0.3-2.9-0.3-5.8-0.4-7.1C272.8,284.5,294.8,261.4,321.4,262.3z"/>
</svg>
