<?xml version="1.0" encoding="utf-8"?>
<!-- Generator: Adobe Illustrator 28.5.0, SVG Export Plug-In . SVG Version: 9.03 Build 54727)  -->
<svg version="1.1" id="katman_1" xmlns="http://www.w3.org/2000/svg" xmlns:xlink="http://www.w3.org/1999/xlink" x="0px" y="0px"
	 viewBox="0 0 1024 768" style="enable-background:new 0 0 1024 768;" xml:space="preserve">
<style type="text/css">
	.st0{fill:#9CC40B;}
</style>
<g>
	<g id="_x30__00000169534343006818769400000004686447499378147730_">
		<path class="st0" d="M520.8,119.6C520.8,119.6,520.8,119.6,520.8,119.6C520.8,119.6,520.8,119.5,520.8,119.6
			C520.8,119.5,520.8,119.6,520.8,119.6z"/>
		<path class="st0" d="M779.6,419c0-0.9,0-1.8,0-2.8c-0.9-4.2-1.8-8.5-2.7-12.7c-0.2,0-0.5,0.3-0.7,0.5c-2.3-13.2-4.7-26.4-6.9-39.6
			c-1.1-6.9-1.9-13.8-2.7-20.7c0-1.8,0-3.6,0.1-5.3c-0.1-1.1-0.2-2.2-0.3-3.3c-0.2-0.2-0.4-0.4-0.5-0.6c0-0.4-0.1-0.8-0.4-1.2
			c0-0.5,0.1-1.1,0.2-1.6c-0.1-1.8-0.2-3.5-0.3-5.3c-0.9-0.6-1-1.4-0.7-2.3c-0.7-8.8-0.3-17.9-2.5-26.3
			c-3.7-14.5-8.2-29.1-15.5-42.2c-11.1-19.8-21.1-40.5-38.9-55.6c-2.3-2-3.6-4.8-6.2-6.7c-12.9-9.5-28-13.8-42.7-19.1
			c-13.8-5-28.5-8.6-40.8-16.6c-12.8-8.3-25.8-16.4-38.4-25c-7.4-5-14.3-10.1-23.7-12.4c-8.7-2.1-17.2-2.9-25.9-3.5
			c-2.9-0.2-5.8,0.2-8.2,2.1c-0.4,0.3-0.7,0.7-1.1,1c0.1,0.8-0.1,1.4-0.7,1.9c0.1-0.3,0.1-0.6,0.1-0.9c-0.1,0-0.3,0.1-0.4,0.1
			c0-0.3,0-0.6,0-0.9c-4.8-0.9-9.4,0.3-13.8,1.7c-24.8,7.8-50.7,10.9-75.9,16.7c-9.3,2.2-19.3,2.1-27.9,7.7c-4.4,2.9-7.8,7-11.9,9.9
			c-23.5,16.9-45.5,35.9-69.8,51.8c-4.9,3.2-9.6,7.1-12.8,12.3c-8.7,14.2-19.4,27.2-27.2,42c-6.5,12.3-13.5,24.4-16.5,38.4
			c-4.1,19.3-6.9,39-12.9,57.9c-2.6,8.1-3.9,16.5-6,24.6c-5.1,20.8-1.6,41.3,4,61.5c0,0,41.7,107.5,57,146.5
			c-1.4,0.1-2.8,0.3-3.7,1.9c0.9,4.6,4.6,7.3,7.5,10.3c0.5,0.5,1.1,1.1,1.6,1.6l0,0c0.2,0.5,0.9,1.1,1.8,2
			c6.1,6.6,12.1,13.5,21.6,15.7c-0.2-0.8-0.3-1.7-0.4-2.5c11.8,6.6,23.6,12.8,23.6,12.8c1.5,1.4,3.4,1.8,5.3,2.4
			c23.2,7.1,45.7,15.9,66.7,28.3c9.3,5.5,19.1,10.3,30.1,11.5c1.4-0.1,2.9,0,4.2-0.5c0.9-0.3,2-1.3,2.1-2.2c0.3-1.4-1.1-1.6-2.2-1.7
			c-1.8-0.1-2.8-1.2-2.8-2.7c-0.1-2.4,2-1.4,3.2-1.7c2.2-0.5,4.2-1.8,6.5,0.4c1.8,1.8,3.2-0.3,4.4-1.5c2.6-2.6,5.3-5.3,7.8-8.1
			c1.1-1.3,2.4-2.1,3.6-1.1c1.8,1.5-0.8,2.2-0.9,3c-0.8,6.2-7.7,8.8-9.2,15.5c3.1-1.3,5.8-1.8,7,1.7c0,0.1,0.3,0.2,0.5,0.3
			c5,3.4,19.6,2.3,24.1-1.8c0.8-0.7,1.5-1.6,2.4-2.1c1.1-0.7,2.6-1.2,3.4-0.1c1,1.5-0.5,2.1-1.7,2.5c-2.5,0.8-4.1,2.2-3.9,5
			c6,0.5,11.7-1.1,17.6-1.5c20.9-1.5,41.6-4.7,62.2-8.8c-0.2,0.3-0.3,0.6-0.3,1c16.5-1.8,33.4-1.5,47.6-12.3
			c1.2-0.9,2.9-1.4,4.5-1.6c2.3-0.3,4-1.3,5.4-3.1c-4.6-0.3-9.8-2.3-12.9,2.5c3-6.2,8.5-3.8,13.5-3.6c6.1-2.8,11.4-7.2,15.9-11.7
			c12.1-12.1,26.4-21.8,38-34.4c0.2-0.3,0.4-0.6,0.7-0.7c1.5-1.6,3-3.2,4.6-4.8c-0.1,0.2-0.2,0.5-0.3,0.7c4.4-0.5,5.6-4.1,6.8-7.5
			c-0.9-0.3-1.8-0.3-2.7-0.1c3.3-6.5,7.8-16.2,7.8-20.6c-0.1-7.1,16.9-20.8,23.4-29.8c6.5-9,9.6-21.3,11.5-29.9
			c1.9-8.7,3.8-17.8,8.8-20.9c5-3.1,7.7-13.6,7.7-13.6c1.4-2.7,3-5.3,4.3-8c3.9-8.5,7.6-17.1,7.4-26.7c-0.1-0.3-0.2-0.6-0.3-0.8
			C781.5,435.3,782,427.1,779.6,419z M252.2,440.2c-1.2-4.7-0.3-10.8,4.2-16L252.2,440.2z M596,163.8l-0.8-2.8
			C595.9,161.8,596.8,162.6,596,163.8z M496.5,126c7.5-2,14.9-3.9,22.7-4.2c0,0.3,0,0.7,0,1l0,0c0.2-0.1,0.3-0.2,0.4-0.3
			c-0.9,2.3-3.4,0.8-5,1.6c-1.1,0.5-4.3,0.5-2.3,2.8c3.4,3.9,0.3,3.4-2,3.5c-4.3,0.1-8.6,0-12.9,0c-1.4,0-3,0.3-3.4-1.8
			C493.7,126.7,495,126.4,496.5,126z M317,578.3C317,578.3,317,578.3,317,578.3l-10.9-0.6C309.9,575.8,313.3,575.3,317,578.3z
			 M632.1,657.8c-0.3,0.8-1.7,1.4-2.6,1.7c-12.4,4.8-24.9,8.9-38.3,8.9c-0.8,0-1.5,0.2-2,0.6c0.3-1.3,1.3-1.7,2.6-1.7
			c13.5,0,26-4.1,38.3-8.9c0.8-0.3,1.8-0.7,2.3-1.3C632.3,657.4,632.2,657.6,632.1,657.8z"/>
		<path class="st0" d="M717.4,590.5c0.9,0,1.5-0.2,1.8-1.1C718.3,589.3,717.6,589.6,717.4,590.5z"/>
		<path class="st0" d="M716,591.4c-0.3,0.2-0.6,0.5-0.9,0.7C715.7,592.3,715.9,592,716,591.4z"/>
		<path class="st0" d="M699.9,607.3c0.2-0.2,0.5-0.5,0.7-0.7C700.3,606.8,700.1,607,699.9,607.3z"/>
	</g>
</g>
</svg>
