<?xml version="1.0" encoding="utf-8"?>
<!-- Generator: Adobe Illustrator 28.5.0, SVG Export Plug-In . SVG Version: 9.03 Build 54727)  -->
<svg version="1.1" id="katman_1" xmlns="http://www.w3.org/2000/svg" xmlns:xlink="http://www.w3.org/1999/xlink" x="0px" y="0px"
	 viewBox="0 0 1024 768" style="enable-background:new 0 0 1024 768;" xml:space="preserve">
<style type="text/css">
	.st0{fill:#FDFDFD;}
</style>
<g>
	<g id="_x35__00000094577219400260803100000004890078205763749786_">
		<path class="st0" d="M512.8,165.3c1,7.2-3.3,8.6-7.7,9.2c-6.3,0.8-9.8-3-10.2-10.3C500.9,159,508.1,159.9,512.8,165.3z"/>
		<g>
			<path class="st0" d="M312.5,468.2c1.6-3.2,2.6-6.8,6.4-8.4c3.9-0.5,6.8,0.8,8,4.8c0.8,2.4,2.7,4.1,4,6.2
				c2.7,4.2,2.1,8.5-0.4,12.6c-1.9,3.2-4.4,5.3-8.5,4.8c-4.9-0.6-7.1-4.2-8.1-8.2C312.9,476.2,312.9,472.2,312.5,468.2z"/>
			<path class="st0" d="M288.7,394.6c-7.9-4.1-9.6-7.9-8.1-15.9c1.1-6.1,6.4-5.8,10.3-7.7c3.8,1.5,7,3.8,8.5,7.8
				c0.4,4.8-0.9,9.2-3.8,13.1C293.7,393.8,291.3,394.5,288.7,394.6z"/>
			<path class="st0" d="M348.3,245.2c3.7,0.2,5.6,2.9,7.6,5.4c0,0.6,0,1.3,0,1.9c-0.1,0.7-0.1,1.5-0.2,2.2c-0.6,0.4-0.7,0.9,0,1.3
				c-2,4.9-5.7,7.6-10.8,8.5c-2.8-0.8-5-2.4-6.6-4.8C338,250.4,339.4,248.4,348.3,245.2z"/>
			<path class="st0" d="M675.2,223.8c-0.8,3.6-0.9,7.7-6.6,7c-4.5-0.5-9.5-4.9-10.2-9.8c-0.3-2.1-0.3-4.3,0.6-6.3
				c5.2-3.9,10.2-2.7,13.7,3.3C673.7,219.8,674.3,221.8,675.2,223.8z"/>
			<path class="st0" d="M407.1,210.5c-3.6,0-7.1,0-10.7,0c-3.1-4.2-3.2-8.3-0.1-11.6c4.2-4.6,10.1-5.3,15.8-2
				C414,202.7,410.7,206.7,407.1,210.5z"/>
			<path class="st0" d="M700.5,258.3c-4.9,0.5-8.4-2.3-11.5-5.5c-2.9-3.1-3.9-6.8-0.8-10.5c5.5-1.8,9.6-0.7,12.9,3.9
				C704.2,250.4,703.8,254.4,700.5,258.3z"/>
			<path class="st0" d="M544,174.3c3,2.3,6.4,4.3,5.9,8.9c-0.2,1.4-0.5,2.5-1.5,3.5c-2.4,2.4-5.3,2.2-7.9,1.3
				c-3.7-1.2-7.6-2.8-8.2-7.6c-0.5-3.3,1.2-5.3,3.9-6.7C538.8,173.9,541.4,174.1,544,174.3z"/>
			<path class="st0" d="M597.6,612.4c1.3,4,1.7,8.2-2.3,10.6c-4.1,2.5-8.7,3-12.9-0.6c-0.3-0.3-0.9-0.3-1.4-0.4
				C580.6,611.7,586.8,608.1,597.6,612.4z"/>
			<path class="st0" d="M322.2,301.2c0,4.1-4.6,9-8.4,9c-3.7,0-6.3-3.3-6.2-8c0.1-5.1,3.8-9.1,8.4-9.2
				C319.4,292.9,322.2,296.8,322.2,301.2z"/>
			<path class="st0" d="M290.9,473.8c0.6-3.5,0.6-7.5,5-8.4c4.2-0.8,5.6,2.6,7,5.7c1.3,2.7,1.8,5.2,1,8.2c-0.8,3.1-2.3,5.1-5.7,5.1
				c-3.3,0-5.2-1.9-6.2-4.8C291.4,477.7,291.3,475.7,290.9,473.8z"/>
			<path class="st0" d="M468.1,624.3c5.6,0.2,9.8,3.6,9.3,8.1c-0.5,4.2-3.4,5.7-7.3,5.6c-5-0.1-9-3.6-8.9-8
				C461.1,626,463.5,624.2,468.1,624.3z"/>
			<path class="st0" d="M401.7,552c5.2,0.6,7.7,4.3,10.1,8.3c-0.6,5.7-4.5,7.8-9.5,5.1c-1.4-0.8-2.8-1.7-4-2.9
				c-1.9-1.9-3.2-4.1-2.5-7.1C396.7,552.2,399.3,552.3,401.7,552z"/>
			<path class="st0" d="M329,573.9c-2.4-3.1-6.1-5.8-4.6-10.6c3.4-1.8,6.7-2.2,10,0.6c3.4,2.8,4.6,5.9,3.2,10
				c-1.6,0.7-2.8,2.4-4.9,2C331.5,575.2,330.2,574.6,329,573.9z"/>
			<path class="st0" d="M721.6,341.6c0.3-2.7,0.5-6.3,5-6.6c3.2-0.3,6.2,4.1,6.2,8.9c0,3.5-1,6.3-5.1,6.5
				C723.8,350.6,721.6,347.5,721.6,341.6z"/>
			<path class="st0" d="M379.9,216.3c0.5,8.3-1.8,11-8.6,10.6c-1.9-0.1-2.9-1-4-2.3c-0.3-3.8,0.4-7.2,4-9.3
				C374.4,213.4,377.3,213.9,379.9,216.3z"/>
			<path class="st0" d="M737.9,452.9c0.1-0.3,0-0.5-0.2-0.7c0-3.4,0.2-6.8,2.2-9.7c0,0,0.1-0.1,0.1-0.1c2.8-0.9,5.2-0.7,6.4,2.6
				c1.4,3.6,2.7,8,0,10.8C743.1,459,740.2,455.5,737.9,452.9z"/>
			<path class="st0" d="M304.9,447.2c6.2,3.1,7.2,6.8,3.9,14c-3.4,0.7-6.4-0.1-8.5-3c-0.1-0.3-0.2-0.7-0.3-1
				C300.3,453.3,299.4,448.7,304.9,447.2z"/>
			<path class="st0" d="M602.1,598.9c-0.1,3.7-3.1,6.1-7.6,5.9c-2.9-0.2-5.2-1.1-5.4-4.5c-0.2-3.2,4.3-6.9,7.9-6.7
				C600.4,593.8,602.2,595.7,602.1,598.9z"/>
			<path class="st0" d="M295.4,329.1c0.9-2.8,1.3-6.4,5.8-6.5c3.7-0.1,4.9,2.2,5,5.3c0.2,3.6-3.1,7.1-6.2,7
				C297.4,334.8,295.3,332.4,295.4,329.1z"/>
			<path class="st0" d="M617,204.7c-0.7-0.3-1.5-0.6-2.2-0.9c0.4-0.7,0.1-1.2-0.2-1.8c-1-2.1-2.3-4.4,0.1-6.3
				c2.3-1.8,5.1-1.7,7.5-0.3c2.4,1.5,4.8,3.7,3.7,6.9C624.2,207.3,620.2,205.1,617,204.7z"/>
			<path class="st0" d="M313.9,499c-0.1,2.6-0.1,5.1-3.8,5.1c-3.5,0-6.4-3-6.3-6.8c0.1-3,1.4-5.3,4.7-5.1
				C312.5,492.4,314,495.2,313.9,499z"/>
			<path class="st0" d="M567.1,608c1.6,4.4-0.6,6.7-4.6,7.5c-1.8,0.3-3.9,0.1-4.7-2.4c-0.8-2.5-0.1-4,2.3-5.2
				c1.7-0.8,3.4-1.1,5.2-1.3c0,0,0.1,0,0.1,0c0.2,0.8,0.7,1.2,1.5,1.2L567.1,608z"/>
			<path class="st0" d="M518.2,612.4c0.8-0.2,1.6-0.4,2.4-0.5c2.7-0.6,5.3-0.5,7.1,1.9c1.7,2.3-0.1,4.3-1.1,6.3
				c-0.6,0.1-1.2,0.3-1.8,0.4c-3.9,0.2-6.9-0.9-7.9-5C517.6,614.5,518.1,613.6,518.2,612.4z"/>
			<path class="st0" d="M444.5,627.3c-0.2,2.8-1,4.6-3.6,4.3c-2.9-0.3-5-1.8-5.3-5c-0.3-2.6,1.6-3.9,3.6-3.7
				C441.9,623.1,444,624.7,444.5,627.3z"/>
			<path class="st0" d="M463.8,608.2c3.3-0.3,5.4,1.8,7.5,3.9c-0.5,2.4-0.4,5.2-3.7,5.6c-2.2,0.3-4.4-0.7-5.5-2.6
				C460.5,612.5,461.5,610.1,463.8,608.2z"/>
			<path class="st0" d="M730.7,361.5c-1,1-2,2.7-3.6,1.6c-2.1-1.4-4.1-3.2-3.4-6.3c1.7-1.1,3.4-3.1,5.6-1.9
				C731.9,356.4,730.8,359.2,730.7,361.5z"/>
			<path class="st0" d="M669.7,578.1c-1-5.8,1-9.9,5.5-11.6c5.7-2.1,9.2,0.3,9.5,6.4c-1.4,3-4,4.9-6.4,6.9c-0.6,0.1-1.2,0.3-1.8,0.4
				c-0.6,0-1.2,0-1.8,0c-0.6-0.1-1.1-0.3-1.7-0.4C672,579.3,670.9,578.7,669.7,578.1z"/>
			<path class="st0" d="M705.6,544.2c-4.1,0.4-6-2-6.6-5.7c-0.7-4.6,2.3-7.4,5.5-9.6c2.8-1.9,4.7,0.8,6.5,2.8
				C711.9,537,710.9,541.5,705.6,544.2z"/>
			<path class="st0" d="M720.5,492.6c-5.8-0.9-8.8-3.7-8.4-7.6c0.8-7,3.6-9.3,10.3-8.6c0,0,0.1,0.1,0.1,0.1c0.3,0.3,0.5,0.6,0.8,0.9
				C726.6,484.2,725.8,488.5,720.5,492.6z"/>
			<path class="st0" d="M682.5,401.3c4.7,1.3,5.8,4.9,5.8,9.2c-0.1,4.1-1.1,7.6-5.7,8.7c-3.9-1.7-5.9-4.7-5.7-9
				C677,406.1,678.3,402.8,682.5,401.3z"/>
			<path class="st0" d="M665.4,436.1c0-3.7,1.2-6.1,4.4-6.2c3-0.1,4.1,2.2,4.1,5c0,3-1.1,5.3-4.4,5.5
				C666.2,440.5,665.6,438,665.4,436.1z"/>
			<path class="st0" d="M561,218.5c5.3,0,9.3,1.5,12.1,5.5c2.6,3.6,1.6,6.6-2.4,8.3c-4,1.7-12.7-0.3-15.2-3.7
				c-1.5-2.1-1.9-4.6-0.6-7.1C556.2,218.8,558.7,218.2,561,218.5z"/>
			<path class="st0" d="M495.3,182.5c-4,4.7-8.4,8.3-15.1,6.1c-1.9-0.8-2.7-2.6-3.9-4.1c0-1-0.1-2-0.1-3c3.1-6.1,9.5-8.4,15.1-5.7
				C494.4,177.2,494.8,179.8,495.3,182.5z"/>
			<path class="st0" d="M727.9,396.5c-0.1,3.8-3.3,7.5-6.8,7.8c-3.6,0.2-6.4-2.5-6.9-6.9c0-0.3,0-0.7-0.1-1c-0.2-6,2.3-10.4,6-10.4
				C724.6,386,728,390.6,727.9,396.5z"/>
			<path class="st0" d="M428.6,203.2c1.3-8.6,4.3-10.6,15.2-10.5c0.9,3.6,1.7,7.1,0.1,10.7c-4.2,2.9-8.5,5.4-13.6,2
				C430.2,204.3,429.8,203.4,428.6,203.2z"/>
			<path class="st0" d="M482.6,196.1c1.5-0.9,3-1.9,4.6-2.6c5.4-2,7.7-0.5,8.6,5.3c-4.9,7.2-10.8,7.6-14.7,1
				C482.2,198.8,482.3,197.4,482.6,196.1z"/>
			<path class="st0" d="M712.6,443.4c3.5,1.8,6,4.3,4.7,8.5c-1.1,3.5-3.3,6-7.5,5.3C705.7,451.9,706.4,448.7,712.6,443.4z"/>
			<path class="st0" d="M582.6,215.2c7.3-3.7,10.3-2.2,11.7,6.1c-2.2,1.9-4.3,3.5-7.6,2.2C582.7,221.8,583.2,218.3,582.6,215.2z"/>
			<path class="st0" d="M434.2,230.6c-2.7,0-4.9-1.3-4.6-4c0.4-3.6,3.4-5.2,6.8-5.4c2.5-0.1,4.9,1.2,4.5,4.1
				C440.4,229,437.8,230.6,434.2,230.6z"/>
			<path class="st0" d="M460.2,214.3c-0.2-3.1,0.3-5.6,4.1-6.1c2.7-0.4,5-0.1,5.7,3.1C467.2,213.8,464.7,217.3,460.2,214.3z"/>
			<path class="st0" d="M711.2,331.7c-0.2,2.2-1,4.2-3.4,4c-3-0.3-3.9-2.7-3.8-5.4c0.1-2.1,0.7-4.3,3.2-4.3
				C710.8,326,710.8,329.2,711.2,331.7z"/>
			<path class="st0" d="M617,237.4c-0.9-1.5-4.7,0.5-4.4-3.2c0.1-2,1.1-3.5,3.4-3.2c2.3,0.3,4.1,1.3,4.1,4
				C620.1,236.7,619.3,237.7,617,237.4z"/>
			<path class="st0" d="M601.1,234.3c2.1,0,4.3,0.5,4.6,2.8c0.3,2.2-1.7,3.2-3.6,3.1c-2,0-4.3-0.7-4.6-2.9
				C597.2,235,599.1,234.3,601.1,234.3z"/>
			<path class="st0" d="M671.5,511.8c-2.1,1.5-2.7,3.2-0.6,5.3c3.5,3.6,2.5,7.7,0.6,11.5c-1.9,3.9-5.2,6-9.8,4.8
				c-4.8-1.3-3.8-5.1-3.4-8.6c1.2-2.2-1.2-2.5-2-3.3c-3.5-3.5-3.4-7.5-1.3-11.3c2.7-5.1,8.1-7.4,12.5-5.7
				C670.6,505.8,670.9,509,671.5,511.8z"/>
			<path class="st0" d="M608.5,568.1c-2.9,8.8-6.7,11-14.7,8.5c-3.3-3.6-1.6-6.6,1.2-9.4c3.3-3.4,8-4,11.1-1.5
				C607,566.4,607.7,567.3,608.5,568.1z"/>
			<path class="st0" d="M681,492.4c0-5,3.2-8.7,7.6-8.5c3.5,0.1,4.9,2.1,4.8,5.5c-0.1,5.3-3.3,9.3-7.7,9.2
				C682.5,498.5,681,496.6,681,492.4z"/>
			<path class="st0" d="M649.3,531.5c3.8,7.2,1.9,10.9-5.5,11.1c-3-1.9-3-4.2-2-7.4C643.2,531.1,646.4,532,649.3,531.5z"/>
			<path class="st0" d="M612.6,550c2.2,0.5,4.6,1.4,4.3,3.6c-0.3,2.3-1.7,4.9-5,4.5c-2.2-0.3-3.9-1.3-3.8-3.8
				C608.3,551.4,610.3,550.5,612.6,550z"/>
			<path class="st0" d="M580.6,189.9c7.5,0.1,12,5.4,12.2,10.5c0.1,3.7-2.5,5.5-5.8,5.6c-5.1,0.2-11.9-6.3-11.9-11
				C575.2,191.9,577.3,190,580.6,189.9z"/>
			<path class="st0" d="M670.2,246.4c-4,0.2-5.2-2.6-5.5-5.3c-0.2-2.5,2.7-3.6,4.5-3.5c2.6,0.1,5.2,1.3,4.9,4.8
				C674,245,673.1,246.9,670.2,246.4z"/>
			<path class="st0" d="M372.5,501.9c1.5-1,2.8-2.3,4.4-3.1c4.1-2.2,8.7-0.8,10.9,3.3c3.2,5.8,4,11.7,1,17.9c0,0-0.1,0.1-0.1,0.1
				c-8.5,2.6-15.5-2-16.5-10.9c-0.2-1.9-0.1-3.9-0.1-5.9C372.2,502.8,372.3,502.4,372.5,501.9z"/>
			<path class="st0" d="M363.6,494.6c0,2.3,0.4,4.7,0.1,6.9c-0.6,4.4-3.7,5.4-7.1,2.7c-3.2-2.6-3.8-6.1-3.3-9.9
				c0.3-1.9,1.6-3.3,3.5-3.9c3.6-1.1,4.7,2.2,6.7,4C363.5,494.4,363.6,494.6,363.6,494.6z"/>
			<path class="st0" d="M364,323.9c2.1,0.1,3.5,1.4,3.1,3.5c-0.6,2.6-1.9,5-4.9,5.4c-2.1,0.3-3.4-1-3.4-3.3
				C358.8,326,360.8,324.4,364,323.9z"/>
			<path class="st0" d="M486.8,610.1c-1-1.5-2.6-1.8-4.2-2.4c-2.5-0.9-4.9-2.2-4.6-5.5c0.3-3.1,1.9-4.8,5.1-5c0.4,0,0.8-0.5,1.2-0.8
				c3.6-0.1,6.8,0.8,9.4,3.5c3.3,3.4,2.6,6.7-1.8,8.2C490.1,608.7,488.5,609.4,486.8,610.1z"/>
			<path class="st0" d="M296.5,405.3c-0.6-2.6-1-5.2-0.1-7.8c1.6-2.2,3.7-2.1,6-1.3c0.2,0.2,0.4,0.4,0.7,0.6
				c0.1,1.2,0.5,2.2,1.4,3.1c0,0.4,0,0.9,0,1.3c-0.8,0.9-1,2.1-0.8,3.2c0,0,0,0.1,0,0.1c-0.6,0-0.8,0.3-0.7,0.9
				C300.7,407.8,298.6,407.3,296.5,405.3z"/>
		</g>
	</g>
</g>
</svg>
