<?xml version="1.0" encoding="utf-8"?>
<!-- Generator: Adobe Illustrator 28.5.0, SVG Export Plug-In . SVG Version: 9.03 Build 54727)  -->
<svg version="1.1" id="katman_1" xmlns="http://www.w3.org/2000/svg" xmlns:xlink="http://www.w3.org/1999/xlink" x="0px" y="0px"
	 viewBox="0 0 1024 768" style="enable-background:new 0 0 1024 768;" xml:space="preserve">
<style type="text/css">
	.st0{fill:#70B208;}
</style>
<g>
	<g id="_x33__00000089539302739851224130000013704775325239945912_">
		<path class="st0" d="M746.8,481.2c-2.9-0.4-5.9-1-8.8-1.1c-3.8,0-4.2,0.8-2.1,4.2c0.6,0.9,0.5,1.8-0.3,2.1c-3,1.2-2.8,5.3-7.1,6
			c3,0.9,4.5,2.5,6.8,2.9c1.8,0.3,1.5,1.9,1.2,3.2c-0.4,1.6-1.2,1.1-2.7,1.1c-4.3-0.1-8.4,2-12.9,1.1c-1-0.2-3.7-0.3-4,2
			c-0.3,2.6,2.1,3.1,3.7,4.1c1.1,0.8,3.6-0.6,3.6,1.5c0.1,1.7-2,2.4-3.4,3.2c-2.9,1.7-5.6,3.5-9.1,3.6c-0.3-0.3-0.7-0.7-1-1
			c-0.3-0.3-0.7-0.7-1-1c-0.8-0.3-1.5-0.9-2.3-0.9c-2.9,0-6.2-0.6-5.4-4c0.9-4.2-1.4-9.7,3.9-12.5c0.6-0.3,1.4-0.6,1.9-0.4
			c4.3,2.1,7.9-0.6,11.7-1.8c5.3-4.1,6.1-8.4,2.8-15.2c0.1-0.6-0.2-0.9-0.8-0.9l-0.1-0.1c0.1-3.4-3.4-6.6-1.1-9.9
			c2.7-3.9,2.6-9.8,8.7-11.2c1-0.2,1.3-1.8,1.7-2.8c1.3-3.1,0.5-6.1-0.2-9.2c1.5-4,4.5-4.3,8.4-0.8c0,0-0.1,0.1-0.1,0.1
			c-5,2.3-5.9,6.2-2.2,9.7c0.3,0.2,0.3,0.4,0.2,0.7c-1.4,4.6,2.5,5.4,5.1,7.1c1.1,0.7,2.8,0.6,2.6,2.4c-0.3,2.7,1.3,3.7,3.3,4.7
			c2.1,1,3.3,2.7,2.8,5.2c-0.3,0.7-0.7,1.3-1,2c-3.5-3.5-8-5.1-12.3-7.2c-1.4-0.7-2.5-0.7-3.5,0.6c-0.4,0.5-0.8,1.3-0.7,1.7
			c0.6,1.4,2,0.8,3,0.9C740.8,471.7,746.5,477,746.8,481.2L746.8,481.2z"/>
		<path class="st0" d="M336.7,574.9c0.7,0.7,1.5,1.9,2.2,1.9c9.1,0,9.1,10.7,15.8,13.4c-0.9,4.3,2.3,7.4,3.1,11.1
			c0.3,1.4,0.2,2.9,2.3,2.1c3.7-1.3,5.9,0.8,7.1,3.6c1.3,2.8,5.8,3.8,4.4,8c-7-3.5-13.9-7-20.9-10.5c-1.1-5.5-0.1-12.3-8.2-13.7
			c-0.5-0.1-1.3-0.7-1.4-1.2c-1.7-5.4-9.3-6.5-9.4-13C333.8,577.3,335.1,575.5,336.7,574.9z"/>
		<path class="st0" d="M270.9,441.2c5.4,3.5,11.1,4.1,17.2,2.5c2.5,4.6,6.7,1.8,10.2,1.9c-0.4,2.9-5.5,3.2-4,5.5
			c1.7,2.6,1.4,6.4,4.6,8c0.1,0.3,0.2,0.7,0.3,1c-6.5,6-12-1-17.9-1.4c-1.3-0.1-3.1-2.1-2.1-3.3c3.9-4.8-1.4-4.2-3.1-5.6
			c-0.7-0.6-1.7-0.7-3.6-1.5c3,4.9,2.5,9.4,2.4,13.8C272.4,455.3,271.7,448.2,270.9,441.2z"/>
		<path class="st0" d="M466.1,654.1c1.3-0.1,2.7,0,3.9-0.5c0.8-0.3,1.8-1.2,2-2.1c0.3-1.3-1-1.5-2-1.5c-1.6-0.1-2.6-1.1-2.6-2.5
			c-0.1-2.2,1.9-1.3,3-1.5c2-0.5,3.9-1.7,6,0.3c1.7,1.6,3-0.2,4.1-1.4c2.4-2.4,4.9-4.9,7.2-7.5c1-1.2,2.2-2,3.4-1.1
			c1.7,1.4-0.8,2.1-0.9,2.8c-0.8,5.8-7.1,8.1-8.5,14.3c2.9-1.2,5.4-1.7,6.5,1.5c0,0.1,0.3,0.2,0.4,0.3c4.6,3.2,18.1,2.1,22.2-1.7
			c0.7-0.7,1.4-1.4,2.2-2c1-0.7,2.4-1.1,3.2-0.1c1,1.4-0.5,2-1.6,2.3c-2.3,0.7-3.8,2-3.6,4.6c-1.5,0.2-3.1,0-4.4,0.5
			c-3,1.2-5.6,0.3-8.5,0.1c-6.6-0.4-12.8-3-19.4-3.2C474.3,655.9,470.2,655,466.1,654.1z"/>
		<path class="st0" d="M328.1,574.9c-2.3,1.4-5.6-0.6-7.4,2.4c-2.9-3.1-8.3-3.8-8.7-9.2c1.1,0.2,2.2,0.4,4.4,0.9
			c-3.2-3.2-3-6.6-3.9-9.7c-0.2-0.6-0.6-1.3,0.2-1.7c0.9-0.5,1.8-0.2,2.1,0.7c1.3,4.5,5.3,4.8,8.7,6.1
			C322,569.1,325.6,571.7,328.1,574.9z"/>
		<path class="st0" d="M280.8,485.2c3.8,4.2,8.9,6.3,13.7,9c2,1.1,3.3,2.9,2,4.8c-1.3,1.9-2.8-0.2-4.2-0.9c-3-1.5-6-2.6-9.3-3
			C282.7,491.7,280.6,488.7,280.8,485.2z"/>
		<path class="st0" d="M680.7,403.9c1.1-2.4,1.5-5,3-7.2c1.5-2.2,1.7-5.3,0.6-7.2c-2.8-4.5-2.8-9.4-3.9-14.2
			c-0.5-2.3-1.8-4.9-4.8-3.6c-2.5,1.1-3.1,3.3-2,6.3c3,8,2.4,16.2,1,24.6c-0.8,4.6-1.6,8.9-4.3,12.8c-0.8,1.1-1.5,2.3-3.2,1.8
			c-1.7-0.5-1.5-2-1.5-3.3c0-1.5,0.2-3,0.4-4.4c0.7-4.5,1.4-8.9-0.9-13.1c-0.2-0.4-0.5-1-0.4-1.4c2-6.6-0.9-12.5-2-18.8
			c-0.6-3.7-2.5-6.8-3.1-10.4c-0.5-3-2.6-5.5-1.4-9c0.6-1.6-1.1-3.4-3.2-4.5c-4.4-2.3-9.7-3.8-10-10.5c-0.1-1.8-2.4-3.5-4.5-4.4
			c-2.5-1.1-3.8-3.1-5-5.3c-3-5.3-2.5-6.1,3.6-6.2c2.4-0.1,3-1.7,2.3-3.3c-1.3-2.9-2.1-6.3-5.1-8.3c-3.6-2.5-6.5-5.5-8.2-9.7
			c-1.1-2.8-2.9-5.2-6.6-5.2c-1.6,0-2.7-1.2-3.6-2.4c-1-1.3-2-2.7-3-4c-5.4-7.3-5.7-7.5-1.7-15.2c1.6-3.1,0.6-4.7-0.7-7.2
			c-1.3-2.6-2.4-3.6-5.7-2.7c-3,0.9-2-2.1-2.1-3.7c2.5,0,4.8,0.4,7.1-1.4c2.1-1.6,2.1-3.6,0.5-4.5c-3.9-2.3-6.7-5.7-10.3-8.2
			c-1.6-1.1-3.5-0.9-5.3-0.3c-3.1,1.1-5.5,0.3-8.2-1.8c-3.8-2.9-8.3-4.8-13.3-4.7c-1.7,0-3.8,0.2-4,2c-0.2,1.8,1.8,3,3.3,3.2
			c8.5,0.6,14.5,7.7,22.8,8.9c3.5,0.5,6.1,3.1,7.3,6.7c-1.6,1-2.4,2.5-4.9,0c-2-2-5.9-5.4-10.2-2.1c-1.1,0.8-3.2,0.3-4.8,0.3
			c-2.1-5.7-5.2-10.1-12.2-9.1c-0.3,0-0.8,0-1-0.2c-4.4-5.5-11.3-4.7-17-7c-2-0.8-4-2.4-3.8-4.8c0.4-4.6-2.7-5.6-6-6.5
			c-1.6-0.4-3.9-0.1-4.7-1.1c-4-4.9-8.4-3.1-13-1.5c-1.3,0.5-2.9,1.5-3.9-0.4c-0.9-1.7,0.2-3,1.5-3.7c2.2-1.3,3.8-2.8,3-5.6
			c-0.7-2.5-3-2.9-5.1-3.3c-9.6-1.6-19-0.6-28.3,1.8c-2,0.5-4,1.7-6.2,0.5c-1-0.5-2.7-0.7-3.4-0.1c-6.4,5.5-15.5,2.7-22,7.5
			c-0.5,0.4-1.3,0.6-1.7,1c-1.2,1.2-3.6,2.2-2.6,4.3c0.9,2.1,2.9,0.7,4.4,0.3c7.6-2.1,15.7-1.7,23.1-5c1.1-0.5,2.7-0.6,3.9-0.2
			c4.5,1.4,8.8,0.2,13.2,0c3-0.1,6.6-0.5,5.3,5c-0.7,2.8,2.1,5,5.1,4.8c6.2-0.3,11.2,3.6,16.8,5.3c4.5,1.3,9.3,2.9,13.8,4.8
			c-1,0.1-2.4-0.1-2.6,0.9c-0.8,4.4-4.2,3.4-6.5,2.9c-3.3-0.7-4.2,0.2-3.9,3.3c0.1,1-0.1,2-0.1,3c-1.3-0.7-1.7-1.8-1.9-3.2
			c-1.5-7.6-7.5-10.8-14.9-8.2c-7.3,2.6-7.4,2.6-10.3-4.2c-1.4-3.3-4.3-4.7-7.4-5.2c-4.1-0.7-8.3-0.6-12.4-1.2
			c-3.6-0.5-6.9,0.5-8.9,3.2c-3,4-7.1,5.2-11.5,5.7c-3.1,0.4-5,2.1-5.9,4.7c-1.5,4.2-5.2,5.9-8.5,7.8c-1.7,1-3.7,1.4-6.1,0.2
			c-7.7-3.8-13.2-2.1-18.3,5.2c-0.8,1.2-1.5,2.6-2.4,3.8c-3.8,5.5-9.9,8.9-12.9,15.2c-0.8,1.7-4.2,2.6-5.2-0.9
			c-0.5-1.8,0.3-4.3-2.5-4.7c-3-0.4-6.4-0.9-8.5,1.6c-2.8,3.2-6.1,4.1-10.1,4.3c-3.1,0.2-4.3,2.7-5.6,5.1c-1.6,3-3.5,5.3-7.5,4
			c-2.6-0.8-3.8,1.5-5.6,2.6c-1.8,1.1-3.4,3-5.7,0.8c-1.8-1.8-1.3-3.6-0.6-5.9c3.6-11.1,13.5-15.6,22-21.5c1.7-1.2,4-1.9,5.4-3.4
			c3.3-3.4,7.3-5.7,11.6-7.5c1.5-0.6,3-1.5,4.3-2.5c0.9-0.7,1.8-1.6,1.2-3c-0.5-1.1-1.7-1-2.6-0.9c-2.6,0.4-5.8,0.2-7.7,1.6
			c-4.3,3.2-9.3,4.3-14,6.2c-2.9,1.2-5.7,2.4-9.1,1.3c-2.6-0.8-4.8,0.7-6.6,2.7c-3.2,3.6-6,6.9-12,5c-2.5-0.8-6.2,2.1-9.7,1.1
			c0.3-0.7,0.6-1.3,0.9-2c5.1-0.9,8.8-3.6,10.8-8.5c0-0.4,0-0.9,0-1.3c0.1-0.7,0.1-1.5,0.2-2.2c3,1.4,4.8,0.6,6.4-2.5
			c2.1-4.4,7.6-6.8,7.7-12.5l0,0c0.3-0.3,0.7-0.7,1-1l0,0c1.6-0.6,2.5,3.1,4,0.8c1.8-2.8,4.5-2.8,7.2-2.9c1.3,0,2.6,0.1,3.8,0.1
			c1.5,3.7,3.3,1.9,5.2,0.4c3.6-2.8,4.6-8.2,9.6-9.7c1.3-0.4,1.3-2.2,1.3-3.5c0.3-0.3,0.6-0.7,1-1c1.3-0.1,3.4,0.4,3.6-0.8
			c1.4-6.6,6.1-7.7,11.7-7.7c0.2,0,0.5-0.5,0.7-0.6c4.3-0.9,7.1-4.7,11.1-6.1c5.1,3.4,9.4,0.9,13.6-2c4-0.4,4.4-3,4.2-6.3
			c-0.2-3.8,1.6-5.2,5.2-3.7c1.1,0.4,2.3,1.6,2.6-0.4c0.3-2.2,2.6-1.9,3.3-3c2-3,6.6,0.6,7.9-3.5c0.6,0,1.3-0.1,1.9-0.1
			c2.9,1,4.9-1.1,7.2-2c1.2,1.5,2,3.3,3.9,4.1c1.4,2.3,2.2,4.8,2.4,7.5c-0.3,1.3-0.4,2.7-1.4,3.7c-4.3-1.3-8.6-1.2-12.5,0.8
			c-5.2,2.7-10.1,6-15,9c-1.5,0.9-3,2-4.6,3c-1.1,0.8-2.4,1.7-1.6,3.2c0.8,1.5,2.4,1,3.6,0.7c3-1,6-2,9.1-2.1c4.5,3,7-0.5,9.8-3
			c10.3-1.2,20.6-2.2,30.9-3.7c4.5-0.6,8.6-0.7,13.2,0.6c3.1,0.9,7.6,2.3,9.9-2.4c0.3-2.5,1.9-3.3,4.2-3.2c2.6,0.1,5.3,0,8,0l0,0
			c0.1,0.3,0.2,0.9,0.3,0.9c5.2,0.8,9.3,3.4,13.2,6.8c1,0.9,3.5,0.2,5.3,0.1c4.5-0.3,9.1-0.9,12.7,2.8c1,1.1,2.1,1.6,3.5,1.4
			c3.8,1.2,7.7-0.1,11.5,0.7c0.6,3.1,0.1,6.7,4.1,8.3c3.3,1.3,5.4-0.3,7.6-2.2c2.2,1.1,4.4,2.3,6,4.3c3.6,4.5,7.5,4,9.4-1.3
			c0.8-2.3,1.6-2.4,3.5-1.7c4.8,1.8,11.4,0.4,13.5,7.3c0.1,0.2,0.5,0.4,0.8,0.5c3.4,0.9,4.3,4,6.7,7c-1.5-0.3-2.1-0.4-2.8-0.5
			c-2.2-0.4-4.7-1-5.2,2c-0.4,2.4,1.6,3.3,3.7,3.9c1.7,0.5,4.1,0.9,4.9,2.2c3.5,5.5,10.2,6.2,14.9,10c4.3,3.5,7.7,7.3,11.2,11.4
			c3,3.7,5.2,8.7,11,9.2c3.6-3.7,2.3-7.7,0.8-11.8c-0.9-2.4-1.8-5,0.8-6.7c2.4-1.6,4.3,0.2,6,1.9c2,2,3.2,4.7,6.8,5.6
			c-3,1.6-8.8,1.3-3.4,6c0,0.7,0,1.3,0,2c-1.4,1.5-0.2,1.8,1,2.1c3.1,6.6,11.1,9.3,13,16.9c0.2,0.7,1.6,1.1,2.4,1.6
			c1.2,0.6,2.3,1.3,2.7,2.7c2,7.1,6.9,13.3,7.2,21c0,1.2,0.6,2.5,2.1,2.3c1.3-0.1,1.7-1.4,1.8-2.6c2.6-3.2,3.2-0.6,3.5,2.4
			c2.2-2.5,1.3-4.6,1.6-6.5c0.2-1.1,0.8-1.8,2-1.8c1.2,0,1.9,0.6,1.9,1.8c0,1.3,0.3,2.8-0.2,3.9c-1.6,3.8-4,7.5,0.7,10.8
			c0.2,0.1,0.2,1.1-0.1,1.4c-3.1,3.4-0.1,7.7-2,11.6c-1.5,3,0.9,7.1,2.7,10.1c1.2,2.1,2,4.1,2.1,6.4c-0.7,3.1,1.3,4.9,3.4,6.3
			c1.6,1.1,2.6-0.6,3.6-1.6c0.6,0,1.2,0,1.8,0l0.1,0.1c-0.1,1.9,0,3.8-1.4,5.6c-1.2,1.5-1.3,3.7,0.4,5.4c0,0.7,0,1.3-0.1,2
			c-0.7,0.3-0.7,0.6,0,1c0,0.7,0,1.3,0,2c-2,2.9-0.6,6.1-0.9,9.2c-0.1,1.5-0.6,3.5,2,3.7c3.6,2.8,3.2,6.8,2.5,10.5
			c-0.7,3.8-1,7.6-0.4,11.4c0.7,5.2-4.9,15.4-9.7,17.3c-0.6,0.2-1.3,0.6-1.9,0.5c-10.1-2.3-12.4,5.1-9.6,12.5
			c-6.3,5.3-6.9,8.5-2.9,13.9c-0.1,1.8-0.1,3.7-1.8,5c-2.9,2.1-4.2,5-4.5,8.5c-0.2,1.4-1,2.8-1.8,4c-0.8,1.1-2,1.9-3.5,1.1
			c-1.4-0.8-1.6-2-0.9-3.4c0.6-1.4,1.1-2.8,1.9-4c3.7-5.4,2.4-11.5,2.3-17.4c0-1.3-0.5-2.8-2-3.2c-2-0.5-1.8,1.6-2.3,2.6
			c-3,5.6-4.7,12.1-10.7,15.8c-2.6,1.6-4,4.2-5.2,7c-1.5,3.6-4,6.6-7.7,8.1c-3.6,1.4-5.8,3.8-6.7,7.4c-0.7,2.7-2.1,4.5-5,4.7
			c-0.2-0.9-2.3-1.1-0.5-2.6c4.5-3.9,6.2-10.7,12.6-12.8c0.8-0.3,1.3-1.5,2.1-2c2.9-1.8,0.2-4.6,1.2-6.8c0.1-0.2-2.1-1.9-2.6-1.7
			c-1.5,0.8-2.3,2.4-2.9,4c-1.1,2.6-8.6,5.6-11.2,4.8c-2.2-0.7-1.4-1.9-0.4-2.9c9.5-9,11-21.8,15.8-33c0.6-1.4,1-2.9,1.8-4.1
			c3.8-4.9,4.5-10.4,4.1-16.3c4.6-1.1,5.6-4.6,5.7-8.7C686.6,408.8,685.4,405.2,680.7,403.9z M557.7,221.1c-2.3-0.3-4.8,0.3-6.2,3
			c-1.3,2.4-0.9,5,0.6,7.1c2.5,3.4,11.2,5.3,15.2,3.7c4.1-1.7,5-4.6,2.4-8.3C567,222.7,563,221.1,557.7,221.1z M726.1,399.1
			c0.1-5.9-3.2-10.5-7.6-10.5c-3.7,0-6.3,4.3-6,10.4c0,0.3,0,0.7,0.1,1c0.5,4.4,3.2,7.1,6.9,6.9C722.8,406.6,726,402.9,726.1,399.1z
			 M430.9,233.2c3.6,0,6.2-1.7,6.7-5.3c0.3-2.9-2-4.2-4.5-4.1c-3.4,0.2-6.4,1.8-6.8,5.4C426,232,428.2,233.3,430.9,233.2z
			 M709.5,334.3c-0.5-2.5-0.5-5.7-4.1-5.7c-2.5,0-3.1,2.2-3.2,4.3c-0.1,2.7,0.8,5.1,3.8,5.4C708.5,338.5,709.3,336.5,709.5,334.3z
			 M613.7,240c2.3,0.3,3.1-0.7,3.1-2.5c0-2.7-1.8-3.7-4.1-4c-2.3-0.3-3.3,1.2-3.4,3.2C609.1,240.5,612.8,238.5,613.7,240z
			 M597.9,236.9c-2,0-3.9,0.8-3.6,3c0.3,2.2,2.6,2.9,4.6,2.9c1.9,0,3.9-1,3.6-3.1C602.2,237.4,600,236.9,597.9,236.9z M632.5,270.2
			c-2-1.6-3.4-3.9-6-4.8c-0.6-0.2-1.6,0.2-1.3,1c1.2,2.3,1.6,5.2,4.4,6.1C630.8,272.9,631.4,271.3,632.5,270.2z M622.6,264.7
			c-1.4-2.3-3-2.7-4.9-2.1c-0.6,0.2-1,1-0.5,1.6C618.6,265.9,620.3,265.2,622.6,264.7z M354.5,262.4c-0.1-0.3-0.2-0.7-0.3-0.8
			c-0.2-0.1-0.5,0.2-0.8,0.3c0.1,0.3,0.2,0.7,0.3,0.8C353.9,262.8,354.2,262.6,354.5,262.4z"/>
		<path class="st0" d="M387.7,521c1.6,3,0,5.5-2.3,6.6c-4.4,2-4.9,5.4-4.5,9.4c-2.4-0.8-3-2.9-3.6-5c-1.5-5.2-5-8.9-8.6-12.6
			c-1.4-1.5-3.4-2.1-5-0.9c-1.9,1.4-0.2,3.1,0.7,4.3c2.4,3.2,4.1,6.4,3.5,10.5c-0.2,1.6,0.6,2.8,1.9,3.8c1.5,1.2,1.7,3.1,0.3,4.4
			c-1.3,1.2-2.8,0.3-4-0.7c-4.2-3.7-7.5-7.8-7.3-13.8c0-0.7,0.1-1.6-0.2-1.9c-4.5-4.5-4-11.6-9.1-16c-3.7-3.2-1.4-8.2-1.5-12.4
			c-0.1-2.1,0.7-4.2,1.3-6.3c2.7-10.2,0.7-14.5-9.1-19.4c-0.1-0.1-0.3-0.1-0.5-0.2c-3.7-2.4-4.3-17.8-0.8-20.7c0,4.5,0,8.9,0,13.4
			c0,1.3-0.3,3.2,1.4,3.3c2.7,0.3,5.3-0.5,5.5,3.8c0.1,1.2,3.1-0.1,4.4-1.5c1.1-1.3,1.5-4.9,4.3-0.9c1,1.5,3.4-0.6,4.5-2.4
			c0.9-1.4,1.4-2.5,3.7-1.1c2.7,1.6,0.3,2.4,0.1,3.4c-1.2,4.5-5.7,3.9-8.9,5.3c-2.2,1-4.3,1.9-2.4,4.6c1,1.3,0.6,4.1,3.2,3.9
			c2-0.2,3.3-1.6,4.4-3.5c1.7-3,4.4-5.4,6.4-8.2c3.3-4.7,2.9-5.3-1.9-8.4c-3.3-2.1-3.3-6.1-3.6-9.4c-0.5-7.1-0.9-14.3,1.1-21.1
			c1.2-4.1,2.9-8.4,4.8-12.1c3.5-6.9,4.5-14.5,8.2-21.2c0.7-1.2,0.9-3.3,2.7-3.1c2.3,0.2,1.8,2.4,1.9,4c0.3,5.2-1.9,10.1-2.6,15.2
			c-0.4,3.3-0.7,6.6,0,9.9c0.2,1.2,0.6,2.3,0.1,3.4c-3.6,7.1-0.2,14.2-0.4,21.4c0,1.1,0.6,2.8,1.3,3.1c6.8,2.4,5.3,10.7,10.3,14.4
			c1.9,1.4,2.7,4.2,0.5,7.1c-2.2,2.8-0.5,6.4,1.9,7.9c5.9,3.8,5,11,8.6,15.8c0.2,0.3,0.3,1.2,0.1,1.4c-4.7,3.8-2.7,10.2-5.7,14.6
			c-1.2,1.7-2.4,3.6-2.1,6C391,520.9,389.5,521.2,387.7,521c3.1-6.2,2.3-12.1-0.9-18c-2.2-4.1-6.8-5.5-10.9-3.3
			c-1.6,0.8-2.9,2.1-4.4,3.1c-1.8-1.9-1.3-4.8-2.7-6.8c-1.2-1.7-2.8-3.7-4.6-4.3c-1.3-0.4-1.3,2.3-1.8,3.6c-2-1.8-3.1-5.1-6.7-4
			c-1.9,0.6-3.2,2-3.5,3.9c-0.5,3.8,0.1,7.3,3.3,9.9c3.4,2.7,6.5,1.7,7.1-2.7c0.3-2.3,0-4.6-0.1-6.9c2.1,2.7,6.8,4.2,3.5,9
			c1.9,1.1,3.4-0.7,5-0.2c0,2-0.1,3.9,0.1,5.9C372.2,519,379.2,523.7,387.7,521z M367.8,478.1c0.1,0.4,0.3,0.9,0.4,1.3
			c0.1-0.1,0.3-0.2,0.4-0.3C368.4,478.8,368.1,478.5,367.8,478.1c0-1.7,1.5-2.5,1.9-3.9c0.2-0.8,0.7-2.2-0.7-2.3
			c-1.8-0.1-2.7,1.7-3.7,2.9c-0.7,0.9-1.4,2.7-1,3.5C365.2,479.8,366.6,477.8,367.8,478.1z M353.4,488.5c9.3,0.1,9.7-0.1,8.4-5.5
			C360.8,488,354.4,483.5,353.4,488.5z"/>
		<path class="st0" d="M387.9,304.2c-3.4,3.7-8.4,5.6-11.5,9.7c-0.5,0.6-1.6,1-1,2c3.2,5.4-2.3,6.5-4.5,9.1
			c-0.7,0.9-3.3,0.1-2.3,2.6c0.6,1.6,0.2,3.9,3,3.7c1.2-0.1,2.7,0.2,2.8,1.5c0.1,2.1-1.9,1.2-3,1.4c-1.5,0.3-3.3,0.4-2.8,2.5
			c0.4,1.8,2,1.1,3.3,0.8c1.8-0.3,3.6-0.3,5.5-0.3c1.3,0,2.8-0.5,3.5,1.1c0.6,1.6,0.2,3.3-1,4.1c-3.1,2.1-4.2,5.4-5.8,8.5
			c-2.9,5.5-8.8,8.7-11.1,14.8c-0.5,1.4-2,2.7-1.9,4.4c0.1,7.4-2.8,14.3-4.2,21.5c-1.1,5.8-1.7,12-4.8,17.4c-0.5,0.8-1,2.1-0.7,2.8
			c2.5,5.6-1.2,11.1,0.2,16.7c0.3,1.2-0.3,3.3-1.2,4.1c-1.5,1.3-2.6-0.5-3.7-1.4c-1.6-1.3-2.7-1.4-3.8,0.8c-1.4,2.8-2.9,5.4-0.9,8.3
			c2.1,2.9,0.9,4.5-1.7,5.9c-1.6-5.4-1.3-10.7,0.5-16.1c0.7-2,0.2-4.3,0.3-6.4c0-1.4-0.2-2.8-1.8-3.2c-2-0.6-2.1,1.2-2.5,2.3
			c-2.3,5.5-4.5,11-6.6,16.6c-0.6,1.5-0.5,3.2-2.4,4.6c-0.9-4.9-2.8-9.3-2.7-14.1c0.1-2.3,0.6-4.7-0.6-6.9c-2.2-4-0.7-7.2,1.5-10.5
			c4-6.1,5-13.8,10.4-19.3c1.4-1.4,2.1-4,1.6-6.1c-1.6-6.7,0.9-13.5-0.8-20.1c-0.4-1.7,0-3.2,1.2-4.6c3.1-3.8,5.3-7.9,3.8-13.2
			c-0.6-1.9-0.2-4.6,1.7-5.4c5.3-2.3,6.3-6.9,7.2-11.7c2-10.9,4.7-13.8,15.6-16.1c3.9-0.8,6.8-2.6,8.9-6.3
			C378.5,303.7,382.7,302.3,387.9,304.2z M362.3,326.5c-3.2,0.6-5.2,2.2-5.2,5.6c0,2.3,1.3,3.6,3.4,3.3c3-0.4,4.3-2.9,4.9-5.4
			C365.8,327.8,364.4,326.6,362.3,326.5z"/>
		<path class="st0" d="M303.9,449c0-1.7,1.6-1.9,2.6-2.5c-0.9-2-2.4-1.1-3.6-1.3c-2.6-0.6-4-1.6-3.4-4.8c0.7-4.4,0.6-8.9-0.1-13.4
			c-0.6-3.6,2.6-6.7,1.5-10.5c-0.4-1.3,0.7-3.5-1.1-3.9c-2.3-0.6-2.2,1.9-2.9,3.2c-3.1,5.7-2.5,12.3-4.7,18.2
			c-1.1,2.9-2.8,5.2-5.5,6.8c-3.9,2.3-6.4,1.3-7.7-3.2c-1.5-5.4-3.5-0.2-5.3-0.3c-1.1-4.3-0.3-10,3.9-14.8c2.8-3.1,4.1-6.9,5.6-10.2
			c2.3-4.9,3.2-1.5,4.8-0.2c0.3,0.6,0.7,1.1,0.9,1.7c0.6,1.3,0.7,3.3,2.5,3.1c2.4-0.2,1.3-2.5,1.6-3.9c0.4-1.7-0.9-4.1,1.7-5
			c2.1,2,4.3,2.5,6.5,0.2c0.2-0.3,0.4-0.6,0.7-0.9l0-0.1c1.3-0.8,1-2,0.8-3.2c0-0.4,0-0.9,0-1.3c0.2-1.3,0.6-2.8-1.4-3.1
			c-0.2-0.2-0.4-0.4-0.7-0.6c0.1-0.7,0.4-1.7,0.1-1.9c-2.7-2.1-0.8-3.9-0.4-6.2c0.7-3.5,2.7-7.9-2.2-10.5c0-0.5-0.2-1-0.1-1.5
			c4-11.9,6.5-24.3,12-35.6c0.8-1.6,0.9-3.2,0.9-4.8c1.1-2.2,1.1-2.3-0.8-2.9c-1.2-0.4-2.8,0.2-3.1-1.7c-0.3-1.8,1.1-3.2,2.2-3.6
			c3.8-1.2,5.7-4.2,7.4-7.4c0.6-1.2,1.3-2.4,2.9-2.3c1.8,0.2,2.6,1.7,2.8,3.1c0.4,2.8,1.8,5.3,2.3,7.9c0.7,3.9,1.2,7.8-4.5,9.9
			c-5.2,1.9-6.9,7.3-7.3,12.7c-0.8,10.4-0.2,11.3,9.9,14.2c2.9,0.8,4.3,2.5,4,5.3c-0.8,7.3-1.1,14.5-1,21.8c0,1.5-1.1,2.4-1.8,3.5
			c-0.5,0.7-1,1.4-2,1.2c-1-0.2-1.5-1.2-1.2-1.9c3.1-6.9-4.5-13.5-0.3-20.6c0.9-1.5,1.2-4.8-1.3-5.7c-2.2-0.9-3.3,1.7-4.4,3.3
			c-1.3,1.7-1.9,3.7-2.3,5.9c-0.9,4.4,0,9.4-4.2,12.8c-1.5,1.2-0.4,3.4,0.1,5.2c1.3,5.2,1.2,9.9-0.7,15.3
			c-2.3,6.7-2.7,14.4,3.1,20.6c3.9,4.1,6.6,8.6,6,14.6c-0.3,3.8,3.8,7.3,0.9,11.4c-3.7,1.6-4.8,5.2-6.4,8.4c-0.6,0-1.3,1.9-1.5,0.6
			c-0.4-2.5-2-4.3-2.3-6.7C311.1,455.8,310.1,452.1,303.9,449z"/>
		<path class="st0" d="M485.9,611c0.1,4.1,2.4,6,6.3,6c5.1,0.1,9.2,2.4,12.6,6c-0.2,1.5-0.5,2.9-0.7,4.4c-0.4,3.2-1.5,4.9-4.6,1.9
			c-0.6-0.5-1.5-1.3-2.1-1.1c-6.5,1.5-10.4-3-14.7-6.3c-1.4-1-2.9-1.5-4.5-2c-2.4-0.7-5.3-1.3-5-5c0.1-1.9-1.6-1.8-2.9-1.8
			c-2.1-2.1-4.1-4.2-7.5-3.9c0.1-4-1-7.2-5.4-8.4c-2-0.5-3.3-2-4.2-3.9c-3-6.2-8.3-9.1-15-8.7c-8.1,0.5-12.6-4.9-17.9-9.3
			c-2-1.6-0.5-2.6,1.3-2.8c1.3-0.1,2.6,0.4,3.9,0.7c1.8,0.4,2.9-0.6,3.7-1.9c1-1.6-0.4-2.6-1.4-3.3c-2-1.4-4.1-2.6-6.2-3.9
			c-3.6-2.2-7.2-4.4-10.8-6.6c-2.3-4-4.9-7.7-10.1-8.3c-1.2-1.1-3-1.1-4.1-2.5c-3.6-4.2-6.9-8.7-12.8-10.1c-1.2-0.3-2-1.7-2-3.2
			c1.7-1,7.5,0.3,8.9,2.3c2.3,3.2,4.6,3.5,7.4,0.9c1.5-1.4,3.5-2,4.9-0.6c1.6,1.6-0.6,2-1.5,2.7c-0.7,0.5-0.4,1.2,0,1.7
			c1,1.1,2.4,1.2,3.7,0.6c2-0.9,5-4,3.9,1.8c0,0.2,0,0.5,0,0.5c3.2-0.1,4.4,1.9,5.9,4.5c1.6,2.9,5,1.4,7.7,1c0.8,1.2-0.7,2.7,0.9,4
			c4.3-1.2,6.3-5.1,8.8-8.7c1,1.5,1.9,2.9,2.9,4.4c-4.1,1.4-6,5.4-4.4,9.6c1.1,3,3.3,2.7,5.7,1.4c0,0,0.2-0.3,0.2-0.3
			c1.2,0.4,2.4,0.8,3.7,1.2c4.6,9.3,14.2,12.6,21.9,18.2c2.3,1.7,5.7,0.6,8.6-0.4c5.4-1.9,7.1-0.4,6.3,5.1c-0.6,4.8,3.5,7,5.9,10.2
			c-0.4,0.3-0.8,0.8-1.2,0.8c-3.2,0.2-4.9,1.8-5.1,5c-0.3,3.3,2.1,4.7,4.6,5.5C483.3,609.2,484.8,609.5,485.9,611z"/>
		<path class="st0" d="M568.8,601.1c1.7-1,3.4-2,5.1-3.1c1.2-0.8,3.1-1.5,2.4-3.3c-0.6-1.4-2.4-1.5-4-1.5c-0.8,0-1.7-0.1-2.5,0.1
			c-10.1,2.7-20.4,1.8-30.8,2.1c-9.1,0.2-17.3-1.6-25.4-5.1c-1.8-0.8-3.9-0.4-5.9,0.3c-1.5,0.5-2.8,0.6-4.3-0.3
			c-5.5-3-5.5-4.7-0.2-10.3c1.8-2,6.1-3,4.9-6.1c-1.4-3.4-5.7-2.5-8.9-2.8c-0.2,0-0.3-0.1-0.5-0.1c0.2-2.7,2.9-3.3,4.4-4.9
			c1-1.1,2.5-2,1.8-3.6c-0.6-1.2-1.1-2.1,0.3-2.7c1.4-0.6,1.3,1,1.9,1.6c0.4,0.4,1.1,0.5,1.7,0.8c0,0,0,0,0,0c0.3,5.2,7,4.8,8.1,9.4
			c0.3,1.1,1.8,1.9,3.3,1.1c0.4-0.2,0.8-1.2,1-0.9c1.4,2.7-3.9,1.8-1.3,4.5c-0.3,3.7,2.1,4.9,5,5.5c1.4,0.3,3.1,0.1,4.4,0.6
			c14.1,5.5,28,4.3,41.9-0.7c1.1-0.4,3.1-0.1,3-1.9c-0.1-2.3-2.6-0.5-3.5-1.7c2.4-2,1.8-4.8,2-7.4c0.5-5.2-2.2-7.3-7.2-5.3
			c-1,0.4-1.6,1.7-3,1.4c2.4-4,9.4-5.3,12.9-2.5c1.3,1.1,0.9,2.1,0.4,3.5c-2.6,6.7-0.9,9.5,6.1,9.1c3.7-0.2,7.2,1.5,10.8,0.6
			c8,2.6,11.8,0.4,14.7-8.5c0.9-0.3,2.4-0.2,2.8-0.8c3.8-6.2,10.6-8,16.3-11.5c1.3-0.8,2.4-1.9,4-1.3c1.6,0.6,1.9,2.2,2.1,3.7
			c0.1,0.7,0.1,1.3,0,2c-0.5,4.3-9.9,14.9-14.1,16c-1.1,0.3-2.8,0.5-3.2,1.2c-2.7,5.2-7.8,3.5-11.9,4.9c-5.6,2.1-11.3,4.1-16.8,6.5
			c-1.5,0.7-1.2,2.2,0,3.3c-0.1,2.2,0.6,4.5-1.3,6.6c-2.1,2.2,1.5,3,2,4.7c0.3,1.1,1.8,2,1.1,3.5c-0.7,1.6-2.3,0.9-3.5,1.2
			c-4,0.7-8.4-2.1-12.2,1.7c-1.1,1.1-3-0.6-3.5-2c-1.3-3.6-2.2-0.1-3.2,0.1l-0.1-0.2c0.5-1.6-0.5-1.5-1.5-1.2l-0.1,0
			C564.7,604.5,570.1,605.2,568.8,601.1z"/>
		<path class="st0" d="M425.9,607c-0.4-1-0.7-2-1.1-3c-0.3-0.3-0.6-0.7-0.9-1c-0.4-0.3-0.7-0.7-1.1-1c0.2-2.2-0.8-3.2-3-3
			c0,0,0,0,0,0c-0.3-0.3-0.7-0.6-1-1c-6.1-1.6-10.4-6.4-16-9.1c-1.4-3.1-4.4-3.3-7.2-3.7c-0.3,0-0.6-0.1-0.9-0.2
			c0-1.3-0.7-2-2.1-1.9c0,0,0,0,0,0c-1.5-4.5-4.8-0.7-7.5-1.8c1.3-1.9,2-4,1.5-6.2c-0.6-2.7-3.1-3.1-5-4.3c-2.6-1.8-6.1-3-5.9-7.1
			c0.1-2.4,1.2-4.5,3.6-2.7c6.7,5.2,16.3,4.3,22.2,10.9c1,1.1,2.4,2,2.8,3.3c1.9,6.9,8.5,10.3,12,16c2,3.2,4.8,4.6,8.9,3.3
			c3-1,6.4-1,8.4,2.2c2.5,4,0.4,7.7-1.7,11C430.1,610.7,428.1,606.3,425.9,607z"/>
		<path class="st0" d="M355.9,544c-1.8,1.3-2.4-0.2-2.8-0.7c-4.2-6.3-12-7.3-17.3-12.1c-3.9-3.5-6.3-7-5.1-12.4
			c0.6-2.4-0.6-3.6-2.6-4.7c-2.7-1.4-5.2-3.3-3.8-7c0.7-1.7-1-2.3-1.6-3.3c-1.3-2.5-1.5-5.1,0.6-6.9c2.1-1.8,4,0.4,5.5,1.8
			c3.8,3.6,7.8,7,12.4,9.5c0.6,0.3,1.2,0.6,1,1.4c-1.8,7.2,1.5,12.7,5.4,18.4C350.9,532.8,354.3,537.9,355.9,544z"/>
		<path class="st0" d="M333.8,335.2c-0.3-5.3,2.9-10.8-0.9-15.8c-0.3-0.4-0.2-1-0.3-1.4c-0.8-2.5-5.1-1.1-5-4c0-1.7,4.6-2.3,1.9-5.4
			c-0.1-0.1,0-0.4,0-0.4c6.3-1.3,4.1-9.7,9.8-11.6c2.6-0.9,4-3.4,6-5.1c0.8-0.7,1.6-1.3,2.6-0.5c0.7,0.6,0.8,1.3,0.5,2.2
			c-1.8,5.5-2,11.3-4.5,16.7c-2.2,4.8-1,10.4-1.9,15.6c-1,5.7-4.7,10.5-5.2,16.4c-0.1,0.8-0.8,1.2-1.4,0.8c-0.5-0.3-1.1-0.9-1.2-1.5
			C333.9,339.1,333.9,337.2,333.8,335.2z"/>
		<path class="st0" d="M297.7,381.3c-1.6-4-4.7-6.3-8.5-7.8c0-1-0.2-2.1,0.2-2.9c5.5-9,9.3-18.9,14.4-28c1.4-2.4,2.6-6.5,7.1-4.5
			c0,1.7-0.1,3.3-0.9,4.8c-5.5,11.3-8,23.7-12,35.6c-0.1,0.4,0.1,1,0.1,1.5C298,380.5,297.8,380.9,297.7,381.3z"/>
		<path class="st0" d="M510.8,607c0.3-0.1,0.6-0.1,0.9-0.2c4,0.1,8,0.3,11.9,0.1c4.9-0.2,9.4,0.3,13.5,3.3c1.6,1.2,3.7,1.3,5.1,0.1
			c2.6-2.1,5.4-1.1,8.1-1.3c1.3-0.1,2.3,0.3,2.4,1.8c0.1,1.3-0.3,2.4-1.6,2.8c-1.5,0.6-3.1,1-4.8,1.3c-1,0.2-2.6-0.3-2.9,0.1
			c-3.9,6-12.4-1-16,5.7c-0.2,0.3-1.3,0.1-1.9,0.1c1-2,2.8-3.9,1.1-6.3c-1.8-2.4-4.4-2.5-7.1-1.9c-0.8,0.2-1.6,0.4-2.4,0.5
			c-2.2,0-4.3-0.1-6.5-0.1c0,0-0.1-0.1-0.1-0.1C510.7,611.1,510.7,609.1,510.8,607z"/>
		<path class="st0" d="M328.3,544.7c-0.6-2.9-5.5-4.7-0.9-7.9c1-0.7,1.6-1.7,2.7-0.4c2.3,2.7,6,4.4,5.3,9.2c-0.3,2.1,1.2,4.6,2,6.9
			c0.2,0.7,1.5,1.2,0.6,2c-0.5,0.4-1.6,0.5-2.3,0.3c-6.6-2.1-13.2-4.3-17.9-10c-1.1-1.4-0.8-2.7-0.8-4.2c0-0.7,0.5-1.3,1.3-1.1
			c1.2,0.3,2.2,1.2,2.4,2.3C321.6,547.5,326.2,542.2,328.3,544.7z"/>
		<path class="st0" d="M600.9,605.5c4.4-0.5,5-2.7,4-6.3c-0.8-2.7,0.3-4.5,3.6-4.2c2.6,0.2,5.3,0.1,8,0.1c1.9,0,3.7,0.1,4.2,2.5
			c0.5,2.6-1,4.8-2.9,5.1c-4.7,0.7-9.7,0.2-13.3,4.3C604,607.4,602.2,607.5,600.9,605.5z"/>
		<path class="st0" d="M386,603c2.2,0.5,4.5,0.9,6.7,1.4c0,3.2,2.7,5.5,3,8.7c0.1,1.3,0.7,2.9-0.7,3.6c-2,0.9-1.6-1.3-2.3-2.1
			c-3.9-4.3-6-11-13.9-9.9c-1,0.2-0.8-1.6-0.9-2.5c0.1-0.1,0.3-0.3,0.4-0.4c-0.1,0.1-0.3,0.3-0.4,0.4c-1.1,0-2.3,0.1-3.2-0.9
			c-0.9-0.9-1.1-2.1-0.5-3.1c0.8-1.4,1.8-0.9,2.7,0.1c1.1,1.2,2,0.3,3-0.2c1.8,0.4,2.6,2,3.9,3.1C383.9,602.5,384.5,603.1,386,603z"
			/>
		<path class="st0" d="M551.8,254.2c-1.6,0.1-3.7-0.5-4.8,0.3c-2.6,1.9-2.9-1-3.3-1.7c-1.2-2.5,1-1.8,2.2-2.1c0.4-0.1,0.6-1,0.9-1.5
			C548.9,250.4,550.6,252.1,551.8,254.2z"/>
		<path class="st0" d="M673.8,581.3c0.6,0,1.2,0,1.8,0C675.1,582.2,674.5,582.2,673.8,581.3z"/>
		<path class="st0" d="M407,385.8c6.3-1.4,8.3,0.3,7.7,6.4c-0.9,8.5-2.1,17-0.4,25.6c0.5,2.4-1.2,4.8-2.4,7
			c-1.3,2.3-1.3,4.8-1.1,7.3c0.2,3.5,3.3,2.3,5.2,3.1c2.9,1.2,2.7,4.7,3.6,7.2c2.3,6.4,2.7,6.9,9,6.3c3.4-0.3,7.8,2.9,8,6.5
			c0.3,6.2,3.6,9.9,8.1,13.8c4.5,3.9,7.2,9.7,10.7,14.7c4,5.7,9.7,9.3,14.5,14c1,1,3.1,1.4,2.4,3.3c-0.7,1.8-2.6,1-4,1
			c-1.7,0.1-3.3-0.7-4.6-1.7c-5-3.9-11.6-5.3-16-10.2c-0.4-0.5-1.3-1-1.7-0.8c-5.2,1.9-9.5-1.6-14.3-2.2c-5.8-0.8-9.6-4.2-10.8-10.1
			c-0.2-0.8-0.1-2.1-0.5-2.4c-6.1-3.1-3.6-8.5-3.6-13.1c0-2.8-0.1-5.7-3.6-6.1c-3.4-0.4-3.5,2.3-3.5,4.7c0,1.5-0.8,2.1-2.2,2.1
			c-1.6,0.1-3-0.4-3.7-1.9c-2.6-5.2-6.5-10-5.1-16.5c0.2-1.1,0.4-2.8-0.2-3.4c-4.3-4.3-2.8-9.8-3.5-14.9c-0.1-0.7-0.4-1.6-0.1-1.9
			c4.4-4.6,4.3-10.9,6.5-16.4c0.7-1.6,1.8-3.2,2.1-5c0.4-1.8,1.2-4.4-0.8-5.5c-2.3-1.2-2.7,1.7-3.9,2.9c-1.3,1.3-2.8,2.8-4.7,2.2
			c-1.9-0.7-3.3-2.3-3.4-4.5c-0.3-7.6,1.5-14.4,5.5-21.1c3.3-5.5,6.6-10.9,11.2-15.5c1.9-1.8,1.6-4.8,1.2-7.2
			c-0.8-4.8,1.6-7.8,5.3-9.6c10.5-5,20.2-11.2,30.5-16.5c1.5-0.7,3-1.8,4.6-0.2c1.6,1.7,0.1,3.1-0.5,4.5c-0.9,2.3-3.6,5.2-0.6,7
			c2.6,1.6,5.9-0.7,7.3-2.9c4.9-8.4,13.5-6.1,20.7-7.6c7.6-1.6,14.5,1.3,21.6,3.3c0.8,0.2,1.6,0.5,2.4,0.8c2,0.6,4.2,1.6,3.5,4
			c-0.6,1.8-3,2.2-4.7,1.5c-8.7-3.9-17.5,0.4-26.2-0.1c-6.1-0.3-11.8,3.8-16.4,7.3c-5.1,3.9-11.5,5.9-15.7,11.2
			c-1.6,2-2.9,1.1-3.7-1.4c-0.8-2.6-0.3-4.9,0.6-7.2c0.3-0.8,0.7-1.6,0.1-2.3c-1-1-1.8,0.1-2.7,0.3c-0.2,0-0.4,0.1-0.4,0.2
			c-3,6.9-10.9,8.1-15.4,13.2c-1,1.1-1.9,1.8-1.1,3.8c2.6,6.2,1.4,9.8-4.2,14.1C410,379.4,409,380.7,407,385.8z"/>
		<path class="st0" d="M598.3,406.5c2.3-6.6,5.9-11.8,6.4-18.1c0.3-4,0.6-7.9,2.4-11.5c2.3-4.7,1.6-10,2.4-14.8
			c1.7-9.6-1.4-18.7-0.7-28c0.1-0.9-0.3-2.3,1-2.4c0.7,0,1.8,0.9,2.3,1.7c2.7,4.5,4,9.4,4.6,14.6c1,8.3,2.8,16.2,5.5,24.2
			c2.5,7.1,4.7,14.9-2.2,21.7c-2.7,2.7-4.4,6.6-6.3,10.1c-1.5,2.8-3.3,4.5-6.6,5.4c-3.5,0.9-4.8,4.7-6.1,7.6
			c-1.1,2.3,1.9,3.4,3.5,4.7c4.5,3.5,5.4,9.1,3.2,14.6c-1.3,3.2-3.3,6.3-3.1,10.2c0.1,2.8-1.8,4.5-4.7,4.7c-1.3,0.1-3-0.4-3.9,0.3
			c-5.9,3.8-5-1.1-5.2-4.1c-0.4-4.6,2.3-9.1,0-13.8c-0.5-1-0.2-2.5-1.5-2.9c-1.7-0.5-2.2,1.3-2.9,2.3c-0.7,1-1.1,2.4-1.5,3.7
			c-1,3.7-2.2,6.9-7.1,6.7c-2.6-0.1-3.9,2.4-4.9,4.5c-2.3,4.7-6.6,3.7-10,3c-3.2-0.6-1.2-3.4-0.1-4.7c3.5-4.2,7.3-8.2,11.1-12.1
			c1-1.1,2.8-1.9,2.7-3.4c-0.4-5.8,3.5-9,7-12.6c3.2-3.4,3.1-8.4,5.5-12.2c1.2-1.9,1.8-4.5,4.8-4.5
			C596.5,401.3,596,404.2,598.3,406.5z"/>
		<path class="st0" d="M481.3,477.7c2.1,0.1,4.1-3.5,6.2,0.5c0.9,1.7,2.7-1,3.6-2.1c1.9-2.3,1.2-1.4,3.4,0c2.9,1.9,1.3,6.6,5.4,7.2
			c0.9,0.1,0.6,1.4-0.2,1.9c-0.9,0.7-2,0.8-2.6-0.3c-2.3-4.2-5.4-3.3-8.9-1.9c-4.6,1.8-11.1-2.6-11.3-7.4c-0.2-5.8-1.3-6.5-6.6-4.5
			c-3.6,1.3-8-0.6-9.7-5.1c-1.1-2.8-2.8-4.1-5.3-5.4c-5.8-2.9-6.3-13-1-16.6c2.2-1.5,3.2,0.1,3.9,1.5c3.9,7.4,10.1,10.4,18.3,9.6
			c1.3-0.1,3.1-0.5,3.8,0.7c1.8,3.1,4.6,3.2,7.7,3.7c1.9,0.3,3.7,1.3,3.9,3.9c0.2,2.3-2.9-1.7-2.1,1.2c0.4,1.4,2.1,1.1,2.6,2.1
			c0.7,1.5-0.6,1.9-1.8,2.3c-1.3,0.4-2.8-2.5-3.2-0.8C486.5,472.3,480.3,472.5,481.3,477.7z"/>
		<path class="st0" d="M601.6,338.5c0,0.5,0.1,1.3,0,2.1c-0.5,2.7-0.4,6.7-3.6,6.8c-3.1,0.1-2.9-3.6-3.2-6.2c-0.5-3.6-5.5-7-8.9-6.1
			c-1,0.3-1.9,0.6-2.7-0.3c-3-3.1-6-6.2-6.2-10.9c0-0.8-0.2-1.8,0.2-2.4c3.5-6.9,3-10.8-2.3-17.8c-1-1.4-2.8-3.1-1.3-4.8
			c1.4-1.5,3.3-0.6,5,0.5c5.4,3.5,10,8.1,15.6,11.4c2.1,1.2,2.9,3.8,2.7,6.6c-0.3,4.9,0.5,9.5,3.6,13.6
			C602.1,333,601.8,335.6,601.6,338.5z"/>
		<path class="st0" d="M624.9,405.4c0.3-0.9,0.3-2.1,0.8-2.8c5.5-7,5.8-15.5,7.2-23.7c0.2-1.3,0.4-3,1.8-3.2
			c1.8-0.3,2.5,1.3,2.9,2.8c0.9,3.4,1.7,6.7,0.1,10.2c-1.2,2.6-0.5,5.5-0.7,8.3c-0.5,7.4,0.2,15.3-7.1,20.6
			c-3.3,2.4-4.1,7.3-8.3,8.9c-1.6,0.6-3.4,2.8-4.8,1.5c-1.7-1.5-0.2-3.9,1.1-5.3c4-4.3,3.2-10.8,7.4-15c0.4-0.4,0.1-1.5,0.1-2.3
			C625.2,405.4,625,405.4,624.9,405.4z"/>
		<path class="st0" d="M500.6,457.2c-2.6-0.8-5.6-1-7.6-3.2c-0.9-1.1-2.6-2-1.6-3.8c1-1.8,3.1-2.8,4.6-1.7
			c4.7,3.3,10.7,2.7,15.4,6.2c3.4,2.5,7.9,2.5,12.2,2.4c0.9,0,2.2-0.4,2.6,0.8c0.5,1.5-1,1.9-2,2.2c-3.8,1.1-7.7,2.2-11.4-0.3
			c-1.9-1.3-4.2-0.6-6.3-0.7c-2.1-0.1-4.4,0.5-5.8-1.8c2.4-0.7,5.4,1,7.4-1.7C505.6,456.1,502.5,453.1,500.6,457.2z"/>
		<path class="st0" d="M468.8,441.2c-1.1-0.1-2.9,0.1-3.1-1c-1-6.1-7-9-8.8-14.6c-0.4-1.3-1.6-2.9,0.4-3.9c1.8-0.9,2.6,0.6,3.6,1.7
			c2.3,2.6,4.7,5,7.1,7.4c-4.6,0.9-3.8,3.6-2,6.5C466.8,438.6,468.7,439.3,468.8,441.2z"/>
		<path class="st0" d="M469.7,441.4c1.9-0.2,3.7-0.5,5.5,1c1.7,1.3,4,1.4,5.8-0.4c2,0.8,3.9,2.6,3,4.3c-0.9,1.8-3.7,1.1-5.5,0.5
			C475.3,445.6,472.2,443.9,469.7,441.4z"/>
		<path class="st0" d="M652.6,558c0.4-0.9,0.6-1.9,1.3-2.6c1.3-1.4,2.6-2.9,1.3-4.7c-1.3-1.7-3.4-1.9-5.4-1.5
			c-0.5,0.1-0.9,0.4-1.4,0.6c-1.9,0.8-4.2,2.5-5.8,0.6c-1.6-1.9-1.3-4.6,0.3-6.8c7.5-0.2,9.3-4,5.5-11.1c3.3-1.8,6.3-4,8.9-6.7
			c-0.4,3.5-1.3,7.3,3.4,8.6c4.6,1.2,7.9-0.9,9.8-4.8c1.9-3.8,2.9-7.9-0.6-11.5c-2.1-2.1-1.5-3.7,0.6-5.3c3.2,1.2,5-0.8,6.8-2.8
			c2.3-2.5,4.8-4.4,8.6-4c4.4,0.4,6.4,2.9,4.1,6.5c-2.7,4.2-2.5,7.4-0.1,11.9c2,3.8-0.1,9.3-2.7,11.8c-3.3,3.3-4.4,7.3-6.5,10.9
			c-3.2-0.5-5.8,1.2-6.9,3.7c-1.9,4.4-4.6,8.3-7,12.4c-0.7,0.1-1.4,0.2-2.1,0.2c-0.8-3.6-3.4-2.6-5.4-1.8
			C653.4,564.1,653.1,564,652.6,558z"/>
	</g>
</g>
</svg>
