<svg width="14" height="14" viewBox="0 0 14 14" fill="none" xmlns="http://www.w3.org/2000/svg">
<path d="M11.9624 10.9498H10.6814C10.7103 10.8895 10.7419 10.825 10.775 10.7575C10.9153 10.4718 11.0742 10.1479 11.1654 9.8656C11.5222 8.76025 12.0031 7.93115 12.5123 7.05338C12.6704 6.78089 12.8338 6.49915 12.9928 6.20931C13.2107 5.82513 13.2553 5.0344 13.2553 4.8429C13.2553 4.16479 12.8891 3.54171 12.3173 3.20455C12.3778 2.0812 11.5069 1.11385 10.3995 1.04148C9.73086 -0.19049 7.94548 -0.362378 7.04701 0.702213C6.23084 -0.306495 4.59549 -0.175555 3.94476 0.953234C2.82346 0.892729 1.85811 1.76059 1.78273 2.86509C1.14892 3.20931 0.740646 3.8857 0.73657 4.64112C0.73657 4.64164 0.736461 4.64213 0.736461 4.64265C0.736379 4.64555 0.736433 4.64837 0.736379 4.65127C0.736379 4.65173 0.736351 4.6522 0.736379 4.65266C0.712198 5.78957 1.21517 6.58515 1.61967 7.22472C1.71256 7.37164 1.80031 7.51037 1.87485 7.64249C1.87942 7.65056 1.88426 7.65849 1.88935 7.66626C2.29174 8.27845 2.4746 8.88955 2.65144 9.48052C2.80659 9.99898 2.95383 10.4907 3.23294 10.9498H2.04094C0.91557 10.9498 0 11.8653 0 12.9907V13.5897C0 13.8163 0.183705 14 0.4103 14H13.593C13.8196 14 14.0033 13.8163 14.0033 13.5897V12.9907C14.0033 11.8653 13.0878 10.9498 11.9624 10.9498ZM1.55684 4.66223C1.55687 4.66054 1.55668 4.65887 1.5567 4.65717C1.55536 4.13155 1.87534 3.66852 2.35373 3.50765C2.47066 3.46829 2.62132 3.44326 3.04508 3.38314C3.26943 3.3513 3.42548 3.14361 3.39367 2.91925C3.36186 2.69493 3.15438 2.53915 2.92979 2.57066C2.82984 2.58486 2.74264 2.59739 2.66539 2.60899C2.85309 2.03711 3.48924 1.65928 4.10054 1.79864C4.29975 1.84134 4.5 1.73097 4.57077 1.53996C4.93632 0.572148 6.32472 0.619086 6.61863 1.61045V1.7115C6.61863 2.19368 6.22635 2.58595 5.74417 2.58595C5.51757 2.58595 5.33387 2.76966 5.33387 2.99625C5.33387 3.22285 5.51757 3.40655 5.74417 3.40655C6.06387 3.40655 6.36318 3.3176 6.61863 3.16314V3.66433C6.64032 4.20872 7.41775 4.20831 7.43923 3.66433V1.62517C7.74602 0.763676 8.90342 0.538613 9.51348 1.21036C9.25158 1.3312 9.01683 1.50807 8.83386 1.7287C8.68919 1.90313 8.71334 2.16179 8.88778 2.30643C9.06117 2.45047 9.32026 2.42766 9.46551 2.25252C9.64188 2.03984 9.90316 1.89714 10.1835 1.85975C10.8509 1.81678 11.4317 2.32487 11.4933 2.97754C11.1418 2.9648 10.8854 3.04729 10.7064 3.12137C10.4971 3.20805 10.3976 3.44802 10.4843 3.65741C10.5709 3.86893 10.8161 3.96563 11.0203 3.87963C11.1277 3.83518 11.3496 3.74396 11.7518 3.83895C12.1612 4.00075 12.4347 4.40117 12.4347 4.84288C12.4347 5.16573 12.3518 5.67797 12.279 5.80448C12.2776 5.80692 12.2762 5.80935 12.2749 5.81181C11.8029 6.67136 11.3235 7.40804 10.8921 8.32974H10.5123C9.58892 8.32974 8.83772 9.08094 8.83772 10.0043C8.83772 10.2309 9.02143 10.4146 9.24802 10.4146C9.47462 10.4146 9.65832 10.2309 9.65832 10.0043C9.65832 9.53342 10.0414 9.15034 10.5123 9.15034H10.5461C10.49 9.3001 10.4359 9.45418 10.3845 9.61349C10.3115 9.83953 10.1664 10.1351 10.0384 10.3959C9.99922 10.4758 9.96189 10.5519 9.92868 10.6217C9.85184 10.7783 9.7546 10.9216 9.6415 11.0495C9.61814 11.0697 9.59721 11.0925 9.57889 11.1173C9.21593 11.4906 8.70968 11.7137 8.17656 11.7137H5.7489C5.00845 11.7137 4.341 11.3032 4.00701 10.6423C3.99988 10.6282 3.99194 10.6145 3.98324 10.6013C3.72738 10.2137 3.5931 9.76491 3.43763 9.24528C3.43128 9.22406 3.4248 9.2025 3.41837 9.18106H3.52478C3.99564 9.18106 4.37872 9.56414 4.37872 10.035C4.37872 10.2616 4.56242 10.4453 4.78902 10.4453C5.01561 10.4453 5.19932 10.2616 5.19932 10.035C5.19932 9.11166 4.44811 8.36046 3.52478 8.36046H3.14872C3.01062 7.99387 2.83451 7.61254 2.58267 7.22718C2.49987 7.08125 2.40909 6.93778 2.31316 6.78608C1.93079 6.18144 1.5354 5.55622 1.55684 4.66223ZM13.1827 13.1794H0.8206V12.9907C0.8206 12.3178 1.36805 11.7704 2.04094 11.7704H3.83589C4.34193 12.2543 5.02043 12.5343 5.74887 12.5343H8.17654C8.69595 12.5343 9.20341 12.3889 9.64407 12.114C9.80392 12.0143 9.95212 11.8989 10.0872 11.7704H11.9624C12.6353 11.7704 13.1827 12.3179 13.1827 12.9907V13.1794Z" fill="#F6FEFF"/>
<path d="M6.25721 8.08472C6.05591 8.08472 5.89272 8.24791 5.89272 8.4492C5.91193 8.93267 6.60257 8.93253 6.62169 8.4492C6.62166 8.24791 6.4585 8.08472 6.25721 8.08472Z" fill="#F6FEFF"/>
<path d="M7.74613 8.81358C7.94742 8.81358 8.11061 8.65039 8.11061 8.4491C8.09141 7.96563 7.40077 7.96577 7.38165 8.4491C7.38165 8.65039 7.54483 8.81358 7.74613 8.81358Z" fill="#F6FEFF"/>
<path d="M5.02527 7.42085H6.20352C6.43011 7.42085 6.61382 7.23715 6.61382 7.01055V6.96695C6.61382 5.58069 5.48601 4.45288 4.09974 4.45288H2.9215C2.6949 4.45288 2.5112 4.63659 2.5112 4.86318V4.90678C2.5112 6.29302 3.639 7.42085 5.02527 7.42085ZM4.09974 5.27348C4.90762 5.27348 5.58522 5.84218 5.75322 6.60025H5.02527C4.21739 6.60025 3.53979 6.03155 3.37179 5.27348H4.09974Z" fill="#F6FEFF"/>
<path d="M7.82983 7.42085H9.00808C10.3943 7.42085 11.5221 6.29305 11.5221 4.90678V4.86318C11.5221 4.63659 11.3384 4.45288 11.1118 4.45288H9.9336C8.54734 4.45288 7.41953 5.58069 7.41953 6.96695V7.01055C7.41953 7.23715 7.60324 7.42085 7.82983 7.42085ZM9.9336 5.27348H10.6616C10.4935 6.03155 9.81596 6.60025 9.00808 6.60025H8.28012C8.44815 5.84218 9.12572 5.27348 9.9336 5.27348Z" fill="#F6FEFF"/>
<path d="M6.02441 9.44299C5.48002 9.46468 5.48043 10.2421 6.02441 10.2636H6.35935C6.40787 10.2636 6.4535 10.2825 6.48783 10.3168L6.70865 10.5376C6.86889 10.6979 7.12866 10.6979 7.2889 10.5376L7.50969 10.3168C7.54405 10.2825 7.5897 10.2636 7.63823 10.2636H7.97888C8.52327 10.2419 8.52286 9.46447 7.97888 9.44299H7.63823C7.402 9.44299 7.17825 9.52418 6.99876 9.67334C6.81932 9.52418 6.59557 9.44299 6.35932 9.44299H6.02441Z" fill="#F6FEFF"/>
</svg>
