<svg width="16" height="17" viewBox="0 0 16 17" fill="none" xmlns="http://www.w3.org/2000/svg">
<path d="M10.3843 7.37957C10.3843 6.0592 9.31117 4.98501 7.99211 4.98501C4.81855 5.11651 4.81945 9.6431 7.99214 9.77413C9.31117 9.77413 10.3843 8.69995 10.3843 7.37957ZM7.99211 8.83663C7.18949 8.83663 6.53649 8.18301 6.53649 7.37957C6.61645 5.44657 9.36805 5.44713 9.44774 7.37957C9.44774 8.18301 8.79473 8.83663 7.99211 8.83663Z" fill="#F6FEFF"/>
<path d="M7.99211 6.91082C7.73348 6.91082 7.52383 7.1207 7.52383 7.37957C7.54851 8.00135 8.43583 8.0012 8.46042 7.37957C8.46039 7.1207 8.25073 6.91082 7.99211 6.91082Z" fill="#F6FEFF"/>
<path d="M14.1782 13.0552V12.4545C14.1782 11.6237 13.503 10.9477 12.673 10.9477H12.5804V3.07879C13.9085 2.54686 13.5614 0.58208 12.1121 0.556455C10.6625 0.582174 10.3159 2.54711 11.6438 3.07879V4.32548C10.9039 3.43892 9.79179 2.87386 8.5502 2.87386H7.43395C6.19233 2.87386 5.08024 3.43892 4.34037 4.32548V3.07408C5.66849 2.54211 5.32146 0.577299 3.87209 0.551674C2.42256 0.577424 2.0759 2.54236 3.40381 3.07404V10.9477H3.31121C2.48121 10.9477 1.80597 11.6237 1.80597 12.4545V13.058C0.78103 13.2401 0 14.1377 0 15.2151V16.0829C0 16.3418 0.209656 16.5517 0.46828 16.5517H15.5317C15.7903 16.5517 16 16.3418 16 16.0829V15.2151C16 14.1322 15.211 13.2307 14.1782 13.0552ZM12.1121 1.49395C12.3145 1.49395 12.4791 1.65873 12.4791 1.86133C12.4589 2.34873 11.7652 2.34858 11.7451 1.86133C11.7451 1.65873 11.9097 1.49395 12.1121 1.49395ZM3.87212 1.48917C4.07452 1.48917 4.23915 1.65398 4.23915 1.85658C4.21899 2.34398 3.52518 2.34386 3.50509 1.85658C3.50509 1.65402 3.66974 1.48917 3.87212 1.48917ZM13.2417 12.4545V13.0237H8.4683V11.8852H12.673C12.9865 11.8853 13.2417 12.1406 13.2417 12.4545ZM11.6438 13.9612V15.6142H4.3404V13.9612H11.6438ZM4.3404 6.908C4.3404 5.20051 5.72818 3.81135 7.43398 3.81135H8.55023C10.256 3.81135 11.6438 5.20051 11.6438 6.908V10.9478H4.3404V6.908ZM2.74256 12.4545C2.74256 12.1406 2.99765 11.8852 3.31121 11.8852H7.5317V13.0237H2.74256V12.4545ZM0.936561 15.2151C0.936561 14.5237 1.4985 13.9612 2.18925 13.9612H3.40381V15.6142H0.936561V15.2151ZM15.0634 15.6142H12.5804V13.9612H13.8108C14.5015 13.9612 15.0635 14.5237 15.0635 15.2151V15.6142H15.0634Z" fill="#F6FEFF"/>
</svg>
