<svg width="16" height="17" viewBox="0 0 16 17" fill="none" xmlns="http://www.w3.org/2000/svg">
<path d="M14.4007 6.32425H13.9347C13.4673 -1.37546 2.52884 -1.36959 2.06428 6.32425H1.59928C-0.533905 6.4128 -0.53228 9.45164 1.59928 9.53941H2.06259V10.6788C2.06259 12.1467 2.83011 13.4385 3.98483 14.1745V16.0497C3.98483 16.3089 4.19502 16.5191 4.45427 16.5191H11.5457C11.805 16.5191 12.0152 16.3089 12.0152 16.0497V14.1739C13.1693 13.4379 13.9365 12.1463 13.9365 10.6788V9.53941H14.4007C16.5339 9.45086 16.5323 6.41202 14.4007 6.32425ZM1.59928 8.60053C0.711928 8.56373 0.712615 7.29962 1.59928 7.26312H2.06259V8.60053H1.59928ZM11.0763 15.5803H4.9237V14.6181C5.32737 14.7497 5.75793 14.8212 6.20497 14.8212H9.79411C10.2415 14.8212 10.6724 14.7496 11.0763 14.6178V15.5803ZM12.9976 10.6788C12.9982 12.4483 11.5431 13.8872 9.79411 13.8823H6.20497C4.49489 13.8954 2.99062 12.4601 3.00146 10.6788C3.00146 9.56778 3.00149 7.56967 3.00146 6.45823C3.27664 -0.173471 12.7244 -0.169471 12.9976 6.45826C12.9976 6.45823 12.9976 10.6788 12.9976 10.6788ZM14.4007 8.60053H13.9364V7.26312H14.4007C15.2881 7.29996 15.2874 8.56404 14.4007 8.60053Z" fill="#F6FEFF"/>
<path d="M10.6239 10.7817H5.41845C4.7956 10.8065 4.79606 11.696 5.41845 11.7206H5.64651C5.67388 12.0055 5.75028 12.3589 5.94475 12.6536C6.08842 12.8718 6.38163 12.9286 6.5951 12.787C6.81151 12.6442 6.87119 12.353 6.72843 12.1366C6.65419 12.0241 6.61357 11.8692 6.59245 11.7206H9.47846C9.45753 11.8682 9.4171 12.0234 9.34236 12.1366C9.19956 12.353 9.25924 12.6442 9.47568 12.787C9.68915 12.9286 9.9824 12.8718 10.126 12.6536C10.3205 12.3589 10.3969 12.0055 10.4243 11.7206H10.6239C11.2468 11.6957 11.2463 10.8062 10.6239 10.7817Z" fill="#F6FEFF"/>
<path d="M8.00001 10.0284C8.43708 10.0284 8.83958 9.85565 9.07677 9.56616L9.1691 9.45345C9.33339 9.25292 9.30399 8.95711 9.10342 8.79285C8.90292 8.62859 8.60708 8.65797 8.44282 8.85853L8.35052 8.97117C8.22182 9.12712 7.7777 9.12675 7.64949 8.97124L7.55716 8.85853C7.3929 8.65797 7.09713 8.62856 6.89656 8.79285C6.696 8.95711 6.66659 9.25292 6.83089 9.45345L6.92325 9.56622C7.1604 9.85562 7.56291 10.0284 8.00001 10.0284Z" fill="#F6FEFF"/>
<path d="M8.1344 3.32809C8.01954 3.31771 7.90137 3.3209 7.78757 3.33609C5.77578 3.47522 4.58594 5.20365 4.53426 5.28017C4.43458 5.42783 4.42712 5.61922 4.51498 5.77423C4.56382 5.86043 5.71316 7.8437 7.89774 7.93006C7.90265 7.93037 7.90761 7.93044 7.91255 7.93069C7.92827 7.93125 7.94402 7.93175 7.95983 7.93209C7.97801 7.93262 7.99623 7.93387 8.01447 7.93287C10.2908 7.96799 11.4596 5.84556 11.4932 5.75926C11.5697 5.612 11.5628 5.43527 11.475 5.29445C11.4256 5.21521 10.2563 3.37867 8.1344 3.32809ZM8.96969 5.62762C8.96969 6.36043 8.53522 6.98038 8.01713 6.99381C7.99373 6.99356 7.97045 6.99306 7.94736 6.99222C6.75961 6.82415 6.72671 4.52896 7.88671 4.27093C7.95183 4.26721 8.01888 4.26437 8.085 4.26662C8.57259 4.32961 8.96969 4.92703 8.96969 5.62762ZM5.50475 5.56482C5.65192 5.3959 5.88033 5.16153 6.17788 4.93828C6.06789 5.35928 6.06305 5.83865 6.16435 6.26288C5.86623 6.01351 5.64417 5.75101 5.50475 5.56482ZM9.97818 6.18351C9.92644 6.23207 9.87382 6.27772 9.82083 6.32196C9.94106 5.86634 9.93709 5.34316 9.80958 4.89044C10.128 5.12928 10.3648 5.38678 10.51 5.56507C10.3961 5.72967 10.2182 5.95823 9.97818 6.18351Z" fill="#F6FEFF"/>
<path d="M7.66805 5.29817C7.48473 5.48149 7.48473 5.77873 7.66805 5.96205C7.85137 6.14537 8.14861 6.14537 8.33193 5.96205C8.75478 5.50423 8.12562 4.87541 7.66805 5.29817Z" fill="#F6FEFF"/>
</svg>
