<svg width="16" height="17" viewBox="0 0 16 17" fill="none" xmlns="http://www.w3.org/2000/svg">
<g id="Group">
<path id="Vector" d="M7.09662 7.44602C6.98427 7.35713 6.83742 7.32452 6.69805 7.35748C5.735 7.58509 4.71691 7.58509 3.75386 7.35748C3.61448 7.32445 3.46761 7.35717 3.35529 7.44602C3.24294 7.53494 3.17742 7.67032 3.17742 7.81357C3.17742 8.3772 3.35442 8.90849 3.67582 9.30959C4.05002 9.77656 4.60053 10.0338 5.22595 10.0338C6.57082 10.0338 7.27449 8.91687 7.27449 7.81357C7.27449 7.67032 7.20897 7.53494 7.09662 7.44602ZM5.22592 9.09642C4.90721 9.09642 4.41806 8.93524 4.21176 8.39551C4.87987 8.48814 5.56135 8.48858 6.22958 8.39694C6.08883 8.76221 5.79068 9.09642 5.22592 9.09642Z" fill="#F6FEFF"/>
<path id="Vector_2" d="M12.6443 7.44601C12.532 7.35713 12.3851 7.32454 12.2457 7.35747C11.2827 7.58508 10.2646 7.58508 9.30153 7.35747C9.16231 7.32448 9.01531 7.35713 8.90293 7.44601C8.79058 7.53493 8.72509 7.67031 8.72509 7.81356C8.70703 8.99678 9.5532 10.0548 10.7737 10.0337C12.1185 10.0337 12.8222 8.91683 12.8222 7.81356C12.8222 7.67031 12.7567 7.53493 12.6443 7.44601ZM10.7736 9.09641C10.4549 9.09641 9.96576 8.93523 9.75946 8.3955C10.4275 8.48804 11.1091 8.48857 11.7773 8.39694C11.6365 8.7622 11.3383 9.09641 10.7736 9.09641Z" fill="#F6FEFF"/>
<path id="Vector_3" d="M10.0483 4.46877C10.0483 4.32552 9.98279 4.19011 9.87044 4.10122C9.75812 4.01237 9.61124 3.97972 9.47187 4.01268C8.50885 4.24029 7.49076 4.24029 6.52771 4.01268C6.38827 3.97972 6.24146 4.01237 6.12911 4.10122C6.01676 4.19011 5.95124 4.32552 5.95124 4.46877C5.95124 5.0324 6.12827 5.56372 6.44967 5.96479C6.82387 6.43176 7.37438 6.68895 7.9998 6.68895C9.34467 6.68895 10.0483 5.57204 10.0483 4.46877ZM7.9998 5.75165C7.68109 5.75165 7.19191 5.5905 6.98565 5.05074C7.65375 5.14338 8.33523 5.14381 9.00343 5.05221C8.86265 5.41744 8.56453 5.75165 7.9998 5.75165Z" fill="#F6FEFF"/>
<path id="Vector_4" d="M7.99977 3.25011C8.25859 3.25011 8.46842 3.04028 8.46842 2.78146C8.44374 2.15981 7.55571 2.15996 7.53112 2.78146C7.53112 3.04031 7.74095 3.25011 7.99977 3.25011Z" fill="#F6FEFF"/>
<path id="Vector_5" d="M5.22593 6.68896C5.48475 6.68896 5.69458 6.47913 5.69458 6.22031C5.6699 5.59866 4.78187 5.59882 4.75728 6.22031C4.75728 6.47913 4.96711 6.68896 5.22593 6.68896Z" fill="#F6FEFF"/>
<path id="Vector_6" d="M10.7736 6.68896C11.0324 6.68896 11.2423 6.47913 11.2423 6.22031C11.2176 5.59866 10.3296 5.59882 10.305 6.22031C10.305 6.47913 10.5148 6.68896 10.7736 6.68896Z" fill="#F6FEFF"/>
<path id="Vector_7" d="M15.5304 12.1651C15.9002 11.5149 15.956 10.7389 15.6914 10.0481C15.892 9.56382 15.9966 9.04368 15.9966 8.51126C16.0852 4.21249 12.298 0.424793 7.99896 0.513774C3.70038 0.42495 -0.0875046 4.21246 0.00153897 8.51135C-0.0013979 9.04002 0.0985496 9.55838 0.293758 10.0406C0.0262212 10.7331 0.081022 11.512 0.452068 12.1644C0.76722 12.6543 0.796932 13.2892 0.502745 13.7959C0.0633695 14.5608 0.0640257 15.5107 0.504494 16.275C0.634467 16.5013 0.92428 16.5751 1.14455 16.447C1.36881 16.3178 1.44583 16.0312 1.31657 15.807C1.04219 15.3309 1.04179 14.7392 1.31548 14.2628C1.75201 13.5029 1.75401 12.5576 1.3207 11.7958L1.26677 11.701C1.19575 11.5761 1.14401 11.4437 1.1103 11.3078C1.51337 11.7321 2.00377 12.0635 2.5549 12.2793C2.65904 12.3201 2.76604 12.3476 2.87383 12.3626C2.78298 14.3459 3.878 15.7519 5.47725 16.4285C5.59007 16.4839 5.7097 16.5112 5.82811 16.5112C6.00829 16.5112 6.18572 16.4481 6.33232 16.3255C6.57192 16.1249 6.67099 15.8011 6.5847 15.5005C6.37853 14.7824 6.2264 13.8074 6.51568 12.9194C7.35922 13.5773 8.64257 13.5673 9.48158 12.8992C9.77986 13.7925 9.62708 14.777 9.41935 15.5005C9.23045 16.1549 9.91727 16.7339 10.5268 16.4285C12.1408 15.7965 13.2598 14.1708 13.1302 12.331C13.2516 12.316 13.3723 12.2852 13.4896 12.2375C14.0161 12.0237 14.4857 11.7035 14.8747 11.2979C14.8412 11.4375 14.7885 11.5736 14.7157 11.7017L14.6617 11.7966C14.2284 12.5583 14.2304 13.5036 14.6669 14.2635C14.9406 14.74 14.9402 15.3317 14.6659 15.8077C14.5366 16.032 14.6136 16.3186 14.8379 16.4478C15.0581 16.5759 15.348 16.5021 15.4779 16.2758C15.9184 15.5115 15.9191 14.5616 15.4797 13.7966C15.2078 13.3233 15.2065 12.7345 15.4764 12.26L15.5304 12.1651ZM5.59966 12.7086C5.14816 12.5732 4.64892 12.5973 4.12638 12.7836C4.01665 12.8227 3.91402 12.8662 3.81966 12.9108C3.81417 12.8365 3.8112 12.7619 3.8112 12.6871V12.157L4.03815 12.0238C4.60734 11.6899 5.3151 11.7665 5.7978 12.1916C5.71976 12.3573 5.65368 12.5297 5.59966 12.7086ZM5.49734 15.394C4.99091 15.1453 4.56554 14.7606 4.26719 14.2817C4.18102 14.1433 4.10698 13.9988 4.04468 13.8498C4.44403 13.6111 5.0255 13.461 5.43063 13.6436C5.39055 14.204 5.44679 14.8081 5.60069 15.4448L5.49734 15.394ZM12.193 12.6871C12.193 12.7618 12.1901 12.8362 12.1846 12.9103C12.0905 12.8659 11.9882 12.8226 11.8789 12.7836C11.356 12.5971 10.8564 12.5732 10.4046 12.7089C10.3512 12.532 10.286 12.3613 10.209 12.1973C10.733 11.6989 11.5554 11.643 12.1417 12.0727C12.1585 12.085 12.1758 12.0963 12.193 12.1078V12.6871ZM11.737 14.2817C11.4387 14.7606 11.0133 15.1453 10.5069 15.394L10.4035 15.4448C10.5574 14.8083 10.6136 14.2044 10.5736 13.644C10.8549 13.5295 11.1795 13.5339 11.5422 13.6588C11.703 13.7142 11.8459 13.7848 11.9597 13.8493C11.8974 13.9985 11.8232 14.1432 11.737 14.2817ZM13.137 11.369C12.988 11.4296 12.8231 11.41 12.6958 11.3167C12.2228 10.97 11.6403 10.8046 11.0557 10.8511C10.4711 10.8976 9.92208 11.1529 9.50976 11.5699L9.0597 12.025C8.45914 12.6492 7.388 12.6115 6.8368 11.9418L6.66546 11.7404C5.89075 10.8284 4.57953 10.6172 3.56387 11.2153L3.29059 11.3757C3.17036 11.4462 3.0269 11.4574 2.89683 11.4065C1.73526 10.9658 0.924749 9.7783 0.938839 8.53457V8.51126C0.945463 2.24259 8.55703 -0.907142 12.9915 3.51888C14.325 4.85241 15.0594 6.62541 15.0594 8.51129C15.0594 8.97075 14.9589 9.41147 14.7753 9.8093C14.7627 9.83079 14.7523 9.85332 14.7433 9.87644C14.4171 10.5402 13.8555 11.0772 13.137 11.369Z" fill="#F6FEFF"/>
</g>
</svg>
