<svg width="16" height="17" viewBox="0 0 16 17" fill="none" xmlns="http://www.w3.org/2000/svg">
<g id="Group">
<path id="Vector" d="M5.49114 7.58799C5.77311 7.58799 6.00167 7.35939 6.00167 7.07742C5.97479 6.40021 5.00736 6.40039 4.98058 7.07742C4.98058 7.35942 5.20917 7.58799 5.49114 7.58799Z" fill="#F6FEFF"/>
<path id="Vector_2" d="M10.4855 7.58799C10.7675 7.58799 10.9961 7.35939 10.9961 7.07742C10.9692 6.40021 10.0018 6.40039 9.97501 7.07742C9.97498 7.35942 10.2036 7.58799 10.4855 7.58799Z" fill="#F6FEFF"/>
<path id="Vector_3" d="M14.3797 6.42121H13.9161V5.03871C13.9161 2.54452 11.8869 0.515335 9.39273 0.515335H6.64551C4.11686 0.515335 2.05961 2.57255 2.05961 5.10121V6.42121H1.59695C-0.533144 6.50965 -0.531488 9.54402 1.59695 9.63165H2.10626C2.34029 11.4907 3.4387 13.0842 4.98489 13.9964V16.0466C4.98489 16.3055 5.19476 16.5153 5.45364 16.5153H10.523C10.7819 16.5153 10.9918 16.3055 10.9918 16.0466V13.9959C12.5374 13.0836 13.6355 11.4903 13.8694 9.63168H14.3797C16.5098 9.54324 16.5081 6.50884 14.3797 6.42121ZM2.9992 6.84759C3.04373 5.57018 4.08848 4.52068 5.37767 4.4583C6.27164 4.41543 7.12323 4.85834 7.60048 5.61515C7.77792 5.90471 8.21607 5.90465 8.39345 5.61515C8.85764 4.87909 9.65357 4.44437 10.5215 4.45549C11.8319 4.47043 12.9543 5.58987 12.9726 6.90002C12.9819 7.56965 12.7284 8.20074 12.2587 8.67705C11.1781 9.81224 9.20557 9.59834 8.39345 8.25605C8.21601 7.96649 7.77786 7.96655 7.60048 8.25605C6.77529 9.6184 4.77473 9.80868 3.69357 8.64652C3.22236 8.15859 2.97576 7.51971 2.9992 6.84759ZM4.06923 2.52496C4.76061 1.83359 5.67554 1.45284 6.64551 1.45284H9.39273C11.2172 1.45284 12.7277 2.82246 12.9503 4.58749C12.9314 4.5678 12.9123 4.54827 12.8929 4.5289C12.2493 3.88702 11.4109 3.52802 10.5322 3.51799C9.55514 3.5064 8.64495 3.90305 7.99595 4.60068C7.3167 3.87662 6.34379 3.47299 5.33239 3.52187C4.47332 3.56343 3.66511 3.92243 3.05657 4.53277C3.05051 4.53887 3.04464 4.54508 3.03864 4.55118C3.15448 3.78902 3.51026 3.0839 4.06923 2.52496ZM0.929231 8.02643C0.929231 7.65824 1.22876 7.35871 1.59698 7.35871H2.05964V8.69415H1.59695C1.22876 8.69418 0.929231 8.39465 0.929231 8.02643ZM10.0543 15.5778H5.92239V14.4437C7.19595 14.9356 8.78079 14.9355 10.0543 14.4434V15.5778ZM7.98786 13.8777C5.37223 13.8777 3.22036 11.8551 3.01361 9.2918C3.01551 9.29377 3.01732 9.2958 3.01923 9.29777C4.33326 10.7017 6.71589 10.6965 7.99698 9.27118C9.27276 10.6895 11.6604 10.7119 12.9615 9.29855C12.7515 11.8586 10.6012 13.8777 7.98786 13.8777ZM14.3797 8.69418H13.9161V7.35874H14.3797C15.2658 7.39549 15.2651 8.65774 14.3797 8.69418Z" fill="#F6FEFF"/>
</g>
</svg>
