<svg width="16" height="17" viewBox="0 0 16 17" fill="none" xmlns="http://www.w3.org/2000/svg">
<path d="M9.82612 8.36458C9.56744 8.36458 9.35772 8.5743 9.35772 8.83299C9.38238 9.4543 10.2699 9.45414 10.2945 8.83299C10.2945 8.57427 10.0848 8.36458 9.82612 8.36458Z" fill="#F6FEFF"/>
<path d="M13.1648 2.76753C11.7487 1.35147 9.86599 0.571594 7.86337 0.571594H6.62046C5.88603 0.571594 5.2885 1.16912 5.2885 1.90356V2.43844C3.376 2.67053 1.88938 4.30375 1.88938 6.27784V7.08768H1.5036C-0.501964 7.17093 -0.500433 10.028 1.5036 10.1105H1.91713C2.10188 11.9454 3.196 13.5158 4.74065 14.3633V16.1028C4.74065 16.3617 4.95053 16.5716 5.2094 16.5716H9.52518C9.78405 16.5716 9.99393 16.3617 9.99393 16.1028V14.3628C10.7617 13.9414 11.4183 13.3414 11.907 12.619V16.1028C11.907 16.2986 12.0286 16.4737 12.2121 16.5421C12.3931 16.61 12.6018 16.5584 12.7302 16.4095C15.0905 13.5073 17.0076 6.33846 13.1648 2.76753ZM0.92969 8.59908C0.92969 8.28265 1.18713 8.02518 1.5036 8.02518H1.88938V9.17299H1.5036C1.18713 9.17299 0.92969 8.91552 0.92969 8.59908ZM2.82684 8.02518H6.08978V9.17299H2.82684V8.02518ZM9.05643 15.6341H5.67815V14.7684C6.73274 15.1219 8.00193 15.1217 9.05643 14.7681V15.6341ZM7.36687 14.0976C5.05065 14.0976 3.13422 12.354 2.86059 10.1105H6.55853C6.8174 10.1105 7.02728 9.90061 7.02728 9.64174V7.55643C7.02728 7.29755 6.8174 7.08768 6.55853 7.08768H2.82684V6.27784C2.82684 4.82153 3.89478 3.61009 5.28859 3.38509C5.26462 4.82196 6.46953 6.10681 7.90396 6.18296C10.1284 6.34396 11.8944 7.23843 11.9064 9.5929C11.8874 12.08 9.85843 14.0976 7.36687 14.0976ZM13.2243 13.7763C13.096 14.0575 12.9674 14.3111 12.8445 14.536V9.64174C12.8445 9.6249 12.8441 9.6083 12.844 9.59155C12.8441 9.57371 12.8449 9.5558 12.8434 9.53799C12.7979 6.9914 11.0717 5.46928 7.97074 5.24784C6.99237 5.17796 6.226 4.35781 6.226 3.38068V1.90356C6.226 1.68606 6.40296 1.50909 6.62046 1.50909H7.86337C11.4805 1.50909 14.4232 4.45181 14.4232 8.06896C14.4232 10.6132 13.7712 12.577 13.2243 13.7763Z" fill="#F6FEFF"/>
<path d="M8.26257 11.4073C7.78144 11.6951 6.8516 11.6475 6.46669 11.4041C6.24119 11.2771 5.95529 11.3568 5.8282 11.5823C5.7011 11.8079 5.78085 12.0937 6.00638 12.2209C6.26876 12.3687 6.71635 12.545 7.35869 12.545C7.88241 12.545 8.37075 12.4288 8.73375 12.2177C8.95757 12.0876 9.0335 11.8007 8.90341 11.5769C8.77328 11.3531 8.48632 11.2771 8.26257 11.4073Z" fill="#F6FEFF"/>
</svg>
