<svg width="16" height="17" viewBox="0 0 16 17" fill="none" xmlns="http://www.w3.org/2000/svg">
<g id="Group">
<path id="Vector" d="M5.20874 7.08011C4.92705 7.08011 4.69868 7.30848 4.69868 7.59017C4.72555 8.26676 5.69205 8.26658 5.7188 7.59017C5.7188 7.30848 5.49043 7.08011 5.20874 7.08011Z" fill="#F6FEFF"/>
<path id="Vector_2" d="M10.6668 7.08011C10.3851 7.08011 10.1568 7.30848 10.1568 7.59017C10.1836 8.26676 11.1501 8.26658 11.1769 7.59017C11.1769 7.30848 10.9485 7.08011 10.6668 7.08011Z" fill="#F6FEFF"/>
<path id="Vector_3" d="M15.7474 5.14388C15.6042 5.05975 15.4273 5.05772 15.2822 5.13851L14.1084 5.79226C14.4082 4.92516 14.7769 3.30658 14.1638 1.63713C13.8899 0.897215 13.4125 0.485742 12.8281 0.505273C12.6412 0.512336 12.4526 0.570743 12.2826 0.674119L10.0011 2.06157C8.78115 2.80351 7.26833 2.7992 6.05269 2.05057L3.83164 0.649806C3.80329 0.631931 3.77307 0.617149 3.74157 0.605712C3.36488 0.469023 2.96435 0.491679 2.61366 0.669462C2.26134 0.848027 2.00502 1.15962 1.89187 1.54681C1.31302 3.52746 1.55886 4.97072 1.82224 5.77107L0.69773 5.13935C0.392133 4.96266 -0.00433915 5.19479 3.58938e-05 5.54763V8.33479C3.58938e-05 9.63593 0.870076 10.6873 2.05365 10.9144C1.99115 11.6872 1.70637 12.4373 1.23574 13.0556L1.15198 13.1656C1.0443 13.3071 1.02601 13.4973 1.1048 13.6567C1.18355 13.8162 1.3458 13.9172 1.52358 13.9176L4.08489 13.9233V16.0363C4.08489 16.295 4.29458 16.5046 4.55321 16.5046H11.4113C11.67 16.5046 11.8797 16.295 11.8797 16.0363V13.9233L14.4369 13.9176C14.6147 13.9172 14.7769 13.8162 14.8556 13.6568C14.9344 13.4974 14.9162 13.3071 14.8085 13.1656L14.7247 13.0556C14.2636 12.4498 13.9813 11.7174 13.9113 10.9611C15.1373 10.7571 15.9956 9.61008 15.9784 8.36319V5.54767C15.9784 5.38163 15.8905 5.22801 15.7474 5.14388ZM10.943 11.5038V13.1988C10.2297 13.6296 9.40988 13.8741 8.65893 13.8741H7.31861C6.49829 13.8741 5.70781 13.6432 5.01743 13.2057V11.5007C5.01743 11.0485 4.84136 10.6235 4.52164 10.3037L3.00332 8.78542L3.00278 6.72793C3.00325 6.7163 3.00316 6.70474 3.00278 6.69318L3.00272 6.45724L4.63808 5.07029C4.91596 4.89003 5.25749 4.83413 5.57906 4.91703L7.25176 5.34848L6.92426 6.07252C6.81766 6.30817 6.92232 6.58561 7.15795 6.69221C7.38805 6.79793 7.67083 6.69658 7.77764 6.45852L7.97846 6.01455L8.18174 6.46402C8.28852 6.70208 8.57131 6.80343 8.80143 6.69771C9.03709 6.59111 9.14172 6.31367 9.03512 6.07801L8.70946 5.35801L10.4875 4.91428C10.8129 4.83316 11.1562 4.89335 11.4341 5.07941L12.9569 6.43714V8.78595L11.4441 10.3017C11.1257 10.6173 10.943 11.0555 10.943 11.5038ZM2.79088 1.80954C2.83066 1.67338 2.91813 1.56519 3.03713 1.50485C3.14244 1.4515 3.26322 1.44063 3.38132 1.47316L5.55506 2.84408C5.5564 2.84492 5.55775 2.84576 5.55909 2.84658C7.03398 3.77349 9.00669 3.77959 10.4878 2.8618L12.7693 1.47435C12.8028 1.454 12.8362 1.44225 12.8634 1.44119C13.0244 1.43744 13.1874 1.69828 13.2846 1.95997C13.7845 3.32139 13.4867 4.68597 13.2383 5.43307L12.0353 4.36047C12.0217 4.34831 12.0073 4.33697 11.9923 4.3265C11.4886 3.97353 10.8575 3.85652 10.2608 4.00546C7.40555 4.70353 8.50403 4.67347 5.813 4.01003C5.22402 3.85812 4.59739 3.96649 4.09367 4.3074C4.07964 4.31687 4.06614 4.32712 4.05323 4.33806L2.70912 5.4781C2.4954 4.83153 2.27231 3.58396 2.79088 1.80954ZM0.93667 8.33479V6.34789L2.06621 6.98243L2.06687 9.55911V9.95546C1.39849 9.75368 0.93667 9.12392 0.93667 8.33479ZM4.08079 12.9866L2.39431 12.9829C2.79044 12.2522 3.0035 11.4253 3.0035 10.5914V10.5018C3.00403 10.4954 3.00403 10.4889 3.0035 10.4825V10.1102L3.85929 10.966C4.00211 11.1088 4.08076 11.2987 4.08076 11.5006V12.9866H4.08079ZM5.02152 14.2804C5.73378 14.629 6.51441 14.8107 7.31858 14.8107H8.6589C9.40788 14.8107 10.2079 14.6155 10.943 14.2625V15.568H5.02152V14.2804ZM11.8797 12.9866V11.5039C11.8797 11.3036 11.9612 11.1079 12.1053 10.9651L12.957 10.1118V10.5914C12.957 11.4254 13.17 12.2522 13.5662 12.9829L11.8797 12.9866ZM15.0418 8.36316C15.0418 9.16939 14.5711 9.8104 13.8936 10.0043V8.97954C13.8936 8.97876 13.8935 8.97798 13.8935 8.9772V6.98396L15.0418 6.34449V8.36316Z" fill="#F6FEFF"/>
<path id="Vector_4" d="M9.78375 10.5138H6.19472C5.57337 10.5385 5.57384 11.4259 6.19472 11.4504H6.22544C6.25566 11.6373 6.31681 11.8468 6.43691 12.0288C6.58025 12.2464 6.87276 12.303 7.08573 12.1617C7.3016 12.0193 7.36114 11.7288 7.21867 11.5129C7.20692 11.4951 7.19673 11.4738 7.1877 11.4504H8.81037C8.80137 11.4737 8.79121 11.4951 8.7794 11.513C8.63696 11.7288 8.69649 12.0193 8.9124 12.1617C8.99184 12.2142 9.08134 12.2392 9.16987 12.2392C9.57166 12.2457 9.72016 11.7601 9.77263 11.4504H9.78375C10.4051 11.4256 10.4046 10.5383 9.78375 10.5138Z" fill="#F6FEFF"/>
<path id="Vector_5" d="M7.02972 9.12567C7.44957 9.88155 8.58419 9.88136 9.00388 9.12567L9.07913 8.99533C9.20847 8.77133 9.13169 8.48492 8.90772 8.35561C8.68363 8.2263 8.39729 8.30305 8.26801 8.52705L8.19276 8.65736C8.11222 8.79423 7.92157 8.79442 7.84085 8.65736L7.7656 8.52701C7.63626 8.30298 7.34988 8.22633 7.12588 8.35558C6.90191 8.48489 6.82513 8.7713 6.95447 8.9953L7.02972 9.12567Z" fill="#F6FEFF"/>
</g>
</svg>
