<svg width="15" height="14" viewBox="0 0 15 14" fill="none" xmlns="http://www.w3.org/2000/svg">
<path d="M14.0012 6.47117C13.99 6.37224 13.9501 6.2634 13.8445 6.18131C13.8066 6.15175 12.9779 5.51364 11.8175 5.24975L11.8174 4.81158C11.8169 2.15849 9.65803 3.85907e-05 7.00491 3.85907e-05C4.20517 -0.0111299 2.01188 2.40348 2.19238 5.17951C0.87403 5.42774 0.155906 6.1916 0.123386 6.22686C0.0757283 6.28166 0.0231706 6.36502 0.0161903 6.47117C-0.0400354 7.30172 -0.0520524 9.90743 1.79852 11.1535C2.3748 11.6053 2.79118 11.9317 2.79118 13.5894C2.79118 13.8162 2.97502 14 3.20179 14H10.8155C11.0423 14 11.2261 13.8162 11.2261 13.5894C11.2261 11.9317 11.6425 11.6053 12.2188 11.1535C14.0766 9.90412 14.0564 7.27758 14.0012 6.47117ZM7.59426 10.4856V11.2897C7.25053 11.3447 6.75425 11.3444 6.42311 11.2926V10.4856C6.42311 10.2664 6.39562 10.0525 6.34443 9.84666C6.51757 9.82104 6.74984 9.80152 7.01805 9.80245C7.28051 9.80308 7.4981 9.8235 7.67206 9.85025C7.62142 10.055 7.59426 10.2676 7.59426 10.4856ZM6.42311 12.1215C6.76624 12.1625 7.24101 12.1633 7.59426 12.1187V13.1788H6.42311V12.1215ZM8.00104 9.07491C7.75295 9.02372 7.42737 8.98222 7.01996 8.98124C6.65833 8.98022 6.30887 9.01181 6.01395 9.07105C5.6138 8.43269 4.94665 7.95242 4.13006 7.77118C3.8203 7.70242 3.48031 7.61608 3.13341 7.50894C3.06273 7.20865 3.02662 6.89982 3.02687 6.58806L3.02043 5.96977L3.78227 6.01532C4.19795 7.43388 6.2146 7.38359 6.55874 5.94543C6.85468 5.88031 7.16274 5.88031 7.45866 5.94543C7.80118 7.37787 9.80596 7.43503 10.2315 6.02807L10.9964 6.01096L10.9965 6.59236C10.9965 6.90201 10.9605 7.20865 10.8905 7.50694C10.5413 7.61501 10.199 7.70201 9.88734 7.77118C9.06908 7.95283 8.40092 8.43464 8.00104 9.07491ZM2.19966 6.01625L2.20568 6.5946C2.20576 6.79311 2.21871 6.99056 2.24286 7.1862C1.81027 7.0025 1.39835 6.78113 1.05442 6.51516C1.30117 6.34479 1.68547 6.13486 2.19966 6.01625ZM4.5491 5.62529C4.5491 5.28758 4.82385 5.01283 5.16156 5.01283C5.97404 5.04648 5.97382 6.20422 5.16156 6.23773C4.82385 6.23773 4.5491 5.96301 4.5491 5.62529ZM8.24335 5.62529C8.24335 5.28758 8.5181 5.01283 8.85581 5.01283C9.66829 5.04648 9.66808 6.20422 8.85581 6.23773C8.5181 6.23773 8.24335 5.96301 8.24335 5.62529ZM11.8176 6.09662C12.2611 6.21925 12.6411 6.40189 12.9107 6.55436C12.5793 6.8016 12.1896 7.0095 11.7808 7.18352C11.8048 6.98802 11.8177 6.79071 11.8177 6.59238L11.8176 6.09662ZM7.00493 0.821252C9.20532 0.821252 10.9958 2.61139 10.9963 4.81175L10.9963 5.18959L10.227 5.2068C9.82449 3.90543 7.99841 3.84819 7.51447 5.11976C7.18021 5.06101 6.83719 5.06101 6.5029 5.11976C6.02137 3.85386 4.20657 3.90362 3.79451 5.19339L3.01359 5.14672V4.81257C3.01359 2.61174 4.80411 0.821252 7.00493 0.821252ZM3.22191 11.5032C2.74779 10.6142 2.02302 10.4952 1.4869 9.6842C1.02155 8.98592 0.876466 8.04098 0.836747 7.3695C1.31899 7.69056 1.91089 7.96926 2.60876 8.20401C2.64637 8.22323 2.68691 8.23672 2.72907 8.24365C3.10699 8.36596 3.51478 8.47583 3.95216 8.5729C4.92351 8.7885 5.60192 9.57503 5.60192 10.4856V13.1788H3.60339C3.57043 12.4673 3.44695 11.9283 3.22191 11.5032ZM12.5305 9.68417C12.2773 10.0641 12.0028 10.2793 11.7122 10.5072C10.8191 11.1427 10.4634 11.9189 10.414 13.1788H8.41548V10.4856C8.41548 9.57503 9.09388 8.7885 10.0653 8.5729C11.3715 8.28296 12.4152 7.87936 13.1817 7.36881C13.1425 8.03925 12.9976 8.98321 12.5305 9.68417Z" fill="#F6FEFF"/>
</svg>
