<svg width="16" height="17" viewBox="0 0 16 17" fill="none" xmlns="http://www.w3.org/2000/svg">
<g id="Group">
<path id="Vector" d="M4.40112 5.16704C3.08079 5.16704 2.00665 6.24119 2.00665 7.56151C2.13817 10.7381 6.66454 10.7372 6.79556 7.56148C6.79556 6.24119 5.72141 5.16704 4.40112 5.16704ZM4.40112 9.01852C3.59771 9.01852 2.94411 8.36492 2.94411 7.56151C3.02414 5.62861 5.77835 5.62915 5.8581 7.56151C5.8581 8.36492 5.2045 9.01852 4.40112 9.01852Z" fill="#F6FEFF"/>
<path id="Vector_2" d="M4.40109 7.09277C4.14222 7.09277 3.93236 7.30264 3.93236 7.56151C3.95704 8.18326 4.84523 8.18311 4.86982 7.56151C4.86982 7.30264 4.65999 7.09277 4.40109 7.09277Z" fill="#F6FEFF"/>
<path id="Vector_3" d="M11.528 9.95598C12.8484 9.95598 13.9225 8.88183 13.9225 7.56151C13.791 4.38491 9.26459 4.38584 9.13357 7.56154C9.13357 8.88183 10.2077 9.95598 11.528 9.95598ZM11.528 6.1045C12.3314 6.1045 12.985 6.7581 12.985 7.56151C12.905 9.49444 10.1507 9.49387 10.071 7.56151C10.071 6.7581 10.7246 6.1045 11.528 6.1045Z" fill="#F6FEFF"/>
<path id="Vector_4" d="M11.528 8.03024C11.7869 8.03024 11.9968 7.82037 11.9968 7.56151C11.9721 6.93975 11.0839 6.9399 11.0593 7.56151C11.0593 7.8204 11.2692 8.03024 11.528 8.03024Z" fill="#F6FEFF"/>
<path id="Vector_5" d="M6.5051 9.74593C6.28927 9.88886 6.23017 10.1797 6.37307 10.3956C6.69413 10.8804 7.28701 11.1584 7.9997 11.1584C8.8273 11.1584 9.32078 10.7036 9.5413 10.4325C9.70467 10.2317 9.67426 9.93649 9.47343 9.77312C9.27265 9.60975 8.97738 9.64006 8.81401 9.84099C8.69861 9.98289 8.43931 10.2209 7.99967 10.2209C7.442 10.2209 7.22298 9.98108 7.1547 9.87793C7.01177 9.66215 6.72094 9.60303 6.5051 9.74593Z" fill="#F6FEFF"/>
<path id="Vector_6" d="M10.2423 12.8169H12.0965C14.2489 12.8169 16 11.0658 16 8.91339V5.73036C16 4.46028 14.9667 3.427 13.6966 3.427H12.7932V2.90527C12.7685 2.28336 11.8803 2.28383 11.8558 2.90527V3.42697H9.57308C9.48512 2.81456 9.04707 2.3137 8.46872 2.13477V0.981595C8.44394 0.359681 7.55578 0.360149 7.53125 0.981595V2.13465C6.95262 2.31342 6.51432 2.81437 6.42632 3.427H4.02651V2.90527C4.00173 2.28336 3.11357 2.28383 3.08904 2.90527V3.42697H2.30332C1.03324 3.427 0 4.46028 0 5.73036V8.91339C0 11.0658 1.75109 12.8169 3.90348 12.8169H5.7571V13.1235C5.7571 13.2768 5.77266 13.4266 5.8021 13.5713H2.9437C1.58054 13.5713 0.471545 14.6803 0.471545 16.0435C0.471545 16.3024 0.681412 16.5122 0.940278 16.5122H15.0591C15.318 16.5122 15.5279 16.3024 15.5279 16.0435C15.5279 14.6803 14.4188 13.5713 13.0557 13.5713H10.1973C10.2268 13.4266 10.2423 13.2768 10.2423 13.1235V12.8169ZM7.9997 3.00158C8.27963 3.00158 8.51896 3.17883 8.61137 3.42697H7.38804C7.48044 3.17883 7.71978 3.00158 7.9997 3.00158ZM0.937465 8.91339V5.73036C0.937465 4.9772 1.55016 4.36447 2.30332 4.36447H7.53125V5.99906C7.55603 6.62098 8.44419 6.62051 8.46872 5.99906V4.36447H13.6966C14.4498 4.36447 15.0625 4.9772 15.0625 5.73036V8.91339C15.0625 10.5489 13.732 11.8794 12.0965 11.8794H3.90348C2.26801 11.8794 0.937465 10.5489 0.937465 8.91339ZM9.30484 12.8169V13.1235C9.23294 14.8554 6.76584 14.854 6.69459 13.1235V12.8169H9.30484ZM13.0557 14.5088C13.7385 14.5088 14.3186 14.9571 14.5172 15.5748H1.48219C1.68078 14.9571 2.26092 14.5088 2.94373 14.5088H6.23814C7.10852 15.6453 8.89139 15.6449 9.76132 14.5088H13.0557Z" fill="#F6FEFF"/>
</g>
</svg>
