<svg width="16" height="17" viewBox="0 0 16 17" fill="none" xmlns="http://www.w3.org/2000/svg">
<g id="Group">
<path id="Vector" d="M8.84103 11.4844C8.47812 11.6224 7.55375 11.6306 7.15878 11.4831C6.55987 11.314 6.28556 12.1591 6.86881 12.3746C7.36828 12.5652 8.55425 12.5923 9.13937 12.3732C9.38475 12.2908 9.51684 12.025 9.43447 11.7796C9.35212 11.5342 9.0864 11.4019 8.84103 11.4844Z" fill="#F6FEFF"/>
<path id="Vector_2" d="M4.46238 16.5046H11.5417C11.5865 16.5004 11.6485 16.4898 11.7174 16.4618C11.7768 16.4378 11.823 16.4083 11.856 16.3835L15.8458 12.7751C16.1621 12.4881 15.9583 11.9592 15.5315 11.9586H13.3442C13.5389 11.582 13.6894 11.179 13.7888 10.7565C14.3231 10.6761 14.821 10.4312 15.2199 10.0468C15.723 9.56219 16 8.92103 16 8.24144V5.35259C16 5.18613 15.9117 5.03209 15.7681 4.948C15.6244 4.86397 15.447 4.86234 15.3018 4.94388L13.9283 5.71572V1.51353C13.9283 1.22759 13.7833 0.966719 13.5405 0.815844C13.2977 0.664938 12.9996 0.650469 12.7434 0.777219L12.1957 1.04794L11.1898 0.587031C10.9725 0.487469 10.7233 0.487469 10.506 0.587031L9.49244 1.05141L8.47891 0.587031C8.26166 0.4875 8.01237 0.487469 7.79506 0.587031L6.7815 1.05141L5.76788 0.587031C5.55059 0.487469 5.30131 0.4875 5.08406 0.587031L4.05944 1.05647L3.20513 0.709031C2.95153 0.605906 2.66456 0.635594 2.43747 0.788438C2.21038 0.941313 2.07478 1.19609 2.07478 1.46991V5.71753L0.698156 4.94394C0.553031 4.86238 0.375594 4.86394 0.231937 4.94803C0.0882812 5.03212 0 5.18613 0 5.35263V8.24147C0 8.92103 0.277719 9.56231 0.781969 10.0472C1.18159 10.4314 1.67994 10.6761 2.21431 10.7566C2.31375 11.1791 2.46425 11.582 2.65897 11.9586H0.468625C0.0414375 11.9593 -0.161906 12.4885 0.1545 12.7753L4.14822 16.3838C4.17537 16.4086 4.21809 16.4417 4.27734 16.4672C4.35334 16.4998 4.42159 16.5048 4.46238 16.5046ZM15.0627 6.15366V8.24147C15.0627 8.93628 14.5777 9.54466 13.9237 9.76253C13.9265 9.69244 13.9283 9.62209 13.9283 9.55134V6.79116L15.0627 6.15366ZM8.67216 13.8715H7.33091C5.06428 13.8715 3.2 12.1158 3.0255 9.89259H6.39991C6.82281 9.89259 7.22034 9.72787 7.51919 9.42891L7.53334 9.41478C7.77378 9.16413 8.20634 9.16416 8.44678 9.41478C8.74578 9.71388 9.14334 9.87862 9.56622 9.87862H12.9787C12.8109 12.1084 10.9435 13.8715 8.67216 13.8715ZM12.991 6.46988C12.9875 6.50334 12.9872 6.53728 12.991 6.57113V8.94103H9.56619C9.39366 8.94103 9.23147 8.87384 9.1095 8.75181C8.52041 8.1375 7.45981 8.13747 6.87078 8.75163L6.85663 8.76575C6.73462 8.88778 6.57244 8.955 6.39994 8.955H3.01206V5.46688H12.9911L12.991 6.46988ZM3.89406 2.00125C4.01375 2.04997 4.14822 2.04703 4.26569 1.99319L5.42603 1.46156L6.58638 1.99319C6.71025 2.04991 6.85275 2.04997 6.97666 1.99319L8.137 1.46156L9.29737 1.99319C9.42131 2.04994 9.56378 2.04994 9.68766 1.99319L10.848 1.46156L12.0083 1.99319C12.1366 2.05197 12.2846 2.04978 12.4111 1.98725L12.9912 1.70053V4.52934H3.01206V1.64259L3.89406 2.00125ZM0.93725 8.24147V6.15366L2.07478 6.79288V9.55134C2.07478 9.62222 2.07659 9.69266 2.07941 9.76288C1.42372 9.54525 0.93725 8.93663 0.93725 8.24147ZM3.27853 12.8962C3.49359 13.1564 3.73319 13.3957 3.99372 13.6104V14.9808L1.68656 12.8962H3.2785L3.27853 12.8962ZM4.93097 15.5671V14.2282C5.65081 14.5993 6.46681 14.8091 7.33091 14.8091H8.67216C9.53659 14.8091 10.3529 14.5991 11.073 14.2277V15.5671H4.93097ZM14.3143 12.8962L12.0103 14.98V13.6096C12.2705 13.3951 12.5098 13.1561 12.7246 12.8962H14.3143Z" fill="#F6FEFF"/>
</g>
</svg>
